<?xml version="1.0" encoding="utf-8"?>
<!-- Generator: Adobe Illustrator 16.0.0, SVG Export Plug-In . SVG Version: 6.00 Build 0)  -->
<!DOCTYPE svg PUBLIC "-//W3C//DTD SVG 1.1//EN" "http://www.w3.org/Graphics/SVG/1.1/DTD/svg11.dtd">
<svg version="1.1" id="Capa_1" xmlns="http://www.w3.org/2000/svg" xmlns:xlink="http://www.w3.org/1999/xlink" x="0px" y="0px"
	 width="126.563px" height="141.73px" viewBox="0 0 126.563 141.73" enable-background="new 0 0 126.563 141.73"
	 xml:space="preserve">
<g>
	<path d="M123.085,118.945L98.598,83.98c5.721-8.46,9.071-18.651,9.071-29.615c0-3.393-0.412-6.757-1.049-10.072
		c6.456-3.932,10.82-10.975,10.82-19.071c0-12.342-10.037-22.382-22.383-22.382c-5.546,0-10.555,2.098-14.472,5.445
		c-7.883-4.432-16.737-6.869-25.858-6.869c-29.206,0-52.963,23.754-52.963,52.949c0,29.202,23.757,52.955,52.963,52.955
		c7.246,0,14.157-1.469,20.452-4.119l5.092,7.274c0.007,0.014,0.007,0.021,0.014,0.035c0.008,0.007,0.015,0.014,0.021,0.021
		l18.024,25.74c1.854,2.63,4.806,4.043,7.792,4.043c1.882,0,3.771-0.56,5.421-1.714l9.219-6.442c2.07-1.455,3.456-3.63,3.89-6.134
		C125.093,123.521,124.533,121.009,123.085,118.945z M110.516,25.222c0,8.523-6.932,15.458-15.458,15.458
		s-15.465-6.935-15.465-15.458c0-8.522,6.938-15.457,15.465-15.457S110.516,16.699,110.516,25.222z M8.689,54.365
		c0-25.377,20.655-46.024,46.038-46.024c7.463,0,14.709,1.896,21.257,5.319c-2.063,3.386-3.315,7.316-3.315,11.562
		c0,12.343,10.044,22.383,22.389,22.383c1.735,0,3.407-0.241,5.022-0.615c0.392,2.438,0.664,4.896,0.664,7.376
		c0,25.38-20.641,46.031-46.017,46.031C29.344,100.396,8.689,79.745,8.689,54.365z M94.1,89.646l3.141,4.477l-13.297,9.513
		l-2.531-3.609C86.168,97.234,90.441,93.724,94.1,89.646z M116.79,126.479l-9.226,6.449c-1.112,0.79-2.763,0.497-3.561-0.637
		l-16.087-22.977l13.296-9.52l16.199,23.131c0.393,0.553,0.539,1.23,0.42,1.902C117.713,125.507,117.343,126.094,116.79,126.479z"/>
	<path d="M54.728,53.351c6.89,0,12.492-5.606,12.492-12.499c0-6.89-5.602-12.496-12.492-12.496c-6.904,0-12.521,5.606-12.521,12.496
		C42.207,47.744,47.824,53.351,54.728,53.351z M54.728,35.28c3.07,0,5.567,2.501,5.567,5.571c0,3.074-2.497,5.574-5.567,5.574
		c-3.084,0-5.596-2.5-5.596-5.574C49.132,37.781,51.643,35.28,54.728,35.28z"/>
	<path d="M54.728,54.525c-12.345,0-22.39,10.041-22.39,22.387c0,1.913,1.549,3.462,3.462,3.462h37.84
		c1.909,0,3.463-1.549,3.463-3.462C77.104,64.566,67.065,54.525,54.728,54.525z M39.654,73.449
		c1.577-6.865,7.736-11.999,15.073-11.999c7.33,0,13.481,5.134,15.059,11.999H39.654z"/>
	<path d="M82.223,26.506l3.036,5.34c0.931,1.718,2.511,2.851,4.329,3.113c0.267,0.034,0.532,0.056,0.798,0.056
		c1.546,0,3.043-0.641,4.176-1.787l12.072-11.855c1.364-1.344,1.385-3.536,0.042-4.9c-1.343-1.367-3.539-1.385-4.896-0.045
		L90.665,27.342l-2.427-4.264c-0.951-1.664-3.07-2.249-4.722-1.297C81.853,22.729,81.271,24.845,82.223,26.506z"/>
</g>
</svg>
