<?xml version="1.0" encoding="utf-8"?>
<!-- Generator: Adobe Illustrator 16.0.0, SVG Export Plug-In . SVG Version: 6.00 Build 0)  -->
<!DOCTYPE svg PUBLIC "-//W3C//DTD SVG 1.1//EN" "http://www.w3.org/Graphics/SVG/1.1/DTD/svg11.dtd">
<svg version="1.1" id="Capa_1" xmlns="http://www.w3.org/2000/svg" xmlns:xlink="http://www.w3.org/1999/xlink" x="0px" y="0px"
	 width="141.736px" height="114.5px" viewBox="0 0 141.736 114.5" enable-background="new 0 0 141.736 114.5" xml:space="preserve">
<g>
	<path d="M134.523,74.892c-1.637-0.438-3.4-0.324-4.975,0.313c-0.227,0.056-0.438,0.144-0.639,0.262l-28.504,16.455l-33.897-9.865
		c-0.669-0.2-1.225-0.638-1.569-1.238c-0.744-1.287-0.3-2.944,0.988-3.688c0.668-0.388,1.432-0.469,2.263-0.2l21.481,5.752
		c0.301,0.088,0.594,0.112,0.881,0.075c1.539,0.106,3.059-0.25,4.439-1.032c3.727-2.156,5.008-6.945,2.857-10.684
		c-0.895-1.544-2.25-2.713-3.889-3.363c-0.094-0.037-0.193-0.075-0.295-0.112l-0.049-0.013c-0.145-0.05-0.287-0.094-0.438-0.138
		L50.124,53.983c-3.514-1.097-8.759-0.519-11.966,1.322L17.19,67.402l-1.875-3.251c-0.713-1.222-2.275-1.638-3.501-0.938
		l-9.115,5.264c-0.588,0.338-1.019,0.9-1.194,1.551c-0.175,0.663-0.081,1.356,0.256,1.95l22.1,38.279
		c0.475,0.818,1.338,1.281,2.219,1.281c0.438,0,0.875-0.112,1.282-0.344l9.115-5.258c0.588-0.344,1.019-0.9,1.194-1.562
		c0.175-0.65,0.081-1.351-0.256-1.938l-1.875-3.251l1.469-0.85c1.307-0.751,4.57-1.113,7.002-0.463l46.412,12.44
		c5.59,1.494,5.59,1.494,5.982,1.494c0.752,0,0.752,0,6.062-3.069l32.82-18.979c2.338-0.888,4.113-2.863,4.764-5.283
		C141.164,80.306,138.688,76.005,134.523,74.892z M27.018,105.475L7.481,71.629l4.676-2.701l1.875,3.251l0,0l7.896,13.679
		l9.765,16.917L27.018,105.475z M135.1,83.145c-0.225,0.85-0.826,1.519-2.014,2.007l-33.18,19.154
		c-1.582,0.919-2.994,1.726-3.846,2.207c-0.955-0.25-2.537-0.675-4.312-1.15L45.335,92.935c-1.294-0.351-2.738-0.52-4.169-0.52
		c-2.532,0-5.045,0.52-6.721,1.481l-1.469,0.851l-9.165-15.879l-4.058-7.027l20.962-12.097c1.976-1.125,5.727-1.547,7.877-0.872
		l43.037,13.426c0.031,0.006,0.062,0.019,0.1,0.031l0.27,0.081c0.6,0.219,1.094,0.632,1.412,1.188
		c0.744,1.294,0.307,2.951-0.963,3.683c-0.549,0.307-1.137,0.425-1.75,0.344c-0.068-0.006-0.137-0.019-0.207-0.019l-20.874-5.602
		c-2.075-0.65-4.345-0.4-6.245,0.688c-3.732,2.157-5.02,6.952-2.87,10.69c1,1.738,2.613,3.013,4.558,3.588l34.966,10.178
		c0.668,0.188,1.391,0.101,1.99-0.25l29.096-16.792c0.062-0.024,0.137-0.05,0.199-0.087c0.426-0.2,1.088-0.388,1.889-0.175
		C134.637,80.225,135.486,81.713,135.1,83.145z"/>
	<path d="M112.605,56.891h-6.877c-2.725,0-4.785,1.606-4.785,3.738c0,1.694,1.322,3.017,3.223,3.507
		c0.602,1.529,2.301,2.592,4.502,2.592h1c2.201,0,3.914-1.062,4.514-2.592c1.9-0.49,3.213-1.812,3.213-3.507
		C117.395,58.497,115.332,56.891,112.605,56.891z"/>
	<path d="M99.031,45.378c0.812,1.235,1.912,2.923,1.912,3.545v3.529c0,1.413,1.148,2.56,2.561,2.56h11.328
		c1.412,0,2.562-1.147,2.562-2.56v-3.529c0-0.622,1.102-2.31,1.914-3.545c1.912-2.916,4.525-6.908,4.525-11.95
		c0-8.08-6.576-14.654-14.666-14.654c-8.08,0-14.656,6.574-14.656,14.654C94.512,38.47,97.125,42.462,99.031,45.378z
		 M109.168,23.895c5.264,0,9.539,4.276,9.539,9.534c0,3.513-1.963,6.508-3.688,9.146c-1.477,2.254-2.75,4.201-2.75,6.349v0.969
		h-6.203v-0.969c0-2.147-1.275-4.095-2.75-6.349c-1.725-2.638-3.68-5.633-3.68-9.146C99.637,28.17,103.916,23.895,109.168,23.895z"
		/>
	<path d="M80.994,35.988h7.01c1.412,0,2.562-1.147,2.562-2.56s-1.15-2.56-2.562-2.56h-7.01c-1.412,0-2.562,1.147-2.562,2.56
		S79.582,35.988,80.994,35.988z"/>
	<path d="M109.168,14.82c1.412,0,2.562-1.147,2.562-2.56V5.252c0-1.413-1.15-2.56-2.562-2.56s-2.562,1.147-2.562,2.56v7.008
		C106.605,13.673,107.756,14.82,109.168,14.82z"/>
	<path d="M124.135,21.019c0.662,0,1.312-0.25,1.812-0.75l4.963-4.955c1.002-0.997,1.002-2.619,0-3.62c-1-1-2.625-1-3.625,0
		l-4.965,4.955c-1,0.997-1,2.62,0,3.62C122.822,20.769,123.484,21.019,124.135,21.019z"/>
	<path d="M92.391,20.269c0.502,0.5,1.158,0.75,1.814,0.75s1.312-0.25,1.812-0.75c1-1,1-2.623,0-3.62l-4.957-4.955
		c-1-1-2.627-1-3.627,0c-1,1-1,2.623,0,3.62L92.391,20.269z"/>
	<path d="M127.773,33.428c0,1.413,1.15,2.56,2.562,2.56h7.014c1.414,0,2.564-1.147,2.564-2.56s-1.15-2.56-2.564-2.56h-7.014
		C128.924,30.868,127.773,32.015,127.773,33.428z"/>
</g>
</svg>
