<?xml version="1.0" encoding="UTF-8" standalone="no"?>
<svg width="66px" height="36px" viewBox="0 0 66 36" version="1.1" xmlns="http://www.w3.org/2000/svg" xmlns:xlink="http://www.w3.org/1999/xlink">
    <!-- Generator: Sketch 39.1 (31720) - http://www.bohemiancoding.com/sketch -->
    <title>Page 1</title>
    <desc>Created with Sketch.</desc>
    <defs>
        <polygon id="path-1" points="13.3002866 19.9413795 13.3002866 0.029555122 0.129875173 0.029555122 0.129875173 19.9413795"></polygon>
    </defs>
    <g id="Page-1" stroke="none" stroke-width="1" fill="none" fill-rule="evenodd">
        <g id="Productos" transform="translate(-219.000000, -11.000000)">
            <g id="Page-1" transform="translate(219.000000, 11.000000)">
                <path d="M2.16287592,17.3720156 C2.16287592,17.3720156 0,17.3720156 0,19.5434693 L0,32.5724059 C0,32.5724059 0,34.7440741 2.16287592,34.7440741 L15.1403452,34.7440741 C15.1403452,34.7440741 17.3032212,34.7440741 17.3032212,32.5724059 L17.3032212,19.5434693 C17.3032212,19.5434693 17.3032212,17.3720156 15.1403452,17.3720156 L2.16287592,17.3720156 Z" id="Fill-1" fill="#FCA32B"></path>
                <path d="M19.466204,6.4390244e-05 C19.466204,6.4390244e-05 17.3033281,6.4390244e-05 17.3033281,2.17151805 L17.3033281,15.2004546 C17.3033281,15.2004546 17.3033281,17.3721229 19.466204,17.3721229 L32.4436733,17.3721229 C32.4436733,17.3721229 34.6065492,17.3721229 34.6065492,15.2004546 L34.6065492,2.17151805 C34.6065492,2.17151805 34.6065492,6.4390244e-05 32.4436733,6.4390244e-05 L19.466204,6.4390244e-05 Z" id="Fill-3" fill="#079473"></path>
                <path d="M11.3157726,9.56890537 C11.3157726,9.56890537 9.80131051,9.56890537 9.80131051,11.0893737 L9.80131051,18.7953834 C9.80131051,18.7953834 9.80131051,20.3158517 11.3157726,20.3158517 L18.6700211,20.3158517 C18.6700211,20.3158517 20.1844832,20.3158517 20.1844832,18.7953834 L20.1844832,11.0893737 C20.1844832,11.0893737 20.1844832,9.56890537 18.6700211,9.56890537 L11.3157726,9.56890537 Z" id="Fill-5" fill="#04B594"></path>
                <path d="M13.8064898,1.62868683 C13.8064898,1.62868683 15.9693657,1.62868683 15.9693657,3.80014049 L15.9693657,13.5720039 C15.9693657,13.5720039 15.9693657,15.7434576 13.8064898,15.7434576 L4.07344126,15.7434576 C4.07344126,15.7434576 1.91035155,15.7434576 1.91035155,13.5720039 L1.91035155,3.80014049 C1.91035155,3.80014049 1.91035155,1.62868683 4.07344126,1.62868683 L13.8064898,1.62868683 Z" id="Fill-7" fill="#A2CD3A"></path>
                <path d="M30.3457243,31.5355512 C29.9322616,31.8208 29.4935721,32.073639 29.0285869,32.2938537 C28.5638155,32.5144976 28.0825826,32.6862049 27.5857433,32.8091902 C27.0884763,32.9326049 26.581589,32.9939902 26.0652951,32.9939902 C24.9933707,32.9939902 24.0088848,32.7898732 23.1116237,32.3814244 C22.2139351,31.9729756 21.4391735,31.4125659 20.7873391,30.6993366 C20.135291,29.9865366 19.6251969,29.1601951 19.2572706,28.2200976 C18.8893444,27.2804293 18.7052744,26.2725073 18.7052744,25.1963317 C18.7052744,24.133678 18.8893444,23.128761 19.2572706,22.182439 C19.6251969,21.2363317 20.135291,20.4097756 20.7873391,19.7032 C21.4391735,18.9966244 22.2139351,18.4392195 23.1116237,18.0307707 C24.0088848,17.6225366 24.9933707,17.4182049 26.0652951,17.4182049 C27.1111377,17.4182049 28.0763828,17.6160976 28.9608167,18.0114537 C29.8452506,18.4070244 30.6362599,18.9481171 31.333417,19.635161 C31.5271073,19.8294049 31.7079705,19.9266341 31.8757928,19.9266341 C31.9790516,19.9266341 32.0724762,19.8912195 32.156708,19.8197463 C32.2405122,19.7487024 32.340778,19.6418146 32.4568639,19.4988683 L32.8636992,18.9738732 C32.9797852,18.8444488 33.0379351,18.7017171 33.0379351,18.5461073 C33.0379351,18.3904976 32.9731578,18.238322 32.8442447,18.0891512 C32.7151178,17.9401951 32.5793635,17.8139902 32.4374094,17.7098927 C31.5591753,16.9322732 30.5845236,16.326361 29.5128129,15.8919415 C28.4408884,15.4577366 27.2789599,15.2405268 26.0265998,15.2405268 C24.6446852,15.2405268 23.3730844,15.4998049 22.2109421,16.0181463 C21.0487998,16.5369171 20.0416526,17.2467122 19.1895004,18.1475317 C18.3373482,19.0485659 17.6720453,20.1049951 17.1946605,21.3170341 C16.7166343,22.5292878 16.4778351,23.8224585 16.4778351,25.1963317 C16.4778351,26.5837268 16.7166343,27.8799024 17.1946605,29.0855024 C17.6720453,30.2911024 18.3373482,31.3477463 19.1895004,32.2550049 C20.0416526,33.162478 21.0487998,33.8757073 22.2109421,34.3940488 C23.3730844,34.9123902 24.6446852,35.1718829 26.0265998,35.1718829 C27.3563506,35.1718829 28.5734359,34.9220488 29.6774283,34.423239 C30.7814208,33.9242146 31.7853612,33.2468293 32.6892496,32.3910829 C32.869899,32.2097171 33.0056533,32.0639805 33.0960849,31.9536585 C33.1863028,31.8435512 33.2249981,31.7366634 33.2121709,31.6327805 C33.2121709,31.5291122 33.1604346,31.4061268 33.0573896,31.2633951 L32.5537091,30.6021073 C32.4763185,30.4986537 32.3920867,30.4271805 32.3018689,30.3883317 C32.2114373,30.3494829 32.127633,30.3299512 32.0502424,30.3299512 C31.8822064,30.3299512 31.6949296,30.4207415 31.488412,30.6021073 C31.1397266,30.9395122 30.7587594,31.2505171 30.3457243,31.5355512" id="Fill-9" fill="#58595B"></path>
                <path d="M50.8115716,6.64563122 C50.8115716,6.4123239 50.737174,6.2275239 50.5888063,6.09144585 C50.4402248,5.9553678 50.2305005,5.88732878 49.9594194,5.88732878 L49.3975891,5.88732878 C49.126508,5.88732878 48.9197767,5.9553678 48.7778226,6.09144585 C48.6356547,6.2275239 48.5648915,6.4123239 48.5648915,6.64563122 L48.5648915,19.7906849 C48.2677285,19.1684605 47.8995885,18.5850849 47.460899,18.040558 C47.021782,17.4960312 46.5116879,17.019758 45.9308305,16.6113093 C45.3497594,16.2030751 44.687877,15.8821971 43.9453972,15.6486751 C43.2027037,15.4153678 42.3862538,15.2988215 41.4954063,15.2988215 C40.2297915,15.2988215 39.0452016,15.5583141 37.9412092,16.0766556 C36.8372168,16.5952117 35.8717579,17.3050068 35.0456877,18.2058263 C34.2191899,19.1070751 33.5703485,20.1600702 33.0991635,21.3656702 C32.6275509,22.5712702 32.3921722,23.8614361 32.3921722,25.2353093 C32.3921722,26.6224898 32.6275509,27.9186654 33.0991635,29.1242654 C33.5703485,30.3298654 34.2191899,31.3800702 35.0456877,32.2744507 C35.8717579,33.1690459 36.8372168,33.8756215 37.9412092,34.3939629 C39.0452016,34.9123044 40.2297915,35.1717971 41.4954063,35.1717971 C42.6314667,35.1717971 43.606546,35.035719 44.4200028,34.7635629 C45.2334597,34.4911922 45.9209964,34.1606556 46.4828268,33.7717385 C47.0444433,33.3828215 47.489974,32.981241 47.8192049,32.5661385 C48.1484358,32.1514654 48.3968554,31.794958 48.5648915,31.4966166 L48.5648915,33.9273483 C48.5648915,34.4589971 48.8487997,34.7244995 49.4170436,34.7244995 L49.9981148,34.7244995 C50.5404906,34.7244995 50.8115716,34.4589971 50.8115716,33.9273483 L50.8115716,6.64563122 Z M48.1388154,28.2687337 C47.764048,29.2152702 47.2541677,30.0416117 46.6085331,30.7479727 C45.9628985,31.4547629 45.2140051,32.0119532 44.3618529,32.420402 C43.5097008,32.8286361 42.6058123,33.0327532 41.6504014,33.0327532 C40.6945629,33.0327532 39.7908882,32.8286361 38.9387361,32.420402 C38.0865839,32.0119532 37.3408973,31.4547629 36.7016763,30.7479727 C36.0624553,30.0416117 35.5589886,29.2152702 35.1908486,28.2687337 C34.8229223,27.3226263 34.6388523,26.3179239 34.6388523,25.2546263 C34.6388523,24.1919727 34.8229223,23.1870556 35.1908486,22.2407337 C35.5589886,21.2946263 36.0624553,20.4680702 36.7016763,19.7614946 C37.3408973,19.0551337 38.0865839,18.4975141 38.9387361,18.0890654 C39.7908882,17.6808312 40.6945629,17.4767141 41.6504014,17.4767141 C42.6058123,17.4767141 43.5097008,17.6808312 44.3618529,18.0890654 C45.2140051,18.4975141 45.9628985,19.0551337 46.6085331,19.7614946 C47.2541677,20.4680702 47.764048,21.2946263 48.1388154,22.2407337 C48.5131552,23.1870556 48.700432,24.1919727 48.700432,25.2546263 C48.700432,26.3179239 48.5131552,27.3226263 48.1388154,28.2687337 L48.1388154,28.2687337 Z" id="Fill-11" fill="#58595B"></path>
                <g id="Group-15" transform="translate(51.736283, 15.210907)">
                    <mask id="mask-2" fill="white">
                        <use xlink:href="#path-1"></use>
                    </mask>
                    <g id="Clip-14"></g>
                    <path d="M10.7437232,4.36580878 L10.860023,4.52141854 C10.963068,4.66415024 11.0468722,4.77425756 11.1116495,4.85195512 C11.1762129,4.92965268 11.2794717,4.9687161 11.4216396,4.9687161 C11.5505527,4.9687161 11.7055478,4.91033561 11.886411,4.79357463 L12.5643273,4.38534049 C12.6675861,4.32052098 12.7449767,4.23938927 12.796713,4.14216 C12.8482355,4.04493073 12.8743174,3.95113561 12.8743174,3.86013073 C12.8743174,3.75667707 12.8418219,3.62682341 12.7774722,3.47142829 C12.1059695,2.29179902 11.2503968,1.42317463 10.2111816,0.865769756 C9.17153885,0.308364878 8.00618977,0.029555122 6.71513435,0.029555122 C5.82407308,0.029555122 5.01360924,0.155974634 4.2843842,0.408599024 C3.55473158,0.661438049 2.93496512,1.02116488 2.42508481,1.48799415 C1.91477693,1.95460878 1.51777579,2.51222829 1.23386759,3.16020878 C0.949745605,3.80861854 0.807791507,4.5280722 0.807791507,5.31856976 C0.807791507,5.99273561 0.968986372,6.61517463 1.29201746,7.18545756 C1.61462098,7.75595512 2.03770405,8.26463805 2.56062532,8.71172098 C3.08354659,9.15901854 3.67723113,9.54493073 4.34253407,9.86881366 C5.00740944,10.1929112 5.67549161,10.4521893 6.34699435,10.6466478 C6.88937018,10.7762868 7.44435939,10.9449893 8.01281714,11.1521112 C8.58084732,11.3596624 9.09735501,11.6159356 9.56234019,11.9202868 C10.0271116,12.2250673 10.407865,12.5880137 10.7050279,13.0091259 C11.0017633,13.4306673 11.1505586,13.9200332 11.1505586,14.477438 C11.1505586,15.0736917 11.0017633,15.5858088 10.7050279,16.0135746 C10.407865,16.4413405 10.0335252,16.7946283 9.58158096,17.0732234 C9.12942295,17.3522478 8.6389972,17.5593698 8.10966233,17.6954478 C7.5798999,17.8317405 7.08306056,17.8997795 6.61828916,17.8997795 C6.26960371,17.8997795 5.88521596,17.8446185 5.46576725,17.7345112 C5.04610476,17.6244039 4.63306964,17.4591356 4.22623433,17.2384917 C3.8196128,17.0182771 3.44484543,16.746121 3.10278736,16.4218088 C2.7605155,16.0979259 2.4860139,15.7285405 2.27971013,15.313438 L2.18286494,15.1189795 C2.1180877,15.0024332 2.04069706,14.9052039 1.95047924,14.8272917 C1.86004764,14.7495941 1.75016149,14.7107454 1.62124835,14.7107454 C1.54364393,14.7107454 1.44679874,14.7300624 1.33071278,14.7691259 L0.594646573,15.0996624 C0.452478689,15.1646966 0.339599526,15.2584917 0.255795299,15.3814771 C0.1715635,15.5048917 0.129875173,15.6182185 0.129875173,15.7218868 C0.129875173,15.7995844 0.149115939,15.8841502 0.188025044,15.9747259 C0.394328817,16.622921 0.707525736,17.196638 1.12718823,17.6954478 C1.54663693,18.1946868 2.04390385,18.60936 2.61856141,18.9401112 C3.19300517,19.2706478 3.8196128,19.5202673 4.49731535,19.6887551 C5.17523168,19.8570283 5.88222295,19.9413795 6.61828916,19.9413795 C7.50913664,19.9413795 8.35808201,19.821399 9.16512526,19.5816527 C9.97195473,19.3419063 10.6823666,18.9886185 11.2957195,18.5220039 C11.9088585,18.0551746 12.3962913,17.4786673 12.7580177,16.7914088 C13.1193165,16.1043649 13.3003935,15.3200917 13.3003935,14.4383746 C13.3003935,13.7515454 13.1580119,13.1097893 12.8743174,12.513321 C12.5899817,11.917282 12.1833601,11.37576 11.6540253,10.8896137 C11.1244766,10.4034673 10.4822626,9.97269659 9.72695564,9.59665756 C8.97143488,9.22083317 8.12227573,8.90317463 7.17990575,8.64368195 L6.5988346,8.48828683 C6.21145384,8.38461854 5.80141173,8.24854049 5.36892206,8.07983805 C4.93621861,7.91156488 4.53921746,7.70057951 4.17791863,7.44795512 C3.81619222,7.1951161 3.51603626,6.89055024 3.27723697,6.53404293 C3.03801011,6.17753561 2.91893115,5.76586732 2.91893115,5.29925268 C2.91893115,4.81976 3.01235576,4.38212098 3.19963255,3.98655024 C3.38669556,3.59140878 3.64815619,3.25099902 3.98422824,2.96575024 C4.31965894,2.6807161 4.72008066,2.4600722 5.18506585,2.30467707 C5.64983725,2.14906732 6.15971756,2.07136976 6.71513435,2.07136976 C7.60598183,2.07136976 8.40019791,2.28514537 9.09735501,2.71291122 C9.79472589,3.14067707 10.3497151,3.69185756 10.7631778,4.36580878 L10.7437232,4.36580878 Z" id="Fill-13" fill="#58595B" mask="url(#mask-2)"></path>
                </g>
            </g>
        </g>
    </g>
</svg>