<?xml version="1.0" encoding="utf-8"?>
<!-- Generator: Adobe Illustrator 16.0.0, SVG Export Plug-In . SVG Version: 6.00 Build 0)  -->
<!DOCTYPE svg PUBLIC "-//W3C//DTD SVG 1.1//EN" "http://www.w3.org/Graphics/SVG/1.1/DTD/svg11.dtd">
<svg version="1.1" id="Capa_1" xmlns="http://www.w3.org/2000/svg" xmlns:xlink="http://www.w3.org/1999/xlink" x="0px" y="0px"
	 width="249.667px" height="80.666px" viewBox="0 0 249.667 80.666" enable-background="new 0 0 249.667 80.666"
	 xml:space="preserve">
<g>
	<g>
		<g>
			<g>
				<path fill="#005694" d="M85.421,79.366c-2.07,0-4.133-1-5.432-2.853l-0.428-0.615l1.846-1.287l0.426,0.611
					c1.373,1.959,4.02,2.486,5.898,1.17c1.496-1.049,2.104-3.039,1.479-4.841l2.127-0.736c0.953,2.746,0.002,5.798-2.314,7.42
					C87.931,79.002,86.675,79.366,85.421,79.366z"/>
			</g>
			<path fill="#005694" d="M46.788,37.641c0-7.663,6.211-13.875,13.874-13.875c7.661,0,13.872,6.212,13.872,13.875
				c0,7.66-6.211,13.873-13.872,13.873C52.999,51.514,46.788,45.301,46.788,37.641z"/>
			<g>
				<path fill="#005694" d="M92.911,10.557c0.029,0.016,0.057,0.031,0.084,0.047l-0.158-0.095
					C82.71,4.326,71.657,1.131,60.662,1.306C38.954,1.653,17.15,14.086,1.867,37.641c20.565,0,32.374-9.566,42.758-16.371
					c0.727-0.477,1.447-0.939,2.162-1.385c0.227-0.141,0.675-0.42,0.675-0.42c3.705-2.695,8.267-4.286,13.2-4.286
					c1.209,0,2.396,0.095,3.553,0.28c3.563,0.564,6.849,1.971,9.647,4.006l-0.004,0.004c9.508,5.78,19.666,14.956,36.445,17.498
					c2.85,0.432,5.891,0.674,9.15,0.674C112.183,25.893,103.009,16.739,92.911,10.557z"/>
				<g>
					<path fill="#005694" d="M68.854,58.555c0,0-0.584,0.226-0.881,0.328c-2.291,0.789-4.752,1.217-7.312,1.217
						c-12.405,0-22.461-10.056-22.461-22.459c0-2.084,0.283-4.099,0.812-6.012c-3.517,2.341-7.306,4.744-11.599,6.815l0.001,0.001
						c-5.861,2.828-12.66,5.039-20.99,5.639c8.676,11.284,18.987,19.455,29.965,24.373c7.867,3.525,16.076,5.378,24.271,5.509
						c5.784,0.092,11.585-0.75,17.257-2.466l-8.236-11.762L68.854,58.555z"/>
					<polygon fill="#005694" points="6.423,44.084 6.426,44.084 6.422,44.082 					"/>
					<polygon fill="#005694" points="39.015,31.627 39.014,31.629 39.016,31.627 					"/>
					<path fill="#005694" d="M82.308,31.629v0.002c0.531,1.912,0.814,3.927,0.814,6.01c0,5.691-2.119,10.891-5.611,14.85
						l10.48,14.969c10.043-5.056,19.365-12.96,27.082-23.363C100.54,43.091,90.659,37.188,82.308,31.629z"/>
				</g>
			</g>
		</g>
		<g>
			<radialGradient id="SVGID_1_" cx="34.7734" cy="8.144" r="61.0723" gradientUnits="userSpaceOnUse">
				<stop  offset="0" style="stop-color:#000000;stop-opacity:0"/>
				<stop  offset="0.6015" style="stop-color:#000000;stop-opacity:0"/>
				<stop  offset="0.7005" style="stop-color:#000000;stop-opacity:0"/>
				<stop  offset="0.9598" style="stop-color:#000000;stop-opacity:0.3463"/>
				<stop  offset="1" style="stop-color:#000000;stop-opacity:0.4"/>
			</radialGradient>
			<path fill="url(#SVGID_1_)" d="M6.423,44.084c8.332-0.6,15.132-2.811,20.993-5.639C33.055,51.2,45.818,60.1,60.662,60.1
				c2.56,0,5.021-0.428,7.312-1.217c0.297-0.103,0.881-0.328,0.881-0.328l0.828,1.184c-8.013,5.649-17.788,8.967-28.338,8.967
				c-1.671,0-3.322-0.084-4.95-0.246l-0.004-0.002C25.412,63.54,15.1,55.367,6.422,44.082"/>
			<radialGradient id="SVGID_2_" cx="65.4409" cy="18.7754" r="42.4922" gradientUnits="userSpaceOnUse">
				<stop  offset="0" style="stop-color:#000000;stop-opacity:0"/>
				<stop  offset="0.5187" style="stop-color:#000000;stop-opacity:0"/>
				<stop  offset="0.6041" style="stop-color:#000000;stop-opacity:0"/>
				<stop  offset="0.9439" style="stop-color:#000000;stop-opacity:0.3433"/>
				<stop  offset="1" style="stop-color:#000000;stop-opacity:0.4"/>
			</radialGradient>
			<path fill="url(#SVGID_2_)" d="M39.015,31.627c-0.53,1.913-0.813,3.93-0.813,6.014c0,12.403,10.056,22.459,22.461,22.459
				c-14.844,0-27.607-8.9-33.247-21.655C31.708,36.372,35.498,33.969,39.015,31.627"/>
			<g>
				<radialGradient id="SVGID_3_" cx="78.6104" cy="58.2632" r="52.5606" gradientUnits="userSpaceOnUse">
					<stop  offset="0" style="stop-color:#000000;stop-opacity:0"/>
					<stop  offset="0.5998" style="stop-color:#000000;stop-opacity:0"/>
					<stop  offset="0.6986" style="stop-color:#000000;stop-opacity:0"/>
					<stop  offset="0.9676" style="stop-color:#000000;stop-opacity:0.3569"/>
					<stop  offset="1" style="stop-color:#000000;stop-opacity:0.4"/>
				</radialGradient>
				<path fill="url(#SVGID_3_)" d="M92.837,10.509c10.127,6.184,19.326,15.354,26.617,27.132c-3.26,0-6.301-0.242-9.15-0.674
					c-8.848-13.098-23.82-21.788-40.814-21.788c-1.783,0-3.543,0.095-5.274,0.28c-1.157-0.186-2.344-0.28-3.553-0.28
					c-4.934,0-9.495,1.591-13.2,4.286c0,0-0.448,0.279-0.675,0.42c-0.715,0.445-1.436,0.908-2.162,1.385
					c6.557-9.484,17.507-15.699,29.909-15.699c6.74,0,13.051,1.836,18.461,5.033"/>
				<radialGradient id="SVGID_4_" cx="74.6904" cy="44.3887" r="43.2481" gradientUnits="userSpaceOnUse">
					<stop  offset="0" style="stop-color:#FFFFFF;stop-opacity:0.5"/>
					<stop  offset="0.3726" style="stop-color:#FDFEFE;stop-opacity:0.3137"/>
					<stop  offset="0.5069" style="stop-color:#F6F8F9;stop-opacity:0.2466"/>
					<stop  offset="0.6026" style="stop-color:#EBEFF2;stop-opacity:0.1987"/>
					<stop  offset="0.68" style="stop-color:#DAE1E7;stop-opacity:0.16"/>
					<stop  offset="0.7463" style="stop-color:#C4D0D8;stop-opacity:0.1269"/>
					<stop  offset="0.805" style="stop-color:#A8BAC7;stop-opacity:0.0975"/>
					<stop  offset="0.8581" style="stop-color:#88A0B1;stop-opacity:0.0709"/>
					<stop  offset="0.9069" style="stop-color:#628299;stop-opacity:0.0465"/>
					<stop  offset="0.9523" style="stop-color:#37607D;stop-opacity:0.0238"/>
					<stop  offset="0.9926" style="stop-color:#093B5F;stop-opacity:0.0037"/>
					<stop  offset="1" style="stop-color:#003459;stop-opacity:0"/>
				</radialGradient>
				<path fill="url(#SVGID_4_)" d="M92.837,10.509C82.71,4.326,71.657,1.131,60.662,1.306C38.954,1.653,17.15,14.086,1.867,37.641
					c20.565,0,32.374-9.566,42.758-16.371c6.557-9.484,17.507-15.699,29.909-15.699c6.74,0,13.051,1.836,18.461,5.033"/>
				<radialGradient id="SVGID_5_" cx="69.1914" cy="65.0356" r="49.4779" gradientUnits="userSpaceOnUse">
					<stop  offset="0" style="stop-color:#000000;stop-opacity:0"/>
					<stop  offset="0.659" style="stop-color:#000000;stop-opacity:1.227884e-04"/>
					<stop  offset="0.7675" style="stop-color:#000000;stop-opacity:1.430000e-04"/>
					<stop  offset="0.9834" style="stop-color:#000000;stop-opacity:0.3714"/>
					<stop  offset="1" style="stop-color:#000000;stop-opacity:0.4"/>
				</radialGradient>
				<path fill="url(#SVGID_5_)" d="M64.215,15.459c3.563,0.564,6.849,1.971,9.647,4.006l-0.004,0.004
					c9.508,5.78,19.666,14.956,36.445,17.498c-8.848-13.098-23.82-21.788-40.814-21.788C67.706,15.179,65.946,15.274,64.215,15.459z
					"/>
			</g>
			<radialGradient id="SVGID_6_" cx="43.5117" cy="20.4985" r="52.5395" gradientUnits="userSpaceOnUse">
				<stop  offset="0" style="stop-color:#FFFFFF;stop-opacity:0.5"/>
				<stop  offset="0.3726" style="stop-color:#FDFEFE;stop-opacity:0.3137"/>
				<stop  offset="0.5069" style="stop-color:#F6F8F9;stop-opacity:0.2466"/>
				<stop  offset="0.6026" style="stop-color:#EBEFF2;stop-opacity:0.1987"/>
				<stop  offset="0.68" style="stop-color:#DAE1E7;stop-opacity:0.16"/>
				<stop  offset="0.7463" style="stop-color:#C4D0D8;stop-opacity:0.1269"/>
				<stop  offset="0.805" style="stop-color:#A8BAC7;stop-opacity:0.0975"/>
				<stop  offset="0.8581" style="stop-color:#88A0B1;stop-opacity:0.0709"/>
				<stop  offset="0.9069" style="stop-color:#628299;stop-opacity:0.0465"/>
				<stop  offset="0.9523" style="stop-color:#37607D;stop-opacity:0.0238"/>
				<stop  offset="0.9926" style="stop-color:#093B5F;stop-opacity:0.0037"/>
				<stop  offset="1" style="stop-color:#003459;stop-opacity:0"/>
			</radialGradient>
			<path fill="url(#SVGID_6_)" d="M36.395,68.459c1.628,0.162,3.279,0.246,4.95,0.246c10.55,0,20.325-3.317,28.338-8.967
				L77.919,71.5c-5.672,1.716-11.473,2.558-17.257,2.466c-8.195-0.131-16.404-1.984-24.271-5.509"/>
		</g>
	</g>
	<g>
		<path fill="#003459" d="M132.866,34.242c-1.008-0.527-1.797-1.263-2.369-2.208c-0.572-0.945-0.857-2.019-0.857-3.219
			s0.285-2.273,0.857-3.219c0.572-0.945,1.361-1.682,2.369-2.208c1.008-0.527,2.141-0.79,3.398-0.79
			c1.154,0,2.186,0.204,3.091,0.611c0.906,0.408,1.653,0.997,2.243,1.767l-2.531,2.259c-0.736-0.928-1.604-1.393-2.6-1.393
			c-0.838,0-1.512,0.269-2.021,0.807c-0.51,0.538-0.764,1.26-0.764,2.166c0,0.906,0.254,1.628,0.764,2.166
			c0.51,0.538,1.184,0.807,2.021,0.807c0.996,0,1.863-0.464,2.6-1.393l2.531,2.259c-0.59,0.771-1.337,1.359-2.243,1.767
			c-0.905,0.408-1.937,0.612-3.091,0.612C135.007,35.032,133.874,34.768,132.866,34.242z"/>
		<path fill="#003459" d="M145.794,34.233c-1.02-0.532-1.818-1.271-2.396-2.217c-0.577-0.946-0.866-2.013-0.866-3.202
			s0.289-2.256,0.866-3.202c0.577-0.945,1.376-1.685,2.396-2.217s2.168-0.798,3.448-0.798c1.279,0,2.429,0.266,3.448,0.798
			s1.817,1.271,2.395,2.217c0.578,0.946,0.867,2.013,0.867,3.202s-0.289,2.256-0.867,3.202c-0.577,0.945-1.375,1.685-2.395,2.217
			c-1.02,0.532-2.169,0.798-3.448,0.798C147.962,35.032,146.813,34.765,145.794,34.233z M150.593,31.422
			c0.401-0.244,0.722-0.589,0.959-1.036c0.238-0.447,0.357-0.971,0.357-1.571s-0.119-1.124-0.357-1.571
			c-0.237-0.447-0.558-0.792-0.959-1.036c-0.402-0.244-0.853-0.365-1.351-0.365c-0.499,0-0.948,0.122-1.351,0.365
			s-0.723,0.589-0.96,1.036s-0.356,0.971-0.356,1.571s0.119,1.124,0.356,1.571s0.558,0.792,0.96,1.036s0.852,0.365,1.351,0.365
			C149.74,31.787,150.19,31.666,150.593,31.422z"/>
		<path fill="#003459" d="M169.644,22.869V34.76h-3.297l-4.518-5.402v5.402h-3.907V22.869h3.296l4.518,5.402v-5.402H169.644z"/>
		<path fill="#003459" d="M174.671,25.978h-3.482v-3.108h10.974v3.108h-3.482v8.782h-4.009V25.978z"/>
		<path fill="#003459" d="M188.804,31.77h-1.087v2.99h-4.009V22.869h5.725c1.098,0,2.055,0.181,2.871,0.543
			c0.814,0.362,1.443,0.883,1.885,1.562c0.441,0.68,0.663,1.473,0.663,2.378c0,0.849-0.192,1.591-0.577,2.225
			c-0.386,0.634-0.94,1.138-1.665,1.512l2.497,3.669h-4.281L188.804,31.77z M190.401,26.326c-0.272-0.243-0.68-0.365-1.224-0.365
			h-1.461v2.786h1.461c0.544,0,0.951-0.122,1.224-0.365c0.271-0.244,0.407-0.586,0.407-1.028
			C190.809,26.912,190.673,26.569,190.401,26.326z"/>
		<path fill="#003459" d="M199.658,34.233c-1.019-0.532-1.817-1.271-2.396-2.217c-0.577-0.946-0.865-2.013-0.865-3.202
			s0.288-2.256,0.865-3.202c0.578-0.945,1.377-1.685,2.396-2.217c1.02-0.532,2.169-0.798,3.448-0.798s2.43,0.266,3.449,0.798
			c1.019,0.532,1.816,1.271,2.395,2.217c0.578,0.946,0.866,2.013,0.866,3.202s-0.288,2.256-0.866,3.202
			c-0.578,0.945-1.376,1.685-2.395,2.217c-1.02,0.532-2.17,0.798-3.449,0.798S200.678,34.765,199.658,34.233z M204.457,31.422
			c0.401-0.244,0.722-0.589,0.96-1.036s0.357-0.971,0.357-1.571s-0.119-1.124-0.357-1.571s-0.559-0.792-0.96-1.036
			s-0.853-0.365-1.351-0.365s-0.948,0.122-1.35,0.365c-0.402,0.244-0.723,0.589-0.961,1.036c-0.237,0.447-0.355,0.971-0.355,1.571
			s0.118,1.124,0.355,1.571c0.238,0.447,0.559,0.792,0.961,1.036c0.401,0.244,0.852,0.365,1.35,0.365S204.056,31.666,204.457,31.422
			z"/>
		<path fill="#003459" d="M211.787,22.869h4.009v8.782h5.368v3.108h-9.377V22.869z"/>
		<path fill="#003459" d="M132.866,55.242c-1.008-0.527-1.797-1.263-2.369-2.208c-0.572-0.945-0.857-2.019-0.857-3.219
			s0.285-2.273,0.857-3.219c0.572-0.945,1.361-1.682,2.369-2.208c1.008-0.527,2.141-0.79,3.398-0.79
			c1.154,0,2.186,0.204,3.091,0.611c0.906,0.408,1.653,0.997,2.243,1.767l-2.531,2.259c-0.736-0.928-1.604-1.393-2.6-1.393
			c-0.838,0-1.512,0.269-2.021,0.807c-0.51,0.538-0.764,1.26-0.764,2.166c0,0.906,0.254,1.628,0.764,2.166
			c0.51,0.538,1.184,0.807,2.021,0.807c0.996,0,1.863-0.464,2.6-1.393l2.531,2.259c-0.59,0.771-1.337,1.359-2.243,1.767
			c-0.905,0.408-1.937,0.612-3.091,0.612C135.007,56.032,133.874,55.768,132.866,55.242z"/>
		<path fill="#003459" d="M143.263,43.869h4.008V55.76h-4.008V43.869z"/>
		<path fill="#003459" d="M151.144,54.554c-1.019-0.985-1.528-2.367-1.528-4.145v-6.54h4.009v6.421c0,0.872,0.156,1.506,0.467,1.902
			c0.312,0.396,0.762,0.595,1.352,0.595c0.588,0,1.039-0.198,1.35-0.595c0.312-0.396,0.467-1.03,0.467-1.902v-6.421h3.941v6.54
			c0,1.778-0.51,3.16-1.529,4.145c-1.019,0.985-2.439,1.478-4.264,1.478C153.585,56.032,152.163,55.539,151.144,54.554z"/>
		<path fill="#003459" d="M163.544,43.869h5.861c1.324,0,2.494,0.241,3.508,0.722c1.014,0.481,1.801,1.169,2.361,2.064
			s0.84,1.948,0.84,3.16s-0.279,2.265-0.84,3.16s-1.348,1.583-2.361,2.063c-1.014,0.482-2.184,0.722-3.508,0.722h-5.861V43.869z
			 M169.235,52.634c0.86,0,1.549-0.247,2.063-0.739c0.515-0.492,0.772-1.186,0.772-2.081s-0.258-1.588-0.772-2.081
			s-1.203-0.739-2.063-0.739h-1.682v5.64H169.235z"/>
		<path fill="#003459" d="M186.019,53.688H181.5l-0.799,2.072h-4.077l5.199-11.891h3.94l5.198,11.891h-4.145L186.019,53.688z
			 M184.914,50.8l-1.155-2.99l-1.154,2.99H184.914z"/>
		<path fill="#003459" d="M192.116,43.869h5.861c1.324,0,2.494,0.241,3.508,0.722c1.014,0.481,1.801,1.169,2.361,2.064
			s0.84,1.948,0.84,3.16s-0.279,2.265-0.84,3.16s-1.348,1.583-2.361,2.063c-1.014,0.482-2.184,0.722-3.508,0.722h-5.861V43.869z
			 M197.808,52.634c0.86,0,1.549-0.247,2.063-0.739c0.515-0.492,0.772-1.186,0.772-2.081s-0.258-1.588-0.772-2.081
			s-1.203-0.739-2.063-0.739h-1.682v5.64H197.808z"/>
		<path fill="#003459" d="M214.59,53.688h-4.519l-0.799,2.072h-4.076l5.198-11.891h3.94l5.198,11.891h-4.145L214.59,53.688z
			 M213.485,50.8l-1.154-2.99l-1.155,2.99H213.485z"/>
		<path fill="#003459" d="M232.409,43.869V55.76h-3.295l-4.519-5.402v5.402h-3.907V43.869h3.295l4.52,5.402v-5.402H232.409z"/>
		<path fill="#003459" d="M237.642,55.233c-1.02-0.532-1.818-1.271-2.396-2.217c-0.577-0.946-0.866-2.013-0.866-3.202
			s0.289-2.256,0.866-3.202c0.577-0.945,1.376-1.685,2.396-2.217s2.168-0.798,3.448-0.798c1.279,0,2.429,0.266,3.448,0.798
			s1.817,1.271,2.395,2.217c0.578,0.946,0.867,2.013,0.867,3.202s-0.289,2.256-0.867,3.202c-0.577,0.945-1.375,1.685-2.395,2.217
			c-1.02,0.532-2.169,0.798-3.448,0.798C239.81,56.032,238.661,55.765,237.642,55.233z M242.44,52.422
			c0.401-0.244,0.722-0.589,0.959-1.036c0.238-0.447,0.357-0.971,0.357-1.571s-0.119-1.124-0.357-1.571
			c-0.237-0.447-0.558-0.792-0.959-1.036c-0.402-0.244-0.853-0.365-1.351-0.365c-0.499,0-0.948,0.122-1.351,0.365
			s-0.723,0.589-0.96,1.036s-0.356,0.971-0.356,1.571s0.119,1.124,0.356,1.571s0.558,0.792,0.96,1.036s0.852,0.365,1.351,0.365
			C241.588,52.787,242.038,52.666,242.44,52.422z"/>
	</g>
</g>
</svg>
