<?xml version="1.0" encoding="utf-8"?>
<!-- Generator: Adobe Illustrator 16.0.0, SVG Export Plug-In . SVG Version: 6.00 Build 0)  -->
<!DOCTYPE svg PUBLIC "-//W3C//DTD SVG 1.1//EN" "http://www.w3.org/Graphics/SVG/1.1/DTD/svg11.dtd">
<svg version="1.1" id="Capa_1" xmlns="http://www.w3.org/2000/svg" xmlns:xlink="http://www.w3.org/1999/xlink" x="0px" y="0px"
	 width="134.5px" height="141.73px" viewBox="0 0 134.5 141.73" enable-background="new 0 0 134.5 141.73" xml:space="preserve">
<g>
	<path d="M24.264,40.434h57.694c1.87,0,3.393-1.522,3.393-3.393v-8.225c0-1.87-1.522-3.393-3.393-3.393H24.264
		c-1.87,0-3.393,1.523-3.393,3.393v8.225C20.871,38.911,22.394,40.434,24.264,40.434z M27.656,32.208h50.908v1.44H27.656V32.208z"/>
	<path d="M24.264,67.675h57.694c1.87,0,3.393-1.522,3.393-3.393v-8.242c0-1.87-1.522-3.393-3.393-3.393H24.264
		c-1.87,0-3.393,1.522-3.393,3.393v8.242C20.871,66.153,22.394,67.675,24.264,67.675z M27.656,59.433h50.908v1.456H27.656V59.433z"
		/>
	<path d="M63.363,91.5v-8.242c0-1.871-1.522-3.393-3.393-3.393H24.264c-1.87,0-3.393,1.521-3.393,3.393V91.5
		c0,1.869,1.523,3.393,3.393,3.393h35.707C61.841,94.893,63.363,93.369,63.363,91.5z M56.578,88.107H27.656V86.65h28.922V88.107z"/>
	<path d="M130.061,66.865l-7.778-5.445c-0.736-0.514-1.655-0.745-2.541-0.555c-0.885,0.157-1.671,0.662-2.185,1.398l-4.708,6.761
		v0.009l-9.641,13.752V4.809c0-1.87-1.522-3.393-3.393-3.393H6.389c-1.87,0-3.393,1.522-3.393,3.393v132.113
		c0,1.869,1.522,3.393,3.393,3.393h93.426c1.87,0,3.393-1.523,3.393-3.393v-25.828l22.947-32.76l4.733-6.745
		c0.521-0.736,0.72-1.646,0.562-2.532C131.302,68.171,130.797,67.385,130.061,66.865z M9.782,133.529V8.202h86.641v84.274
		L84.498,109.49c-0.009,0.008-0.017,0.016-0.024,0.023c-0.314,0.455-0.472,0.969-0.538,1.482c-0.009,0.057-0.05,0.098-0.059,0.156
		l-0.852,9.459c-0.108,1.207,0.438,2.383,1.432,3.078c0.579,0.414,1.258,0.621,1.944,0.621c0.488,0,0.977-0.107,1.439-0.322
		l8.582-4.014v13.555H9.782z M94.18,112.162l-2.201-1.539l24.478-34.938l1.854,1.291l0.347,0.248L94.18,112.162z"/>
	<path d="M78.904,121.24c-0.514,0.082-1.382,0.223-2.069,0.297c-0.074-0.305-0.141-0.637-0.198-0.885
		c-0.323-1.588-0.77-3.766-2.813-4.799c-0.703-0.365-2.16-0.828-3.98,0.008c-0.662,0.297-1.191,0.744-1.854,1.498
		c-0.265-1.523-0.902-2.922-2.292-3.865c-1.134-0.777-3.111-1.398-5.983-0.074c-1.308,0.588-2.474,1.754-3.997,3.533
		c0.092-3.451,0.033-6.637-2.333-8.357c-0.762-0.555-2.342-1.35-5.312-0.207c-2.044,1.291-3.683,2.971-4.866,4.99
		c-0.951,1.613-0.405,3.691,1.208,4.635c1.539,0.926,3.525,0.445,4.519-1.027c0,0.166-0.009,0.322-0.009,0.473
		c-0.115,3.73-0.231,7.596,2.665,9.35c3.128,1.879,5.636-1.059,8.25-4.221c0.406-0.496,0.96-1.158,1.515-1.754
		c-0.008,0.232-0.024,0.447-0.033,0.629c-0.132,2.623-0.314,6.223,3.037,7.258c0.397,0.115,0.77,0.174,1.125,0.174
		c1.953,0,3.426-1.654,5.305-4.096c0.521,1.217,1.357,2.398,2.813,3.086c1.581,0.729,3.451,0.514,6.363,0.059
		c1.846-0.291,3.112-2.027,2.822-3.881C82.495,122.217,80.824,121.008,78.904,121.24z"/>
</g>
</svg>
