<?xml version="1.0" encoding="utf-8"?>
<!-- Generator: Adobe Illustrator 16.0.0, SVG Export Plug-In . SVG Version: 6.00 Build 0)  -->
<!DOCTYPE svg PUBLIC "-//W3C//DTD SVG 1.1//EN" "http://www.w3.org/Graphics/SVG/1.1/DTD/svg11.dtd">
<svg version="1.1" id="Capa_1" xmlns="http://www.w3.org/2000/svg" xmlns:xlink="http://www.w3.org/1999/xlink" x="0px" y="0px"
	 width="141.73px" height="97.333px" viewBox="0 0 141.73 97.333" enable-background="new 0 0 141.73 97.333" xml:space="preserve">
<g>
	<path d="M139.264,62.526c-1.044-1.813-2.731-3.113-4.757-3.651c-1.65-0.438-3.389-0.331-4.933,0.301
		c-0.237,0.056-0.463,0.149-0.675,0.269l-28.501,16.459L66.5,66.04c-0.663-0.194-1.219-0.632-1.563-1.231
		c-0.744-1.295-0.3-2.951,0.988-3.695c0.669-0.375,1.438-0.463,2.263-0.2l21.476,5.758c0.294,0.069,0.582,0.106,0.888,0.062
		c1.52,0.106,3.058-0.237,4.433-1.025c3.727-2.15,5.008-6.945,2.851-10.696c-1.025-1.769-2.75-3.095-4.732-3.632
		c-0.019-0.006-0.044-0.013-0.068-0.019L50.115,37.964c-3.501-1.1-8.752-0.519-11.959,1.326L17.188,51.386l-1.875-3.25
		c-0.713-1.225-2.282-1.638-3.501-0.938l-9.115,5.257c-0.587,0.338-1.013,0.9-1.194,1.557c-0.175,0.656-0.082,1.356,0.256,1.944
		l22.099,38.283c0.344,0.588,0.9,1.02,1.557,1.195c0.219,0.055,0.444,0.086,0.663,0.086c0.444,0,0.888-0.117,1.282-0.344
		l9.115-5.264c1.225-0.705,1.644-2.275,0.938-3.5l-1.875-3.244l1.476-0.852c1.288-0.756,4.544-1.119,6.995-0.455l46.408,12.434
		c5.601,1.5,5.601,1.5,5.982,1.5c0.757,0,0.757,0,6.063-3.068l32.814-18.98c2.338-0.895,4.113-2.869,4.771-5.288
		C140.583,66.439,140.309,64.333,139.264,62.526z M27.015,89.458L7.479,55.612l4.676-2.701l1.87,3.238c0,0.007,0,0.013,0.006,0.02
		l15.785,27.344c0.006,0.012,0.019,0.018,0.025,0.025l1.857,3.219L27.015,89.458z M135.101,67.127
		c-0.231,0.845-0.844,1.525-2.02,2.007L99.898,88.288c-1.582,0.92-2.995,1.732-3.845,2.213c-0.957-0.256-2.538-0.682-4.313-1.156
		L45.333,76.911c-1.301-0.344-2.738-0.514-4.176-0.514c-2.532,0-5.045,0.52-6.708,1.488l-1.469,0.85L19.751,55.824l20.961-12.096
		c1.969-1.125,5.714-1.544,7.877-0.875l43.476,13.566c0.556,0.23,1.037,0.638,1.338,1.156c0.743,1.294,0.306,2.957-0.976,3.694
		c-0.538,0.307-1.15,0.419-1.726,0.338c-0.081-0.013-0.156-0.019-0.231-0.025l-20.864-5.595c-2.069-0.65-4.351-0.394-6.239,0.688
		c-3.732,2.163-5.02,6.952-2.87,10.684c1,1.751,2.619,3.026,4.557,3.589l34.961,10.177c0.669,0.199,1.389,0.113,1.995-0.238
		l29.057-16.777c0.088-0.032,0.169-0.069,0.25-0.106c0.581-0.294,1.244-0.344,1.869-0.176c0.7,0.182,1.281,0.632,1.638,1.257
		C135.188,65.708,135.282,66.434,135.101,67.127z"/>
	<path d="M109.163,52.474c8.083,0,14.66-6.583,14.66-14.666c0-9.952-4.489-17.173-11.922-29.145l-0.562-0.906
		c-0.938-1.5-3.414-1.5-4.352,0l-0.562,0.906c-7.433,11.972-11.922,19.192-11.922,29.145
		C94.503,45.891,101.08,52.474,109.163,52.474z M109.163,13.964c6.164,9.978,9.533,16.01,9.533,23.843
		c0,5.264-4.275,9.54-9.533,9.54s-9.533-4.276-9.533-9.54C99.63,29.975,102.999,23.942,109.163,13.964z"/>
	<path d="M83.813,33.957c5.889,0,10.684-4.789,10.684-10.678c0-6.914-3.058-11.828-8.108-19.974l-0.4-0.644
		c-0.938-1.5-3.426-1.5-4.351,0l-0.432,0.7c-5.035,8.121-8.073,13.022-8.073,19.917C73.133,29.168,77.928,33.957,83.813,33.957z
		 M83.813,8.882c3.7,6.045,5.558,9.652,5.558,14.397c0,3.063-2.495,5.551-5.558,5.551c-3.063,0-5.558-2.488-5.558-5.551
		C78.256,18.534,80.112,14.934,83.813,8.882z"/>
</g>
</svg>
