<?xml version="1.0" encoding="utf-8"?>
<!-- Generator: Adobe Illustrator 16.0.0, SVG Export Plug-In . SVG Version: 6.00 Build 0)  -->
<!DOCTYPE svg PUBLIC "-//W3C//DTD SVG 1.1//EN" "http://www.w3.org/Graphics/SVG/1.1/DTD/svg11.dtd">
<svg version="1.1" id="Capa_1" xmlns="http://www.w3.org/2000/svg" xmlns:xlink="http://www.w3.org/1999/xlink" x="0px" y="0px"
	 width="45.408px" height="45.212px" viewBox="0 0 45.408 45.212" enable-background="new 0 0 45.408 45.212" xml:space="preserve">
<path fill="#FFFFFF" d="M22.704,1.347c-11.741,0-21.26,9.766-21.26,21.802c0,9.634,6.091,17.798,14.539,20.679
	c0.132,0.029,0.247,0.039,0.364,0.039c0.786,0,1.091-0.576,1.091-1.079c0-0.522-0.022-1.89-0.029-3.716
	c-0.798,0.186-1.509,0.254-2.146,0.254c-4.092,0-5.022-3.174-5.022-3.174c-0.967-2.515-2.361-3.188-2.361-3.188
	c-1.853-1.304-0.012-1.343,0.132-1.343h0.01c2.136,0.195,3.257,2.266,3.257,2.266c1.062,1.855,2.485,2.378,3.757,2.378
	c0.996,0,1.897-0.322,2.427-0.571c0.19-1.406,0.745-2.358,1.348-2.91c-4.717-0.552-9.678-2.422-9.678-10.771
	c0-2.383,0.823-4.331,2.183-5.85c-0.22-0.547-0.95-2.769,0.208-5.771c0,0,0.151-0.044,0.476-0.044c0.767,0,2.505,0.293,5.374,2.285
	c1.694-0.483,3.508-0.723,5.322-0.728c1.804,0.005,3.625,0.244,5.325,0.728c2.866-1.992,4.602-2.285,5.371-2.285
	c0.322,0,0.476,0.044,0.476,0.044c1.157,3.003,0.425,5.225,0.21,5.771c1.355,1.533,2.183,3.477,2.183,5.85
	c0,8.369-4.973,10.21-9.709,10.752c0.759,0.674,1.443,2.002,1.443,4.033c0,2.91-0.029,5.269-0.029,5.977
	c0,0.518,0.293,1.094,1.082,1.094c0.112,0,0.249-0.01,0.381-0.039c8.455-2.881,14.539-11.055,14.539-20.679
	C43.964,11.112,34.445,1.347,22.704,1.347z"/>
</svg>
