<svg xmlns="http://www.w3.org/2000/svg" viewBox="0 0 247.2 59.25"><title>Sin título-1</title><path d="M74.6,34.29c-3.75,3.58-8.06,6.93-13,8.71-5.2,1.88-11.09,2-16.52,1.26C34.4,42.82,23.33,37.62,16.77,28.8c-1.95-2.62-10.52,2-9,4,8,10.74,21.41,16.37,34.49,17.25,15.37,1,29-5.39,39.92-15.85,1.44-1.38.56-2.68-1.2-2.72a9.61,9.61,0,0,0-6.37,2.82" fill="#11416c"/><path d="M26,22.17c3.75-3.58,8.06-6.92,13-8.7,5.2-1.88,11.09-2,16.53-1.26,10.68,1.43,21.75,6.63,28.31,15.45,2,2.62,10.52-2,9-4C84.88,12.93,71.46,7.3,58.38,6.42c-15.37-1-29,5.39-39.92,15.85C17,23.65,17.9,25,19.66,25A9.61,9.61,0,0,0,26,22.17" fill="#11416c"/><path d="M55.05,44.3a18.3,18.3,0,0,0,8.11-6.55A18.07,18.07,0,0,0,59.31,13c-1.24-.27-2.51-.49-3.79-.66-.86-.12-1.7-.21-2.54-.28l.43.14c.42.12.5.52.7.81a40.48,40.48,0,0,1,2.4,4.56c.11.23.17.41-.07.63a19.3,19.3,0,0,1-6.48,4c-.37.13-.47.08-.54-.32-.52-3.3-1.05-6.61-1.61-9.91-.7,0-1.39.08-2.07.16q.81,5.15,1.67,10.31c.06.34,0,.43-.36.48a18.36,18.36,0,0,1-8.13-.74c-.28-.09-.32-.21-.29-.48a33.21,33.21,0,0,1,2.3-8.24,3.29,3.29,0,0,1,.16-.33,3,3,0,0,1,.35-.19c.11-.06.22-.1.33-.15a26.6,26.6,0,0,0-2.7.81,27,27,0,0,0-4.63,2.2,15.73,15.73,0,0,0-2,2.92c-3.16,6.18-3,12.32.53,18.26a16.93,16.93,0,0,0,5.67,5.77,47.85,47.85,0,0,0,6.47,1.32,41.25,41.25,0,0,0,9.94.21m2.59-4a.9.9,0,0,1-.37.42,17.26,17.26,0,0,1-4.08,2c-.28.09-.38,0-.43-.26-.27-1.75-.56-3.5-.84-5.25,0-.2-.07-.34.19-.43a22.33,22.33,0,0,0,7.29-4,23.39,23.39,0,0,1-1.76,7.6m3.25-2.94a4.71,4.71,0,0,1,.26-1.2h0a35.7,35.7,0,0,0,.47-5.26.64.64,0,0,1,.21-.45l1.3-1.35,1.11-1.41a15.28,15.28,0,0,1-3.35,9.67m-1.17-19.5c.9-1.16.66-1,1.42,0a15.48,15.48,0,0,1,2.8,6,1.07,1.07,0,0,1-.21,1.12,8.37,8.37,0,0,0-.68.89,18.07,18.07,0,0,1-1.5,1.85c-.13-.07-.11-.17-.12-.25a32.81,32.81,0,0,0-2-8.27c-.22-.57-.18-.95.32-1.29m-.93-2.59c.17.13.15.24,0,.38a1.91,1.91,0,0,1-.6.6c-.36-.71-.72-1.42-1.13-2.21a12.3,12.3,0,0,1,1.69,1.23m-8.58,9A19.14,19.14,0,0,0,57,20.5l.24-.19c.19-.18.31-.19.41.11a31.77,31.77,0,0,1,1.81,9.2c0,.29,0,.29-.4.66A21.68,21.68,0,0,1,52,34.63c-.34.12-.45.07-.51-.3-.5-3.16-1-6.33-1.53-9.49,0-.29,0-.43.3-.54m-11.79-.14a23.91,23.91,0,0,0,3.46.78,18.84,18.84,0,0,0,5.51,0c.33-.06.43,0,.48.35q.77,4.75,1.54,9.5c.07.38,0,.53-.4.59a19.14,19.14,0,0,1-8.7-.7.54.54,0,0,1-.43-.38,26.39,26.39,0,0,1-1.46-10.15m-4.16-4.42a16.34,16.34,0,0,1,3.79-4.6c-.11.34-.17.56-.24.77a30.41,30.41,0,0,0-1.13,5c-.06.39-.18.4-.47.24q-.9-.49-1.8-1c-.21-.11-.27-.21-.15-.43m-1.81,9.94a16.81,16.81,0,0,1,.67-7.32c.12-.38.23-.44.57-.23A18.12,18.12,0,0,0,36,23.28c.22.09.37.17.35.47a29.2,29.2,0,0,0,1.1,9.66s0,.1,0,.2A23.19,23.19,0,0,1,34.42,32c-.32-.19-.61-.45-.94-.61a1.9,1.9,0,0,1-1-1.68m1.39,4.48a35.39,35.39,0,0,0,4.46,2.08.42.42,0,0,1,.26.23,36.27,36.27,0,0,0,2.73,5.29,15.35,15.35,0,0,1-7.45-7.6m7.29,3.16a2,2,0,0,1-.07-.22,25.94,25.94,0,0,0,3.41.54,19.44,19.44,0,0,0,4.94-.22c.33-.06.44,0,.49.34.26,1.7.53,3.4.82,5.1.05.29,0,.41-.32.45a16.66,16.66,0,0,1-5.13-.16.78.78,0,0,1-.49-.25,26.82,26.82,0,0,1-3.65-5.58" fill="#11416c"/><rect x="116.23" y="7.94" width="9.02" height="45" fill="#11416c"/><path d="M131.66,52.94v-45h15.7A18.55,18.55,0,0,1,161,13.21a18.14,18.14,0,0,1,5.35,13.52v7.45A18.08,18.08,0,0,1,161,47.7a18.61,18.61,0,0,1-13.59,5.24Zm9-38V46h6.68a8.82,8.82,0,0,0,7.17-3.33,13,13,0,0,0,2.71-8.51V26.67a12.92,12.92,0,0,0-2.71-8.47,8.86,8.86,0,0,0-7.17-3.31Z" fill="#11416c"/><polygon points="195.75 33.16 179.06 33.16 179.06 46.02 198.9 46.02 198.9 52.94 170.04 52.94 170.04 7.94 198.84 7.94 198.84 14.89 179.06 14.89 179.06 26.21 195.75 26.21 195.75 33.16" fill="#11416c"/><path d="M227.13,43.24H212.54l-3,9.7h-9.42l15.17-45h9.24l15.11,45h-9.42Zm-12.36-7.08h10.16L220,20.3h-.19Z" fill="#11416c"/></svg>