<?xml version="1.0" encoding="utf-8"?>
<!-- Generator: Adobe Illustrator 16.0.0, SVG Export Plug-In . SVG Version: 6.00 Build 0)  -->
<!DOCTYPE svg PUBLIC "-//W3C//DTD SVG 1.1//EN" "http://www.w3.org/Graphics/SVG/1.1/DTD/svg11.dtd">
<svg version="1.1" id="Capa_1" xmlns="http://www.w3.org/2000/svg" xmlns:xlink="http://www.w3.org/1999/xlink" x="0px" y="0px"
	 width="141.73px" height="105.667px" viewBox="0 0 141.73 105.667" enable-background="new 0 0 141.73 105.667"
	 xml:space="preserve">
<g>
	<path d="M108.08,22.959c5.92,0,10.739-4.813,10.739-10.734c0-5.92-4.819-10.733-10.739-10.733c-5.927,0-10.746,4.813-10.746,10.733
		C97.334,18.146,102.153,22.959,108.08,22.959z M108.08,6.611c3.094,0,5.613,2.52,5.613,5.613c0,3.095-2.52,5.614-5.613,5.614
		c-3.101,0-5.62-2.52-5.62-5.614C102.46,9.131,104.979,6.611,108.08,6.611z"/>
	<path d="M90.964,47.41h34.238c1.412,0,2.562-1.147,2.562-2.56c0-10.853-8.833-19.683-19.685-19.683
		c-10.853,0-19.68,8.83-19.68,19.683C88.4,46.263,89.551,47.41,90.964,47.41z M108.08,30.288c7.157,0,13.121,5.188,14.334,12.002
		H93.752C94.965,35.477,100.929,30.288,108.08,30.288z"/>
	<path d="M134.517,67.264c-1.657-0.443-3.407-0.331-4.982,0.312c-0.219,0.057-0.432,0.145-0.632,0.26l-28.499,16.453l-33.895-9.861
		c-0.669-0.199-1.226-0.637-1.569-1.236c-0.362-0.625-0.456-1.357-0.269-2.055c0.188-0.694,0.632-1.278,1.257-1.638
		c0.669-0.385,1.432-0.469,2.263-0.2l21.479,5.754c0.294,0.086,0.588,0.104,0.881,0.07c1.476,0.094,3.039-0.242,4.438-1.029
		c3.72-2.15,5.008-6.942,2.857-10.693c-0.9-1.544-2.263-2.713-3.901-3.356c-0.087-0.041-0.181-0.075-0.281-0.106l-0.037-0.013
		c-0.15-0.05-0.3-0.097-0.45-0.141L50.125,46.354c-3.513-1.1-8.758-0.519-11.965,1.322L17.193,59.769l-1.875-3.247
		c-0.712-1.226-2.282-1.638-3.5-0.938l-9.121,5.261c-0.588,0.341-1.013,0.9-1.194,1.557c-0.175,0.656-0.081,1.354,0.256,1.944
		l22.104,38.28c0.475,0.818,1.338,1.277,2.219,1.277c0.438,0,0.875-0.109,1.282-0.34l9.114-5.26c0.587-0.342,1.019-0.9,1.194-1.557
		c0.175-0.656,0.081-1.354-0.256-1.945l-1.875-3.246l1.469-0.848c1.307-0.756,4.576-1.109,7.001-0.463l46.409,12.434
		c5.589,1.498,5.589,1.498,6.02,1.498c0.444,0,0.882-0.117,1.27-0.336l37.57-21.709c2.338-0.895,4.119-2.871,4.77-5.287
		C141.161,72.676,138.68,68.377,134.517,67.264z M27.02,97.846L7.479,64.001l4.682-2.701l1.875,3.248v0.003l1.8,3.119l15.859,27.475
		L27.02,97.846z M135.098,75.516c-0.225,0.852-0.825,1.516-2.013,2.004L96.059,98.881c-0.95-0.25-2.532-0.672-4.313-1.148
		L45.336,85.299c-1.294-0.346-2.738-0.516-4.169-0.516c-2.532,0-5.045,0.52-6.72,1.484l-1.463,0.848L19.756,64.207l20.96-12.093
		c1.976-1.132,5.732-1.547,7.876-0.872l43.034,13.425c0.031,0.009,0.062,0.021,0.1,0.031l0.275,0.084
		c0.594,0.219,1.094,0.635,1.412,1.179c0.738,1.297,0.301,2.956-0.963,3.685c-0.568,0.319-1.149,0.435-1.756,0.348
		c-0.069-0.01-0.138-0.016-0.207-0.02l-20.872-5.601c-2.082-0.647-4.352-0.4-6.239,0.688c-1.819,1.044-3.113,2.731-3.657,4.754
		c-0.537,2.017-0.263,4.123,0.782,5.934c1,1.736,2.612,3.012,4.557,3.59l34.963,10.176c0.669,0.193,1.395,0.109,1.994-0.244
		l29.1-16.797c0.062-0.025,0.125-0.051,0.182-0.082c0.425-0.193,1.088-0.395,1.895-0.182
		C134.629,72.594,135.485,74.082,135.098,75.516z"/>
</g>
</svg>
