<?xml version="1.0" encoding="utf-8"?>
<!-- Generator: Adobe Illustrator 16.0.0, SVG Export Plug-In . SVG Version: 6.00 Build 0)  -->
<!DOCTYPE svg PUBLIC "-//W3C//DTD SVG 1.1//EN" "http://www.w3.org/Graphics/SVG/1.1/DTD/svg11.dtd">
<svg version="1.1" id="Capa_1" xmlns="http://www.w3.org/2000/svg" xmlns:xlink="http://www.w3.org/1999/xlink" x="0px" y="0px"
	 width="116px" height="141.73px" viewBox="0 0 116 141.73" enable-background="new 0 0 116 141.73" xml:space="preserve">
<g>
	<path d="M113.709,27.958c0.941-1.572,0.731-3.574-0.511-4.906L95.526,4.088c-1.491-1.602-3.995-1.752-5.667-0.32
		c-6.678,5.737-23.6,4.926-28.785-0.961C60.303,1.926,59.182,1.415,58,1.415c-1.171,0-2.293,0.511-3.074,1.392
		C49.709,8.714,32.809,9.495,26.15,3.778c-1.672-1.432-4.175-1.292-5.667,0.311L2.801,23.052c-1.242,1.332-1.452,3.344-0.511,4.906
		c3.384,5.627,5.527,9.562,6.719,16.811c1.151,6.929-0.05,10.773-1.722,16.11c-2.053,6.579-4.606,14.769-3.354,30.949
		c2.073,26.493,22.688,34.713,33.762,39.129c2.283,0.911,4.456,1.562,6.528,2.173c3.745,1.111,6.799,2.012,9.552,4.345
		c0.04,0.141,0.09,0.261,0.15,0.391c0.651,1.481,2.123,2.443,3.745,2.443h0.661c0.07,0.01,0.15,0.01,0.2,0
		c1.913,0,3.504-1.302,3.975-3.054c2.673-2.173,5.646-3.055,9.251-4.115c2.093-0.621,4.266-1.271,6.538-2.183
		c11.074-4.416,31.699-12.646,33.763-39.129c1.261-16.181-1.302-24.381-3.354-30.959c-1.662-5.327-2.874-9.182-1.723-16.1
		C108.172,37.56,110.315,33.605,113.709,27.958z M100.873,63.312c1.942,6.218,4.146,13.267,3.014,27.875
		c-1.542,19.744-14.988,26.713-28.636,32.16c-2.032,0.811-3.965,1.371-5.816,1.922c-3.805,1.132-7.71,2.283-11.435,5.086
		c-3.735-2.803-7.64-3.965-11.444-5.086c-1.852-0.551-3.794-1.111-5.817-1.922c-13.637-5.447-27.083-12.406-28.635-32.16
		c-1.131-14.599,1.071-21.647,3.014-27.865c1.782-5.677,3.454-11.044,1.982-19.885c-1.202-7.359-3.334-12.055-6.208-17.042
		l13.156-14.107C33.56,17.826,49.5,17.104,58,10.987c8.48,6.108,24.45,6.839,33.952,1.302l13.156,14.118
		c-2.873,4.996-5.006,9.702-6.218,17.021C97.419,52.269,99.102,57.635,100.873,63.312z"/>
	<path d="M79.767,57.745L66,57.615L62.255,45.14c-0.521-1.732-2.112-2.914-3.924-2.924c-1.812,0-3.404,1.191-3.925,2.924
		l-3.754,12.476l-13.757,0.13c-1.802,0.02-3.374,1.211-3.895,2.934c-0.511,1.732,0.16,3.584,1.662,4.586l10.212,6.809L41.139,85.94
		c-0.441,1.652,0.19,3.404,1.582,4.396c0.71,0.511,1.552,0.771,2.383,0.771c0.801,0,1.602-0.24,2.293-0.711l10.934-7.38l10.923,7.38
		c1.412,0.971,3.294,0.94,4.676-0.061c1.392-0.991,2.022-2.753,1.572-4.405l-3.745-13.857L82,65.265
		c1.491-0.991,2.173-2.854,1.662-4.586C83.151,58.957,81.569,57.765,79.767,57.745z M64.748,66.876
		c-1.462,0.971-2.143,2.784-1.682,4.486l1.642,6.067l-4.085-2.753c-1.382-0.941-3.204-0.941-4.585,0l-4.115,2.773l1.642-6.098
		c0.451-1.692-0.23-3.494-1.692-4.476l-1.582-1.051l3.454-0.03c1.792-0.021,3.375-1.202,3.885-2.924l0.691-2.293l0.691,2.293
		c0.51,1.722,2.092,2.903,3.885,2.924l3.434,0.03L64.748,66.876z"/>
</g>
</svg>
