<?xml version="1.0" encoding="utf-8"?>
<!-- Generator: Adobe Illustrator 16.0.0, SVG Export Plug-In . SVG Version: 6.00 Build 0)  -->
<!DOCTYPE svg PUBLIC "-//W3C//DTD SVG 1.1//EN" "http://www.w3.org/Graphics/SVG/1.1/DTD/svg11.dtd">
<svg version="1.1" id="Capa_1" xmlns="http://www.w3.org/2000/svg" xmlns:xlink="http://www.w3.org/1999/xlink" x="0px" y="0px"
	 width="141.73px" height="107.5px" viewBox="0 0 141.73 107.5" enable-background="new 0 0 141.73 107.5" xml:space="preserve">
<path d="M139.531,38.88L102.909,2.256c-1.005-1.005-2.78-1.005-3.786,0l-8.708,8.721c-1.045,1.044-1.045,2.735,0,3.78l3.336,3.339
	l-9.055,9.058c-0.815,0.819-2.755,1.622-3.91,1.622h-7.944c-2.562,0-5.869,1.371-7.7,3.192L51.062,46.064H39.275
	c-2.579,0-5.892,1.368-7.709,3.186l-5.598,5.611c-0.819,0.818-2.765,1.625-3.92,1.625h-2.96v-4.729c0-1.475-1.198-2.673-2.673-2.673
	H4.09c-1.475,0-2.673,1.198-2.673,2.673v51.796c0,1.476,1.198,2.676,2.673,2.676h12.325c1.475,0,2.673-1.2,2.673-2.676v-4.72H39.36
	c1.214,2.363,3.6,4.027,6.43,4.027c1.329,0,2.507-0.457,3.584-1.09c1.335,1.71,3.319,2.879,5.653,2.879
	c2.056,0,3.897-0.868,5.222-2.239c1.159,0.777,2.467,1.338,3.962,1.338c1.785,0,3.362-0.718,4.631-1.781
	c1.27,1.063,2.846,1.781,4.625,1.781c3.179,0,5.822-2.075,6.821-4.915h6.247c4.021,0,7.299-3.277,7.299-7.305
	c0-1.527-0.477-2.951-1.28-4.119c1.3-1.318,2.109-3.134,2.109-5.125c0-1.37-0.379-2.649-1.038-3.746
	c0.679-0.595,1.253-1.306,1.678-2.109l28.39-28.386l3.336,3.336c0.502,0.502,1.182,0.783,1.893,0.783
	c0.712,0,1.391-0.281,1.894-0.783l8.715-8.718C140.575,41.616,140.575,39.925,139.531,38.88z M13.741,100.876H6.763V54.43h6.978
	v4.729v36.997V100.876z M45.79,97.508c-1.077,0-1.955-0.875-1.955-1.958v-3.395c0-1.077,0.878-1.945,1.955-1.945
	c1.071,0,1.942,0.868,1.942,2.036v1.704v1.6C47.732,96.633,46.861,97.508,45.79,97.508z M55.027,99.297
	c-1.074,0-1.949-0.869-1.949-1.939v-1.899V93.95c0-1.077,0.875-1.952,1.949-1.952c1.018,0,1.808,0.81,1.89,1.809v2.637
	c0,0.104,0.056,0.189,0.059,0.294v0.62C56.976,98.428,56.101,99.297,55.027,99.297z M64.212,98.396c-1.019,0-1.808-0.81-1.89-1.809
	V93.95c0-0.104-0.056-0.189-0.059-0.294v-0.613c0-1.077,0.875-1.945,1.949-1.945c1.081,0,1.961,0.868,1.961,1.945v3.4
	C66.173,97.521,65.292,98.396,64.212,98.396z M75.42,96.443c0,1.077-0.874,1.952-1.951,1.952c-1.074,0-1.949-0.875-1.949-1.952v-3.4
	c0-1.077,0.875-1.945,1.949-1.945c1.077,0,1.951,0.868,1.951,1.945V96.443z M90.663,73.733c-0.02,0.039-0.033,0.078-0.053,0.124
	c-0.312,0.659-0.985,1.116-1.769,1.116H87.36c-1.476,0-2.677,1.201-2.677,2.676c0,1.476,1.201,2.677,2.677,2.677
	c1.076,0,1.951,0.875,1.951,1.958c0,1.077-0.875,1.945-1.951,1.945h-0.823c-1.475,0-2.676,1.201-2.676,2.677
	s1.201,2.677,2.676,2.677c1.077,0,1.945,0.868,1.945,1.945s-0.868,1.952-1.945,1.952h-5.764v-0.438c0-4.021-3.277-7.299-7.305-7.299
	c-1.779,0-3.355,0.719-4.625,1.782c-1.27-1.063-2.846-1.782-4.631-1.782c-2.053,0-3.894,0.868-5.219,2.239
	c-1.159-0.776-2.471-1.338-3.965-1.338c-1.335,0-2.517,0.457-3.594,1.083c-1.335-1.703-3.316-2.872-5.644-2.872
	c-4.028,0-7.301,3.277-7.301,7.299v1.325H19.088V61.833h2.96c2.568,0,5.878-1.371,7.703-3.189l5.598-5.614
	c0.819-0.816,2.761-1.619,3.927-1.619h6.446l-14.113,14.13c-2.285,1.657-3.649,4.334-3.649,7.16c0,4.87,3.966,8.839,8.842,8.839
	c1.971,0,3.848-0.646,5.385-1.834c0.199-0.111,0.389-0.255,0.559-0.424l15.843-15.831c0.813-0.815,2.752-1.618,3.914-1.618H87.36
	c1.076,0,1.951,0.874,1.951,1.951s-0.875,1.945-1.951,1.945c-1.476,0-2.677,1.201-2.677,2.677s1.201,2.677,2.677,2.677h1.481
	c1.077,0,1.952,0.868,1.952,1.945C90.794,73.276,90.748,73.518,90.663,73.733z M95.023,69.144c-0.385-0.606-0.854-1.148-1.396-1.618
	c0.659-1.097,1.038-2.377,1.038-3.741c0-4.024-3.277-7.298-7.305-7.298H62.501c-2.582,0-5.895,1.371-7.7,3.186L39.51,74.954
	c-0.085,0.065-0.163,0.137-0.238,0.209c-2.037,2.043-5.966,0.397-5.966-2.462c0-1.136,0.522-2.16,1.762-3.094l18.967-18.97
	c0.01-0.006,0.02-0.016,0.026-0.026l14.857-14.857c0.826-0.823,2.771-1.632,3.923-1.632h7.944c2.572,0,5.882-1.371,7.696-3.189
	l9.048-9.051l18.135,18.131l4.25,4.247L95.023,69.144z M128.923,45.706L96.088,12.867l4.929-4.938l32.842,32.842L128.923,45.706z"/>
</svg>
