<?xml version="1.0" encoding="utf-8"?>
<!-- Generator: Adobe Illustrator 16.0.0, SVG Export Plug-In . SVG Version: 6.00 Build 0)  -->
<!DOCTYPE svg PUBLIC "-//W3C//DTD SVG 1.1//EN" "http://www.w3.org/Graphics/SVG/1.1/DTD/svg11.dtd">
<svg version="1.1" id="Capa_1" xmlns="http://www.w3.org/2000/svg" xmlns:xlink="http://www.w3.org/1999/xlink" x="0px" y="0px"
	 width="141.73px" height="141.73px" viewBox="0 0 141.73 141.73" enable-background="new 0 0 141.73 141.73" xml:space="preserve">
<g>
	<path d="M85.348,73.974c0-3.646-0.978-6.694-2.911-9.052c-1.781-2.168-4.01-3.828-6.625-4.935
		c-1.759-0.735-3.806-1.418-6.201-2.062v-7.542c2.191,0.568,4.307,1.447,6.33,2.615c0.773,0.447,1.729,0.538,2.562,0.242
		c0.849-0.288,1.531-0.933,1.872-1.766l2.774-6.854c0.554-1.38,0.054-2.964-1.189-3.775c-2.047-1.326-4.45-2.402-7.149-3.221
		c-1.713-0.508-3.456-0.879-5.2-1.122v-4.708c0-1.713-1.395-3.108-3.107-3.108h-5.564c-1.713,0-3.108,1.395-3.108,3.108v4.958
		c-4.441,0.833-8.013,2.532-10.62,5.071c-3.305,3.161-4.98,7.064-4.98,11.605c0,3.654,0.971,6.701,2.873,9.044
		c1.759,2.168,3.965,3.836,6.564,4.958c1.752,0.758,3.813,1.463,6.163,2.1v7.527c-1.099-0.258-2.183-0.584-3.236-0.993
		c-2.062-0.796-3.828-1.781-5.246-2.941c-0.758-0.614-1.743-0.856-2.684-0.606c-0.939,0.22-1.721,0.872-2.114,1.751l-3.062,6.854
		c-0.562,1.251-0.235,2.721,0.803,3.615c2.093,1.805,4.845,3.283,8.172,4.397c2.335,0.772,4.807,1.342,7.368,1.683v4.73
		c0,1.713,1.396,3.107,3.108,3.107h5.564c1.713,0,3.107-1.395,3.107-3.107v-4.92c4.48-0.85,8.081-2.555,10.734-5.071
		C83.665,82.396,85.348,78.499,85.348,73.974z M76.069,81.054c-2.168,2.062-5.496,3.343-9.9,3.812
		c-1.099,0.114-2.009,0.796-2.464,1.736c-0.478-0.94-1.433-1.614-2.555-1.69c-3.085-0.205-6.019-0.773-8.725-1.676
		c-1.63-0.538-3.04-1.167-4.237-1.887l0.53-1.19c1.13,0.629,2.343,1.197,3.639,1.698c2.646,1.023,5.442,1.675,8.309,1.925
		c0.864,0.091,1.728-0.204,2.372-0.804c0.304-0.28,0.546-0.613,0.713-0.978c0.182,0.341,0.425,0.645,0.728,0.902
		c0.675,0.591,1.592,0.856,2.479,0.72c3.039-0.447,5.306-1.387,6.928-2.85c1.819-1.615,2.782-3.753,2.782-6.187
		c0-2.509-1.068-4.646-3.055-6.155c-1.547-1.183-3.601-2.122-6.276-2.873c-0.925-0.265-1.941-0.068-2.714,0.523
		c-0.235,0.174-0.44,0.387-0.606,0.614c-0.175-1.259-1.1-2.297-2.365-2.601c-3.002-0.713-5.534-1.509-7.521-2.365
		c-1.69-0.728-3.062-1.766-4.199-3.169c-1.001-1.235-1.486-2.91-1.486-5.132c0-2.819,1.001-5.146,3.07-7.133
		c2.131-2.062,5.397-3.328,9.727-3.753c1.121-0.113,2.062-0.811,2.509-1.781c0.492,0.94,1.463,1.6,2.593,1.66
		c2.236,0.114,4.495,0.508,6.693,1.152c1.19,0.364,2.305,0.781,3.32,1.259l-0.478,1.182c-2.881-1.273-5.905-2.1-9.021-2.455
		c-0.895-0.114-1.759,0.174-2.426,0.766c-0.326,0.295-0.584,0.651-0.766,1.046c-0.175-0.334-0.417-0.63-0.713-0.88
		c-0.69-0.591-1.6-0.834-2.502-0.712c-2.979,0.47-5.208,1.455-6.8,2.994c-1.735,1.652-2.66,3.82-2.66,6.246
		c0,2.486,1.038,4.586,2.956,6.042c1.493,1.159,3.502,2.092,6.141,2.843c0.947,0.258,1.948,0.075,2.721-0.508
		c0.235-0.183,0.44-0.387,0.614-0.622c0.175,1.251,1.107,2.289,2.357,2.593c3.086,0.728,5.655,1.516,7.626,2.343
		c1.668,0.704,3.093,1.766,4.23,3.146c0.993,1.221,1.493,2.941,1.493,5.117C79.132,76.771,78.131,79.09,76.069,81.054z"/>
	<path d="M138.799,100.339l-22.128-22.144c-2.198-2.152-5.951-2.16-8.18,0.016l-22.097,22.112c-1.418,1.41-1.888,3.177-1.251,4.73
		s2.206,2.486,4.207,2.486l7.096-0.425v27.032c0,3.191,2.592,5.792,5.776,5.792h20.725c3.191,0,5.792-2.601,5.792-5.792
		l-0.433-26.607h7.521c1.993,0,3.57-0.925,4.207-2.479C140.671,103.507,140.209,101.741,138.799,100.339z M128.307,101.324
		c-3.191,0-5.783,2.6-5.783,5.791v26.623l-19.861,0.409v-27.032c0-3.191-2.601-5.791-5.792-5.791h-2.781l18.2-18.717l18.709,18.717
		H128.307z"/>
	<path d="M88.244,112.861c-3.7-0.356-6.717-2.501-8.066-5.754c-1.478-3.57-0.553-7.618,2.411-10.574l22.12-22.12
		c3.858-3.874,10.378-4.359,14.843-0.735c0.887,0.697,2.092,0.887,3.115,0.462c1.046-0.424,1.781-1.379,1.918-2.493
		c0.334-2.623,0.576-5.276,0.576-7.982c0-34.113-27.76-61.873-61.873-61.873c-34.112,0-61.872,27.76-61.872,61.873
		c0,34.12,27.76,61.88,61.872,61.88c8.961,0,17.701-1.948,25.964-5.776c1.1-0.508,1.804-1.607,1.804-2.82v-0.993
		C91.056,114.355,89.836,113.014,88.244,112.861z M63.288,119.328c-30.693,0-55.656-24.971-55.656-55.664
		c0-30.694,24.963-55.657,55.656-55.657c30.694,0,55.657,24.962,55.657,55.657c0,0.834-0.023,1.66-0.068,2.479
		c-6.246-2.486-13.751-0.94-18.565,3.874l-22.112,22.12c-4.775,4.768-6.216,11.408-3.752,17.352c1.243,3.002,3.312,5.436,5.943,7.11
		C74.849,118.41,69.118,119.328,63.288,119.328z"/>
</g>
</svg>
