<?xml version="1.0" encoding="UTF-8"?>
<!DOCTYPE svg  PUBLIC '-//W3C//DTD SVG 1.1//EN'  'http://www.w3.org/Graphics/SVG/1.1/DTD/svg11.dtd'>
<svg width="210mm" height="297mm" clip-rule="evenodd" fill-rule="evenodd" image-rendering="optimizeQuality" shape-rendering="geometricPrecision" text-rendering="geometricPrecision" version="1.1" viewBox="0 0 21000 29700" xml:space="preserve" xmlns="http://www.w3.org/2000/svg">
 <defs>
  <style type="text/css">
   <![CDATA[
    .fil0 {fill:none}
    .fil1 {fill:#93303B;fill-rule:nonzero}
   ]]>
  </style>
 </defs>
 
  
  <rect class="fil0" x="5298.3" y="7460.4" width="10291" height="13659"/>
  
   
    <path class="fil1" d="m11032 14630c0-321.72-261.17-582.89-583.34-582.89-321.88 0-582.9 261.17-582.9 582.89 0 322.32 261.02 582.46 582.9 582.46 322.17 0 583.34-260.14 583.34-582.46z"/>
    <path class="fil1" d="m12682 10679c322.31 0 582.45-261.17 582.45-582.9 0-322.31-260.14-583.48-582.45-583.48-322.17 0-582.9 261.17-582.9 583.48 0 321.73 260.73 582.9 582.9 582.9z"/>
    <path class="fil1" d="m7632 13119c0 322.17 261.17 583.34 583.34 583.34 321.28 0 582.45-261.17 582.45-583.34 0-322.32-261.17-582.9-582.45-582.9-322.17 0-583.34 260.58-583.34 582.9z"/>
    <path class="fil1" d="m11032 8585c0-322.17-261.17-582.31-583.34-582.31-321.88 0-582.9 260.14-582.9 582.31 0 321.73 261.02 582.9 582.9 582.9 322.17 0 583.34-261.17 583.34-582.9z"/>
    <path class="fil1" d="m9865.3 11607c0 322.32 261.17 582.9 582.9 582.9 322.31 0 583.34-260.58 583.34-582.9 0-321.73-261.03-582.31-583.34-582.31-321.73 0-582.9 260.58-582.9 582.31z"/>
    <path class="fil1" d="m13265 13119c0-322.32-260.73-582.9-582.46-582.9-322.17 0-583.34 260.58-583.34 582.9 0 322.17 261.17 583.34 583.34 583.34 321.73 0 582.46-261.17 582.46-583.34z"/>
    <path class="fil1" d="m4790.2 12575 5464.3 3648.2v2551h-5464.3v-6199.2zm0-3014.3 3054.8 2045.4-1903.3 1273.9-1151.6-768.85v-2550.4zm0-2100.2h1353.8l3946.4 2642.4-1891.7 1266-3408.6-2281.4v-1627zm9246.8 0-3592.9 2405.2-3594.1-2405.2h7187zm2067.3 0v1622.3l-3414.8 2286.1-1892.5-1266 3946.6-2642.4h1360.6zm0 4652.2-1153.8 769.9-1908-1276.5 3061.8-2050.6v2557.2zm0 6661.5h-5461.8l-0.44-2551 5462.2-3646.6v6197.6zm-5660.2-5427.9 1904.3 1274.5-1900.2 1268.2-1904.3-1271.4 1900.2-1271.4zm-353.71-237.04-1900.2 1272.4-1894.8-1265.1 1903.3-1274.5 1891.7 1267.2zm2599.1-1267.2 1907.4 1277.6-1895 1264.6-1904.9-1274.9 1892.5-1267.2zm-2245.4 1030-1892.3-1266 1892.3-1267.1 1891.7 1267.1-1891.7 1266zm-6041.6 6289.7h12090v-12090h-12090v12090z"/>
    <path class="fil1" d="m8797.9 10096c0-322.17-261.17-583.34-582.9-583.34-321.87 0-582.89 261.17-582.89 583.34 0 322.32 261.02 582.9 582.89 582.9 321.73 0 582.9-260.58 582.9-582.9z"/>
   
   
    <path class="fil1" d="m15222 23223c-62 0-109.97-15.34-143.46-46.08-33.3-31.27-49.86-75.46-49.86-132.18 0-56 16.41-99.52 49.18-130.78 32.82-31.56 77.88-47.63 136.1-47.63 24.06 0 50 3.24 78.37 10.07 28.36 7.01 60.11 17.23 94.57 31.41v-158.61c-33.1-14.18-66.4-24.59-100.19-31.42-33.49-7.16-67.95-10.74-103.34-10.74-111.66 0-201.1 30.73-268.38 92.54-66.8 61.81-100.1 143.42-100.1 245.16 0 102.46 33.84 184.07 101.6 244.38 67.61 59.92 159.34 89.98 274.92 89.98 39.64 0 75.99-3.44 109.82-10.07 33.98-7.02 66.22-17.62 96.61-31.41v-157.26c-33.1 14.47-64.03 25.26-92.54 32.43-28.66 6.82-56.34 10.21-83.3 10.21z"/>
    <polygon class="fil1" points="15514 23367 15718 23367 15718 22721 15514 22721"/>
    <path class="fil1" d="m13945 22711c-37.56 0-72.21 14.52-104.16 43.03-31.75 28.17-64.71 74.78-99.37 140.22v-172.79h-203.53v645.43h203.53v-277.82c13.17-59.1 34.85-105.52 65.39-139.5 30.74-34.17 65.59-51.06 103.97-51.06 16.94 0 33.98 3.58 51.06 10.74 17.62 7.17 36.4 18.98 56.68 34.85l54.5-185.28c-25.26-16.55-48.5-28.51-69.5-36.01-20.33-7.89-39.93-11.81-58.57-11.81z"/>
    <path class="fil1" d="m14473 23212c-19.27 13.31-37.22 23.23-54.45 30.05-17.43 6.83-33.5 10.07-48.5 10.07-22.22 0-39.6-6-52.42-18.29-12.63-12.44-19.12-28.85-19.12-49.66 0-25.27 11.76-47.29 34.85-65.39 23.52-18.64 70.13-40.13 139.64-64.72v157.94zm232.91 19.12c-9.54 0-16.41-3.1-20.67-9.06-4.07-5.8-5.95-16.07-5.95-31.26v-256.77c0-78.75-21.01-136.3-62.68-171.97-41.68-36.02-109.1-54.12-202.18-54.12-58.71 0.34-111.66 6.83-158.8 19.99-46.76 12.78-89.64 32.09-128.56 58.57l-2.71 160.64c36.16-33.64 73.38-59.24 111.66-77 38.05-17.57 75.27-26.62 111.47-26.62 43.22 0 74.98 7.5 95.45 22.7 20.86 14.52 31.27 37.22 31.27 67.81l-1.21 18.58c-158.95 45.79-262.1 85.58-309.24 119.02-46.76 33.11-70.13 75.8-70.13 127.39 0 59.59 15.87 104.5 47.62 134.9 31.9 29.86 78.9 44.87 140.85 44.87 37.75-0.15 73.09-5.95 105.52-17.72 33.3-11.61 65.05-29.91 95.64-54.3 3.05 23.91 13.65 42.01 31.94 54.3 18.59 11.77 43.86 17.72 76.14 17.72 25.6 0 52.22-4.07 80.44-12.1 28.51-8.18 61.28-21.15 98.02-38.92v-113.06c-15.4 6.34-28.03 10.6-37.42 12.82-9.24 2.57-17.91 3.59-26.47 3.59z"/>
    <path class="fil1" d="m14460 21679c-45.74 31.41-89.3 55.66-130.63 71.73-41.14 16.36-79.91 24.39-115.73 24.39-53.29 0-95.3-14.52-125.51-44.04-30.73-29.19-45.78-68.98-45.78-119.02 0-60.94 27.68-113.02 83.34-156.58 56.34-44.58 167.67-96.32 334.31-155.03v378.55zm0-621.72c-380.77 109.82-627.67 205.27-740.88 285.66-112 79.24-167.86 181.03-167.86 304.98 0 142.59 37.95 250.14 114.09 323.04 76.13 71.92 188.66 107.74 337.55 107.74 90.51 0 174.87-14.14 253.09-42.31 79.52-28.17 155.51-71.92 228.46-130.63 7.5 57.69 33.1 101.25 76.81 130.63 44.38 28.17 105.51 42.31 182.72 42.31 60.93 0 124.97-9.73 192.44-29.19 68.63-19.6 146.85-50.53 234.94-93.03v-271c-37.07 15.39-66.94 25.8-89.83 31.08-21.69 5.27-42.84 8.03-63.5 8.03-22.9 0-39.26-6.82-48.99-21.2-9.77-13.99-14.52-39.06-14.52-74.92v-615.24c-0.34-189.2-50.24-327-150.28-412.67-100.05-85.91-261.57-128.94-484.6-128.94-140.32 0-267.03 15.88-380.05 47.14-112.05 30.54-215 77.35-308.56 140.37l-6.49 385.03c87.08-80.44 176.38-141.91 267.71-184.41 91.38-42.35 180.49-63.55 267.57-63.55 103.14 0 179.47 17.96 228.31 53.97 50.04 34.65 75.12 89.15 75.12 163.06 0 11.09-0.68 19.65-1.7 26.14 0 6.63-0.53 12.44-1.55 17.91z"/>
    <path class="fil1" d="m16204 23212c-19.12 13.31-37.22 23.23-54.45 30.05-17.23 6.83-33.5 10.07-48.31 10.07-22.41 0-39.78-6-52.42-18.29-12.68-12.44-19.16-28.85-19.16-49.66 0-25.27 11.61-47.29 34.85-65.39 23.57-18.64 70.18-40.13 139.49-64.72v157.94zm259.53 15.53c-9 2.57-17.91 3.59-26.77 3.59-9.39 0-16.07-3.1-20.33-9.06-4.11-5.8-6-16.07-6-31.26v-256.77c0-78.75-21-136.3-62.82-171.97-41.48-36.02-109.1-54.12-201.98-54.12-58.76 0.34-111.67 6.83-158.66 19.99-46.95 12.78-89.79 32.09-128.9 58.57l-2.71 160.64c36.35-33.64 73.57-59.24 111.81-77 38.09-17.57 75.31-26.62 111.52-26.62 43.17 0 74.97 7.5 95.45 22.7 20.81 14.52 31.21 37.22 31.21 67.81l-1.35 18.58c-158.81 45.79-261.9 85.58-309.24 119.02-46.61 33.11-69.99 75.8-69.99 127.39 0 59.59 15.88 104.5 47.63 134.9 31.61 29.86 78.89 44.87 141.04 44.87 37.56-0.15 72.75-5.95 105.37-17.72 33.3-11.61 65.05-29.91 95.45-54.3 3.05 23.91 13.84 42.01 31.95 54.3 18.58 11.77 44.04 17.72 76.47 17.72 25.27 0 52.08-4.07 80.25-12.1 28.51-8.18 61.32-21.15 97.87-38.92v-113.06c-15.39 6.34-27.83 10.6-37.27 12.82z"/>
    <path class="fil1" d="m11366 20261c73.77 0 135.96-24.78 185.96-74.97 49.86-50.05 75.12-111.52 75.12-184.6 0-73.77-25.26-135.72-75.12-185.77-50-50.05-112.19-74.97-185.96-74.97-72.89 0-134.89 25.46-186.1 76.52-50.05 50-74.98 111.66-74.98 184.22 0 72.07 24.93 133.54 74.98 184.6 51.21 50.19 113.21 74.97 186.1 74.97z"/>
    <path class="fil1" d="m15727 21433 52.08 21.15c104.5 43.71 171.44 78.37 200.63 104.36 29.57 25.07 44.24 53.92 44.24 86.54 0 39.11-19.46 68.49-58.71 88.14-39.3 19.8-97.53 29.33-174.54 29.33-56.87 0-126.86-11.95-210.69-35.82-82.48-25.12-172.79-59.97-270.81-104.5v344.38c79.57 39.26 164.28 67.96 254.59 86.4 91.34 19.65 187.66 29.38 288.91 29.38 203.34 0 359.92-42.89 469.89-128.94 110.98-86.06 166.3-208.81 166.3-368.63 0-101.26-26.08-186.1-78.16-254.59-51.26-68.64-133.4-127.4-246.42-176.23-41.48-18.59-98.01-41.97-169.74-70.18-176.38-72.9-264.47-134.37-264.47-184.41 0-38.05 15.88-67.43 47.63-88.1 31.41-20.66 76.52-30.88 135.23-30.88 67.28 0 140.85 12.3 220.28 37.37 80.39 25.12 171.92 64.71 274.24 119.21v-341.18c-81.65-41.33-165.97-72.21-252.9-92.88-86.25-20.67-177.39-30.93-274.24-30.93-180.63 0-325.6 44.58-435.76 133.88-108.56 89.15-163.06 207.11-163.06 353.96 0 192.44 148.59 350.23 445.48 473.17z"/>
    <polygon class="fil1" points="11123 22050 11611 22050 11611 20503 11123 20503"/>
    <path class="fil1" d="m15616 22403c-30.55 0-56.15 10.6-77.69 31.94-20.81 20.82-31.22 46.42-31.22 77.01 0 29.87 10.41 55.47 31.22 76.81 21.54 21.01 47.14 31.42 77.69 31.42 30.73 0 56.72-10.41 77.54-31.42 20.81-20.81 31.41-46.41 31.41-76.81 0-30.93-10.6-56.68-31.41-77.68-20.82-21.01-46.81-31.27-77.54-31.27z"/>
    <path class="fil1" d="m5529.8 23212c-19.11 13.31-37.41 23.23-54.64 30.05-17.09 6.83-33.3 10.07-48.31 10.07-22.21 0-39.64-6-52.41-18.29-12.64-12.44-18.98-28.85-18.98-49.66 0-25.27 11.62-47.29 34.85-65.39 23.57-18.64 69.99-40.13 139.49-64.72v157.94zm232.72 19.12c-9.39 0-16.22-3.1-20.14-9.06-4.11-5.8-6.29-16.07-6.29-31.26v-256.77c0-78.75-21-136.3-62.68-171.97-41.67-36.02-109.1-54.12-202.17-54.12-58.57 0.34-111.33 6.83-158.81 19.99-46.8 12.78-89.64 32.09-128.55 58.57l-2.91 160.64c36.55-33.64 73.77-59.24 111.81-77 38.09-17.57 75.51-26.62 111.52-26.62 43.22 0 75.12 7.5 95.45 22.7 21 14.52 31.26 37.22 31.26 67.81l-1.21 18.58c-158.8 45.79-262.09 85.58-309.23 119.02-46.76 33.11-70.19 75.8-70.19 127.39 0 59.59 16.07 104.5 47.82 134.9 31.76 29.86 78.71 44.87 140.85 44.87 37.76-0.15 72.94-5.95 105.57-17.72 33.3-11.61 64.86-29.91 95.45-54.3 2.9 23.91 13.64 42.01 31.89 54.3 18.64 11.77 44.05 17.72 76.33 17.72 25.46 0 52.28-4.07 80.25-12.1 28.51-8.18 61.33-21.15 98.01-38.92v-113.06c-15.34 6.34-27.83 10.6-37.36 12.82-9.05 2.57-17.96 3.59-26.67 3.59z"/>
    <polygon class="fil1" points="7608.8 23367 7812.3 23367 7812.3 22414 7608.8 22414"/>
    <path class="fil1" d="m10250 20472c-115.44 0-217.71 21.15-306.87 63.7-87.9 42.35-181.65 115.77-280.53 220.27-40.27-95.79-98.02-166.98-172.94-213.79-75.17-46.8-170.42-70.18-285.67-70.18-103.14 0-197.38 18.63-282.08 55.32-83.84 36.01-163.26 92.74-238.38 169.75v-194.14h-484.6v1547h484.6v-985.75c47.96-81.41 100.72-142.39 158.27-182.66 58.57-41.34 121.25-62.01 187.65-62.01 77.21 0 132.67 24.93 166.31 75.12 35 48.84 52.28 130.11 52.28 242.98v912.32h473.12v-985.75c49.18-81.41 102.27-142.39 160.02-182.66 57.55-41.34 120.18-62.01 187.65-62.01 77.35 0 132.67 24.45 166.45 73.43 34.85 48.84 52.28 130.64 52.28 244.67v912.32h487.84v-979.07c0-193.8-45.11-341.66-135.43-443.94-90.46-103.33-220.42-154.88-389.97-154.88z"/>
    <path class="fil1" d="m6846.7 23212c-18.98 13.31-37.22 23.23-54.31 30.05-17.23 6.83-33.45 10.07-48.5 10.07-22.17 0-39.59-6-52.42-18.29-12.63-12.44-19.12-28.85-19.12-49.66 0-25.27 11.62-47.29 34.85-65.39 23.58-18.64 70.19-40.13 139.5-64.72v157.94zm233.05 19.12c-9.73 0-16.36-3.1-20.67-9.06-3.92-5.8-5.95-16.07-5.95-31.26v-256.77c0-78.75-21.01-136.3-62.68-171.97-41.67-36.02-109.29-54.12-202.17-54.12-58.57 0.34-111.67 6.83-158.76 19.99-46.81 12.78-89.69 32.09-128.75 58.57l-2.76 160.64c36.4-33.64 73.77-59.24 111.66-77 38.29-17.57 75.51-26.62 111.67-26.62 43.22 0 75.16 7.5 95.49 22.7 20.82 14.52 31.22 37.22 31.22 67.81l-1.35 18.58c-158.81 45.79-261.95 85.58-309.05 119.02-46.8 33.11-70.18 75.8-70.18 127.39 0 59.59 15.88 104.5 47.63 134.9 31.94 29.86 78.89 44.87 141.04 44.87 37.56-0.15 72.89-5.95 105.52-17.72 32.96-11.61 64.9-29.91 95.3-54.3 3.24 23.91 13.79 42.01 32.09 54.3 18.58 11.77 44.04 17.72 76.13 17.72 25.46 0 52.28-4.07 80.45-12.1 28.51-8.18 61.27-21.15 98.01-38.92v-113.06c-15.54 6.34-27.83 10.6-37.41 12.82-9.05 2.57-17.91 3.59-26.48 3.59z"/>
    <path class="fil1" d="m6128.5 21412c0-128.41-25.6-240.41-76.86-336.19-50-95.65-124.49-174.01-223.52-234.95-94.57-57.55-250.62-126.71-467.99-207.3-44.92-16.07-78.03-28.7-99.76-37.56-103.43-37.75-180.44-77.68-231.7-119.02-51.2-42.35-76.66-87.41-76.66-135.43 0-58.71 28.36-103.82 84.89-135.38 57.7-31.41 140.71-47.28 249.61-47.28 100.09 0.14 211.08 18.44 332.81 55.46 121.73 36.89 259.53 94.1 412.72 171.25v-468.19c-127.05-60.94-256-107.21-386.58-138.62-130.64-31.75-260.4-47.48-389.83-47.48-255.8 0.19-463.45 60.93-623.41 182.71-158.81 121.93-238.19 280.01-238.19 474.82 0 184.94 60.94 337.26 182.86 456.96 122.75 118.49 346.8 234.8 672.06 349.03 131.65 45.73 215.34 85.52 251.35 119.16 35.87 32.62 53.77 76.33 53.77 130.78 0 67.28-28.84 118.34-86.54 153-57.55 33.98-142.4 50.72-254.45 50.72-110.98 0-225.69-21-344.37-63.5-117.47-42.54-261.95-116.99-433.88-223.52v507.3c121.73 74.1 248.45 129.57 380.1 166.45 132.67 37.08 269.74 55.52 411.13 55.52 282.76 0 503.71-60.26 662.52-181.17 159.82-120.71 239.92-286.68 239.92-497.57z"/>
    <path class="fil1" d="m6318.5 22711c-37.9 0-72.41 14.52-104.35 43.03-31.76 28.17-65.06 74.78-99.37 140.22v-172.79h-203.53v645.43h203.53v-277.82c13.16-59.1 34.85-105.52 65.39-139.5 30.93-34.17 65.58-51.06 104.16-51.06 16.75 0 33.83 3.58 51.06 10.74 17.09 7.17 36.01 18.98 56.54 34.85l54.64-185.28c-25.65-16.55-48.84-28.51-69.5-36.01-20.67-7.89-39.98-11.81-58.57-11.81z"/>
    <path class="fil1" d="m8298.7 23212c-19.12 13.31-37.42 23.23-54.65 30.05-17.08 6.83-33.3 10.07-48.35 10.07-22.17 0-39.59-6-52.42-18.29-12.78-12.44-19.12-28.85-19.12-49.66 0-25.27 11.81-47.29 34.66-65.39 23.76-18.64 70.37-40.13 139.88-64.72v157.94zm232.71 19.12c-9.39 0-16.21-3.1-20.47-9.06-4.11-5.8-6-16.07-6-31.26v-256.77c-0.15-78.75-21.01-136.3-62.83-171.97-41.67-36.02-109.09-54.12-202.17-54.12-58.37 0.34-111.32 6.83-158.61 19.99-46.81 12.78-89.64 32.09-128.75 58.57l-2.57 160.64c36.21-33.64 73.43-59.24 111.52-77 38.24-17.57 75.46-26.62 111.81-26.62 43.03 0 74.78 7.5 95.3 22.7 20.81 14.52 31.41 37.22 31.41 67.81l-1.35 18.58c-159 45.79-262.14 85.58-309.24 119.02-46.8 33.11-70.18 75.8-70.18 127.39 0 59.59 16.07 104.5 47.63 134.9 31.94 29.86 78.89 44.87 141.04 44.87 37.56-0.15 72.89-5.95 105.51-17.72 33.3-11.61 64.91-29.91 95.45-54.3 2.91 23.91 13.84 42.01 31.95 54.3 18.44 11.77 44.04 17.72 76.13 17.72 25.46 0 52.28-4.07 80.45-12.1 28.5-8.18 61.27-21.15 98.01-38.92v-113.06c-15.54 6.34-27.83 10.6-37.22 12.82-9.39 2.57-18.1 3.59-26.82 3.59z"/>
    <path class="fil1" d="m10313 22981c5.28-42.35 19.46-75.12 42.16-98.88 23.23-23.38 52.08-35.34 87.27-35.34 33.98 0 61.61 11.96 82.96 35.34 21.88 23.76 34.51 56.38 38.09 98.2l-250.48 0.68zm367.61-175.21c-58.56-64.72-138.47-97.29-239.58-97.29-102.76 0-184.9 30.01-246.56 89.98-61.81 59.24-92.55 138.81-92.55 238.18 0 107.74 31.42 191.91 94.63 252.71 63.16 60.79 150.09 91.19 261.22 91.19 55.52 0 107.41-6.83 156.1-20.33 49.17-14.19 95.45-35.53 139.64-64.04v-134.22c-41.29 28.56-82.48 50.24-123.28 64.72-40.95 14.71-81.61 21.87-122.41 21.87-60.99 0-108.76-14.52-143.95-44.23-34.85-29.87-52.27-70.53-52.27-124.45l456.77-7.01c0-113.55-29.19-202.37-87.76-267.08z"/>
    <path class="fil1" d="m13246 23223c-62.15 0-110.12-15.34-143.61-46.08-33.3-31.27-49.71-75.46-49.71-132.18 0-56 16.26-99.52 49.03-130.78 32.62-31.56 78.03-47.63 136.25-47.63 23.91 0 50.19 3.24 78.22 10.07 28.51 7.01 60.11 17.23 94.77 31.41v-158.61c-33.3-14.18-66.6-24.59-100.24-31.42-33.45-7.16-68.15-10.74-103.63-10.74-111.52 0-200.82 30.73-268.09 92.54-66.75 61.81-100.05 143.42-100.05 245.16 0 102.46 33.78 184.07 101.4 244.38 67.62 59.92 159.34 89.98 275.07 89.98 39.64 0 75.99-3.44 109.63-10.07 33.97-7.02 66.26-17.62 96.65-31.41v-157.26c-33.1 14.47-64.03 25.26-92.54 32.43-28.51 6.82-56.19 10.21-83.15 10.21z"/>
    <path class="fil1" d="m6942.8 20888c55.46-56.68 124.97-85.04 208.8-85.04 81.61 0.19 147.87 28.36 198.93 85.04 52.42 56.34 82.62 134.89 91.53 234.94l-600.38 1.36c12.98-100.92 46.47-179.96 101.12-236.3zm365.38 877.81c-145.83 0-260.55-35.53-344.23-106.05-83.83-71.87-125.65-169.21-125.65-298.64h1095v-16.35c0-272.02-70.33-484.94-210.7-639.49-140.36-155.56-331.79-233.39-574.43-233.39-245.68 0-442.58 71.88-590.45 215.48-148.01 142.4-221.97 332.77-221.97 571 0 257.83 75.51 459.62 226.76 605.31 151.31 145.78 359.97 218.53 626.66 218.53 132.52 0 256.96-16.21 373.61-48.98 117.47-33.64 228.99-84.56 334.51-153.19v-321.53c-99.03 68.68-197.39 120.23-295.59 155.08-97.68 34.8-195.69 52.22-293.51 52.22z"/>
    <polygon class="fil1" points="13295 19767 12807 19767 12807 22050 13295 22050"/>
    <path class="fil1" d="m12520 23177c-26.47 32.62-61.61 48.84-105.71 48.84-43.51 0-78.7-16.22-105.32-48.84-26.47-33.3-39.64-77.34-39.64-132.13 0-54.99 13.36-99.23 40.32-132.19 26.62-33.64 61.62-50.34 104.64-50.34 43.76 0 78.56 16.7 105.04 50.34 26.62 32.96 40.12 77.2 40.12 132.19 0 54.79-13.31 98.83-39.45 132.13zm-105.71-468.67c-104.83 0-190.02 31.41-255.94 94.04-65.39 62.2-98.16 142.93-98.16 242.5 0 98.83 32.77 179.47 98.16 241.42 65.92 62.01 151.3 92.89 255.94 92.89 105.91-0.15 191.77-31.08 257.5-93.37 65.78-62 98.69-142.59 98.69-240.94 0-99.23-33.11-179.82-99.37-242.5-65.73-62.63-151.45-94.04-256.82-94.04z"/>
    <path class="fil1" d="m9693 23095c-50.72 52.76-116.6 79.23-197.38 79.23h-177.73v-567.41h177.73c80.78 0 146.66 26.33 197.38 79.09 51.4 52.56 77.2 120.71 77.2 204.4 0 83.49-25.8 151.79-77.2 204.69zm136.93-581.4c-47.29-35.53-98.84-60.79-155.18-76.33-56.33-15.34-135.57-23.19-237.7-23.19h-357.39v952.79h357.39c97.15 0 170.43-5.47 219.94-16.41 49.52-11.42 94.77-30.06 135.38-55.85 72.41-46.28 127.39-103.97 165.63-172.94 38.29-69.51 57.07-146.51 57.07-231.36 0-77.88-15.54-148.4-47-212.1-31.22-63.84-77.35-118.68-138.14-164.61z"/>
    <path class="fil1" d="m11735 22708c-47.96 0-90.65 9.05-127.87 26.62-36.69 17.77-75.8 48.5-117.13 92.21-16.9-40.32-41-70.04-72.22-89.3-31.41-19.66-70.86-29.53-119.02-29.53-43.22 0.15-82.48 7.99-118 23.19-34.8 15.05-67.96 38.76-99.18 71.05v-81.12h-202.36v645.43h202.36v-411.17c19.94-33.98 41.97-59.39 66.07-76.33 24.4-17.23 50.53-25.75 78.02-25.75 32.43 0 55.52 10.22 69.51 31.22 14.52 20.33 22.02 54.31 22.02 101.6v380.43h197.19v-411.17c20.52-33.98 42.69-59.39 66.79-76.33 24.06-17.23 50.2-25.75 78.56-25.75 31.9 0 55.13 10.07 69.31 30.54 14.52 20.33 21.83 54.5 21.83 102.28v380.43h203.58v-408.6c0-80.59-18.98-142.4-56.73-185.24-37.37-43.03-91.87-64.71-162.73-64.71z"/>
    <path class="fil1" d="m4825.1 23173c-28.71 31.26-68.15 46.8-117.81 46.8-18.98 0-38.29-3.24-57.21-9.92-18.64-6.83-36.55-16.89-53.78-30.06v-276.61c18.93-13.51 38.24-23.38 57.84-29.87 19.51-6.82 39.3-10.26 59.29-10.26 46.28 0 83.5 16.75 111.67 49.71 28.51 32.77 42.83 76.14 42.83 130.1 0 54.99-14.32 98.36-42.83 130.11zm-50.39-466.5c-36.88 0-70.18 5.47-100.24 16.41-30.06 10.75-58.56 27.83-85.72 50.87v-52.95h-194.81v962.17h202.36v-364.36c24.4 20.86 51.36 36.4 80.93 46.46 29.52 9.88 61.95 14.67 97.48 14.67 90.32 0 163.6-30.54 219.74-92.55 56.88-62.14 85.24-143.26 85.24-242.78 0-100.58-28.36-181.84-85.24-243.84-56.14-62.83-129.42-94.1-219.74-94.1z"/>
    <polygon class="fil1" points="12453 19767 11965 19767 11965 22050 12453 22050"/>
   
  
 
</svg>
