<?xml version="1.0" encoding="UTF-8"?>
<!DOCTYPE svg  PUBLIC '-//W3C//DTD SVG 1.1//EN'  'http://www.w3.org/Graphics/SVG/1.1/DTD/svg11.dtd'>
<svg width="294.8mm" height="70.921mm" clip-rule="evenodd" fill-rule="evenodd" image-rendering="optimizeQuality" shape-rendering="geometricPrecision" text-rendering="geometricPrecision" version="1.1" viewBox="0 0 29480 7092.1" xml:space="preserve" xmlns="http://www.w3.org/2000/svg">
 <defs>
  <style type="text/css">
   <![CDATA[
    .fil0 {fill:#93303B;fill-rule:nonzero}
   ]]>
  </style>
 </defs>
 
  
  
   
    <path class="fil0" d="m3894.2 4420.4c0-188.73-153.2-341.93-342.19-341.93-188.82 0-341.94 153.2-341.94 341.93 0 189.08 153.12 341.68 341.94 341.68 188.99 0 342.19-152.6 342.19-341.68z"/>
    <path class="fil0" d="m4862.6 2102.9c189.07 0 341.67-153.2 341.67-341.93 0-189.08-152.6-342.28-341.67-342.28-188.99 0-341.94 153.2-341.94 342.28 0 188.73 152.95 341.93 341.94 341.93z"/>
    <path class="fil0" d="m1900 3533.7c0 188.99 153.2 342.2 342.19 342.2 188.47 0 341.68-153.21 341.68-342.2 0-189.07-153.21-341.93-341.68-341.93-188.99 0-342.19 152.86-342.19 341.93z"/>
    <path class="fil0" d="m3894.2 874.34c0-188.99-153.2-341.59-342.19-341.59-188.82 0-341.94 152.6-341.94 341.59 0 188.73 153.12 341.93 341.94 341.93 188.99 0 342.19-153.2 342.19-341.93z"/>
    <path class="fil0" d="m3210.1 2647.2c0 189.08 153.21 341.94 341.94 341.94 189.07 0 342.19-152.86 342.19-341.94 0-188.72-153.12-341.58-342.19-341.58-188.73 0-341.94 152.86-341.94 341.58z"/>
    <path class="fil0" d="m5204.3 3533.7c0-189.07-152.95-341.93-341.68-341.93-188.99 0-342.19 152.86-342.19 341.93 0 188.99 153.2 342.2 342.19 342.2 188.73 0 341.68-153.21 341.68-342.2z"/>
    <path class="fil0" d="m233.01 3214.8 3205.4 2140.1v1496.5h-3205.4v-3636.6zm0-1768.2 1792 1199.8-1116.5 747.28-675.54-451.03v-1496.1zm0-1232h794.18l2315 1550-1109.7 742.67-1999.5-1338.3v-954.42zm5424.3 0-2107.6 1410.9-2108.3-1410.9h4216zm1212.7 0v951.64l-2003.2 1341.1-1110.1-742.67 2315.1-1550h798.17zm0 2729.1-676.84 451.63-1119.3-748.84 1796.1-1202.9v1500.1zm0 3907.7h-3204l-0.26-1496.5 3204.2-2139.2v3635.6zm-3320.4-3184.1 1117.1 747.62-1114.7 743.97-1117.1-745.79 1114.7-745.8zm-207.49-139.05-1114.6 746.4-1111.5-742.14 1116.5-747.62 1109.7 743.36zm1524.7-743.36 1118.9 749.44-1111.6 741.8-1117.4-747.88 1110.1-743.36zm-1317.2 604.22-1110-742.67 1110-743.27 1109.7 743.27-1109.7 742.67zm-3544.1 3689.6h7092.1v-7092.1h-7092.1v7092.1z"/>
    <path class="fil0" d="m2584 1760.8c0-188.99-153.21-342.2-341.94-342.2-188.82 0-341.94 153.21-341.94 342.2 0 189.07 153.12 341.93 341.94 341.93 188.73 0 341.94-152.86 341.94-341.93z"/>
   
   
    <path class="fil0" d="m27187 6278.5c-111.41 0-197.59-27.56-257.77-82.79-59.83-56.18-89.58-135.58-89.58-237.5 0-100.62 29.48-178.81 88.36-234.99 58.96-56.7 139.93-85.57 244.55-85.57 43.22 0 89.84 5.83 140.8 18.09 50.96 12.61 108.01 30.96 169.93 56.44v-284.99c-59.48-25.48-119.32-44.18-180.02-56.44-60.18-12.87-122.1-19.31-185.67-19.31-200.63 0-361.35 55.23-482.23 166.28-120.02 111.06-179.85 257.68-179.85 440.49 0 184.1 60.79 330.73 182.54 439.09 121.5 107.66 286.3 161.67 493.97 161.67 71.23 0 136.54-6.17 197.33-18.09 61.05-12.61 118.97-31.65 173.59-56.44v-282.55c-59.49 26-115.06 45.39-166.28 58.26-51.49 12.27-101.23 18.35-149.67 18.35z"/>
    <polygon class="fil0" points="27712 6537.1 28078 6537.1 28078 5377.4 27712 5377.4"/>
    <path class="fil0" d="m24892 5358.4c-67.48 0-129.75 26.09-187.15 77.31-57.05 50.62-116.27 134.37-178.54 251.94v-310.47h-365.69v1159.7h365.69v-499.19c23.65-106.18 62.62-189.58 117.49-250.63 55.23-61.4 117.84-91.75 186.81-91.75 30.43 0 61.05 6.43 91.75 19.3 31.65 12.87 65.39 34.09 101.83 62.62l97.93-332.91c-45.4-29.74-87.14-51.22-124.89-64.7-36.52-14.18-71.74-21.22-105.23-21.22z"/>
    <path class="fil0" d="m25842 6259.1c-34.61 23.92-66.88 41.74-97.84 54.01-31.31 12.26-60.18 18.09-87.14 18.09-39.92 0-71.14-10.79-94.18-32.88-22.7-22.35-34.36-51.83-34.36-89.22 0-45.4 21.14-84.97 62.62-117.5 42.27-33.48 126.01-72.09 250.9-116.27v283.77zm418.48 34.35c-17.13 0-29.48-5.56-37.13-16.26-7.31-10.44-10.7-28.87-10.7-56.18v-461.36c0-141.49-37.74-244.9-112.62-308.99-74.88-64.7-196.02-97.23-363.26-97.23-105.49 0.61-200.63 12.26-285.34 35.92-84.01 22.96-161.06 57.66-230.98 105.23l-4.87 288.64c64.96-60.44 131.84-106.45 200.63-138.36 68.36-31.57 135.23-47.83 200.28-47.83 77.67 0 134.72 13.47 171.5 40.78 37.48 26.09 56.18 66.88 56.18 121.84l-2.17 33.4c-285.6 82.27-470.93 153.75-555.63 213.85-84.01 59.48-126.02 136.19-126.02 228.89 0 107.06 28.53 187.76 85.58 242.38 57.31 53.66 141.76 80.62 253.07 80.62 67.84-0.26 131.32-10.7 189.59-31.83 59.83-20.87 116.88-53.75 171.85-97.58 5.47 42.96 24.52 75.49 57.39 97.58 33.4 21.13 78.79 31.83 136.8 31.83 46.01 0 93.84-7.31 144.54-21.74 51.22-14.7 110.1-38.01 176.11-69.93v-203.15c-27.66 11.39-50.36 19.05-67.23 23.05-16.61 4.61-32.18 6.43-47.57 6.43z"/>
    <path class="fil0" d="m25817 3505c-82.18 56.44-160.45 100.01-234.72 128.88-73.92 29.4-143.58 43.84-207.94 43.84-95.75 0-171.23-26.09-225.5-79.14-55.22-52.44-82.27-123.93-82.27-213.85 0-109.5 49.74-203.07 149.76-281.34 101.22-80.1 301.25-173.06 600.67-278.55v680.16zm0-1117.1c-684.16 197.32-1127.8 368.82-1331.2 513.27-201.24 142.37-301.6 325.26-301.6 547.98 0 256.2 68.18 449.44 204.98 580.41 136.8 129.23 338.99 193.59 606.5 193.59 162.63 0 314.21-25.4 454.75-76.01 142.89-50.61 279.42-129.23 410.48-234.72 13.48 103.66 59.49 181.93 138.02 234.72 79.75 50.61 189.58 76.01 328.3 76.01 109.49 0 224.54-17.48 345.77-52.44 123.32-35.22 263.86-90.79 422.14-167.15v-486.93c-66.62 27.66-120.27 46.36-161.41 55.84-38.96 9.48-76.97 14.43-114.1 14.43-41.14 0-70.53-12.26-88.01-38.09-17.57-25.13-26.09-70.18-26.09-134.62v-1105.4c-0.61-339.96-90.27-587.55-270.03-741.48-179.76-154.36-469.97-231.68-870.71-231.68-252.12 0-479.79 28.53-682.86 84.71-201.33 54.87-386.31 138.97-554.41 252.2l-11.66 691.82c156.46-144.54 316.91-254.99 481.02-331.34 164.19-76.1 324.29-114.19 480.75-114.19 185.32 0 322.47 32.26 410.22 96.97 89.92 62.26 134.97 160.19 134.97 292.99 0 19.91-1.22 35.3-3.04 46.96 0 11.91-0.96 22.35-2.79 32.18z"/>
    <path class="fil0" d="m28952 6259.1c-34.35 23.92-66.88 41.74-97.84 54.01-30.96 12.26-60.18 18.09-86.79 18.09-40.26 0-71.49-10.79-94.18-32.88-22.79-22.35-34.44-51.83-34.44-89.22 0-45.4 20.87-84.97 62.61-117.5 42.36-33.48 126.1-72.09 250.64-116.27v283.77zm466.32 27.92c-16.18 4.61-32.18 6.43-48.1 6.43-16.87 0-28.87-5.56-36.52-16.26-7.4-10.44-10.79-28.87-10.79-56.18v-461.36c0-141.49-37.74-244.9-112.88-308.99-74.53-64.7-196.02-97.23-362.91-97.23-105.58 0.61-200.63 12.26-285.08 35.92-84.35 22.96-161.32 57.66-231.59 105.23l-4.87 288.64c65.31-60.44 132.19-106.45 200.89-138.36 68.45-31.57 135.32-47.83 200.37-47.83 77.58 0 134.72 13.47 171.5 40.78 37.4 26.09 56.1 66.88 56.1 121.84l-2.44 33.4c-285.34 82.27-470.57 153.75-555.63 213.85-83.75 59.48-125.75 136.19-125.75 228.89 0 107.06 28.52 187.76 85.57 242.38 56.79 53.66 141.76 80.62 253.42 80.62 67.49-0.26 130.71-10.7 189.33-31.83 59.83-20.87 116.88-53.75 171.5-97.58 5.48 42.96 24.87 75.49 57.4 97.58 33.39 21.13 79.14 31.83 137.4 31.83 45.4 0 93.58-7.31 144.19-21.74 51.23-14.7 110.19-38.01 175.85-69.93v-203.15c-27.66 11.39-50.01 19.05-66.96 23.05z"/>
    <path class="fil0" d="m20259 957.2c132.53 0 244.28-44.53 334.12-134.71 89.58-89.92 134.97-200.37 134.97-331.69 0-132.54-45.39-243.85-134.97-333.78-89.84-89.92-201.59-134.71-334.12-134.71-130.98 0-242.38 45.75-334.39 137.5-89.92 89.83-134.71 200.63-134.71 330.99 0 129.49 44.79 239.94 134.71 331.69 92.01 90.18 203.41 134.71 334.39 134.71z"/>
    <path class="fil0" d="m28095 3062.3 93.58 38.01c187.76 78.53 308.04 140.79 360.48 187.49 53.13 45.05 79.48 96.89 79.48 155.5 0 70.27-34.96 123.06-105.49 158.37-70.61 35.57-175.23 52.7-313.6 52.7-102.18 0-227.94-21.48-378.56-64.36-148.19-45.13-310.47-107.75-486.58-187.76v618.77c142.97 70.53 295.16 122.1 457.44 155.23 164.11 35.31 337.17 52.79 519.11 52.79 365.34 0 646.68-77.05 844.27-231.68 199.41-154.62 298.81-375.17 298.81-662.33 0-181.94-46.87-334.39-140.45-457.45-92.09-123.31-239.68-228.89-442.74-316.64-74.53-33.4-176.11-75.4-305-126.1-316.9-130.97-475.18-241.42-475.18-331.34 0-68.36 28.52-121.15 85.57-158.28 56.45-37.14 137.5-55.49 242.99-55.49 120.88 0 253.07 22.09 395.78 67.14 144.45 45.14 308.91 116.27 492.76 214.2v-613.03c-146.72-74.27-298.21-129.75-454.4-166.89-154.98-37.13-318.74-55.57-492.76-55.57-324.56 0-585.02 80.1-782.96 240.55-195.06 160.19-292.99 372.13-292.99 635.99 0 345.78 266.99 629.29 800.44 850.18z"/>
    <polygon class="fil0" points="19822 4170.7 20698 4170.7 20698 1391.4 19822 1391.4"/>
    <path class="fil0" d="m27895 4805.7c-54.88 0-100.88 19.04-139.58 57.4-37.4 37.39-56.09 83.4-56.09 138.36 0 53.66 18.69 99.66 56.09 138.01 38.7 37.75 84.7 56.45 139.58 56.45 55.22 0 101.92-18.7 139.32-56.45 37.4-37.39 56.44-83.4 56.44-138.01 0-55.57-19.04-101.84-56.44-139.58-37.4-37.75-84.1-56.18-139.32-56.18z"/>
    <path class="fil0" d="m9772.4 6259.1c-34.35 23.92-67.22 41.74-98.18 54.01-30.7 12.26-59.84 18.09-86.8 18.09-39.91 0-71.22-10.79-94.18-32.88-22.7-22.35-34.09-51.83-34.09-89.22 0-45.4 20.87-84.97 62.61-117.5 42.36-33.48 125.76-72.09 250.64-116.27v283.77zm418.14 34.35c-16.88 0-29.14-5.56-36.18-16.26-7.39-10.44-11.31-28.87-11.31-56.18v-461.36c0-141.49-37.74-244.9-112.62-308.99-74.88-64.7-196.02-97.23-363.26-97.23-105.23 0.61-200.02 12.26-285.34 35.92-84.09 22.96-161.06 57.66-230.98 105.23l-5.22 288.64c65.66-60.44 132.54-106.45 200.9-138.36 68.44-31.57 135.66-47.83 200.37-47.83 77.66 0 134.97 13.47 171.49 40.78 37.75 26.09 56.19 66.88 56.19 121.84l-2.18 33.4c-285.34 82.27-470.92 153.75-555.63 213.85-84.01 59.48-126.1 136.19-126.1 228.89 0 107.06 28.87 187.76 85.92 242.38 57.05 53.66 141.41 80.62 253.08 80.62 67.83-0.26 131.05-10.7 189.67-31.83 59.83-20.87 116.54-53.75 171.5-97.58 5.22 42.96 24.52 75.49 57.31 97.58 33.48 21.13 79.14 31.83 137.15 31.83 45.74 0 93.92-7.31 144.19-21.74 51.22-14.7 110.18-38.01 176.1-69.93v-203.15c-27.57 11.39-50 19.05-67.14 23.05-16.26 4.61-32.26 6.43-47.91 6.43z"/>
    <polygon class="fil0" points="13508 6537.1 13873 6537.1 13873 4825.1 13508 4825.1"/>
    <path class="fil0" d="m18253 1335.6c-207.41 0-391.17 38.01-551.37 114.45-157.93 76.1-326.38 208.02-504.05 395.78-72.36-172.1-176.11-300.03-310.73-384.13-135.06-84.09-306.21-126.1-513.28-126.1-185.33 0-354.65 33.48-506.84 99.4-150.63 64.71-293.34 166.63-428.31 305v-348.83h-870.71v2779.5h870.71v-1771.2c86.18-146.28 180.98-255.86 284.38-328.21 105.23-74.27 217.85-111.41 337.17-111.41 138.71 0 238.37 44.79 298.81 134.98 62.88 87.75 93.93 233.76 93.93 436.57v1639.2h850.1v-1771.2c88.35-146.28 183.76-255.86 287.51-328.21 103.4-74.27 215.93-111.41 337.17-111.41 138.97 0 238.37 43.92 299.07 131.93 62.62 87.75 93.93 234.72 93.93 439.62v1639.2h876.53v-1759.2c0-348.21-81.05-613.9-243.33-797.66-162.54-185.67-396.04-278.29-700.69-278.29z"/>
    <path class="fil0" d="m12138 6259.1c-34.09 23.92-66.88 41.74-97.58 54.01-30.96 12.26-60.09 18.09-87.14 18.09-39.83 0-71.14-10.79-94.18-32.88-22.7-22.35-34.35-51.83-34.35-89.22 0-45.4 20.87-84.97 62.61-117.5 42.35-33.48 126.1-72.09 250.64-116.27v283.77zm418.74 34.35c-17.48 0-29.39-5.56-37.13-16.26-7.05-10.44-10.7-28.87-10.7-56.18v-461.36c0-141.49-37.74-244.9-112.62-308.99-74.88-64.7-196.37-97.23-363.26-97.23-105.23 0.61-200.63 12.26-285.25 35.92-84.1 22.96-161.15 57.66-231.33 105.23l-4.96 288.64c65.4-60.44 132.54-106.45 200.63-138.36 68.79-31.57 135.67-47.83 200.64-47.83 77.66 0 135.05 13.47 171.58 40.78 37.4 26.09 56.09 66.88 56.09 121.84l-2.43 33.4c-285.34 82.27-470.66 153.75-555.28 213.85-84.1 59.48-126.1 136.19-126.1 228.89 0 107.06 28.52 187.76 85.57 242.38 57.4 53.66 141.76 80.62 253.42 80.62 67.49-0.26 130.97-10.7 189.59-31.83 59.22-20.87 116.62-53.75 171.24-97.58 5.82 42.96 24.78 75.49 57.65 97.58 33.4 21.13 79.14 31.83 136.8 31.83 45.75 0 93.93-7.31 144.54-21.74 51.22-14.7 110.1-38.01 176.11-69.93v-203.15c-27.92 11.39-50.01 19.05-67.23 23.05-16.26 4.61-32.17 6.43-47.57 6.43z"/>
    <path class="fil0" d="m10848 3024.2c0-230.72-46.01-431.96-138.1-604.07-89.84-171.85-223.68-312.64-401.61-422.13-169.94-103.41-450.32-227.68-840.88-372.48-80.71-28.87-140.19-51.57-179.24-67.49-185.85-67.83-324.21-139.58-416.31-213.85-92.01-76.09-137.76-157.06-137.76-243.33 0-105.49 50.97-186.54 152.54-243.25 103.67-56.44 252.82-84.96 448.49-84.96 179.85 0.26 379.26 33.13 597.98 99.66 218.72 66.27 466.32 169.06 741.57 307.69v-841.23c-228.29-109.49-459.97-192.63-694.61-249.07-234.72-57.05-467.88-85.31-700.42-85.31-459.62 0.34-832.71 109.49-1120.1 328.29-285.34 219.07-427.96 503.11-427.96 853.15 0 332.29 109.49 605.98 328.55 821.05 220.55 212.89 623.12 421.87 1207.5 627.11 236.55 82.18 386.92 153.67 451.62 214.11 64.44 58.62 96.62 137.15 96.62 234.99 0 120.88-51.83 212.63-155.49 274.9-103.41 61.05-255.86 91.14-457.19 91.14-199.41 0-405.52-37.75-618.76-114.1-211.07-76.45-470.67-210.2-779.57-401.61v911.49c218.72 133.15 446.4 232.81 682.95 299.08 238.37 66.62 484.66 99.75 738.69 99.75 508.06 0 905.06-108.27 1190.4-325.52 287.16-216.89 431.09-515.1 431.09-894.01z"/>
    <path class="fil0" d="m11189 5358.4c-68.09 0-130.1 26.09-187.5 77.31-57.05 50.62-116.88 134.37-178.54 251.94v-310.47h-365.69v1159.7h365.69v-499.19c23.66-106.18 62.62-189.58 117.49-250.63 55.57-61.4 117.84-91.75 187.16-91.75 30.09 0 60.78 6.43 91.74 19.3 30.7 12.87 64.71 34.09 101.58 62.62l98.19-332.91c-46.1-29.74-87.75-51.22-124.89-64.7-37.13-14.18-71.83-21.22-105.23-21.22z"/>
    <path class="fil0" d="m14747 6259.1c-34.35 23.92-67.22 41.74-98.18 54.01-30.7 12.26-59.84 18.09-86.88 18.09-39.84 0-71.14-10.79-94.19-32.88-22.96-22.35-34.35-51.83-34.35-89.22 0-45.4 21.22-84.97 62.27-117.5 42.7-33.48 126.45-72.09 251.33-116.27v283.77zm418.14 34.35c-16.88 0-29.14-5.56-36.79-16.26-7.39-10.44-10.79-28.87-10.79-56.18v-461.36c-0.26-141.49-37.74-244.9-112.88-308.99-74.88-64.7-196.02-97.23-363.26-97.23-104.88 0.61-200.02 12.26-284.99 35.92-84.09 22.96-161.06 57.66-231.33 105.23l-4.61 288.64c65.05-60.44 131.93-106.45 200.37-138.36 68.71-31.57 135.59-47.83 200.9-47.83 77.31 0 134.36 13.47 171.23 40.78 37.4 26.09 56.45 66.88 56.45 121.84l-2.44 33.4c-285.68 82.27-471.01 153.75-555.63 213.85-84.1 59.48-126.1 136.19-126.1 228.89 0 107.06 28.87 187.76 85.57 242.38 57.4 53.66 141.76 80.62 253.43 80.62 67.48-0.26 130.97-10.7 189.58-31.83 59.84-20.87 116.62-53.75 171.5-97.58 5.22 42.96 24.87 75.49 57.4 97.58 33.13 21.13 79.14 31.83 136.8 31.83 45.74 0 93.92-7.31 144.53-21.74 51.23-14.7 110.1-38.01 176.11-69.93v-203.15c-27.91 11.39-50 19.05-66.88 23.05-16.87 4.61-32.52 6.43-48.17 6.43z"/>
    <path class="fil0" d="m18366 5843.2c9.48-76.1 34.96-134.97 75.75-177.68 41.75-42 93.58-63.48 156.8-63.48 61.05 0 110.71 21.48 149.06 63.48 39.31 42.71 62.01 101.32 68.45 176.46l-450.06 1.22zm660.52-314.82c-105.23-116.28-248.82-174.8-430.49-174.8-184.63 0-332.21 53.92-443.01 161.67-111.05 106.44-166.28 249.42-166.28 427.96 0 193.59 56.44 344.82 170.02 454.05 113.49 109.23 269.69 163.85 469.36 163.85 99.75 0 192.98-12.27 280.47-36.53 88.36-25.48 171.5-63.83 250.9-115.06v-241.16c-74.19 51.31-148.19 90.28-221.51 116.28-73.57 26.44-146.62 39.31-219.94 39.31-109.57 0-195.41-26.09-258.63-79.49-62.62-53.66-93.93-126.71-93.93-223.59l820.71-12.61c0-204.02-52.45-363.61-157.67-479.88z"/>
    <path class="fil0" d="m23636 6278.5c-111.67 0-197.85-27.56-258.03-82.79-59.84-56.18-89.32-135.58-89.32-237.5 0-100.62 29.22-178.81 88.1-234.99 58.61-56.7 140.19-85.57 244.81-85.57 42.96 0 90.18 5.83 140.54 18.09 51.22 12.61 108.01 30.96 170.28 56.44v-284.99c-59.84-25.48-119.67-44.18-180.11-56.44-60.09-12.87-122.45-19.31-186.2-19.31-200.37 0-360.82 55.23-481.7 166.28-119.93 111.06-179.76 257.68-179.76 440.49 0 184.1 60.7 330.73 182.19 439.09 121.49 107.66 286.3 161.67 494.23 161.67 71.23 0 136.54-6.17 196.98-18.09 61.05-12.61 119.06-31.65 173.67-56.44v-282.55c-59.48 26-115.05 45.39-166.28 58.26-51.22 12.27-100.96 18.35-149.4 18.35z"/>
    <path class="fil0" d="m12311 2083.2c99.66-101.84 224.55-152.8 375.17-152.8 146.63 0.34 265.69 50.96 357.44 152.8 94.18 101.22 148.45 242.37 164.45 422.13l-1078.7 2.44c23.3-181.33 83.49-323.35 181.67-424.57zm656.51 1577.2c-262.03 0-468.14-63.83-618.51-190.54-150.62-129.15-225.76-304.04-225.76-536.59h1967.4v-29.39c0-488.75-126.36-871.32-378.56-1149-252.21-279.51-596.16-419.36-1032.1-419.36-441.44 0-795.22 129.15-1060.9 387.18-265.94 255.85-398.82 597.89-398.82 1025.9 0 463.27 135.66 825.84 407.43 1087.6 271.86 261.94 646.77 392.65 1126 392.65 238.11 0 461.71-29.13 671.29-88.01 211.07-60.44 411.44-151.93 601.03-275.25v-577.72c-177.93 123.41-354.65 216.03-531.1 278.64-175.5 62.53-351.61 93.84-527.37 93.84z"/>
    <polygon class="fil0" points="23724 69.1 22847 69.1 22847 4170.4 23724 4170.4"/>
    <path class="fil0" d="m22332 6195.7c-47.57 58.62-110.71 87.75-189.94 87.75-78.18 0-141.4-29.13-189.23-87.75-47.58-59.83-71.23-138.97-71.23-237.42 0-98.79 24-178.28 72.44-237.5 47.83-60.44 110.71-90.45 188.02-90.45 78.62 0 141.15 30.01 188.72 90.45 47.83 59.22 72.1 138.71 72.1 237.5 0 98.45-23.92 177.59-70.88 237.42zm-189.94-842.09c-188.36 0-341.43 56.44-459.87 168.97-117.5 111.75-176.37 256.81-176.37 435.7 0 177.59 58.87 322.48 176.37 433.79 118.44 111.41 271.85 166.89 459.87 166.89 190.29-0.26 344.57-55.83 462.67-167.76 118.18-111.4 177.32-256.2 177.32-432.92 0-178.28-59.48-323.08-178.54-435.7-118.1-112.53-272.12-168.97-461.45-168.97z"/>
    <path class="fil0" d="m17253 6048.5c-91.14 94.79-209.5 142.36-354.65 142.36h-319.34v-1019.5h319.34c145.15 0 263.51 47.31 354.65 142.11 92.36 94.44 138.71 216.89 138.71 367.26 0 150.01-46.35 272.72-138.71 367.78zm246.03-1044.6c-84.97-63.84-177.59-109.23-278.82-137.15-101.22-27.57-243.59-41.66-427.09-41.66h-642.16v1711.9h642.16c174.54 0 306.21-9.83 395.18-29.48 88.97-20.53 170.28-54.01 243.24-100.36 130.11-83.14 228.9-186.81 297.6-310.73 68.79-124.89 102.54-263.25 102.54-415.7 0-139.93-27.92-266.64-84.45-381.09-56.09-114.71-138.97-213.24-248.2-295.77z"/>
    <path class="fil0" d="m20922 5353.5c-86.19 0-162.89 16.26-229.77 47.83-65.92 31.92-136.19 87.14-210.46 165.67-30.35-72.44-73.66-125.84-129.75-160.45-56.44-35.31-127.32-53.05-213.85-53.05-77.66 0.26-148.19 14.35-212.03 41.66-62.53 27.04-122.1 69.66-178.19 127.66v-145.75h-363.61v1159.7h363.61v-738.78c35.83-61.05 75.4-106.7 118.71-137.14 43.83-30.96 90.79-46.27 140.19-46.27 58.26 0 99.75 18.35 124.88 56.1 26.09 36.52 39.57 97.57 39.57 182.54v683.55h354.3v-738.78c36.88-61.05 76.71-106.7 120.02-137.14 43.22-30.96 90.18-46.27 141.14-46.27 57.31 0 99.06 18.09 124.54 54.88 26.09 36.52 39.22 97.92 39.22 183.76v683.55h365.78v-734.17c0-144.8-34.09-255.85-101.92-332.82-67.14-77.31-165.07-116.27-292.38-116.27z"/>
    <path class="fil0" d="m8506.2 6189.4c-51.57 56.18-122.45 84.1-211.68 84.1-34.09 0-68.79-5.83-102.79-17.83-33.48-12.26-65.66-30.35-96.62-54.01v-497.01c34-24.26 68.7-42.01 103.92-53.66 35.05-12.26 70.62-18.44 106.54-18.44 83.14 0 150.01 30.09 200.63 89.32 51.22 58.88 76.96 136.8 76.96 233.76 0 98.8-25.74 176.72-76.96 233.77zm-90.53-838.18c-66.27 0-126.1 9.83-180.11 29.48-54.01 19.31-105.23 50.01-154.02 91.4v-95.14h-350.04v1728.8h363.61v-654.69c43.83 37.49 92.27 65.4 145.41 83.49 53.05 17.74 111.31 26.35 175.15 26.35 162.28 0 293.94-54.87 394.82-166.28 102.19-111.66 153.15-257.42 153.15-436.22 0-180.72-50.96-326.74-153.15-438.14-100.88-112.88-232.54-169.06-394.82-169.06z"/>
    <polygon class="fil0" points="22211 69.1 21335 69.1 21335 4170.4 22211 4170.4"/>
   
  
 
</svg>
