<?xml version="1.0" encoding="utf-8"?>
<!-- Generator: Adobe Illustrator 16.0.0, SVG Export Plug-In . SVG Version: 6.00 Build 0)  -->
<!DOCTYPE svg PUBLIC "-//W3C//DTD SVG 1.1//EN" "http://www.w3.org/Graphics/SVG/1.1/DTD/svg11.dtd">
<svg version="1.1" id="Capa_1" xmlns="http://www.w3.org/2000/svg" xmlns:xlink="http://www.w3.org/1999/xlink" x="0px" y="0px"
	 width="141.73px" height="141.73px" viewBox="0 0 141.73 141.73" enable-background="new 0 0 141.73 141.73" xml:space="preserve">
<g>
	<path d="M129.138,120.16H12.592c-5.55,0-10.078,4.527-10.078,10.077s4.528,10.078,10.098,10.078h116.525
		c5.55,0,10.078-4.528,10.078-10.078S134.688,120.16,129.138,120.16z M129.138,132.101H12.592c-1.032,0-1.863-0.831-1.863-1.863
		c0-1.031,0.841-1.863,1.883-1.863h116.525c1.032,0,1.863,0.832,1.863,1.863C131.001,131.27,130.17,132.101,129.138,132.101z"/>
	<path d="M14.315,42.603h19.394v55.528h-8.314c-5.55,0-10.078,4.519-10.078,10.067c0,5.561,4.528,10.088,10.078,10.088h90.92
		c5.569,0,10.098-4.527,10.098-10.088c0-5.549-4.528-10.067-10.098-10.067h-6.872V42.603h19.395c5.259,0,6.941-2.274,7.423-4.177
		c0.48-1.903,0.08-4.698-4.548-7.193L80.282,3.354c-4.769-2.584-12.603-2.584-17.411,0L11.41,31.233
		c-4.608,2.504-4.999,5.299-4.518,7.203C7.373,40.329,9.056,42.603,14.315,42.603z M66.768,10.576
		c2.394-1.302,7.233-1.302,9.607-0.01l43.947,23.822h-14.986c-2.264,0-4.107,1.843-4.107,4.107v63.743
		c0,2.264,1.844,4.107,4.107,4.107h10.979c1.042,0,1.884,0.831,1.884,1.853c0,1.032-0.842,1.874-1.884,1.874h-90.92
		c-1.032,0-1.863-0.842-1.863-1.874c0-1.021,0.832-1.853,1.863-1.853h12.422c2.264,0,4.107-1.844,4.107-4.107V38.496
		c0-2.264-1.843-4.107-4.107-4.107H22.811L66.768,10.576z"/>
	<path d="M49.758,106.346h15.848c2.264,0,4.107-1.844,4.107-4.107V38.496c0-2.264-1.843-4.107-4.107-4.107H49.758
		c-2.264,0-4.107,1.843-4.107,4.107v63.743C45.651,104.502,47.494,106.346,49.758,106.346z M53.865,42.603h7.633v55.528h-7.633
		V42.603z"/>
	<path d="M77.547,106.346h15.848c2.265,0,4.107-1.844,4.107-4.107V38.496c0-2.264-1.843-4.107-4.107-4.107H77.547
		c-2.264,0-4.107,1.843-4.107,4.107v63.743C73.439,104.502,75.283,106.346,77.547,106.346z M81.654,42.603h7.634v55.528h-7.634
		V42.603z"/>
</g>
</svg>
