<?xml version="1.0" encoding="utf-8"?>
<!-- Generator: Adobe Illustrator 16.0.0, SVG Export Plug-In . SVG Version: 6.00 Build 0)  -->
<!DOCTYPE svg PUBLIC "-//W3C//DTD SVG 1.1//EN" "http://www.w3.org/Graphics/SVG/1.1/DTD/svg11.dtd">
<svg version="1.1" id="Capa_1" xmlns="http://www.w3.org/2000/svg" xmlns:xlink="http://www.w3.org/1999/xlink" x="0px" y="0px"
	 width="141.73px" height="105.172px" viewBox="0 0 141.73 105.172" enable-background="new 0 0 141.73 105.172"
	 xml:space="preserve">
<g>
	<path opacity="0.1" fill="#003459" enable-background="new    " d="M68.299,22.779c-8.153,2.652-16.689,3.048-24.958,3.094
		c-8.271,0.047-16.571-0.213-24.938,1.248c-5.38,0.94-11.215,2.902-14.398,6.849c-3.068,3.79-2.849,8.363-2.153,12.426
		c0.521,3.056,1.313,6.188,3.686,8.369c1.65,1.515,3.947,2.458,5.79,3.814c6.412,4.717,6.233,13.448,3.906,21.153
		c-1.092,3.613-2.569,7.218-3.11,10.84c-0.542,3.623-0.045,7.371,2.501,9.949c2.523,2.555,6.734,3.64,10.979,3.938
		c8.621,0.612,17.724-1.61,26.458-4.158c19.343-5.639,38.172-13.008,56.957-20.36c6.949-2.721,13.93-5.455,20.476-8.934
		c3.637-1.933,7.285-4.233,9.303-7.344c2.569-3.949,1.811-8.794-1.767-11.295c-5.996-4.193-17.485-1.628-22.439-6.666
		c-2.737-2.774-2.497-7.047-1.389-10.923c2.378-8.33,8.27-17.011,5.965-24.722c-1.583-5.294-7.296-9.106-14.122-9.423
		c-7.151-0.331-15.658,3.102-18.71,9.021C83.196,15.747,75.501,20.43,68.299,22.779z"/>
	<g>
		<rect x="10.761" y="14.245" fill="#F2F2F2" width="118.165" height="75.677"/>
		<rect x="21.21" y="24.407" fill="#FFFFFF" width="42.658" height="43.835"/>
		<rect x="79.824" y="25.258" fill="#FFFFFF" width="42.658" height="53.238"/>
		<ellipse fill="#E6E6E6" cx="121.914" cy="94.333" rx="7.641" ry="1.091"/>
		<ellipse fill="#E6E6E6" cx="45.513" cy="94.357" rx="7.642" ry="1.092"/>
		<rect x="10.71" y="14.178" fill="#003459" width="118.165" height="5.02"/>
		<circle fill="#E6E6E6" cx="14.44" cy="16.745" r="0.93"/>
		<circle fill="#E6E6E6" cx="17.972" cy="16.745" r="0.93"/>
		<circle fill="#E6E6E6" cx="21.504" cy="16.745" r="0.93"/>
		<rect x="27.743" y="56.463" fill="#003459" width="29.65" height="1.353"/>
		<rect x="27.743" y="60.829" fill="#E6E6E6" width="29.65" height="1.353"/>
		<rect x="108.932" y="81.56" fill="#3F3D56" width="2.885" height="2.885"/>
		<rect x="104.283" y="81.56" fill="#003459" width="2.885" height="2.885"/>
		<rect x="99.636" y="81.56" fill="#3F3D56" width="2.885" height="2.885"/>
		<rect x="94.989" y="81.56" fill="#3F3D56" width="2.884" height="2.885"/>
		<rect x="90.339" y="81.56" fill="#3F3D56" width="2.886" height="2.885"/>
		<path fill="#A0616A" d="M38.747,60.463l-0.125,0.25l-0.374-1.869c0,0-0.498-1.991,0.499-1.991c0.994,0,0.746,1.991,0.746,1.991
			v1.369L38.747,60.463z"/>
		<path fill="#A0616A" d="M55.078,60.208l0.124,0.25l0.374-1.867c0,0,0.497-1.992-0.498-1.992c-0.996,0-0.747,1.992-0.747,1.992
			v1.369L55.078,60.208z"/>
		<polygon fill="#2F2E41" points="44.223,74.462 42.729,83.671 43.476,92.634 45.219,91.887 44.969,85.166 46.713,79.813 
			47.086,86.16 46.339,92.759 48.579,93.007 50.197,79.439 50.073,74.834 		"/>
		<path fill="#2F2E41" d="M44.223,91.514l-0.871,1.369v3.059c0,0.183,0.132,0.338,0.312,0.367c0.426,0.068,1.17,0.119,1.431-0.313
			c0.373-0.623,0.124-1.992,0.124-1.992s0.498-0.996,0.249-1.742c-0.249-0.747-0.499-0.871-0.499-0.871L44.223,91.514z"/>
		<path fill="#2F2E41" d="M47.957,92.759l0.249,0.372c0,0,0.373,0.374,0.125,0.622c-0.184,0.193-0.35,0.401-0.498,0.622
			c0,0-1.369,0.375-1.369-0.123v-1.618L47.957,92.759z"/>
		<circle fill="#A0616A" cx="47.509" cy="62.68" r="1.651"/>
		<polygon fill="#A0616A" points="46.401,63.196 46.276,65.562 48.518,65.686 48.393,63.321 		"/>
		<path fill="#575A89" d="M48.829,65.749l-0.354-0.863c0,0-1.639-0.632-2.136-0.01l-0.249,0.748l-1.991-0.497l-1.12,2.488
			l0.995,7.093c0,0,2.614,3.362,6.1,0.126l0.996-6.722l-0.748-2.613L48.829,65.749z"/>
		<polygon fill="#575A89" points="50.073,65.996 50.322,65.499 52.812,64.005 54.331,59.508 55.506,60.012 54.181,65.375 
			50.571,68.734 		"/>
		<polygon fill="#575A89" points="44.347,65.375 44.099,65.127 41.484,63.507 39.617,59.774 38.124,60.271 39.741,64.876 
			43.725,68.112 		"/>
		<path fill="#2F2E41" d="M48.732,60.154l0.271-0.136l-0.404-0.135v-0.135c0,0-2.023-0.81-2.293,0.541
			c-0.716,0.959-0.716,2.276,0,3.236v0.405l2.158,0.27l0.269-0.81C48.732,63.391,50.082,60.963,48.732,60.154z"/>
		<path fill="#FFB8B8" d="M115.768,63.09l0.137-0.883c0,0,0.798-1.815,0.167-1.913c-0.632-0.097-1.157,1.63-1.157,1.63l0.231,1.844
			L115.768,63.09z"/>
		<polygon fill="#575A89" points="122.229,68.099 116.587,66.964 115.933,62.858 114.273,62.729 114.354,68.041 119.254,70.609 		
			"/>
		<polygon opacity="0.2" enable-background="new    " points="122.229,68.099 116.587,66.964 115.933,62.858 114.273,62.729 
			114.354,68.041 119.254,70.609 		"/>
		<rect x="106.885" y="60.65" fill="#003459" width="17.309" height="1.354"/>
		<path fill="#FFB8B8" d="M114.665,62.788l0.002-0.895c0,0,0.513-1.914-0.126-1.915c-0.638,0-0.896,1.787-0.896,1.787l0.508,1.788
			L114.665,62.788z"/>
		<path fill="#2F2E41" d="M122.007,65.348l0.774-0.188c1.1,0.001,1.992-0.891,1.993-1.991c0.001-0.133-0.012-0.266-0.038-0.397l0,0
			c0.001-1.438-1.163-2.605-2.602-2.607l0,0l0,0c-1.438-0.001-2.605,1.163-2.606,2.601l0,0l0,0c-0.315,1.099,0.317,2.244,1.416,2.56
			C121.291,65.425,121.656,65.432,122.007,65.348z"/>
		<polygon fill="#2F2E41" points="117.455,78.243 118.085,85.14 119.227,91.909 121.142,91.911 120.895,85.271 119.884,77.224 		"/>
		<path fill="#2F2E41" d="M119.481,91.525l-1.277,0.766c0,0-2.044,0.254-1.663,0.891c0.384,0.641,4.854,0.262,4.854,0.007
			s-0.125-1.659-0.381-1.66L119.481,91.525z"/>
		<path fill="#2F2E41" d="M123.11,77.646c0,0-0.036,0.985-0.933,2.517l0.122,4.728l4.59,5.878l-1.662,1.403l-5.611-6.394
			l-1.395-7.663l1.791-1.785L123.11,77.646z"/>
		<path fill="#2F2E41" d="M126.507,90.769c0,0,1.532,0.258,1.275,0.896c-0.256,0.637-0.898,3.573-2.558,3.188
			c0,0-0.767,0-0.511-0.512c0.153-0.306,0.325-0.604,0.512-0.893l0.002-1.661L126.507,90.769z"/>
		<circle fill="#FFB8B8" cx="121.178" cy="63.561" r="1.916"/>
		<polygon fill="#FFB8B8" points="122.07,64.841 122.066,67.011 120.024,67.008 120.282,64.837 		"/>
		<path fill="#575A89" d="M119.514,66.24l0.618-0.15l1.936,0.155c0,0,1.021,1.022,0.893,1.277c-0.128,0.256-0.774,6.511-0.774,6.511
			l1.145,4.472l-4.087,0.251l-2.044-0.259l0.394-8.044c0,0-0.892-2.172,0.259-2.809C118.501,67.304,119.069,66.823,119.514,66.24z"
			/>
		<polygon fill="#575A89" points="121.812,66.756 116.064,66.492 114.794,62.532 113.134,62.658 114.021,67.896 119.254,69.69 		"/>
		<circle fill="#2F2E41" cx="124.875" cy="60.914" r="1.236"/>
		<path fill="#2F2E41" d="M123.734,60.25c0-0.682,0.554-1.235,1.236-1.235c0.081,0,0.163,0.009,0.242,0.025
			c-0.616-0.292-1.353-0.029-1.644,0.588c-0.291,0.616-0.028,1.354,0.589,1.645c0.091,0.043,0.187,0.075,0.285,0.094
			C124.011,61.164,123.734,60.729,123.734,60.25z"/>
		<path fill="#2F2E41" d="M122.674,60.951l-1.666-0.306l-1.281,0.803c-0.644,0.403-0.991,1.143-0.895,1.896l1.282-0.325l0.288-0.721
			l0.342,0.56l1.389,2.429l1.406-0.766l0.894-1.403L122.674,60.951z"/>
		<g>
			<rect x="89.829" y="36.601" fill="#F2F2F2" width="18.305" height="34.256"/>
			<path fill="#3F3D56" d="M112.549,70.929H89.757V32.825h22.792V70.929z M89.9,70.785h22.507V32.968H89.9V70.785z"/>
			<path fill="#3F3D56" d="M109.771,52.839H92.535V37.028h17.236V52.839z M92.678,52.697h16.95V37.169h-16.95V52.697z"/>
			<polygon fill="#3F3D56" points="92.658,48.647 92.557,48.546 97.927,43.174 101.081,46.328 109.613,37.797 109.714,37.896 
				101.081,46.529 97.927,43.375 			"/>
			<circle fill="#003459" cx="97.948" cy="43.295" r="1.069"/>
			<circle fill="#003459" cx="101.152" cy="46.215" r="1.068"/>
			<circle fill="#003459" cx="109.698" cy="37.81" r="1.068"/>
			<rect x="94.672" y="57.254" fill="#3F3D56" width="12.963" height="1.283"/>
			<polygon fill="#3F3D56" points="104.145,67.795 98.162,67.795 98.162,61.812 102.223,61.812 102.223,61.955 98.305,61.955 
				98.305,67.652 104.001,67.652 104.001,64.803 104.145,64.803 			"/>
			<polygon fill="#003459" points="101.122,66.234 99.856,64.547 100.312,64.205 101.184,65.368 105.19,61.362 105.592,61.765 			
				"/>
		</g>
		<g>
			<g opacity="0.2">
				<rect x="27.743" y="42.315" width="3.395" height="11.204"/>
				<rect x="34.307" y="34.277" width="3.395" height="19.241"/>
				<rect x="40.871" y="26.244" width="3.395" height="27.274"/>
				<rect x="47.435" y="28.846" width="3.395" height="24.672"/>
				<rect x="53.998" y="36.541" width="3.396" height="16.977"/>
			</g>
		</g>
	</g>
</g>
</svg>
