<?xml version="1.0" encoding="utf-8"?>
<!-- Generator: Adobe Illustrator 16.0.0, SVG Export Plug-In . SVG Version: 6.00 Build 0)  -->
<!DOCTYPE svg PUBLIC "-//W3C//DTD SVG 1.1//EN" "http://www.w3.org/Graphics/SVG/1.1/DTD/svg11.dtd">
<svg version="1.1" id="Capa_1" xmlns="http://www.w3.org/2000/svg" xmlns:xlink="http://www.w3.org/1999/xlink" x="0px" y="0px"
	 width="141.73px" height="103.159px" viewBox="0 0 141.73 103.159" enable-background="new 0 0 141.73 103.159"
	 xml:space="preserve">
<g>
	<path opacity="0.1" fill="#003459" enable-background="new    " d="M132.012,59.722c-4.889,6.701-3.269,16.267-0.448,23.886
		c0.944,2.551,2.02,5.249,1.528,8.024c-0.6,3.394-3.413,5.934-6.339,7.32c-5.331,2.521-11.631,2.12-16.4-1.061
		c-4.116-2.744-7.015-7.304-11.21-9.917c-7.021-4.372-16.139-2.42-23.954,0.919c-5.528,2.36-11.586,5.402-16.974,3.222
		c-3.793-1.534-6.346-5.438-7.688-9.614c-0.649-2.015-1.104-4.203-2.396-5.782c-0.769-0.937-1.783-1.591-2.83-2.138
		c-9.525-4.989-21.783-1.869-31.021-7.438C8.043,63.384,4.161,56.09,2.549,48.419c-1.613-7.67-1.214-15.765-0.572-23.725
		c0.456-5.656,1.179-11.698,4.579-16.142c3.596-4.7,9.623-6.57,15.013-5.833c5.39,0.739,10.221,3.736,14.45,7.304
		c5.288,4.46,10.152,10.057,16.728,11.746c4.479,1.152,9.238,0.336,13.895-0.024c7.783-0.602,15.539,0.091,23.247,0.873
		c7.379,0.748,14.809,1.584,21.799,4.037c4.946,1.737,8.865,5.02,13.522,7.261c3.034,1.462,6.374,1.802,9.23,3.691
		c3.523,2.326,6.711,6.447,5.677,11.394C139.141,53.7,134.607,56.167,132.012,59.722z"/>
	<g>
		<ellipse opacity="0.1" fill="#003459" enable-background="new    " cx="72.292" cy="83.374" rx="62.503" ry="5.084"/>
		<path fill="#FFFFFF" d="M23.668,25.042h95.876c1.164,0,2.11,0.944,2.11,2.111v53.141c0,1.166-0.946,2.11-2.11,2.11H23.668
			c-1.167,0-2.11-0.944-2.11-2.11V27.152C21.558,25.985,22.501,25.042,23.668,25.042z"/>
		<path fill="#3F3D56" d="M121.655,27.152v3.026H21.558v-3.026c-0.001-1.167,0.941-2.113,2.108-2.114c0,0,0.002,0,0.003,0h95.877
			c1.164,0,2.108,0.943,2.108,2.111C121.655,27.15,121.655,27.151,121.655,27.152z"/>
		<g opacity="0.6">
			<path fill="#003459" d="M30.856,38.468h16.027c1.063,0,1.927,0.863,1.927,1.927v9.628c0,1.065-0.863,1.928-1.927,1.928H30.856
				c-1.065,0-1.929-0.862-1.929-1.928v-9.628C28.927,39.331,29.791,38.468,30.856,38.468z"/>
			<path fill="#FFFFFF" d="M36.933,50.044c-1.474-0.959-2.058-2.831-1.388-4.457c-1.252-1.741-0.855-4.17,0.887-5.421
				c1.742-1.253,4.169-0.855,5.421,0.887c0.873,1.212,0.972,2.817,0.257,4.128c0.949,1.68,0.429,3.808-1.188,4.86
				c0.796,0.478,1.427,1.182,1.82,2.022H35.11C35.504,51.223,36.139,50.521,36.933,50.044z"/>
		</g>
		<path fill="#003459" d="M62.849,60.636h16.029c1.063,0,1.927,0.863,1.927,1.928v9.628c0,1.065-0.863,1.927-1.927,1.927H62.849
			c-1.063,0-1.927-0.861-1.927-1.927v-9.628C60.922,61.499,61.786,60.636,62.849,60.636z"/>
		<path fill="#FFFFFF" d="M72.802,72.897c0.566,0.336,1.052,0.792,1.423,1.336h-6.835c0.37-0.544,0.857-1,1.424-1.336
			c-1.476-0.958-2.056-2.83-1.388-4.456c-1.252-1.743-0.856-4.17,0.887-5.423c1.744-1.251,4.169-0.855,5.423,0.888
			c0.871,1.212,0.971,2.815,0.257,4.127c0.947,1.679,0.427,3.808-1.19,4.861V72.897z"/>
		<g opacity="0.6">
			<path fill="#003459" d="M62.849,38.468h16.029c1.063,0,1.927,0.863,1.927,1.927v9.628c0,1.065-0.863,1.928-1.927,1.928H62.849
				c-1.063,0-1.927-0.862-1.927-1.928v-9.628C60.922,39.331,61.786,38.468,62.849,38.468z"/>
			<path fill="#FFFFFF" d="M74.732,46.244c0.303,1.472-0.329,2.981-1.588,3.8c0.796,0.479,1.428,1.181,1.82,2.021h-7.63
				c0.391-0.839,1.025-1.542,1.82-2.021c-1.353-0.882-1.967-2.546-1.511-4.096c-0.05,0.006-0.099,0.009-0.15,0.008
				c-0.821-0.008-1.479-0.68-1.47-1.5c0.008-0.764,0.593-1.398,1.355-1.465c-0.077-0.183-0.115-0.379-0.115-0.577
				c0.005-0.821,0.672-1.484,1.49-1.481c0.619,0.001,1.171,0.386,1.388,0.963c0.479-0.442,1.188-0.522,1.751-0.197
				c0.709-0.412,1.619-0.172,2.029,0.539c0.033,0.054,0.061,0.11,0.086,0.167c0.806-0.001,1.464,0.643,1.485,1.449
				c0.522,0.63,0.438,1.567-0.193,2.092c-0.164,0.138-0.357,0.236-0.566,0.292L74.732,46.244z"/>
		</g>
		<g opacity="0.6">
			<path fill="#003459" d="M96.33,60.636h16.026c1.065,0,1.928,0.863,1.928,1.928v9.628c0,1.065-0.862,1.927-1.928,1.927H96.33
				c-1.065,0-1.928-0.861-1.928-1.927v-9.628C94.402,61.499,95.265,60.636,96.33,60.636z"/>
			<path fill="#FFFFFF" d="M108.212,69.098c0.304,1.472-0.325,2.98-1.587,3.8c0.566,0.336,1.051,0.792,1.421,1.336h-6.833
				c0.37-0.544,0.856-1,1.421-1.336c-1.351-0.882-1.966-2.546-1.51-4.095c-0.052,0.004-0.101,0.008-0.15,0.007
				c-0.819-0.007-1.479-0.681-1.469-1.499c0.006-0.766,0.592-1.399,1.354-1.466c-0.077-0.183-0.115-0.379-0.115-0.577
				c0.003-0.82,0.67-1.482,1.489-1.48c0.619,0.001,1.171,0.384,1.388,0.962c0.478-0.442,1.188-0.521,1.752-0.196
				c0.71-0.412,1.619-0.171,2.03,0.538c0.03,0.055,0.06,0.11,0.085,0.169c0.805-0.002,1.464,0.642,1.483,1.448
				c0.526,0.631,0.439,1.567-0.191,2.091c-0.165,0.138-0.357,0.237-0.565,0.294L108.212,69.098z"/>
		</g>
		<path fill="#003459" d="M96.33,38.468h16.026c1.065,0,1.928,0.863,1.928,1.927v9.628c0,1.065-0.862,1.928-1.928,1.928H96.33
			c-1.065,0-1.928-0.862-1.928-1.928v-9.628C94.402,39.331,95.265,38.468,96.33,38.468z"/>
		<path fill="#FFFFFF" d="M108.102,52.064h-7.632c0.393-0.839,1.027-1.542,1.821-2.021c-1.582-1.03-2.119-3.096-1.239-4.767
			c-0.481-0.357-0.766-0.793-0.766-1.267c0-1.198,1.817-2.172,4.057-2.172c2.242,0,4.058,0.974,4.058,2.172
			c0,0.5-0.315,0.96-0.849,1.328c0.836,1.663,0.29,3.69-1.27,4.707C107.076,50.522,107.711,51.225,108.102,52.064z"/>
		<g opacity="0.6">
			<path fill="#003459" d="M30.856,60.636h16.027c1.063,0,1.927,0.863,1.927,1.928v9.628c0,1.065-0.863,1.927-1.927,1.927H30.856
				c-1.065,0-1.929-0.861-1.929-1.927v-9.628C28.927,61.499,29.791,60.636,30.856,60.636z"/>
			<path fill="#003459" d="M40.579,72.897c0.565,0.336,1.053,0.792,1.423,1.336h-6.836c0.372-0.544,0.858-1,1.423-1.336
				c-1.581-1.031-2.118-3.098-1.239-4.769c-0.48-0.356-0.764-0.799-0.764-1.267c0-1.197,1.817-2.17,4.056-2.17
				c2.241,0,4.056,0.973,4.056,2.17c0,0.501-0.315,0.961-0.847,1.328C42.688,69.854,42.141,71.881,40.579,72.897L40.579,72.897z"/>
			<path fill="#003459" d="M30.856,60.636h16.027c1.063,0,1.927,0.863,1.927,1.928v9.628c0,1.065-0.863,1.927-1.927,1.927H30.856
				c-1.065,0-1.929-0.861-1.929-1.927v-9.628C28.927,61.499,29.791,60.636,30.856,60.636z"/>
			<path fill="#FFFFFF" d="M40.579,72.897c0.565,0.336,1.053,0.792,1.423,1.336h-6.836c0.372-0.544,0.858-1,1.423-1.336
				c-1.581-1.031-2.118-3.098-1.239-4.769c-0.48-0.356-0.764-0.799-0.764-1.267c0-1.197,1.817-2.17,4.056-2.17
				c2.241,0,4.056,0.973,4.056,2.17c0,0.501-0.315,0.961-0.847,1.328C42.688,69.854,42.141,71.881,40.579,72.897L40.579,72.897z"/>
		</g>
		
			<linearGradient id="SVGID_1_" gradientUnits="userSpaceOnUse" x1="-87.7085" y1="522.9707" x2="-87.7085" y2="559.8486" gradientTransform="matrix(1 0 0 -1 206.8999 608.5195)">
			<stop  offset="0" style="stop-color:#808080;stop-opacity:0.25"/>
			<stop  offset="0.54" style="stop-color:#808080;stop-opacity:0.12"/>
			<stop  offset="1" style="stop-color:#808080;stop-opacity:0.1"/>
		</linearGradient>
		<path fill="url(#SVGID_1_)" d="M126.41,81.695c-0.189-0.141-0.397-0.256-0.617-0.342c-0.017-0.01-0.033-0.014-0.051-0.014
			c-0.457-0.327-0.881-0.694-1.271-1.097c0.078-0.063,0.158-0.13,0.239-0.192c-0.5-0.238-0.773-0.78-1.043-1.271
			c-0.71-1.305-1.646-2.469-2.766-3.445c-0.027-0.106-0.187-0.086-0.272-0.151c-0.056-0.056-0.078-0.136-0.061-0.212
			c0.014-0.077,0.049-0.147,0.068-0.222c0.027-0.181,0.022-0.362-0.015-0.538c-0.019-0.182-0.011-0.383,0.107-0.517
			c0.038-0.043,0.087-0.076,0.124-0.121c0.081-0.107,0.111-0.242,0.086-0.373c-0.01-0.13-0.038-0.257-0.088-0.378l1.221-3.324
			c0.284-0.775,0.571-1.565,0.6-2.393c0.024-0.66-0.146-1.354-0.55-1.86c0.073-0.017,0.146-0.036,0.22-0.056
			c-0.476-0.631-0.528-1.463-0.538-2.254c-0.008-0.395-0.021-0.79-0.041-1.187c0.136,0.061,0.276,0.114,0.42,0.16
			c0.044,0.015,0.087,0.03,0.132,0.042c0.216,0.063,0.436,0.112,0.657,0.141c0.099,0.015,0.198,0.025,0.299,0.031l0,0l-0.43-1.073
			c-0.073-0.16-0.118-0.329-0.132-0.503l0,0c0-0.011,0-0.022,0-0.034c-0.002-0.02-0.002-0.04,0-0.061
			c0.004-0.046,0.018-0.093,0.031-0.139c0.008-0.023,0.017-0.045,0.027-0.066c0.028-0.064,0.063-0.127,0.105-0.186
			c0.03-0.047,0.063-0.09,0.096-0.135c0.124-0.144,0.223-0.307,0.297-0.483c0.031-0.088,0.046-0.181,0.048-0.274
			c0-0.095-0.009-0.187-0.026-0.281c-0.013-0.062-0.026-0.125-0.043-0.184l0,0c-0.011-0.036-0.021-0.074-0.035-0.113
			c-0.001-0.011-0.004-0.021-0.008-0.03c-0.01-0.029-0.019-0.057-0.028-0.083l-0.01-0.028c-0.011-0.03-0.022-0.058-0.033-0.088
			l-0.008-0.019c-0.16-0.407-0.369-0.8-0.495-1.214c-0.031-0.112-0.061-0.227-0.083-0.341l-0.013-0.089
			c0-0.024-0.008-0.049-0.013-0.073l-0.01-0.088c0-0.026-0.004-0.054-0.006-0.081c-0.003-0.027,0-0.053,0-0.081
			c0-0.05,0-0.1,0-0.152c0-0.017,0-0.035,0-0.054c0-0.038,0-0.077,0-0.114v-0.062c0-0.038,0-0.076,0.008-0.115
			c0-0.019,0-0.035,0-0.053c0-0.055,0.013-0.114,0.022-0.166l0,0l0.027-0.148c0.03-0.137,0.046-0.278,0.048-0.419
			c0-0.027,0-0.053,0-0.081l-0.012-0.066c0-0.006,0-0.013,0-0.02c0-0.015-0.008-0.03-0.011-0.044c-0.005-0.016,0-0.016,0-0.022
			l-0.015-0.042l-0.006-0.02l-0.018-0.043l-0.009-0.015c-0.008-0.017-0.018-0.036-0.026-0.054l0,0
			c-0.032-0.061-0.07-0.119-0.113-0.172l0,0c-0.271-0.358-0.728-0.631-0.977-1.028c-0.146-0.256-0.239-0.536-0.279-0.827
			c-0.013-0.066-0.023-0.131-0.035-0.198c-0.011-0.066-0.021-0.129-0.033-0.194c-0.008-0.041-0.015-0.081-0.023-0.114
			c0-0.009,0-0.017,0-0.026l-0.02-0.096c0-0.007,0-0.015,0-0.021l-0.024-0.1c0-0.006,0-0.014,0-0.019
			c-0.008-0.034-0.018-0.07-0.026-0.104c0,0,0-0.008,0-0.012c-0.012-0.037-0.021-0.074-0.032-0.115v-0.006
			c-0.013-0.039-0.024-0.076-0.035-0.115l0,0c-0.015-0.039-0.025-0.077-0.041-0.115l0,0c-0.013-0.039-0.029-0.077-0.045-0.112l0,0
			c-0.105-0.268-0.246-0.519-0.421-0.746c-0.38-0.488-0.967-0.838-1.579-0.815c-0.326,0.03-0.646,0.111-0.948,0.239l-0.8,0.296
			l0.222-0.104c-0.231,0.007-0.461,0.056-0.679,0.146c-0.22,0.094-0.37,0.301-0.394,0.539c0,0.138,0.05,0.273,0.033,0.41
			c-0.03,0.227-0.235,0.376-0.345,0.576c-0.062,0.12-0.091,0.254-0.081,0.391v0.007v0.046c0,0.004,0,0.008,0,0.013v0.026
			c-0.335-0.145-0.667-0.294-0.993-0.457c-0.548-0.27-1.104-0.587-1.445-1.099c-0.113-0.164-0.193-0.342-0.304-0.51
			c-0.124-0.177-0.261-0.343-0.413-0.498l-1.016-1.103c-0.078,0.146,0.021,0.321,0.099,0.466c0.085,0.153,0.147,0.316,0.188,0.487
			c0.022,0.054,0.022,0.116,0,0.169c-0.037,0.045-0.085,0.079-0.139,0.1c-0.193,0.12-0.279,0.355-0.211,0.571
			c0.072,0.211,0.252,0.366,0.471,0.411c0.072,0.008,0.144,0.026,0.211,0.051c0.122,0.062,0.18,0.202,0.268,0.307
			c0.161,0.191,0.418,0.265,0.659,0.329c0.375,0.433,0.769,0.851,1.144,1.286c0.571,0.658,1.151,1.326,1.895,1.771
			c0.077,0.045,0.156,0.088,0.236,0.13c0,0.014,0,0.026,0,0.041c-0.02,0.098-0.007,0.2,0.036,0.29c0.083,0.096,0.2,0.152,0.326,0.16
			l0.562,0.1c0,0.073-0.016,0.145-0.027,0.218c-0.009,0.043-0.017,0.086-0.025,0.129l0,0l-0.011,0.057c0,0.004,0,0.007,0,0.01
			c0,0.014,0,0.029-0.007,0.045c-0.004,0.016,0,0.01,0,0.016c0,0.006,0,0.026,0,0.041v0.016c0,0.019,0,0.036,0,0.054
			c0.021,0.222,0.173,0.403,0.314,0.571c0.027,0.031,0.053,0.064,0.08,0.096c-0.126,0.158-0.214,0.341-0.257,0.538
			c-0.025,0.123-0.038,0.248-0.037,0.374c-0.076,0.071-0.136,0.159-0.17,0.258c-0.039,0.135-0.055,0.278-0.042,0.419v0.011
			c0,0.051,0,0.103,0,0.154c-0.011,0.198,0.022,0.397,0.096,0.583l0.022,0.042c-0.123,0.244-0.335,0.434-0.48,0.667
			c-0.308,0.522-0.253,1.181,0.131,1.648c0.115,0.131,0.262,0.258,0.273,0.432c0,0.08-0.009,0.159-0.022,0.236
			c-0.013,0.188,0.073,0.365,0.119,0.548c0.05,0.151,0.033,0.318-0.046,0.457c-0.086,0.126-0.128,0.281-0.113,0.435
			c0.043,0.236-0.056,0.471-0.072,0.708c-0.008,0.102,0,0.206-0.008,0.307c-0.022,0.096-0.053,0.191-0.091,0.282l-0.006,0.032
			c-0.206,0.091-0.412,0.185-0.605,0.294c-0.106,0.047-0.195,0.126-0.253,0.228c-0.032,0.103-0.037,0.212-0.013,0.316
			c0.058,0.409,0.116,0.818,0.177,1.229c-0.011,0-0.021-0.008-0.03-0.015c0.013,0.204,0.028,0.406,0.041,0.608
			c-0.003,0.154,0.035,0.306,0.115,0.438c0.048,0.05,0.088,0.104,0.126,0.161c0.068,0.141-0.015,0.305-0.075,0.449
			c-0.062,0.144-0.083,0.35,0.052,0.428c0.071,0.049,0.149,0.09,0.229,0.121c-0.169,0.685-0.013,1.416,0.142,2.111l0.353,1.59
			c0.047,0.227,0.073,0.456,0.078,0.688c0,0.031,0,0.063,0,0.099c0.018,0.315,0.073,0.628,0.168,0.932
			c0.184,0.62,0.008,1.37,0.065,2.04c0.038,0.327,0.104,0.648,0.192,0.962c0.402,1.588,0.76,3.148,0.896,4.781
			c0.146,0.188,0.347,0.326,0.571,0.402c-0.016,0.201,0,0.429,0,0.547c0,0.098-0.016,0.193-0.045,0.286
			c-0.084,0.178-0.242,0.313-0.434,0.368c-0.058,0.021-0.113,0.036-0.177,0.053l0.066-0.06c-0.376-0.081-0.771-0.014-1.099,0.19
			c-0.104,0.054-0.182,0.145-0.219,0.257c-0.013,0.106,0.015,0.212,0.078,0.298c0.182,0.267,0.453,0.459,0.766,0.546
			c0.31,0.081,0.627,0.124,0.947,0.131l0.586,0.035c-0.042,0.068-0.025,0.157,0.038,0.207c0.062,0.045,0.136,0.073,0.215,0.08
			c0.238,0.034,0.482,0.038,0.723,0.009c0.06-0.001,0.117-0.022,0.165-0.059c0.044-0.04,0.048-0.108,0.008-0.151
			c-0.002-0.004-0.005-0.007-0.008-0.008c0.073-0.002,0.135-0.048,0.159-0.113c0.022-0.069,0.032-0.141,0.022-0.211
			c-0.017-0.272-0.04-0.67-0.182-0.914c-0.05-0.091-0.155-0.139-0.256-0.113c-0.092-0.488-0.145-0.978-0.162-1.472
			c0.146-0.057,0.288-0.12,0.426-0.193c-0.407-0.657-0.418-1.493-0.29-2.259c0.051-0.24,0.089-0.484,0.112-0.73
			c0.029-0.488-0.044-1.043-0.317-1.448c0.495,0.315,0.934,0.711,1.296,1.171c0.57,0.746,0.923,1.652,1.625,2.272l0.279-0.268
			c0.149,0.252,0.29,0.509,0.421,0.771c0.104,0.191,0.187,0.396,0.244,0.606c0.065,0.321,0.073,0.652,0.022,0.976
			c-0.02,0.174-0.042,0.345-0.07,0.517c-0.011,0.073-0.028,0.144-0.051,0.214c0-0.021-0.005-0.043-0.015-0.063
			c-0.046-0.077-0.161-0.042-0.229,0.01c-0.12,0.091-0.217,0.207-0.286,0.338c-0.039,0.063-0.057,0.137-0.052,0.211
			c0.021,0.089,0.081,0.165,0.164,0.207c0.306,0.182,0.692,0.051,1.028-0.083c0.091-0.032,0.178-0.076,0.257-0.131
			c0.163-0.113,0.259-0.315,0.423-0.431c0.088-0.05,0.174-0.103,0.254-0.163c0.153-0.14,0.171-0.376,0.277-0.555
			c0.187-0.307,0.603-0.383,0.766-0.708C126.914,82.383,126.694,81.932,126.41,81.695z"/>
		<path fill="#A1616A" d="M119.258,83.156c0,0.096-0.016,0.191-0.045,0.282c-0.086,0.179-0.244,0.312-0.436,0.363
			c-0.183,0.064-0.378,0.085-0.57,0.14c-0.082,0.019-0.156,0.057-0.221,0.114c-0.162,0.163-0.066,0.466,0.128,0.589
			s0.44,0.114,0.672,0.104c0.489-0.028,0.975-0.099,1.453-0.207c0.172-0.04,0.374-0.121,0.401-0.294
			c0.005-0.056,0-0.111-0.015-0.166c-0.117-0.595-0.18-1.197-0.185-1.802c0-0.039-0.964-0.064-1.053-0.007
			C119.192,82.4,119.269,82.952,119.258,83.156z"/>
		<path fill="#A1616A" d="M123.547,81.044c0.158,0.262,0.308,0.533,0.448,0.808c0.277,0.469,0.372,1.027,0.267,1.563
			c-0.02,0.169-0.043,0.341-0.07,0.507s-0.073,0.354-0.214,0.45c0.128,0.076,0.284,0.089,0.421,0.038
			c0.139-0.055,0.265-0.131,0.373-0.229c0.712-0.586,1.248-1.439,1.271-2.361c0.008-0.07-0.006-0.144-0.04-0.207
			c-0.031-0.046-0.076-0.086-0.124-0.115c-0.529-0.36-1.022-0.775-1.471-1.234c-0.035-0.065-0.118-0.089-0.185-0.054
			c-0.007,0.003-0.013,0.009-0.018,0.013c-0.273,0.137-0.729,0.333-0.844,0.643C123.438,80.905,123.504,80.968,123.547,81.044z"/>
		<path fill="#3F3D56" d="M120.239,84.119c-0.597,0.253-1.248,0.342-1.889,0.423c-0.08,0.024-0.165,0.008-0.23-0.041
			c-0.043-0.056-0.049-0.133-0.014-0.193c0.033-0.059,0.081-0.111,0.137-0.153l0.431-0.356c-0.376-0.083-0.769-0.017-1.099,0.185
			c-0.103,0.053-0.182,0.144-0.217,0.255c-0.013,0.104,0.013,0.209,0.076,0.294c0.184,0.265,0.456,0.454,0.768,0.537
			c0.308,0.082,0.625,0.125,0.945,0.13l0.584,0.035c-0.041,0.066-0.025,0.156,0.037,0.205c0.065,0.045,0.139,0.072,0.215,0.077
			c0.239,0.033,0.483,0.036,0.725,0.011c0.059-0.003,0.116-0.022,0.164-0.061c0.043-0.038,0.046-0.104,0.008-0.146
			c-0.003-0.004-0.005-0.007-0.008-0.008c0.071-0.002,0.134-0.05,0.159-0.115c0.021-0.067,0.029-0.139,0.021-0.207
			c-0.017-0.269-0.04-0.659-0.183-0.898C120.729,83.854,120.431,84.037,120.239,84.119z"/>
		<path fill="#3F3D56" d="M126.395,81.746c-0.188-0.139-0.396-0.255-0.614-0.341c-0.032-0.026-0.077-0.022-0.104,0.009
			c-0.005,0.007-0.009,0.012-0.012,0.02c-0.391,0.531-0.697,1.121-0.906,1.748c-0.113,0.355-0.212,0.735-0.456,1.029
			c-0.031,0.036-0.081,0.076-0.126,0.054c-0.044-0.021-0.023-0.132-0.059-0.193c-0.035-0.061-0.161-0.041-0.229,0.012
			c-0.118,0.088-0.215,0.201-0.285,0.332c-0.038,0.062-0.058,0.135-0.051,0.207c0.021,0.088,0.079,0.164,0.162,0.204
			c0.307,0.179,0.692,0.053,1.027-0.081c0.093-0.034,0.179-0.077,0.259-0.128c0.161-0.115,0.257-0.312,0.421-0.426
			c0.088-0.05,0.172-0.104,0.254-0.161c0.152-0.137,0.169-0.372,0.278-0.546c0.186-0.303,0.601-0.379,0.763-0.7
			C126.896,82.426,126.68,81.978,126.395,81.746z"/>
		<path fill="#3F3D56" d="M121.764,65.177c0.654,0.489,0.927,1.359,0.899,2.17c-0.028,0.812-0.317,1.601-0.6,2.361
			c-0.408,1.092-0.813,2.186-1.219,3.279c0.047,0.12,0.077,0.244,0.086,0.372c0.026,0.129-0.005,0.264-0.086,0.367
			c-0.036,0.044-0.084,0.079-0.124,0.121c-0.104,0.146-0.144,0.332-0.107,0.507c0.037,0.178,0.042,0.357,0.015,0.533
			c-0.02,0.073-0.054,0.144-0.068,0.22c-0.018,0.075,0.005,0.156,0.062,0.209c0.086,0.065,0.245,0.043,0.271,0.148
			c1.117,0.96,2.052,2.112,2.765,3.399c0.27,0.483,0.54,1.022,1.041,1.258c-0.489,0.387-0.957,0.8-1.403,1.235
			c-0.702-0.614-1.051-1.508-1.624-2.243c-0.362-0.456-0.801-0.846-1.293-1.154c0.271,0.398,0.343,0.945,0.317,1.429
			c-0.024,0.241-0.062,0.481-0.115,0.721c-0.128,0.755-0.113,1.579,0.29,2.227c-0.434,0.23-0.933,0.395-1.419,0.326
			c-0.304-0.042-0.579-0.2-0.772-0.44c-0.139-1.612-0.494-3.15-0.895-4.719c-0.091-0.309-0.155-0.628-0.193-0.947
			c-0.059-0.667,0.115-1.403-0.066-2.015c-0.093-0.298-0.148-0.604-0.166-0.914c0-0.031,0-0.066,0-0.099
			c-0.007-0.227-0.032-0.451-0.078-0.673l-0.356-1.575c-0.152-0.686-0.308-1.4-0.14-2.083c-0.082-0.03-0.156-0.068-0.229-0.114
			c-0.135-0.078-0.113-0.279-0.052-0.422c0.064-0.143,0.144-0.305,0.075-0.442c-0.037-0.058-0.08-0.11-0.126-0.159
			c-0.08-0.131-0.118-0.281-0.113-0.434l-0.045-0.599c0.251,0.1,0.46,0.283,0.592,0.519c-0.327-0.507-0.166-1.229,0.075-1.781
			c0.093-0.348,0.402-0.594,0.761-0.604C119.061,64.927,120.686,64.363,121.764,65.177z"/>
		<path opacity="0.1" enable-background="new    " d="M121.159,68.583c0,0-0.655,0.438-0.655,0.764s-0.163,3.269-0.163,3.269v2.071
			c0,0,0.115,1.09,0,1.362c-0.115,0.271,0,1.524,0,1.688c0,0.164,0.163-1.688,0.163-1.688v-1.962l0.164-4.469L121.159,68.583z"/>
		<path fill="#A1616A" d="M117.513,53.473l-0.381-0.152c-0.778-0.312-1.557-0.625-2.31-0.991c-0.549-0.267-1.104-0.579-1.445-1.083
			c-0.113-0.162-0.193-0.344-0.303-0.503c-0.123-0.175-0.262-0.339-0.412-0.491l-1.018-1.087c-0.076,0.144,0.022,0.315,0.103,0.456
			c0.081,0.151,0.145,0.312,0.187,0.48c0.021,0.054,0.018,0.114-0.005,0.167c-0.029,0.05-0.09,0.07-0.141,0.097
			c-0.188,0.117-0.274,0.349-0.209,0.562c0.075,0.208,0.254,0.362,0.471,0.404c0.071,0.008,0.144,0.026,0.211,0.052
			c0.121,0.059,0.18,0.197,0.268,0.303c0.159,0.189,0.418,0.262,0.657,0.323c0.376,0.429,0.769,0.84,1.142,1.269
			c0.571,0.648,1.152,1.308,1.896,1.748c0.265,0.162,0.554,0.277,0.858,0.343C117.18,54.728,117.323,54.094,117.513,53.473z"/>
		<path opacity="0.15" enable-background="new    " d="M117.513,53.473l-0.381-0.152c-0.778-0.312-1.557-0.625-2.31-0.991
			c-0.549-0.267-1.104-0.579-1.445-1.083c-0.113-0.162-0.193-0.344-0.303-0.503c-0.123-0.175-0.262-0.339-0.412-0.491l-1.018-1.087
			c-0.076,0.144,0.022,0.315,0.103,0.456c0.081,0.151,0.145,0.312,0.187,0.48c0.021,0.054,0.018,0.114-0.005,0.167
			c-0.029,0.05-0.09,0.07-0.141,0.097c-0.188,0.117-0.274,0.349-0.209,0.562c0.075,0.208,0.254,0.362,0.471,0.404
			c0.071,0.008,0.144,0.026,0.211,0.052c0.121,0.059,0.18,0.197,0.268,0.303c0.159,0.189,0.418,0.262,0.657,0.323
			c0.376,0.429,0.769,0.84,1.142,1.269c0.571,0.648,1.152,1.308,1.896,1.748c0.265,0.162,0.554,0.277,0.858,0.343
			C117.18,54.728,117.323,54.094,117.513,53.473z"/>
		<path fill="#575A89" d="M116.812,55.639c-0.128-0.006-0.245-0.063-0.327-0.157c-0.043-0.089-0.056-0.189-0.036-0.285
			c0.066-0.623,0.205-1.238,0.411-1.829c0.186,0.344,0.552,0.542,0.896,0.723c0.307,0.171,0.629,0.317,0.959,0.438
			c-0.078-0.027-0.286,1.25-0.4,1.328c-0.144,0.103-0.491-0.034-0.651-0.062L116.812,55.639z"/>
		<circle fill="#A1616A" cx="117.698" cy="53.518" r="1.743"/>
		<path fill="#FBBEBE" d="M117.346,54.962c0,0,1.142,0.98,0.653,1.634c-0.489,0.654-0.764,1.09-0.109,1.142
			c0.655,0.053,2.832-1.089,2.832-1.089s-2.014-1.636-1.688-2.616C119.36,53.053,117.346,54.962,117.346,54.962z"/>
		<path fill="#575A89" d="M118.441,56.497c-0.496,0.12-0.882,0.509-1,1.006c-0.128,0.589,0.145,1.24-0.113,1.787
			c-0.123,0.257-0.343,0.449-0.5,0.685c-0.306,0.516-0.255,1.168,0.133,1.627c0.113,0.128,0.26,0.254,0.272,0.426
			c-0.001,0.077-0.009,0.154-0.023,0.229c-0.015,0.185,0.073,0.359,0.113,0.54c0.048,0.149,0.033,0.311-0.045,0.446
			c-0.088,0.126-0.129,0.278-0.115,0.43c0.042,0.229-0.054,0.462-0.071,0.697c-0.008,0.102,0,0.204-0.008,0.305
			c-0.013,0.096-0.033,0.192-0.061,0.283l-0.147,0.54c0.792,0.324,1.642,0.477,2.493,0.445c0.768-0.016,1.522-0.175,2.271-0.333
			c0.229-0.047,0.458-0.096,0.685-0.157c-0.473-0.621-0.523-1.443-0.536-2.223c-0.021-1.3-0.118-2.597-0.292-3.885
			c0.229-0.434,0.332-0.914,0.426-1.4c0.043-0.194,0.061-0.392,0.055-0.591c-0.024-0.42-0.214-0.809-0.402-1.186
			c-0.169-0.342-0.355-0.706-0.736-0.852c-0.188-0.082-0.405-0.059-0.571,0.062c-0.29,0.218-0.201,0.592-0.276,0.915
			c-0.097,0.413-0.479,0.711-0.887,0.833c-0.305,0.079-0.62,0.108-0.933,0.087c-0.09-0.006-0.16-0.083-0.153-0.174
			c0.002-0.036,0.016-0.07,0.04-0.098C118.194,56.789,118.329,56.638,118.441,56.497z"/>
		<path fill="#A1616A" d="M119.794,63.237c-0.646,0.528-1.299,1.06-2.045,1.434c-0.436,0.218-0.901,0.382-1.329,0.616
			c-0.106,0.046-0.196,0.127-0.252,0.229c-0.035,0.102-0.038,0.209-0.013,0.312l0.19,1.304c0.051,0.354,0.391,0.579,0.666,0.802
			c-0.03-0.104-0.025-0.216,0.017-0.316c0.019-0.033,0.041-0.065,0.063-0.097c0.104-0.187,0.136-0.403,0.093-0.611
			c-0.043-0.207-0.069-0.418-0.072-0.629c-0.005-0.073,0.029-0.142,0.086-0.183c0.929-0.446,1.926-0.787,2.857-1.212
			c0.249-0.101,0.483-0.232,0.695-0.395c0.215-0.163,0.358-0.402,0.403-0.667c0.008-0.035,0.002-0.073-0.016-0.104
			c-0.02-0.019-0.045-0.034-0.07-0.041C120.653,63.528,120.21,63.389,119.794,63.237z"/>
		<path opacity="0.1" enable-background="new    " d="M118.001,57.765c-0.322,0.053-0.659,0.219-0.768,0.526
			c-0.038,0.136-0.054,0.275-0.041,0.414c-0.01,0.194,0.023,0.389,0.096,0.571c0.054,0.1,0.121,0.195,0.194,0.281
			c0.768,0.983,1.151,2.217,1.898,3.214c0.065,0.089,0.188,0.202,0.149,0.307c-0.013,0.025-0.025,0.052-0.035,0.078
			c-0.006,0.054,0.013,0.109,0.055,0.146c0.04,0.036,0.071,0.081,0.089,0.131c0.015,0.053-0.019,0.121-0.071,0.114
			c0.088,0.278,0.363,0.439,0.624,0.571c0.432,0.219,0.912,0.391,1.394,0.344c0.09-0.362,0.217-0.772,0.166-1.143
			c-0.055-0.282-0.146-0.554-0.277-0.809l-0.325-0.709c-0.276-0.604-0.556-1.213-0.939-1.755c-0.138-0.172-0.254-0.359-0.344-0.561
			c-0.099-0.256-0.37-0.436-0.534-0.656c-0.244-0.329-0.494-0.662-0.824-0.903C118.373,57.833,118.16,57.737,118.001,57.765z"/>
		<path fill="#575A89" d="M118.001,57.604c-0.322,0.053-0.659,0.22-0.768,0.526c-0.038,0.135-0.054,0.275-0.041,0.413
			c-0.01,0.195,0.023,0.39,0.096,0.572c0.054,0.1,0.121,0.195,0.194,0.281c0.768,0.982,1.151,2.216,1.898,3.214
			c0.065,0.089,0.188,0.202,0.149,0.307c-0.013,0.025-0.025,0.052-0.035,0.078c-0.006,0.054,0.013,0.109,0.055,0.146
			c0.04,0.035,0.071,0.081,0.089,0.131c0.015,0.053-0.019,0.121-0.071,0.114c0.088,0.278,0.363,0.439,0.624,0.572
			c0.432,0.218,0.912,0.39,1.394,0.343c0.09-0.362,0.217-0.772,0.166-1.143c-0.055-0.282-0.146-0.554-0.277-0.809l-0.325-0.709
			c-0.276-0.604-0.556-1.213-0.939-1.756c-0.138-0.172-0.254-0.36-0.344-0.56c-0.099-0.256-0.37-0.436-0.534-0.656
			c-0.244-0.329-0.494-0.662-0.824-0.903C118.373,57.673,118.16,57.574,118.001,57.604z"/>
		<path fill="#3F3D56" d="M117.269,50.653c-0.232,0.007-0.464,0.054-0.68,0.144c-0.218,0.093-0.368,0.297-0.392,0.534
			c0,0.134,0.048,0.269,0.031,0.403c-0.03,0.223-0.235,0.372-0.344,0.571c-0.184,0.343-0.04,0.778,0.2,1.083
			c0.241,0.305,0.571,0.535,0.813,0.834c0.396,0.486,0.561,1.12,0.45,1.735c-0.03,0.118-0.046,0.241-0.043,0.363
			c0.018,0.218,0.169,0.398,0.311,0.563c0.712,0.831,1.369,1.705,1.969,2.619c0.179,0.263,0.341,0.54,0.484,0.826
			c0.141,0.298,0.248,0.616,0.445,0.877c0.181,0.228,0.4,0.417,0.652,0.56c0.634,0.39,1.35,0.621,2.09,0.674l-0.428-1.06
			c-0.091-0.183-0.136-0.385-0.128-0.587c0.048-0.382,0.433-0.633,0.559-0.996c0.065-0.239,0.058-0.494-0.023-0.729
			c-0.15-0.537-0.457-1.02-0.616-1.553c-0.142-0.468-0.174-0.962-0.091-1.445c0.051-0.208,0.075-0.424,0.067-0.639
			c-0.08-0.649-0.841-0.957-1.192-1.508c-0.229-0.353-0.271-0.79-0.344-1.203c-0.113-0.603-0.309-1.205-0.685-1.688
			c-0.38-0.481-0.967-0.826-1.579-0.799c-0.328,0.03-0.646,0.109-0.947,0.238l-0.801,0.291"/>
		<g opacity="0.1">
			<path d="M120.839,52.005c0.068,0.373,0.114,0.763,0.287,1.095c-0.024-0.128-0.045-0.258-0.067-0.386
				c-0.059-0.325-0.146-0.645-0.268-0.951C120.812,51.848,120.824,51.927,120.839,52.005z"/>
			<path d="M122.311,55.359c-0.081,0.481-0.049,0.976,0.095,1.443c0.038,0.127,0.083,0.251,0.135,0.374
				c-0.069-0.366-0.074-0.743-0.011-1.109c0.053-0.209,0.075-0.426,0.067-0.64c-0.026-0.182-0.101-0.354-0.216-0.496
				C122.368,55.074,122.335,55.216,122.311,55.359z"/>
			<path d="M123.237,59.064c-0.045-0.156-0.099-0.309-0.164-0.457c0.03,0.159,0.02,0.326-0.032,0.479
				c-0.124,0.362-0.51,0.614-0.557,0.995c-0.006,0.203,0.037,0.406,0.128,0.588l0.088,0.212c-0.003-0.031-0.003-0.062,0-0.093
				c0.046-0.38,0.431-0.632,0.557-0.994C123.325,59.556,123.318,59.301,123.237,59.064z"/>
			<path d="M120.95,61.054c-0.252-0.145-0.472-0.333-0.654-0.56c-0.194-0.263-0.303-0.581-0.444-0.877
				c-0.143-0.286-0.304-0.563-0.483-0.827c-0.602-0.914-1.257-1.789-1.969-2.619l-0.073-0.088c-0.018,0.075-0.023,0.152-0.02,0.229
				c0.02,0.219,0.17,0.396,0.312,0.565c0.711,0.829,1.367,1.704,1.967,2.617c0.182,0.264,0.343,0.541,0.484,0.828
				c0.141,0.296,0.249,0.614,0.447,0.876c0.179,0.226,0.401,0.416,0.652,0.56c0.632,0.39,1.348,0.622,2.089,0.675l-0.288-0.714
				C122.255,61.656,121.562,61.43,120.95,61.054z"/>
			<path d="M116.682,53.508c-0.245-0.299-0.571-0.528-0.813-0.832c-0.022-0.029-0.041-0.06-0.063-0.088
				c-0.007,0.292,0.094,0.576,0.284,0.801c0.237,0.305,0.57,0.534,0.812,0.833c0.096,0.118,0.177,0.245,0.247,0.38
				C117.097,54.2,116.938,53.822,116.682,53.508z"/>
		</g>
		<path fill="#3ACC6C" d="M115.122,38.938l-0.579-0.582c-0.116-0.121-0.312-0.122-0.433-0.003c0,0.001,0,0.001-0.001,0.003
			l-3.629,3.593l-1.536-1.547c-0.118-0.119-0.31-0.12-0.429-0.002c0,0.001-0.002,0.002-0.002,0.002l-0.586,0.577
			c-0.119,0.122-0.119,0.316,0,0.437l2.332,2.347c0.12,0.12,0.316,0.12,0.436,0l4.427-4.395c0.121-0.119,0.121-0.312,0.001-0.432
			C115.123,38.937,115.123,38.937,115.122,38.938z"/>
		<path fill="#3ACC6C" d="M81.527,60.419l-0.578-0.581c-0.119-0.119-0.312-0.121-0.432-0.002c0,0-0.002,0.001-0.002,0.002
			l-3.63,3.594l-1.535-1.548c-0.118-0.119-0.311-0.12-0.431-0.001c0,0-0.001,0.001-0.003,0.001l-0.582,0.571
			c-0.12,0.122-0.12,0.316,0,0.438l2.329,2.348c0.122,0.12,0.315,0.12,0.437,0l4.427-4.394
			C81.642,60.728,81.642,60.539,81.527,60.419z"/>
	</g>
</g>
</svg>
