<?xml version="1.0" encoding="utf-8"?>
<!-- Generator: Adobe Illustrator 16.0.0, SVG Export Plug-In . SVG Version: 6.00 Build 0)  -->
<!DOCTYPE svg PUBLIC "-//W3C//DTD SVG 1.1//EN" "http://www.w3.org/Graphics/SVG/1.1/DTD/svg11.dtd">
<svg version="1.1" id="Capa_1" xmlns="http://www.w3.org/2000/svg" xmlns:xlink="http://www.w3.org/1999/xlink" x="0px" y="0px"
	 width="141.73px" height="103.159px" viewBox="0 0 141.73 103.159" enable-background="new 0 0 141.73 103.159"
	 xml:space="preserve">
<g>
	<path opacity="0.1" fill="#003459" enable-background="new    " d="M132.012,59.722c-4.889,6.701-3.269,16.267-0.448,23.886
		c0.944,2.551,2.02,5.249,1.528,8.024c-0.6,3.394-3.413,5.934-6.337,7.32c-5.333,2.521-11.633,2.12-16.402-1.061
		c-4.115-2.744-7.014-7.304-11.21-9.917c-7.021-4.372-16.139-2.42-23.954,0.919c-5.529,2.36-11.587,5.402-16.976,3.222
		c-3.792-1.534-6.344-5.438-7.688-9.614c-0.648-2.015-1.103-4.203-2.395-5.782c-0.768-0.937-1.784-1.591-2.828-2.138
		c-9.528-4.989-21.785-1.869-31.023-7.438C8.043,63.384,4.161,56.09,2.549,48.419c-1.613-7.67-1.214-15.765-0.572-23.725
		c0.457-5.656,1.179-11.698,4.579-16.142c3.596-4.7,9.623-6.57,15.013-5.833c5.39,0.739,10.221,3.736,14.45,7.304
		c5.288,4.46,10.152,10.057,16.728,11.746c4.479,1.152,9.237,0.336,13.894-0.024c7.784-0.602,15.54,0.091,23.248,0.873
		c7.379,0.748,14.809,1.584,21.799,4.037c4.946,1.737,8.865,5.02,13.522,7.261c3.034,1.462,6.374,1.802,9.23,3.691
		c3.523,2.326,6.711,6.447,5.677,11.394C139.139,53.7,134.607,56.167,132.012,59.722z"/>
	<g>
		
			<linearGradient id="SVGID_1_" gradientUnits="userSpaceOnUse" x1="-168.8496" y1="590.7422" x2="-168.8496" y2="676.5352" gradientTransform="matrix(1 0 0 -1 242.5 683)">
			<stop  offset="0" style="stop-color:#808080;stop-opacity:0.25"/>
			<stop  offset="0.54" style="stop-color:#808080;stop-opacity:0.12"/>
			<stop  offset="1" style="stop-color:#808080;stop-opacity:0.1"/>
		</linearGradient>
		<rect x="38.097" y="6.464" fill="url(#SVGID_1_)" width="71.107" height="85.794"/>
		<rect x="39.006" y="7.562" fill="#FFFFFF" width="69.289" height="83.601"/>
		<rect x="65.927" y="16.989" fill="#C0BCCF" width="27.942" height="1.363"/>
		<rect x="65.927" y="21.306" fill="#C0BCCF" width="27.942" height="1.363"/>
		<rect x="72.63" y="25.622" fill="#003459" width="14.537" height="1.363"/>
		<rect x="65.927" y="44.364" opacity="0.5" fill="#C0BCCF" enable-background="new    " width="27.942" height="1.363"/>
		<rect x="65.927" y="48.68" opacity="0.5" fill="#C0BCCF" enable-background="new    " width="27.942" height="1.363"/>
		<rect x="72.63" y="52.996" opacity="0.5" fill="#003459" enable-background="new    " width="14.537" height="1.364"/>
		<rect x="65.927" y="71.74" opacity="0.5" fill="#C0BCCF" enable-background="new    " width="27.942" height="1.362"/>
		<rect x="65.927" y="76.055" opacity="0.5" fill="#C0BCCF" enable-background="new    " width="27.942" height="1.364"/>
		<rect x="72.63" y="80.372" opacity="0.5" fill="#003459" enable-background="new    " width="14.537" height="1.362"/>
		<g opacity="0.5">
			<path fill="#C0BCCF" d="M58.203,49.361c0.003,1.844-0.657,3.627-1.86,5.026c-0.058,0.068-0.12,0.137-0.183,0.204
				c-0.031,0.035-0.063,0.069-0.095,0.102c-0.257,0.269-0.532,0.52-0.825,0.749l-0.021,0.015c-0.453,0.353-0.944,0.655-1.465,0.899
				l0,0c-0.268,0.126-0.542,0.235-0.822,0.33l-0.104,0.033c-0.063,0.021-0.13,0.041-0.194,0.059l-0.026,0.009
				c-1.394,0.397-2.871,0.397-4.265,0h-0.011c-0.114-0.034-0.228-0.067-0.333-0.105l-0.096-0.034
				c-0.369-0.129-0.724-0.287-1.068-0.472l-0.021-0.012c-0.545-0.295-1.054-0.655-1.513-1.071l-0.038-0.035
				c-0.235-0.213-0.456-0.441-0.661-0.683c-0.026-0.03-0.053-0.062-0.079-0.093c-0.05-0.06-0.098-0.121-0.145-0.182
				c-2.617-3.37-2.007-8.222,1.361-10.839c3.369-2.616,8.221-2.007,10.838,1.361C57.631,45.977,58.203,47.645,58.203,49.361z"/>
			
				<linearGradient id="SVGID_2_" gradientUnits="userSpaceOnUse" x1="-148.9351" y1="602.0527" x2="-148.9351" y2="615.8027" gradientTransform="matrix(1 0 0 -1 199.2998 659.1406)">
				<stop  offset="0" style="stop-color:#808080;stop-opacity:0.25"/>
				<stop  offset="0.54" style="stop-color:#808080;stop-opacity:0.12"/>
				<stop  offset="1" style="stop-color:#808080;stop-opacity:0.1"/>
			</linearGradient>
			<path fill="url(#SVGID_2_)" d="M56.089,51.967l-0.586-0.263c0.009-0.089,0.012-0.18,0.011-0.268c0.005-0.077,0.005-0.152,0-0.228
				c-0.058-0.598-0.439-1.118-0.708-1.664c-0.247-0.498-0.403-1.037-0.462-1.59c-0.072-0.682,0-1.388-0.25-2.028
				c-0.203-0.518-0.605-0.949-1.035-1.331c-0.484-0.454-1.048-0.811-1.666-1.055c-0.628-0.227-1.352-0.286-1.981-0.053
				c-0.568,0.209-1.005,0.626-1.428,1.031c-0.306,0.27-0.578,0.579-0.806,0.918c-0.258,0.422-0.368,0.908-0.455,1.388
				c-0.136,0.768-0.229,1.543-0.279,2.32c-0.045,0.648-0.113,1.385-0.667,1.782c-0.271,0.195-0.652,0.303-0.775,0.598
				c-0.034,0.088-0.048,0.183-0.041,0.278c-0.003,0.079,0.002,0.157,0.017,0.234c0.009,0.045,0.019,0.091,0.03,0.135
				c-0.161,0.396-0.294,0.801-0.4,1.214c-0.083,0.306-0.16,0.608-0.228,0.9h0.184h0.098l1.059,0.025h0.014l1.136,0.026h0.006
				l1.059,0.025h0.026l0.306,0.021h0.101l4.233,0.097h0.022l0.282,0.007h0.099l0.848,0.02l0,0l1.25,0.028h0.008l0.941,0.023h0.1
				h0.192l-0.049-0.986C56.499,52.061,56.089,51.967,56.089,51.967z M51.333,51.846c0,0.835-0.895,1.859-0.895,1.859l-0.901-1.227
				l0.034-0.048l0.868,1.183c0,0,0.895-1.023,0.895-1.86c0.021-0.043,0.045-0.083,0.072-0.124l0.021,0.063
				C51.392,51.743,51.36,51.792,51.333,51.846z M52.709,55.126c0-0.042,0-0.085-0.008-0.127c-0.008-0.042-0.006-0.08-0.011-0.121
				c-0.007-0.04-0.011-0.081-0.018-0.121c-0.005-0.042-0.012-0.082-0.02-0.122c-0.008-0.042-0.016-0.081-0.026-0.122
				c0-0.013-0.005-0.026-0.009-0.04c-0.013-0.054-0.026-0.108-0.041-0.161c-0.016-0.054-0.024-0.085-0.039-0.128
				c0-0.02-0.009-0.04-0.017-0.057c-0.007-0.019-0.019-0.062-0.03-0.092l-0.021-0.059c-0.009-0.026-0.018-0.053-0.028-0.08
				c-0.018-0.049-0.036-0.094-0.054-0.142c-0.018-0.048-0.037-0.095-0.056-0.14c-0.038-0.096-0.081-0.191-0.123-0.286
				c-0.165-0.369-0.35-0.73-0.52-1.089c-0.091-0.188-0.173-0.38-0.243-0.578l-0.021,0.029c-0.035,0.049-0.065,0.1-0.093,0.153
				c0,0.835-0.895,1.86-0.895,1.86l-0.901-1.227l-0.788,1.136c-0.113,0.058-0.228,0.25-0.316,0.525
				c-0.024,0.074-0.049,0.156-0.072,0.24c-0.016,0.059-0.03,0.115-0.044,0.179c-0.006,0.03-0.015,0.061-0.021,0.093l-0.021,0.096
				v0.015c-0.014,0.065-0.027,0.135-0.039,0.204c-0.014,0.069-0.028,0.149-0.041,0.227c-0.01,0.05-0.016,0.098-0.024,0.146
				c-0.016,0.095-0.03,0.189-0.043,0.286c-0.008,0.056-0.015,0.113-0.022,0.164L48.079,56c0.058,0.175,0.123,0.341,0.19,0.517
				c0.042,0.091,0.067,0.189,0.073,0.292c1.397,0.373,2.868,0.373,4.265,0c0-0.004,0-0.008,0-0.011
				c-0.02-0.095-0.03-0.191-0.026-0.291l0,0c0.024-0.272,0.061-0.544,0.113-0.812c0.018-0.133,0.024-0.267,0.022-0.399v-0.049
				C52.712,55.204,52.711,55.166,52.709,55.126L52.709,55.126z M52.709,55.126c0-0.042,0-0.085-0.008-0.127
				c-0.008-0.042-0.006-0.08-0.011-0.121c-0.007-0.04-0.011-0.081-0.018-0.121c-0.005-0.042-0.012-0.082-0.02-0.122
				c-0.008-0.042-0.016-0.081-0.026-0.122c0-0.013-0.005-0.026-0.009-0.04c-0.013-0.054-0.026-0.108-0.041-0.161
				c-0.016-0.054-0.024-0.085-0.039-0.128c0-0.02-0.009-0.04-0.017-0.057c-0.007-0.019-0.019-0.062-0.03-0.092l-0.021-0.059
				c-0.009-0.026-0.018-0.053-0.028-0.08c-0.018-0.049-0.036-0.094-0.054-0.142c-0.018-0.048-0.037-0.095-0.056-0.14
				c-0.038-0.096-0.081-0.191-0.123-0.286c-0.165-0.369-0.35-0.73-0.52-1.089c-0.091-0.188-0.173-0.38-0.243-0.578l-0.021,0.029
				c-0.035,0.049-0.065,0.1-0.093,0.153c0,0.835-0.895,1.86-0.895,1.86l-0.901-1.227l-0.788,1.136
				c-0.113,0.058-0.228,0.25-0.316,0.525c-0.024,0.074-0.049,0.156-0.072,0.24c-0.016,0.059-0.03,0.115-0.044,0.179
				c-0.006,0.03-0.015,0.061-0.021,0.093l-0.021,0.096v0.015c-0.014,0.065-0.027,0.135-0.039,0.204
				c-0.014,0.069-0.028,0.149-0.041,0.227c-0.01,0.05-0.016,0.098-0.024,0.146c-0.016,0.095-0.03,0.189-0.043,0.286
				c-0.008,0.056-0.015,0.113-0.022,0.164L48.079,56c0.058,0.175,0.123,0.341,0.19,0.517c0.042,0.091,0.067,0.189,0.073,0.292
				c1.397,0.373,2.868,0.373,4.265,0c0-0.004,0-0.008,0-0.011c-0.02-0.095-0.03-0.191-0.026-0.291l0,0
				c0.024-0.272,0.061-0.544,0.113-0.812c0.018-0.133,0.024-0.267,0.022-0.399v-0.049C52.712,55.204,52.711,55.166,52.709,55.126
				L52.709,55.126z M52.709,55.126c0-0.042,0-0.085-0.008-0.127c-0.008-0.042-0.006-0.08-0.011-0.121
				c-0.007-0.04-0.011-0.081-0.018-0.121c-0.005-0.042-0.012-0.082-0.02-0.122c-0.008-0.042-0.016-0.081-0.026-0.122
				c0-0.013-0.005-0.026-0.009-0.04c-0.013-0.054-0.026-0.108-0.041-0.161c-0.016-0.054-0.024-0.085-0.039-0.128
				c0-0.02-0.009-0.04-0.017-0.057c-0.007-0.019-0.019-0.062-0.03-0.092l-0.021-0.059c-0.009-0.026-0.018-0.053-0.028-0.08
				c-0.018-0.049-0.036-0.094-0.054-0.142c-0.018-0.048-0.037-0.095-0.056-0.14c-0.038-0.096-0.081-0.191-0.123-0.286
				c-0.165-0.369-0.35-0.73-0.52-1.089c-0.091-0.188-0.173-0.38-0.243-0.578l-0.021,0.029c-0.035,0.049-0.065,0.1-0.093,0.153
				c0,0.835-0.895,1.86-0.895,1.86l-0.901-1.227l-0.788,1.136c-0.113,0.058-0.228,0.25-0.316,0.525
				c-0.024,0.074-0.049,0.156-0.072,0.24c-0.016,0.059-0.03,0.115-0.044,0.179c-0.006,0.03-0.015,0.061-0.021,0.093l-0.021,0.096
				v0.015c-0.014,0.065-0.027,0.135-0.039,0.204c-0.014,0.069-0.028,0.149-0.041,0.227c-0.01,0.05-0.016,0.098-0.024,0.146
				c-0.016,0.095-0.03,0.189-0.043,0.286c-0.008,0.056-0.015,0.113-0.022,0.164L48.079,56c0.058,0.175,0.123,0.341,0.19,0.517
				c0.042,0.091,0.067,0.189,0.073,0.292c1.397,0.373,2.868,0.373,4.265,0c0-0.004,0-0.008,0-0.011
				c-0.02-0.095-0.03-0.191-0.026-0.291l0,0c0.024-0.272,0.061-0.544,0.113-0.812c0.018-0.133,0.024-0.267,0.022-0.399v-0.049
				C52.712,55.204,52.711,55.166,52.709,55.126L52.709,55.126z M52.709,55.126c0-0.042,0-0.085-0.008-0.127
				c-0.008-0.042-0.006-0.08-0.011-0.121c-0.007-0.04-0.011-0.081-0.018-0.121c-0.005-0.042-0.012-0.082-0.02-0.122
				c-0.008-0.042-0.016-0.081-0.026-0.122c0-0.013-0.005-0.026-0.009-0.04c-0.013-0.054-0.026-0.108-0.041-0.161
				c-0.016-0.054-0.024-0.085-0.039-0.128c0-0.02-0.009-0.04-0.017-0.057c-0.007-0.019-0.019-0.062-0.03-0.092l-0.021-0.059
				c-0.009-0.026-0.018-0.053-0.028-0.08c-0.018-0.049-0.036-0.094-0.054-0.142c-0.018-0.048-0.037-0.095-0.056-0.14
				c-0.038-0.096-0.081-0.191-0.123-0.286c-0.165-0.369-0.35-0.73-0.52-1.089c-0.091-0.188-0.173-0.38-0.243-0.578l-0.021,0.029
				c-0.035,0.049-0.065,0.1-0.093,0.153c0,0.835-0.895,1.86-0.895,1.86l-0.901-1.227l-0.788,1.136
				c-0.113,0.058-0.228,0.25-0.316,0.525c-0.024,0.074-0.049,0.156-0.072,0.24c-0.016,0.059-0.03,0.115-0.044,0.179
				c-0.006,0.03-0.015,0.061-0.021,0.093l-0.021,0.096v0.015c-0.014,0.065-0.027,0.135-0.039,0.204
				c-0.014,0.069-0.028,0.149-0.041,0.227c-0.01,0.05-0.016,0.098-0.024,0.146c-0.016,0.095-0.03,0.189-0.043,0.286
				c-0.008,0.056-0.015,0.113-0.022,0.164L48.079,56c0.058,0.175,0.123,0.341,0.19,0.517c0.042,0.091,0.067,0.189,0.073,0.292
				c1.397,0.373,2.868,0.373,4.265,0c0-0.004,0-0.008,0-0.011c-0.02-0.095-0.03-0.191-0.026-0.291l0,0
				c0.024-0.272,0.061-0.544,0.113-0.812c0.018-0.133,0.024-0.267,0.022-0.399v-0.049C52.712,55.204,52.711,55.166,52.709,55.126
				L52.709,55.126z"/>
			<rect x="47.525" y="47.204" fill="#493545" width="5.225" height="3.521"/>
			<path fill="#C77485" d="M53.618,51.088l-2.187,3.079l-2.286-0.198c0,0-2.981,0.197-0.994-2.088
				c0.956-1.098,1.268-2.013,1.335-2.666c0.073-0.707-0.142-1.108-0.142-1.108l2.484-0.298c-0.113,0.335-0.127,0.695-0.042,1.037
				C52.099,50.137,53.618,51.088,53.618,51.088z"/>
			<path opacity="0.1" enable-background="new    " d="M51.787,48.843c-0.657,0.499-1.52,0.637-2.302,0.37
				c0.074-0.706-0.142-1.108-0.142-1.108l2.485-0.299C51.716,48.141,51.703,48.5,51.787,48.843z"/>
			<circle fill="#C77485" cx="50.289" cy="46.763" r="2.485"/>
			<path opacity="0.1" enable-background="new    " d="M53.527,51.214l-0.058-0.227l-0.05-0.2l-0.073-0.295l-0.014-0.055
				l-0.012-0.045c0,0,0.061-0.178-0.33-0.121l-0.072,0.013c-0.062,0.013-0.134,0.03-0.215,0.053l-0.074,0.022L52.53,50.39l0,0
				c-0.309,0.101-0.59,0.271-0.824,0.497c-0.104,0.101-0.197,0.213-0.276,0.335c-0.008,0.01-0.014,0.021-0.02,0.03
				c-0.027,0.042-0.051,0.086-0.072,0.132c0,0.894-0.895,1.987-0.895,1.987l-0.873-1.262l-0.018-0.025l-0.208-0.302l-0.074-0.097
				l-0.025-0.034l-0.455-0.61l-0.113-0.152l-0.037-0.052l-0.056-0.073l-0.131-0.174l-0.511,0.298l-0.681,0.397l-0.397,2.584v0.072
				l0.011,0.213l0.084,1.405v0.018l-0.146,0.583l0.021,0.012c0.344,0.184,0.699,0.342,1.068,0.472L48,56.678
				c0.113,0.037,0.221,0.071,0.333,0.104c0.003,0.017,0.007,0.034,0.009,0.051c0-0.016,0-0.034,0-0.049
				c1.393,0.397,2.87,0.397,4.265,0l0.025-0.009c0.065-0.018,0.131-0.037,0.195-0.059l0.103-0.033
				c0.28-0.094,0.554-0.203,0.822-0.329l0.096-2.034l0.068-1.466v-0.084L53.527,51.214z"/>
			<path fill="#FFFFFF" d="M52.709,54.991c0-0.044,0-0.091-0.008-0.136s-0.006-0.084-0.011-0.128
				c-0.007-0.042-0.011-0.086-0.018-0.128c-0.005-0.043-0.012-0.087-0.02-0.13c-0.008-0.043-0.016-0.086-0.026-0.129
				c0-0.015-0.005-0.029-0.009-0.044c-0.013-0.057-0.026-0.112-0.041-0.17c-0.016-0.058-0.024-0.093-0.039-0.138
				c0-0.02-0.009-0.041-0.017-0.061c-0.007-0.019-0.019-0.065-0.03-0.097l-0.021-0.065c-0.009-0.028-0.018-0.057-0.028-0.084
				c-0.018-0.052-0.036-0.102-0.054-0.153c-0.018-0.051-0.037-0.102-0.056-0.151c-0.038-0.102-0.081-0.204-0.123-0.305
				c-0.165-0.393-0.35-0.78-0.52-1.165c-0.093-0.201-0.173-0.407-0.243-0.616l-0.021,0.03c-0.035,0.052-0.065,0.107-0.093,0.164
				c0,0.894-0.895,1.988-0.895,1.988l-0.901-1.312l-0.788,1.211c-0.113,0.062-0.228,0.266-0.316,0.562
				c-0.024,0.08-0.049,0.165-0.072,0.257c-0.016,0.061-0.03,0.126-0.044,0.191c-0.006,0.034-0.015,0.065-0.021,0.1l-0.021,0.104
				v0.016c-0.014,0.069-0.027,0.143-0.039,0.217c-0.014,0.074-0.028,0.159-0.041,0.24c-0.01,0.052-0.016,0.104-0.024,0.156
				c-0.016,0.102-0.03,0.203-0.043,0.305c-0.008,0.059-0.015,0.113-0.022,0.176l-0.027,0.227c0.058,0.186,0.123,0.37,0.19,0.551
				c0.042,0.099,0.067,0.205,0.073,0.312c1.394,0.397,2.873,0.397,4.265,0c0-0.004,0-0.007,0-0.012
				c-0.02-0.102-0.03-0.206-0.026-0.31l0,0c0.024-0.292,0.061-0.582,0.113-0.869c0.018-0.142,0.024-0.284,0.022-0.428v-0.051
				C52.712,55.073,52.711,55.032,52.709,54.991z M52.709,54.991c0-0.044,0-0.091-0.008-0.136s-0.006-0.084-0.011-0.128
				c-0.007-0.042-0.011-0.086-0.018-0.128c-0.005-0.043-0.012-0.087-0.02-0.13c-0.008-0.043-0.016-0.086-0.026-0.129
				c0-0.015-0.005-0.029-0.009-0.044c-0.013-0.057-0.026-0.112-0.041-0.17c-0.016-0.058-0.024-0.093-0.039-0.138
				c0-0.02-0.009-0.041-0.017-0.061c-0.007-0.019-0.019-0.065-0.03-0.097l-0.021-0.065c-0.009-0.028-0.018-0.057-0.028-0.084
				c-0.018-0.052-0.036-0.102-0.054-0.153c-0.018-0.051-0.037-0.102-0.056-0.151c-0.038-0.102-0.081-0.204-0.123-0.305
				c-0.165-0.393-0.35-0.78-0.52-1.165c-0.093-0.201-0.173-0.407-0.243-0.616l-0.021,0.03c-0.035,0.052-0.065,0.107-0.093,0.164
				c0,0.894-0.895,1.988-0.895,1.988l-0.901-1.312l-0.788,1.211c-0.113,0.062-0.228,0.266-0.316,0.562
				c-0.024,0.08-0.049,0.165-0.072,0.257c-0.016,0.061-0.03,0.126-0.044,0.191c-0.006,0.034-0.015,0.065-0.021,0.1l-0.021,0.104
				v0.016c-0.014,0.069-0.027,0.143-0.039,0.217c-0.014,0.074-0.028,0.159-0.041,0.24c-0.01,0.052-0.016,0.104-0.024,0.156
				c-0.016,0.102-0.03,0.203-0.043,0.305c-0.008,0.059-0.015,0.113-0.022,0.176l-0.027,0.227c0.058,0.186,0.123,0.37,0.19,0.551
				c0.042,0.099,0.067,0.205,0.073,0.312c1.394,0.397,2.873,0.397,4.265,0c0-0.004,0-0.007,0-0.012
				c-0.02-0.102-0.03-0.206-0.026-0.31l0,0c0.024-0.292,0.061-0.582,0.113-0.869c0.018-0.142,0.024-0.284,0.022-0.428v-0.051
				C52.712,55.073,52.711,55.032,52.709,54.991z M52.709,54.991c0-0.044,0-0.091-0.008-0.136s-0.006-0.084-0.011-0.128
				c-0.007-0.042-0.011-0.086-0.018-0.128c-0.005-0.043-0.012-0.087-0.02-0.13c-0.008-0.043-0.016-0.086-0.026-0.129
				c0-0.015-0.005-0.029-0.009-0.044c-0.013-0.057-0.026-0.112-0.041-0.17c-0.016-0.058-0.024-0.093-0.039-0.138
				c0-0.02-0.009-0.041-0.017-0.061c-0.007-0.019-0.019-0.065-0.03-0.097l-0.021-0.065c-0.009-0.028-0.018-0.057-0.028-0.084
				c-0.018-0.052-0.036-0.102-0.054-0.153c-0.018-0.051-0.037-0.102-0.056-0.151c-0.038-0.102-0.081-0.204-0.123-0.305
				c-0.165-0.393-0.35-0.78-0.52-1.165c-0.093-0.201-0.173-0.407-0.243-0.616l-0.021,0.03c-0.035,0.052-0.065,0.107-0.093,0.164
				c0,0.894-0.895,1.988-0.895,1.988l-0.901-1.312l-0.788,1.211c-0.113,0.062-0.228,0.266-0.316,0.562
				c-0.024,0.08-0.049,0.165-0.072,0.257c-0.016,0.061-0.03,0.126-0.044,0.191c-0.006,0.034-0.015,0.065-0.021,0.1l-0.021,0.104
				v0.016c-0.014,0.069-0.027,0.143-0.039,0.217c-0.014,0.074-0.028,0.159-0.041,0.24c-0.01,0.052-0.016,0.104-0.024,0.156
				c-0.016,0.102-0.03,0.203-0.043,0.305c-0.008,0.059-0.015,0.113-0.022,0.176l-0.027,0.227c0.058,0.186,0.123,0.37,0.19,0.551
				c0.042,0.099,0.067,0.205,0.073,0.312c1.394,0.397,2.873,0.397,4.265,0c0-0.004,0-0.007,0-0.012
				c-0.02-0.102-0.03-0.206-0.026-0.31l0,0c0.024-0.292,0.061-0.582,0.113-0.869c0.018-0.142,0.024-0.284,0.022-0.428v-0.051
				C52.712,55.073,52.711,55.032,52.709,54.991z M53.914,52.859l-0.405-1.619l-0.07-0.277l-0.019-0.077l0,0l-0.099-0.395
				c0-0.003,0-0.006,0-0.009l0,0c0.003-0.019,0-0.037-0.007-0.052c-0.015-0.029-0.053-0.06-0.14-0.069
				c-0.034-0.002-0.067-0.002-0.101,0l0,0c-0.099,0.01-0.197,0.029-0.292,0.055c-0.046,0.012-0.096,0.025-0.15,0.043l-0.097,0.03
				h-0.01c-0.261,0.086-0.504,0.222-0.714,0.398c-0.141,0.117-0.262,0.251-0.365,0.402l-0.021,0.032
				c-0.034,0.051-0.064,0.106-0.091,0.163c0,0.894-0.896,1.987-0.896,1.987l-0.9-1.311l-0.05-0.074l-0.01-0.013l-0.13-0.193
				l-0.099-0.131l-0.027-0.034l-0.464-0.622l0,0l-0.148-0.2v-0.008l-0.051-0.069l-0.097-0.128l-0.341,0.198l-0.852,0.498
				l-0.392,2.556v0.027l0.011,0.187l0.084,1.423v0.081l-0.128,0.513c0.343,0.184,0.7,0.342,1.067,0.472l0.098,0.035
				c0.113,0.037,0.22,0.07,0.332,0.104c0.004,0.017,0.007,0.034,0.008,0.051c0-0.015,0-0.033,0-0.048
				c1.394,0.398,2.872,0.398,4.267,0l0.025-0.009c0.064-0.017,0.131-0.037,0.194-0.058l0.104-0.033
				c0.28-0.093,0.555-0.204,0.822-0.331l0,0l0.095-2.03l0.067-1.451L53.914,52.859z M48.328,56.781
				c0.005,0.017,0.007,0.034,0.009,0.051c0-0.015,0-0.033,0-0.048L48.328,56.781z M52.709,54.991c0-0.044,0-0.091-0.008-0.136
				s-0.006-0.084-0.011-0.128c-0.007-0.042-0.011-0.086-0.018-0.128c-0.005-0.043-0.012-0.087-0.02-0.13
				c-0.008-0.043-0.016-0.086-0.026-0.129c0-0.015-0.005-0.029-0.009-0.044c-0.013-0.057-0.026-0.112-0.041-0.17
				c-0.016-0.058-0.024-0.093-0.039-0.138c0-0.02-0.009-0.041-0.017-0.061c-0.007-0.019-0.019-0.065-0.03-0.097l-0.021-0.065
				c-0.009-0.028-0.018-0.057-0.028-0.084c-0.018-0.052-0.036-0.102-0.054-0.153c-0.018-0.051-0.037-0.102-0.056-0.151
				c-0.038-0.102-0.081-0.204-0.123-0.305c-0.165-0.393-0.35-0.78-0.52-1.165c-0.093-0.201-0.173-0.407-0.243-0.616l-0.021,0.03
				c-0.035,0.052-0.065,0.107-0.093,0.164c0,0.894-0.895,1.988-0.895,1.988l-0.901-1.312l-0.788,1.211
				c-0.113,0.062-0.228,0.266-0.316,0.562c-0.024,0.08-0.049,0.165-0.072,0.257c-0.016,0.061-0.03,0.126-0.044,0.191
				c-0.006,0.034-0.015,0.065-0.021,0.1l-0.021,0.104v0.016c-0.014,0.069-0.027,0.143-0.039,0.217
				c-0.014,0.074-0.028,0.159-0.041,0.24c-0.01,0.052-0.016,0.104-0.024,0.156c-0.016,0.102-0.03,0.203-0.043,0.305
				c-0.008,0.059-0.015,0.113-0.022,0.176l-0.027,0.227c0.058,0.186,0.123,0.37,0.19,0.551c0.042,0.099,0.067,0.205,0.073,0.312
				c1.394,0.397,2.873,0.397,4.265,0c0-0.004,0-0.007,0-0.012c-0.02-0.102-0.03-0.206-0.026-0.31l0,0
				c0.024-0.292,0.061-0.582,0.113-0.869c0.018-0.142,0.024-0.284,0.022-0.428v-0.051C52.712,55.073,52.711,55.032,52.709,54.991z
				 M52.709,54.991c0-0.044,0-0.091-0.008-0.136s-0.006-0.084-0.011-0.128c-0.007-0.042-0.011-0.086-0.018-0.128
				c-0.005-0.043-0.012-0.087-0.02-0.13c-0.008-0.043-0.016-0.086-0.026-0.129c0-0.015-0.005-0.029-0.009-0.044
				c-0.013-0.057-0.026-0.112-0.041-0.17c-0.016-0.058-0.024-0.093-0.039-0.138c0-0.02-0.009-0.041-0.017-0.061
				c-0.007-0.019-0.019-0.065-0.03-0.097l-0.021-0.065c-0.009-0.028-0.018-0.057-0.028-0.084c-0.018-0.052-0.036-0.102-0.054-0.153
				c-0.018-0.051-0.037-0.102-0.056-0.151c-0.038-0.102-0.081-0.204-0.123-0.305c-0.165-0.393-0.35-0.78-0.52-1.165
				c-0.093-0.201-0.173-0.407-0.243-0.616l-0.021,0.03c-0.035,0.052-0.065,0.107-0.093,0.164c0,0.894-0.895,1.988-0.895,1.988
				l-0.901-1.312l-0.788,1.211c-0.113,0.062-0.228,0.266-0.316,0.562c-0.024,0.08-0.049,0.165-0.072,0.257
				c-0.016,0.061-0.03,0.126-0.044,0.191c-0.006,0.034-0.015,0.065-0.021,0.1l-0.021,0.104v0.016
				c-0.014,0.069-0.027,0.143-0.039,0.217c-0.014,0.074-0.028,0.159-0.041,0.24c-0.01,0.052-0.016,0.104-0.024,0.156
				c-0.016,0.102-0.03,0.203-0.043,0.305c-0.008,0.059-0.015,0.113-0.022,0.176l-0.027,0.227c0.058,0.186,0.123,0.37,0.19,0.551
				c0.042,0.099,0.067,0.205,0.073,0.312c1.394,0.397,2.873,0.397,4.265,0c0-0.004,0-0.007,0-0.012
				c-0.02-0.102-0.03-0.206-0.026-0.31l0,0c0.024-0.292,0.061-0.582,0.113-0.869c0.018-0.142,0.024-0.284,0.022-0.428v-0.051
				C52.712,55.073,52.711,55.032,52.709,54.991z M52.709,54.991c0-0.044,0-0.091-0.008-0.136s-0.006-0.084-0.011-0.128
				c-0.007-0.042-0.011-0.086-0.018-0.128c-0.005-0.043-0.012-0.087-0.02-0.13c-0.008-0.043-0.016-0.086-0.026-0.129
				c0-0.015-0.005-0.029-0.009-0.044c-0.013-0.057-0.026-0.112-0.041-0.17c-0.016-0.058-0.024-0.093-0.039-0.138
				c0-0.02-0.009-0.041-0.017-0.061c-0.007-0.019-0.019-0.065-0.03-0.097l-0.021-0.065c-0.009-0.028-0.018-0.057-0.028-0.084
				c-0.018-0.052-0.036-0.102-0.054-0.153c-0.018-0.051-0.037-0.102-0.056-0.151c-0.038-0.102-0.081-0.204-0.123-0.305
				c-0.165-0.393-0.35-0.78-0.52-1.165c-0.093-0.201-0.173-0.407-0.243-0.616l-0.021,0.03c-0.035,0.052-0.065,0.107-0.093,0.164
				c0,0.894-0.895,1.988-0.895,1.988l-0.901-1.312l-0.788,1.211c-0.113,0.062-0.228,0.266-0.316,0.562
				c-0.024,0.08-0.049,0.165-0.072,0.257c-0.016,0.061-0.03,0.126-0.044,0.191c-0.006,0.034-0.015,0.065-0.021,0.1l-0.021,0.104
				v0.016c-0.014,0.069-0.027,0.143-0.039,0.217c-0.014,0.074-0.028,0.159-0.041,0.24c-0.01,0.052-0.016,0.104-0.024,0.156
				c-0.016,0.102-0.03,0.203-0.043,0.305c-0.008,0.059-0.015,0.113-0.022,0.176l-0.027,0.227c0.058,0.186,0.123,0.37,0.19,0.551
				c0.042,0.099,0.067,0.205,0.073,0.312c1.394,0.397,2.873,0.397,4.265,0c0-0.004,0-0.007,0-0.012
				c-0.02-0.102-0.03-0.206-0.026-0.31l0,0c0.024-0.292,0.061-0.582,0.113-0.869c0.018-0.142,0.024-0.284,0.022-0.428v-0.051
				C52.712,55.073,52.711,55.032,52.709,54.991z M52.709,54.991c0-0.044,0-0.091-0.008-0.136s-0.006-0.084-0.011-0.128
				c-0.007-0.042-0.011-0.086-0.018-0.128c-0.005-0.043-0.012-0.087-0.02-0.13c-0.008-0.043-0.016-0.086-0.026-0.129
				c0-0.015-0.005-0.029-0.009-0.044c-0.013-0.057-0.026-0.112-0.041-0.17c-0.016-0.058-0.024-0.093-0.039-0.138
				c0-0.02-0.009-0.041-0.017-0.061c-0.007-0.019-0.019-0.065-0.03-0.097l-0.021-0.065c-0.009-0.028-0.018-0.057-0.028-0.084
				c-0.018-0.052-0.036-0.102-0.054-0.153c-0.018-0.051-0.037-0.102-0.056-0.151c-0.038-0.102-0.081-0.204-0.123-0.305
				c-0.165-0.393-0.35-0.78-0.52-1.165c-0.093-0.201-0.173-0.407-0.243-0.616l-0.021,0.03c-0.035,0.052-0.065,0.107-0.093,0.164
				c0,0.894-0.895,1.988-0.895,1.988l-0.901-1.312l-0.788,1.211c-0.113,0.062-0.228,0.266-0.316,0.562
				c-0.024,0.08-0.049,0.165-0.072,0.257c-0.016,0.061-0.03,0.126-0.044,0.191c-0.006,0.034-0.015,0.065-0.021,0.1l-0.021,0.104
				v0.016c-0.014,0.069-0.027,0.143-0.039,0.217c-0.014,0.074-0.028,0.159-0.041,0.24c-0.01,0.052-0.016,0.104-0.024,0.156
				c-0.016,0.102-0.03,0.203-0.043,0.305c-0.008,0.059-0.015,0.113-0.022,0.176l-0.027,0.227c0.058,0.186,0.123,0.37,0.19,0.551
				c0.042,0.099,0.067,0.205,0.073,0.312c1.394,0.397,2.873,0.397,4.265,0c0-0.004,0-0.007,0-0.012
				c-0.02-0.102-0.03-0.206-0.026-0.31l0,0c0.024-0.292,0.061-0.582,0.113-0.869c0.018-0.142,0.024-0.284,0.022-0.428v-0.051
				C52.712,55.073,52.711,55.032,52.709,54.991z M52.709,54.991c0-0.044,0-0.091-0.008-0.136s-0.006-0.084-0.011-0.128
				c-0.007-0.042-0.011-0.086-0.018-0.128c-0.005-0.043-0.012-0.087-0.02-0.13c-0.008-0.043-0.016-0.086-0.026-0.129
				c0-0.015-0.005-0.029-0.009-0.044c-0.013-0.057-0.026-0.112-0.041-0.17c-0.016-0.058-0.024-0.093-0.039-0.138
				c0-0.02-0.009-0.041-0.017-0.061c-0.007-0.019-0.019-0.065-0.03-0.097l-0.021-0.065c-0.009-0.028-0.018-0.057-0.028-0.084
				c-0.018-0.052-0.036-0.102-0.054-0.153c-0.018-0.051-0.037-0.102-0.056-0.151c-0.038-0.102-0.081-0.204-0.123-0.305
				c-0.165-0.393-0.35-0.78-0.52-1.165c-0.093-0.201-0.173-0.407-0.243-0.616l-0.021,0.03c-0.035,0.052-0.065,0.107-0.093,0.164
				c0,0.894-0.895,1.988-0.895,1.988l-0.901-1.312l-0.788,1.211c-0.113,0.062-0.228,0.266-0.316,0.562
				c-0.024,0.08-0.049,0.165-0.072,0.257c-0.016,0.061-0.03,0.126-0.044,0.191c-0.006,0.034-0.015,0.065-0.021,0.1l-0.021,0.104
				v0.016c-0.014,0.069-0.027,0.143-0.039,0.217c-0.014,0.074-0.028,0.159-0.041,0.24c-0.01,0.052-0.016,0.104-0.024,0.156
				c-0.016,0.102-0.03,0.203-0.043,0.305c-0.008,0.059-0.015,0.113-0.022,0.176l-0.027,0.227c0.058,0.186,0.123,0.37,0.19,0.551
				c0.042,0.099,0.067,0.205,0.073,0.312c1.394,0.397,2.873,0.397,4.265,0c0-0.004,0-0.007,0-0.012
				c-0.02-0.102-0.03-0.206-0.026-0.31l0,0c0.024-0.292,0.061-0.582,0.113-0.869c0.018-0.142,0.024-0.284,0.022-0.428v-0.051
				C52.712,55.073,52.711,55.032,52.709,54.991z M52.709,54.991c0-0.044,0-0.091-0.008-0.136s-0.006-0.084-0.011-0.128
				c-0.007-0.042-0.011-0.086-0.018-0.128c-0.005-0.043-0.012-0.087-0.02-0.13c-0.008-0.043-0.016-0.086-0.026-0.129
				c0-0.015-0.005-0.029-0.009-0.044c-0.013-0.057-0.026-0.112-0.041-0.17c-0.016-0.058-0.024-0.093-0.039-0.138
				c0-0.02-0.009-0.041-0.017-0.061c-0.007-0.019-0.019-0.065-0.03-0.097l-0.021-0.065c-0.009-0.028-0.018-0.057-0.028-0.084
				c-0.018-0.052-0.036-0.102-0.054-0.153c-0.018-0.051-0.037-0.102-0.056-0.151c-0.038-0.102-0.081-0.204-0.123-0.305
				c-0.165-0.393-0.35-0.78-0.52-1.165c-0.093-0.201-0.173-0.407-0.243-0.616l-0.021,0.03c-0.035,0.052-0.065,0.107-0.093,0.164
				c0,0.894-0.895,1.988-0.895,1.988l-0.901-1.312l-0.788,1.211c-0.113,0.062-0.228,0.266-0.316,0.562
				c-0.024,0.08-0.049,0.165-0.072,0.257c-0.016,0.061-0.03,0.126-0.044,0.191c-0.006,0.034-0.015,0.065-0.021,0.1l-0.021,0.104
				v0.016c-0.014,0.069-0.027,0.143-0.039,0.217c-0.014,0.074-0.028,0.159-0.041,0.24c-0.01,0.052-0.016,0.104-0.024,0.156
				c-0.016,0.102-0.03,0.203-0.043,0.305c-0.008,0.059-0.015,0.113-0.022,0.176l-0.027,0.227c0.058,0.186,0.123,0.37,0.19,0.551
				c0.042,0.099,0.067,0.205,0.073,0.312c1.394,0.397,2.873,0.397,4.265,0c0-0.004,0-0.007,0-0.012
				c-0.02-0.102-0.03-0.206-0.026-0.31l0,0c0.024-0.292,0.061-0.582,0.113-0.869c0.018-0.142,0.024-0.284,0.022-0.428v-0.051
				C52.712,55.073,52.711,55.032,52.709,54.991z M52.709,54.991c0-0.044,0-0.091-0.008-0.136s-0.006-0.084-0.011-0.128
				c-0.007-0.042-0.011-0.086-0.018-0.128c-0.005-0.043-0.012-0.087-0.02-0.13c-0.008-0.043-0.016-0.086-0.026-0.129
				c0-0.015-0.005-0.029-0.009-0.044c-0.013-0.057-0.026-0.112-0.041-0.17c-0.016-0.058-0.024-0.093-0.039-0.138
				c0-0.02-0.009-0.041-0.017-0.061c-0.007-0.019-0.019-0.065-0.03-0.097l-0.021-0.065c-0.009-0.028-0.018-0.057-0.028-0.084
				c-0.018-0.052-0.036-0.102-0.054-0.153c-0.018-0.051-0.037-0.102-0.056-0.151c-0.038-0.102-0.081-0.204-0.123-0.305
				c-0.165-0.393-0.35-0.78-0.52-1.165c-0.093-0.201-0.173-0.407-0.243-0.616l-0.021,0.03c-0.035,0.052-0.065,0.107-0.093,0.164
				c0,0.894-0.895,1.988-0.895,1.988l-0.901-1.312l-0.788,1.211c-0.113,0.062-0.228,0.266-0.316,0.562
				c-0.024,0.08-0.049,0.165-0.072,0.257c-0.016,0.061-0.03,0.126-0.044,0.191c-0.006,0.034-0.015,0.065-0.021,0.1l-0.021,0.104
				v0.016c-0.014,0.069-0.027,0.143-0.039,0.217c-0.014,0.074-0.028,0.159-0.041,0.24c-0.01,0.052-0.016,0.104-0.024,0.156
				c-0.016,0.102-0.03,0.203-0.043,0.305c-0.008,0.059-0.015,0.113-0.022,0.176l-0.027,0.227c0.058,0.186,0.123,0.37,0.19,0.551
				c0.042,0.099,0.067,0.205,0.073,0.312c1.394,0.397,2.873,0.397,4.265,0c0-0.004,0-0.007,0-0.012
				c-0.02-0.102-0.03-0.206-0.026-0.31l0,0c0.024-0.292,0.061-0.582,0.113-0.869c0.018-0.142,0.024-0.284,0.022-0.428v-0.051
				C52.712,55.073,52.711,55.032,52.709,54.991z M52.709,54.991c0-0.044,0-0.091-0.008-0.136s-0.006-0.084-0.011-0.128
				c-0.007-0.042-0.011-0.086-0.018-0.128c-0.005-0.043-0.012-0.087-0.02-0.13c-0.008-0.043-0.016-0.086-0.026-0.129
				c0-0.015-0.005-0.029-0.009-0.044c-0.013-0.057-0.026-0.112-0.041-0.17c-0.016-0.058-0.024-0.093-0.039-0.138
				c0-0.02-0.009-0.041-0.017-0.061c-0.007-0.019-0.019-0.065-0.03-0.097l-0.021-0.065c-0.009-0.028-0.018-0.057-0.028-0.084
				c-0.018-0.052-0.036-0.102-0.054-0.153c-0.018-0.051-0.037-0.102-0.056-0.151c-0.038-0.102-0.081-0.204-0.123-0.305
				c-0.165-0.393-0.35-0.78-0.52-1.165c-0.093-0.201-0.173-0.407-0.243-0.616l-0.021,0.03c-0.035,0.052-0.065,0.107-0.093,0.164
				c0,0.894-0.895,1.988-0.895,1.988l-0.901-1.312l-0.788,1.211c-0.113,0.062-0.228,0.266-0.316,0.562
				c-0.024,0.08-0.049,0.165-0.072,0.257c-0.016,0.061-0.03,0.126-0.044,0.191c-0.006,0.034-0.015,0.065-0.021,0.1l-0.021,0.104
				v0.016c-0.014,0.069-0.027,0.143-0.039,0.217c-0.014,0.074-0.028,0.159-0.041,0.24c-0.01,0.052-0.016,0.104-0.024,0.156
				c-0.016,0.102-0.03,0.203-0.043,0.305c-0.008,0.059-0.015,0.113-0.022,0.176l-0.027,0.227c0.058,0.186,0.123,0.37,0.19,0.551
				c0.042,0.099,0.067,0.205,0.073,0.312c1.394,0.397,2.873,0.397,4.265,0c0-0.004,0-0.007,0-0.012
				c-0.02-0.102-0.03-0.206-0.026-0.31l0,0c0.024-0.292,0.061-0.582,0.113-0.869c0.018-0.142,0.024-0.284,0.022-0.428v-0.051
				C52.712,55.073,52.711,55.032,52.709,54.991z"/>
			<path opacity="0.1" enable-background="new    " d="M49.553,52.084l-0.076-0.011c-0.115-0.016-0.229-0.039-0.341-0.068
				l-0.042-0.011c-0.276-0.078-0.58-0.218-0.648-0.466c-0.02-0.081-0.018-0.165,0.007-0.243c0.038-0.135,0.09-0.266,0.154-0.39
				v-0.008c0.009-0.017,0.018-0.034,0.029-0.051c0.092-0.183,0.234-0.337,0.41-0.446l-0.136,0.021l0,0l-1.155,0.188l-1.79,0.289
				c0,0-0.317-0.062-0.75,1.13c0,0.014-0.01,0.029-0.015,0.044c-0.104,0.292-0.214,0.657-0.329,1.112
				c-0.078,0.316-0.148,0.625-0.215,0.928c-0.019,0.09-0.038,0.181-0.056,0.269c0.204,0.243,0.424,0.47,0.66,0.682l0.037,0.035
				c0.459,0.417,0.968,0.775,1.513,1.071l0.021,0.011c0.343,0.184,0.7,0.342,1.067,0.472l0.097,0.035
				c0.021-0.211,0.043-0.443,0.07-0.682c0-0.024,0-0.048,0.01-0.072l0.027-0.227c0.006-0.058,0.015-0.114,0.022-0.176
				c0.014-0.102,0.027-0.203,0.043-0.305c0.006-0.052,0.014-0.104,0.024-0.156c0.013-0.081,0.026-0.161,0.04-0.24
				c0.014-0.079,0.026-0.148,0.04-0.217v-0.016l0.02-0.104c0.007-0.034,0.014-0.066,0.021-0.1c0.015-0.065,0.029-0.131,0.045-0.191
				c0.023-0.092,0.047-0.177,0.072-0.257c0.091-0.296,0.196-0.5,0.316-0.562l0.788-1.211l0.034-0.052l0.014-0.022L49.553,52.084z"/>
			<path fill="#444176" d="M49.485,52.085l-0.836,1.286c-0.113,0.058-0.221,0.259-0.31,0.544c-0.026,0.084-0.053,0.176-0.078,0.273
				c-0.112,0.49-0.199,0.986-0.257,1.486c0,0.023,0,0.046-0.009,0.069c-0.038,0.315-0.07,0.625-0.097,0.899
				c-0.367-0.129-0.724-0.288-1.067-0.472l-0.021-0.012c-0.545-0.295-1.054-0.656-1.513-1.071l-0.037-0.035
				c-0.236-0.212-0.456-0.44-0.66-0.682c-0.027-0.031-0.054-0.062-0.08-0.095c0.012-0.059,0.026-0.113,0.039-0.176
				c0.064-0.302,0.135-0.61,0.214-0.925c0.104-0.432,0.234-0.856,0.387-1.272c0.003-0.012,0.009-0.025,0.015-0.037
				c0.402-1.035,0.692-0.976,0.692-0.976l1.889-0.305l1.193-0.194l-0.038,0.022l0,0c-0.132,0.094-0.245,0.213-0.33,0.35
				l-0.033,0.056c-0.013,0.02-0.025,0.044-0.039,0.068c-0.066,0.126-0.12,0.26-0.156,0.397c-0.037,0.107-0.026,0.225,0.026,0.325
				c0.114,0.221,0.436,0.34,0.7,0.408l0.045,0.01C49.243,52.055,49.364,52.074,49.485,52.085z"/>
			<path opacity="0.1" enable-background="new    " d="M56.049,54.381l-0.046-1.01c0.2-1.589-0.199-1.688-0.199-1.688l-0.471-0.227
				h-0.014l-1.9-0.922l-0.073-0.036l-0.022-0.01l0,0l-0.248-0.121l0,0l-0.157-0.076l-0.292-0.143l-0.099-0.047c0,0,0,0.018,0,0.054
				c0,0.034,0,0.131,0,0.242c0,0.03,0,0.062,0,0.099c0,0.112,0.01,0.247,0.02,0.4c0.021,0.388,0.058,0.909,0.125,1.521
				c0.037,0.356,0.085,0.744,0.144,1.161c0.037,0.248,0.062,0.493,0.077,0.733c0.05,0.806,0.025,1.617-0.076,2.419l0.104-0.033
				c0.28-0.095,0.555-0.204,0.822-0.331l0,0c0.521-0.243,1.014-0.544,1.465-0.9l0.021-0.013c0.293-0.228,0.568-0.479,0.825-0.75
				L56.049,54.381z"/>
			<path fill="#444176" d="M56.149,54.381l-0.046-1.011c0.198-1.589-0.2-1.689-0.2-1.689l-0.568-0.274h-0.01l-1.907-0.924
				l-0.087-0.043l-0.017-0.007l-0.14-0.068l-0.186-0.089l-0.365-0.178v0.048c0,0.027,0,0.065,0,0.113l0,0c0,0.03,0,0.064,0,0.102
				c0,0.038,0,0.064,0,0.099c0,0.113,0.01,0.263,0.02,0.433c0.02,0.362,0.053,0.837,0.114,1.402
				c0.041,0.386,0.092,0.817,0.159,1.281c0.034,0.247,0.059,0.492,0.073,0.735c0.051,0.795,0.029,1.593-0.069,2.385
				c0.28-0.094,0.555-0.205,0.822-0.329l0,0c0.521-0.243,1.012-0.546,1.465-0.9l0.021-0.015c0.292-0.229,0.568-0.479,0.823-0.749
				c0.034-0.034,0.065-0.067,0.096-0.103V54.381z"/>
			<path opacity="0.1" enable-background="new    " d="M48.119,44.038c-0.114,0.157-0.105,0.373-0.156,0.568
				c-0.122,0.445-0.603,0.723-0.713,1.171c-0.065,0.261,0.01,0.537-0.035,0.804c-0.08,0.49-0.526,0.821-0.777,1.249
				c-0.257,0.446-0.295,0.987-0.104,1.466c0.059,0.12,0.107,0.242,0.144,0.37c0.03,0.189,0.018,0.383-0.035,0.568
				c-0.085,0.404-0.172,0.849,0.024,1.213c0.164,0.309,0.505,0.489,0.85,0.546c0.348,0.039,0.699,0.022,1.042-0.048
				c0.375-0.057,0.762-0.125,1.088-0.318l-1.23-2.969c-0.125-0.3-0.251-0.61-0.25-0.936c0.009-0.239,0.062-0.475,0.153-0.697
				c0.239-0.643,0.584-1.24,1.022-1.766c0.178,0.206,0.165,0.521,0.313,0.75c0.132,0.171,0.307,0.301,0.507,0.378
				c0.582,0.284,1.18,0.535,1.793,0.75c0.128,0.016,0.22,0.134,0.204,0.262c-0.005,0.03-0.014,0.061-0.029,0.087L51.467,49.4
				c-0.103,0.422-0.191,0.909,0.071,1.25c0.262,0.34,0.854,0.501,0.857,0.942c-0.005,0.07-0.005,0.139,0,0.208
				c0.03,0.205,0.274,0.305,0.482,0.314c0.705,0.015,1.317-0.485,1.444-1.178c0.113-0.751-0.384-1.444-0.592-2.177
				c-0.349-1.232,0.112-2.678-0.574-3.761c-0.556-0.877-1.57-1.116-2.535-1.225C49.946,43.694,48.594,43.41,48.119,44.038z"/>
			<path fill="#493545" d="M48.119,43.925c-0.114,0.155-0.105,0.372-0.156,0.567c-0.122,0.444-0.603,0.723-0.713,1.17
				c-0.065,0.262,0.01,0.539-0.035,0.804c-0.08,0.49-0.526,0.822-0.777,1.25c-0.257,0.447-0.295,0.987-0.104,1.465
				c0.059,0.119,0.107,0.243,0.144,0.371c0.03,0.19,0.018,0.383-0.035,0.567c-0.085,0.404-0.172,0.85,0.024,1.215
				c0.164,0.307,0.505,0.488,0.85,0.544c0.348,0.042,0.699,0.025,1.042-0.046c0.375-0.059,0.762-0.125,1.088-0.318l-1.23-2.97
				c-0.125-0.299-0.251-0.61-0.25-0.935c0.009-0.239,0.062-0.476,0.153-0.697c0.239-0.643,0.584-1.239,1.022-1.767
				c0.178,0.208,0.165,0.522,0.313,0.752c0.132,0.168,0.307,0.299,0.507,0.378c0.582,0.285,1.18,0.535,1.793,0.75
				c0.128,0.017,0.22,0.134,0.204,0.262c-0.005,0.03-0.014,0.062-0.029,0.088l-0.464,1.913c-0.103,0.421-0.191,0.908,0.071,1.25
				c0.262,0.34,0.854,0.502,0.857,0.941c-0.005,0.069-0.005,0.14,0,0.209c0.03,0.206,0.274,0.304,0.482,0.315
				c0.705,0.014,1.317-0.485,1.444-1.177c0.113-0.753-0.384-1.446-0.592-2.178c-0.349-1.233,0.112-2.679-0.574-3.76
				c-0.556-0.879-1.57-1.118-2.535-1.226C49.946,43.581,48.594,43.296,48.119,43.925z"/>
		</g>
		<g opacity="0.5">
			<path fill="#C0BCCF" d="M58.203,76.735c0.003,1.844-0.657,3.628-1.86,5.026c-0.058,0.069-0.12,0.138-0.183,0.205
				c-0.031,0.034-0.063,0.069-0.095,0.103c-0.257,0.269-0.532,0.519-0.825,0.748l-0.021,0.015c-0.453,0.354-0.944,0.656-1.465,0.899
				l0,0c-0.268,0.125-0.542,0.235-0.822,0.329l-0.104,0.033c-0.063,0.021-0.13,0.04-0.194,0.059l-0.026,0.008
				c-1.394,0.399-2.871,0.399-4.265,0h-0.011c-0.114-0.032-0.228-0.066-0.333-0.104l-0.096-0.034
				c-0.369-0.13-0.724-0.288-1.068-0.473l-0.021-0.012c-0.545-0.295-1.054-0.655-1.513-1.071l-0.038-0.035
				c-0.235-0.212-0.456-0.439-0.661-0.682c-0.026-0.031-0.053-0.062-0.079-0.094c-0.05-0.059-0.098-0.121-0.145-0.182
				c-2.617-3.368-2.007-8.221,1.361-10.839c3.369-2.617,8.221-2.007,10.838,1.362C57.631,73.354,58.203,75.02,58.203,76.735z"/>
			
				<linearGradient id="SVGID_3_" gradientUnits="userSpaceOnUse" x1="-154.7827" y1="581.6631" x2="-143.1411" y2="581.6631" gradientTransform="matrix(1 0 0 -1 199.2998 659.1406)">
				<stop  offset="0" style="stop-color:#808080;stop-opacity:0.25"/>
				<stop  offset="0.54" style="stop-color:#808080;stop-opacity:0.12"/>
				<stop  offset="1" style="stop-color:#808080;stop-opacity:0.1"/>
			</linearGradient>
			<path fill="url(#SVGID_3_)" d="M56.149,81.714l-0.046-1.022c0.198-1.617-0.2-1.718-0.2-1.718l-0.568-0.279l-0.01-0.007
				l-1.907-0.938l-0.087-0.043l-0.012-0.047c0,0,0.039-0.113-0.15-0.133c-0.037-0.093-0.053-0.19-0.048-0.29
				c0.02-0.217,0.185-0.391,0.313-0.568c0.326-0.485,0.461-1.075,0.373-1.654c-0.089-0.573-0.306-1.12-0.634-1.6l-0.036-0.054
				c0.044-0.163,0.066-0.332,0.066-0.502c0-1.308-1.322-2.366-2.954-2.366c-1.475,0-2.707,0.873-2.92,2.013
				c-0.034,0.044-0.063,0.091-0.089,0.14c-0.3,0.562,0.164,0.98,0.178,1.54c0.011,0.388-0.248,0.717-0.454,1.044
				c-0.206,0.328-0.357,0.763-0.146,1.085c0.069,0.106,0.174,0.188,0.236,0.3c0.219,0.387-0.145,0.831-0.277,1.256
				c-0.016,0.049-0.027,0.1-0.037,0.15l-0.877,0.145c0,0-0.289-0.061-0.691,0.992c-0.006,0.012-0.012,0.025-0.016,0.037
				c-0.153,0.424-0.283,0.856-0.386,1.294c-0.078,0.32-0.15,0.635-0.214,0.939c-0.014,0.061-0.026,0.121-0.04,0.181
				c0.027,0.031,0.053,0.064,0.08,0.096c0.205,0.245,0.426,0.479,0.66,0.694l0.038,0.037c0.459,0.423,0.967,0.789,1.514,1.089
				l0.021,0.012c0.342,0.188,0.7,0.349,1.068,0.48l0.096,0.034c0.113,0.038,0.22,0.072,0.333,0.106
				c0.003,0.018,0.006,0.035,0.008,0.053c0-0.017,0-0.033,0-0.051c1.393,0.405,2.873,0.405,4.266,0l0.025-0.008
				c0.065-0.018,0.131-0.039,0.194-0.06l0.104-0.034c0.281-0.094,0.555-0.207,0.823-0.334l0,0c0.521-0.248,1.013-0.555,1.465-0.915
				l0.02-0.015c0.293-0.232,0.569-0.487,0.825-0.762c0.033-0.032,0.065-0.066,0.095-0.104L56.149,81.714z"/>
			<path fill="#444176" d="M47.419,74.349c0.011,0.381-0.248,0.705-0.454,1.022s-0.357,0.749-0.146,1.066
				c0.069,0.105,0.174,0.187,0.236,0.295c0.219,0.379-0.145,0.817-0.277,1.236c-0.153,0.482,0.024,1.021,0.348,1.413
				c0.322,0.392,0.767,0.657,1.217,0.89c0.946,0.505,1.96,0.865,3.012,1.072c0.55,0.101,1.136,0.146,1.653-0.073
				c0.736-0.339,1.146-1.136,0.991-1.932c-0.131-0.598-0.569-1.079-0.796-1.643c-0.053-0.11-0.078-0.232-0.075-0.354
				c0.019-0.215,0.185-0.384,0.312-0.557c0.322-0.474,0.453-1.051,0.369-1.618c-0.089-0.564-0.306-1.103-0.634-1.573
				c-0.118-0.195-0.271-0.365-0.454-0.501c-0.25-0.165-0.555-0.214-0.85-0.256c-1.234-0.173-2.512-0.361-3.755-0.424
				c-0.394-0.021-0.681,0.057-0.876,0.424C46.943,73.385,47.405,73.798,47.419,74.349z"/>
			<path fill="#C77485" d="M53.773,78.212l-2.341,3.329l-2.286-0.198c0,0-0.074,0.795-0.994-2.087
				c-0.514-1.612,0.531-1.053,0.736-1.497c0.206-0.447,0.568-0.842,0.599-1.17c0.073-0.708-0.142-1.109-0.142-1.109l2.484-0.298
				c-0.113,0.335-0.127,0.694-0.042,1.038C52.099,77.511,53.773,78.212,53.773,78.212z"/>
			<ellipse fill="#444176" cx="50.251" cy="73.045" rx="2.954" ry="2.329"/>
			<path opacity="0.1" enable-background="new    " d="M51.787,76.218c-0.657,0.498-1.52,0.637-2.302,0.371
				c0.074-0.708-0.142-1.109-0.142-1.109l2.485-0.298C51.716,75.517,51.703,75.875,51.787,76.218z"/>
			<circle fill="#C77485" cx="50.289" cy="74.137" r="2.485"/>
			<path opacity="0.1" enable-background="new    " d="M53.527,78.59l-0.058-0.229l-0.05-0.198l-0.073-0.296l-0.014-0.056
				l-0.012-0.044c0,0,0.061-0.18-0.33-0.121l-0.072,0.013c-0.062,0.013-0.134,0.029-0.215,0.053l-0.074,0.021l-0.098,0.03l0,0
				c-0.309,0.101-0.59,0.271-0.824,0.499c-0.104,0.099-0.197,0.211-0.276,0.333c-0.008,0.012-0.014,0.021-0.02,0.03
				c-0.027,0.043-0.051,0.087-0.072,0.133c0,0.896-0.895,1.987-0.895,1.987l-0.873-1.263l-0.018-0.024l-0.208-0.302l-0.074-0.099
				l-0.025-0.033l-0.455-0.61l-0.113-0.152l-0.037-0.051l-0.056-0.074l-0.131-0.174l-0.511,0.299l-0.681,0.397l-0.397,2.585v0.071
				l0.011,0.213l0.084,1.405v0.019l-0.146,0.582l0.021,0.011c0.344,0.186,0.699,0.343,1.068,0.474L48,84.053
				c0.113,0.037,0.221,0.072,0.333,0.104c0.003,0.017,0.007,0.034,0.009,0.052c0-0.017,0-0.033,0-0.05
				c1.393,0.399,2.87,0.399,4.265,0l0.025-0.007c0.065-0.02,0.131-0.038,0.195-0.059l0.103-0.034
				c0.28-0.094,0.554-0.204,0.822-0.329l0.096-2.033l0.068-1.467v-0.084L53.527,78.59z"/>
			<path fill="#444176" d="M52.709,82.366c0-0.046,0-0.091-0.008-0.136c-0.008-0.046-0.006-0.086-0.011-0.13
				c-0.007-0.043-0.011-0.087-0.018-0.129c-0.005-0.044-0.012-0.085-0.02-0.129c-0.008-0.044-0.016-0.086-0.026-0.129
				c0-0.016-0.005-0.029-0.009-0.044c-0.013-0.057-0.026-0.114-0.041-0.172c-0.016-0.058-0.024-0.092-0.039-0.137
				c0-0.021-0.009-0.042-0.017-0.061c-0.007-0.02-0.019-0.066-0.03-0.099l-0.021-0.063c-0.009-0.029-0.018-0.058-0.028-0.086
				c-0.018-0.052-0.036-0.102-0.054-0.151c-0.018-0.052-0.037-0.102-0.056-0.152c-0.038-0.102-0.081-0.203-0.123-0.305
				c-0.165-0.392-0.35-0.779-0.52-1.162c-0.093-0.203-0.173-0.408-0.243-0.619l-0.021,0.032c-0.035,0.052-0.065,0.106-0.093,0.164
				c0,0.893-0.895,1.987-0.895,1.987l-0.901-1.312l-0.788,1.212c-0.113,0.061-0.228,0.268-0.316,0.562
				c-0.024,0.079-0.049,0.166-0.072,0.259c-0.016,0.061-0.03,0.124-0.044,0.19c-0.006,0.032-0.015,0.064-0.021,0.099l-0.021,0.104
				v0.016c-0.014,0.07-0.027,0.144-0.039,0.218c-0.014,0.074-0.028,0.158-0.041,0.239c-0.01,0.052-0.016,0.104-0.024,0.157
				c-0.016,0.101-0.03,0.204-0.043,0.304c-0.008,0.061-0.015,0.114-0.022,0.177l-0.027,0.228c0.058,0.187,0.123,0.37,0.19,0.55
				c0.042,0.099,0.067,0.205,0.073,0.312c1.394,0.399,2.873,0.399,4.265,0c0-0.003,0-0.007,0-0.011
				c-0.02-0.103-0.03-0.206-0.026-0.311l0,0c0.024-0.292,0.061-0.581,0.113-0.869c0.018-0.142,0.024-0.284,0.022-0.427V82.49
				C52.712,82.448,52.711,82.406,52.709,82.366z M52.709,82.366c0-0.046,0-0.091-0.008-0.136c-0.008-0.046-0.006-0.086-0.011-0.13
				c-0.007-0.043-0.011-0.087-0.018-0.129c-0.005-0.044-0.012-0.085-0.02-0.129c-0.008-0.044-0.016-0.086-0.026-0.129
				c0-0.016-0.005-0.029-0.009-0.044c-0.013-0.057-0.026-0.114-0.041-0.172c-0.016-0.058-0.024-0.092-0.039-0.137
				c0-0.021-0.009-0.042-0.017-0.061c-0.007-0.02-0.019-0.066-0.03-0.099l-0.021-0.063c-0.009-0.029-0.018-0.058-0.028-0.086
				c-0.018-0.052-0.036-0.102-0.054-0.151c-0.018-0.052-0.037-0.102-0.056-0.152c-0.038-0.102-0.081-0.203-0.123-0.305
				c-0.165-0.392-0.35-0.779-0.52-1.162c-0.093-0.203-0.173-0.408-0.243-0.619l-0.021,0.032c-0.035,0.052-0.065,0.106-0.093,0.164
				c0,0.893-0.895,1.987-0.895,1.987l-0.901-1.312l-0.788,1.212c-0.113,0.061-0.228,0.268-0.316,0.562
				c-0.024,0.079-0.049,0.166-0.072,0.259c-0.016,0.061-0.03,0.124-0.044,0.19c-0.006,0.032-0.015,0.064-0.021,0.099l-0.021,0.104
				v0.016c-0.014,0.07-0.027,0.144-0.039,0.218c-0.014,0.074-0.028,0.158-0.041,0.239c-0.01,0.052-0.016,0.104-0.024,0.157
				c-0.016,0.101-0.03,0.204-0.043,0.304c-0.008,0.061-0.015,0.114-0.022,0.177l-0.027,0.228c0.058,0.187,0.123,0.37,0.19,0.55
				c0.042,0.099,0.067,0.205,0.073,0.312c1.394,0.399,2.873,0.399,4.265,0c0-0.003,0-0.007,0-0.011
				c-0.02-0.103-0.03-0.206-0.026-0.311l0,0c0.024-0.292,0.061-0.581,0.113-0.869c0.018-0.142,0.024-0.284,0.022-0.427V82.49
				C52.712,82.448,52.711,82.406,52.709,82.366z M52.709,82.366c0-0.046,0-0.091-0.008-0.136c-0.008-0.046-0.006-0.086-0.011-0.13
				c-0.007-0.043-0.011-0.087-0.018-0.129c-0.005-0.044-0.012-0.085-0.02-0.129c-0.008-0.044-0.016-0.086-0.026-0.129
				c0-0.016-0.005-0.029-0.009-0.044c-0.013-0.057-0.026-0.114-0.041-0.172c-0.016-0.058-0.024-0.092-0.039-0.137
				c0-0.021-0.009-0.042-0.017-0.061c-0.007-0.02-0.019-0.066-0.03-0.099l-0.021-0.063c-0.009-0.029-0.018-0.058-0.028-0.086
				c-0.018-0.052-0.036-0.102-0.054-0.151c-0.018-0.052-0.037-0.102-0.056-0.152c-0.038-0.102-0.081-0.203-0.123-0.305
				c-0.165-0.392-0.35-0.779-0.52-1.162c-0.093-0.203-0.173-0.408-0.243-0.619l-0.021,0.032c-0.035,0.052-0.065,0.106-0.093,0.164
				c0,0.893-0.895,1.987-0.895,1.987l-0.901-1.312l-0.788,1.212c-0.113,0.061-0.228,0.268-0.316,0.562
				c-0.024,0.079-0.049,0.166-0.072,0.259c-0.016,0.061-0.03,0.124-0.044,0.19c-0.006,0.032-0.015,0.064-0.021,0.099l-0.021,0.104
				v0.016c-0.014,0.07-0.027,0.144-0.039,0.218c-0.014,0.074-0.028,0.158-0.041,0.239c-0.01,0.052-0.016,0.104-0.024,0.157
				c-0.016,0.101-0.03,0.204-0.043,0.304c-0.008,0.061-0.015,0.114-0.022,0.177l-0.027,0.228c0.058,0.187,0.123,0.37,0.19,0.55
				c0.042,0.099,0.067,0.205,0.073,0.312c1.394,0.399,2.873,0.399,4.265,0c0-0.003,0-0.007,0-0.011
				c-0.02-0.103-0.03-0.206-0.026-0.311l0,0c0.024-0.292,0.061-0.581,0.113-0.869c0.018-0.142,0.024-0.284,0.022-0.427V82.49
				C52.712,82.448,52.711,82.406,52.709,82.366z M53.914,80.234l-0.405-1.618l-0.07-0.278l-0.019-0.075l0,0l-0.099-0.396
				c0-0.003,0-0.008,0-0.011l0,0c0.003-0.018,0-0.035-0.007-0.052c-0.015-0.028-0.053-0.06-0.14-0.066
				c-0.034-0.003-0.067-0.003-0.101,0l0,0c-0.099,0.009-0.197,0.027-0.292,0.054c-0.046,0.012-0.096,0.026-0.15,0.044l-0.097,0.03
				h-0.01c-0.261,0.085-0.504,0.22-0.714,0.396c-0.141,0.116-0.262,0.251-0.365,0.403l-0.021,0.03
				c-0.034,0.052-0.064,0.107-0.091,0.163c0,0.894-0.896,1.988-0.896,1.988l-0.9-1.312l-0.05-0.073l-0.01-0.013l-0.13-0.192
				l-0.099-0.132l-0.027-0.033l-0.464-0.622l0,0l-0.148-0.201v-0.006l-0.051-0.069l-0.097-0.13l-0.341,0.199l-0.852,0.496
				l-0.392,2.556v0.028l0.011,0.187l0.084,1.424v0.08l-0.128,0.512c0.343,0.186,0.7,0.344,1.067,0.474l0.098,0.033
				c0.113,0.037,0.22,0.072,0.332,0.104c0.004,0.016,0.007,0.034,0.008,0.051c0-0.016,0-0.033,0-0.049
				c1.394,0.398,2.872,0.398,4.267,0l0.025-0.008c0.064-0.018,0.131-0.037,0.194-0.06l0.104-0.032
				c0.28-0.095,0.555-0.204,0.822-0.329l0,0l0.095-2.031l0.067-1.45L53.914,80.234z M48.328,84.156
				c0.005,0.016,0.007,0.034,0.009,0.051c0-0.016,0-0.033,0-0.049L48.328,84.156z M52.709,82.366c0-0.046,0-0.091-0.008-0.136
				c-0.008-0.046-0.006-0.086-0.011-0.13c-0.007-0.043-0.011-0.087-0.018-0.129c-0.005-0.044-0.012-0.085-0.02-0.129
				c-0.008-0.044-0.016-0.086-0.026-0.129c0-0.016-0.005-0.029-0.009-0.044c-0.013-0.057-0.026-0.114-0.041-0.172
				c-0.016-0.058-0.024-0.092-0.039-0.137c0-0.021-0.009-0.042-0.017-0.061c-0.007-0.02-0.019-0.066-0.03-0.099l-0.021-0.063
				c-0.009-0.029-0.018-0.058-0.028-0.086c-0.018-0.052-0.036-0.102-0.054-0.151c-0.018-0.052-0.037-0.102-0.056-0.152
				c-0.038-0.102-0.081-0.203-0.123-0.305c-0.165-0.392-0.35-0.779-0.52-1.162c-0.093-0.203-0.173-0.408-0.243-0.619l-0.021,0.032
				c-0.035,0.052-0.065,0.106-0.093,0.164c0,0.893-0.895,1.987-0.895,1.987l-0.901-1.312l-0.788,1.212
				c-0.113,0.061-0.228,0.268-0.316,0.562c-0.024,0.079-0.049,0.166-0.072,0.259c-0.016,0.061-0.03,0.124-0.044,0.19
				c-0.006,0.032-0.015,0.064-0.021,0.099l-0.021,0.104v0.016c-0.014,0.07-0.027,0.144-0.039,0.218
				c-0.014,0.074-0.028,0.158-0.041,0.239c-0.01,0.052-0.016,0.104-0.024,0.157c-0.016,0.101-0.03,0.204-0.043,0.304
				c-0.008,0.061-0.015,0.114-0.022,0.177l-0.027,0.228c0.058,0.187,0.123,0.37,0.19,0.55c0.042,0.099,0.067,0.205,0.073,0.312
				c1.394,0.399,2.873,0.399,4.265,0c0-0.003,0-0.007,0-0.011c-0.02-0.103-0.03-0.206-0.026-0.311l0,0
				c0.024-0.292,0.061-0.581,0.113-0.869c0.018-0.142,0.024-0.284,0.022-0.427V82.49C52.712,82.448,52.711,82.406,52.709,82.366z
				 M52.709,82.366c0-0.046,0-0.091-0.008-0.136c-0.008-0.046-0.006-0.086-0.011-0.13c-0.007-0.043-0.011-0.087-0.018-0.129
				c-0.005-0.044-0.012-0.085-0.02-0.129c-0.008-0.044-0.016-0.086-0.026-0.129c0-0.016-0.005-0.029-0.009-0.044
				c-0.013-0.057-0.026-0.114-0.041-0.172c-0.016-0.058-0.024-0.092-0.039-0.137c0-0.021-0.009-0.042-0.017-0.061
				c-0.007-0.02-0.019-0.066-0.03-0.099l-0.021-0.063c-0.009-0.029-0.018-0.058-0.028-0.086c-0.018-0.052-0.036-0.102-0.054-0.151
				c-0.018-0.052-0.037-0.102-0.056-0.152c-0.038-0.102-0.081-0.203-0.123-0.305c-0.165-0.392-0.35-0.779-0.52-1.162
				c-0.093-0.203-0.173-0.408-0.243-0.619l-0.021,0.032c-0.035,0.052-0.065,0.106-0.093,0.164c0,0.893-0.895,1.987-0.895,1.987
				l-0.901-1.312l-0.788,1.212c-0.113,0.061-0.228,0.268-0.316,0.562c-0.024,0.079-0.049,0.166-0.072,0.259
				c-0.016,0.061-0.03,0.124-0.044,0.19c-0.006,0.032-0.015,0.064-0.021,0.099l-0.021,0.104v0.016
				c-0.014,0.07-0.027,0.144-0.039,0.218c-0.014,0.074-0.028,0.158-0.041,0.239c-0.01,0.052-0.016,0.104-0.024,0.157
				c-0.016,0.101-0.03,0.204-0.043,0.304c-0.008,0.061-0.015,0.114-0.022,0.177l-0.027,0.228c0.058,0.187,0.123,0.37,0.19,0.55
				c0.042,0.099,0.067,0.205,0.073,0.312c1.394,0.399,2.873,0.399,4.265,0c0-0.003,0-0.007,0-0.011
				c-0.02-0.103-0.03-0.206-0.026-0.311l0,0c0.024-0.292,0.061-0.581,0.113-0.869c0.018-0.142,0.024-0.284,0.022-0.427V82.49
				C52.712,82.448,52.711,82.406,52.709,82.366z M52.709,82.366c0-0.046,0-0.091-0.008-0.136c-0.008-0.046-0.006-0.086-0.011-0.13
				c-0.007-0.043-0.011-0.087-0.018-0.129c-0.005-0.044-0.012-0.085-0.02-0.129c-0.008-0.044-0.016-0.086-0.026-0.129
				c0-0.016-0.005-0.029-0.009-0.044c-0.013-0.057-0.026-0.114-0.041-0.172c-0.016-0.058-0.024-0.092-0.039-0.137
				c0-0.021-0.009-0.042-0.017-0.061c-0.007-0.02-0.019-0.066-0.03-0.099l-0.021-0.063c-0.009-0.029-0.018-0.058-0.028-0.086
				c-0.018-0.052-0.036-0.102-0.054-0.151c-0.018-0.052-0.037-0.102-0.056-0.152c-0.038-0.102-0.081-0.203-0.123-0.305
				c-0.165-0.392-0.35-0.779-0.52-1.162c-0.093-0.203-0.173-0.408-0.243-0.619l-0.021,0.032c-0.035,0.052-0.065,0.106-0.093,0.164
				c0,0.893-0.895,1.987-0.895,1.987l-0.901-1.312l-0.788,1.212c-0.113,0.061-0.228,0.268-0.316,0.562
				c-0.024,0.079-0.049,0.166-0.072,0.259c-0.016,0.061-0.03,0.124-0.044,0.19c-0.006,0.032-0.015,0.064-0.021,0.099l-0.021,0.104
				v0.016c-0.014,0.07-0.027,0.144-0.039,0.218c-0.014,0.074-0.028,0.158-0.041,0.239c-0.01,0.052-0.016,0.104-0.024,0.157
				c-0.016,0.101-0.03,0.204-0.043,0.304c-0.008,0.061-0.015,0.114-0.022,0.177l-0.027,0.228c0.058,0.187,0.123,0.37,0.19,0.55
				c0.042,0.099,0.067,0.205,0.073,0.312c1.394,0.399,2.873,0.399,4.265,0c0-0.003,0-0.007,0-0.011
				c-0.02-0.103-0.03-0.206-0.026-0.311l0,0c0.024-0.292,0.061-0.581,0.113-0.869c0.018-0.142,0.024-0.284,0.022-0.427V82.49
				C52.712,82.448,52.711,82.406,52.709,82.366z M52.709,82.366c0-0.046,0-0.091-0.008-0.136c-0.008-0.046-0.006-0.086-0.011-0.13
				c-0.007-0.043-0.011-0.087-0.018-0.129c-0.005-0.044-0.012-0.085-0.02-0.129c-0.008-0.044-0.016-0.086-0.026-0.129
				c0-0.016-0.005-0.029-0.009-0.044c-0.013-0.057-0.026-0.114-0.041-0.172c-0.016-0.058-0.024-0.092-0.039-0.137
				c0-0.021-0.009-0.042-0.017-0.061c-0.007-0.02-0.019-0.066-0.03-0.099l-0.021-0.063c-0.009-0.029-0.018-0.058-0.028-0.086
				c-0.018-0.052-0.036-0.102-0.054-0.151c-0.018-0.052-0.037-0.102-0.056-0.152c-0.038-0.102-0.081-0.203-0.123-0.305
				c-0.165-0.392-0.35-0.779-0.52-1.162c-0.093-0.203-0.173-0.408-0.243-0.619l-0.021,0.032c-0.035,0.052-0.065,0.106-0.093,0.164
				c0,0.893-0.895,1.987-0.895,1.987l-0.901-1.312l-0.788,1.212c-0.113,0.061-0.228,0.268-0.316,0.562
				c-0.024,0.079-0.049,0.166-0.072,0.259c-0.016,0.061-0.03,0.124-0.044,0.19c-0.006,0.032-0.015,0.064-0.021,0.099l-0.021,0.104
				v0.016c-0.014,0.07-0.027,0.144-0.039,0.218c-0.014,0.074-0.028,0.158-0.041,0.239c-0.01,0.052-0.016,0.104-0.024,0.157
				c-0.016,0.101-0.03,0.204-0.043,0.304c-0.008,0.061-0.015,0.114-0.022,0.177l-0.027,0.228c0.058,0.187,0.123,0.37,0.19,0.55
				c0.042,0.099,0.067,0.205,0.073,0.312c1.394,0.399,2.873,0.399,4.265,0c0-0.003,0-0.007,0-0.011
				c-0.02-0.103-0.03-0.206-0.026-0.311l0,0c0.024-0.292,0.061-0.581,0.113-0.869c0.018-0.142,0.024-0.284,0.022-0.427V82.49
				C52.712,82.448,52.711,82.406,52.709,82.366z M52.709,82.366c0-0.046,0-0.091-0.008-0.136c-0.008-0.046-0.006-0.086-0.011-0.13
				c-0.007-0.043-0.011-0.087-0.018-0.129c-0.005-0.044-0.012-0.085-0.02-0.129c-0.008-0.044-0.016-0.086-0.026-0.129
				c0-0.016-0.005-0.029-0.009-0.044c-0.013-0.057-0.026-0.114-0.041-0.172c-0.016-0.058-0.024-0.092-0.039-0.137
				c0-0.021-0.009-0.042-0.017-0.061c-0.007-0.02-0.019-0.066-0.03-0.099l-0.021-0.063c-0.009-0.029-0.018-0.058-0.028-0.086
				c-0.018-0.052-0.036-0.102-0.054-0.151c-0.018-0.052-0.037-0.102-0.056-0.152c-0.038-0.102-0.081-0.203-0.123-0.305
				c-0.165-0.392-0.35-0.779-0.52-1.162c-0.093-0.203-0.173-0.408-0.243-0.619l-0.021,0.032c-0.035,0.052-0.065,0.106-0.093,0.164
				c0,0.893-0.895,1.987-0.895,1.987l-0.901-1.312l-0.788,1.212c-0.113,0.061-0.228,0.268-0.316,0.562
				c-0.024,0.079-0.049,0.166-0.072,0.259c-0.016,0.061-0.03,0.124-0.044,0.19c-0.006,0.032-0.015,0.064-0.021,0.099l-0.021,0.104
				v0.016c-0.014,0.07-0.027,0.144-0.039,0.218c-0.014,0.074-0.028,0.158-0.041,0.239c-0.01,0.052-0.016,0.104-0.024,0.157
				c-0.016,0.101-0.03,0.204-0.043,0.304c-0.008,0.061-0.015,0.114-0.022,0.177l-0.027,0.228c0.058,0.187,0.123,0.37,0.19,0.55
				c0.042,0.099,0.067,0.205,0.073,0.312c1.394,0.399,2.873,0.399,4.265,0c0-0.003,0-0.007,0-0.011
				c-0.02-0.103-0.03-0.206-0.026-0.311l0,0c0.024-0.292,0.061-0.581,0.113-0.869c0.018-0.142,0.024-0.284,0.022-0.427V82.49
				C52.712,82.448,52.711,82.406,52.709,82.366z M52.709,82.366c0-0.046,0-0.091-0.008-0.136c-0.008-0.046-0.006-0.086-0.011-0.13
				c-0.007-0.043-0.011-0.087-0.018-0.129c-0.005-0.044-0.012-0.085-0.02-0.129c-0.008-0.044-0.016-0.086-0.026-0.129
				c0-0.016-0.005-0.029-0.009-0.044c-0.013-0.057-0.026-0.114-0.041-0.172c-0.016-0.058-0.024-0.092-0.039-0.137
				c0-0.021-0.009-0.042-0.017-0.061c-0.007-0.02-0.019-0.066-0.03-0.099l-0.021-0.063c-0.009-0.029-0.018-0.058-0.028-0.086
				c-0.018-0.052-0.036-0.102-0.054-0.151c-0.018-0.052-0.037-0.102-0.056-0.152c-0.038-0.102-0.081-0.203-0.123-0.305
				c-0.165-0.392-0.35-0.779-0.52-1.162c-0.093-0.203-0.173-0.408-0.243-0.619l-0.021,0.032c-0.035,0.052-0.065,0.106-0.093,0.164
				c0,0.893-0.895,1.987-0.895,1.987l-0.901-1.312l-0.788,1.212c-0.113,0.061-0.228,0.268-0.316,0.562
				c-0.024,0.079-0.049,0.166-0.072,0.259c-0.016,0.061-0.03,0.124-0.044,0.19c-0.006,0.032-0.015,0.064-0.021,0.099l-0.021,0.104
				v0.016c-0.014,0.07-0.027,0.144-0.039,0.218c-0.014,0.074-0.028,0.158-0.041,0.239c-0.01,0.052-0.016,0.104-0.024,0.157
				c-0.016,0.101-0.03,0.204-0.043,0.304c-0.008,0.061-0.015,0.114-0.022,0.177l-0.027,0.228c0.058,0.187,0.123,0.37,0.19,0.55
				c0.042,0.099,0.067,0.205,0.073,0.312c1.394,0.399,2.873,0.399,4.265,0c0-0.003,0-0.007,0-0.011
				c-0.02-0.103-0.03-0.206-0.026-0.311l0,0c0.024-0.292,0.061-0.581,0.113-0.869c0.018-0.142,0.024-0.284,0.022-0.427V82.49
				C52.712,82.448,52.711,82.406,52.709,82.366z M52.709,82.366c0-0.046,0-0.091-0.008-0.136c-0.008-0.046-0.006-0.086-0.011-0.13
				c-0.007-0.043-0.011-0.087-0.018-0.129c-0.005-0.044-0.012-0.085-0.02-0.129c-0.008-0.044-0.016-0.086-0.026-0.129
				c0-0.016-0.005-0.029-0.009-0.044c-0.013-0.057-0.026-0.114-0.041-0.172c-0.016-0.058-0.024-0.092-0.039-0.137
				c0-0.021-0.009-0.042-0.017-0.061c-0.007-0.02-0.019-0.066-0.03-0.099l-0.021-0.063c-0.009-0.029-0.018-0.058-0.028-0.086
				c-0.018-0.052-0.036-0.102-0.054-0.151c-0.018-0.052-0.037-0.102-0.056-0.152c-0.038-0.102-0.081-0.203-0.123-0.305
				c-0.165-0.392-0.35-0.779-0.52-1.162c-0.093-0.203-0.173-0.408-0.243-0.619l-0.021,0.032c-0.035,0.052-0.065,0.106-0.093,0.164
				c0,0.893-0.895,1.987-0.895,1.987l-0.901-1.312l-0.788,1.212c-0.113,0.061-0.228,0.268-0.316,0.562
				c-0.024,0.079-0.049,0.166-0.072,0.259c-0.016,0.061-0.03,0.124-0.044,0.19c-0.006,0.032-0.015,0.064-0.021,0.099l-0.021,0.104
				v0.016c-0.014,0.07-0.027,0.144-0.039,0.218c-0.014,0.074-0.028,0.158-0.041,0.239c-0.01,0.052-0.016,0.104-0.024,0.157
				c-0.016,0.101-0.03,0.204-0.043,0.304c-0.008,0.061-0.015,0.114-0.022,0.177l-0.027,0.228c0.058,0.187,0.123,0.37,0.19,0.55
				c0.042,0.099,0.067,0.205,0.073,0.312c1.394,0.399,2.873,0.399,4.265,0c0-0.003,0-0.007,0-0.011
				c-0.02-0.103-0.03-0.206-0.026-0.311l0,0c0.024-0.292,0.061-0.581,0.113-0.869c0.018-0.142,0.024-0.284,0.022-0.427V82.49
				C52.712,82.448,52.711,82.406,52.709,82.366z M52.709,82.366c0-0.046,0-0.091-0.008-0.136c-0.008-0.046-0.006-0.086-0.011-0.13
				c-0.007-0.043-0.011-0.087-0.018-0.129c-0.005-0.044-0.012-0.085-0.02-0.129c-0.008-0.044-0.016-0.086-0.026-0.129
				c0-0.016-0.005-0.029-0.009-0.044c-0.013-0.057-0.026-0.114-0.041-0.172c-0.016-0.058-0.024-0.092-0.039-0.137
				c0-0.021-0.009-0.042-0.017-0.061c-0.007-0.02-0.019-0.066-0.03-0.099l-0.021-0.063c-0.009-0.029-0.018-0.058-0.028-0.086
				c-0.018-0.052-0.036-0.102-0.054-0.151c-0.018-0.052-0.037-0.102-0.056-0.152c-0.038-0.102-0.081-0.203-0.123-0.305
				c-0.165-0.392-0.35-0.779-0.52-1.162c-0.093-0.203-0.173-0.408-0.243-0.619l-0.021,0.032c-0.035,0.052-0.065,0.106-0.093,0.164
				c0,0.893-0.895,1.987-0.895,1.987l-0.901-1.312l-0.788,1.212c-0.113,0.061-0.228,0.268-0.316,0.562
				c-0.024,0.079-0.049,0.166-0.072,0.259c-0.016,0.061-0.03,0.124-0.044,0.19c-0.006,0.032-0.015,0.064-0.021,0.099l-0.021,0.104
				v0.016c-0.014,0.07-0.027,0.144-0.039,0.218c-0.014,0.074-0.028,0.158-0.041,0.239c-0.01,0.052-0.016,0.104-0.024,0.157
				c-0.016,0.101-0.03,0.204-0.043,0.304c-0.008,0.061-0.015,0.114-0.022,0.177l-0.027,0.228c0.058,0.187,0.123,0.37,0.19,0.55
				c0.042,0.099,0.067,0.205,0.073,0.312c1.394,0.399,2.873,0.399,4.265,0c0-0.003,0-0.007,0-0.011
				c-0.02-0.103-0.03-0.206-0.026-0.311l0,0c0.024-0.292,0.061-0.581,0.113-0.869c0.018-0.142,0.024-0.284,0.022-0.427V82.49
				C52.712,82.448,52.711,82.406,52.709,82.366z"/>
			<path opacity="0.1" enable-background="new    " d="M49.553,79.458l-0.076-0.011c-0.115-0.015-0.229-0.038-0.341-0.066
				l-0.042-0.012c-0.276-0.079-0.58-0.22-0.648-0.468c-0.02-0.08-0.018-0.164,0.007-0.241c0.038-0.136,0.09-0.267,0.154-0.392
				v-0.006c0.009-0.019,0.018-0.035,0.029-0.053c0.092-0.183,0.234-0.337,0.41-0.446l-0.136,0.022l0,0l-1.155,0.188l-1.79,0.289
				c0,0-0.317-0.063-0.75,1.128c0,0.016-0.01,0.029-0.015,0.045c-0.104,0.292-0.214,0.656-0.329,1.111
				c-0.078,0.316-0.148,0.627-0.215,0.928c-0.019,0.092-0.038,0.181-0.056,0.27c0.204,0.241,0.424,0.469,0.66,0.681l0.037,0.035
				c0.459,0.416,0.968,0.776,1.513,1.071l0.021,0.012c0.343,0.185,0.7,0.343,1.067,0.473l0.097,0.034
				c0.021-0.211,0.043-0.443,0.07-0.683c0-0.023,0-0.048,0.01-0.07l0.027-0.228c0.006-0.058,0.015-0.113,0.022-0.177
				c0.014-0.1,0.027-0.203,0.043-0.304c0.006-0.053,0.014-0.105,0.024-0.157c0.013-0.081,0.026-0.161,0.04-0.239
				s0.026-0.147,0.04-0.218v-0.016l0.02-0.104c0.007-0.034,0.014-0.066,0.021-0.099c0.015-0.066,0.029-0.13,0.045-0.19
				c0.023-0.093,0.047-0.18,0.072-0.259c0.091-0.294,0.196-0.501,0.316-0.562l0.788-1.212l0.034-0.052l0.014-0.022L49.553,79.458z"
				/>
			<path fill="#F1D2D7" d="M49.485,79.46l-0.836,1.286c-0.113,0.059-0.221,0.26-0.31,0.544c-0.026,0.084-0.053,0.177-0.078,0.273
				c-0.112,0.49-0.199,0.985-0.257,1.486c0,0.022,0,0.046-0.009,0.068c-0.038,0.316-0.07,0.625-0.097,0.9
				c-0.367-0.13-0.724-0.288-1.067-0.474l-0.021-0.011c-0.545-0.295-1.054-0.656-1.513-1.072l-0.037-0.034
				c-0.236-0.213-0.456-0.44-0.66-0.683c-0.027-0.03-0.054-0.062-0.08-0.093c0.012-0.06,0.026-0.113,0.039-0.178
				c0.064-0.301,0.135-0.61,0.214-0.926c0.104-0.432,0.234-0.856,0.387-1.271c0.003-0.013,0.009-0.024,0.015-0.036
				c0.402-1.035,0.692-0.977,0.692-0.977l1.889-0.305l1.193-0.192l-0.038,0.021l0,0c-0.132,0.092-0.245,0.212-0.33,0.349
				l-0.033,0.057c-0.013,0.021-0.025,0.044-0.039,0.068c-0.066,0.128-0.12,0.261-0.156,0.397c-0.037,0.108-0.026,0.227,0.026,0.326
				c0.114,0.22,0.436,0.339,0.7,0.406l0.045,0.011C49.243,79.431,49.364,79.449,49.485,79.46z"/>
			<path opacity="0.1" enable-background="new    " d="M56.049,81.757l-0.046-1.009c0.2-1.591-0.199-1.689-0.199-1.689l-0.471-0.228
				h-0.014l-1.9-0.921l-0.073-0.037l-0.022-0.009l0,0l-0.248-0.122l0,0l-0.157-0.075l-0.292-0.142l-0.099-0.049c0,0,0,0.019,0,0.054
				s0,0.131,0,0.242c0,0.031,0,0.064,0,0.1c0,0.113,0.01,0.245,0.02,0.4c0.021,0.388,0.058,0.909,0.125,1.522
				c0.037,0.354,0.085,0.743,0.144,1.161c0.037,0.246,0.062,0.491,0.077,0.73c0.05,0.807,0.025,1.618-0.076,2.42l0.104-0.033
				c0.28-0.093,0.555-0.203,0.822-0.33l0,0c0.521-0.243,1.014-0.544,1.465-0.898l0.021-0.016c0.293-0.228,0.568-0.479,0.825-0.748
				L56.049,81.757z"/>
			<path fill="#F1D2D7" d="M56.149,81.757l-0.046-1.012c0.198-1.59-0.2-1.689-0.2-1.689l-0.568-0.274h-0.01l-1.907-0.925
				l-0.087-0.042l-0.017-0.008l-0.14-0.068l-0.186-0.09l-0.365-0.176v0.047c0,0.027,0,0.064,0,0.114l0,0c0,0.028,0,0.062,0,0.1
				c0,0.038,0,0.064,0,0.1c0,0.113,0.01,0.262,0.02,0.432c0.02,0.361,0.053,0.837,0.114,1.401c0.041,0.388,0.092,0.818,0.159,1.281
				c0.034,0.248,0.059,0.493,0.073,0.735c0.051,0.795,0.029,1.594-0.069,2.385c0.28-0.093,0.555-0.203,0.822-0.33l0,0
				c0.521-0.242,1.012-0.545,1.465-0.898l0.021-0.016c0.292-0.228,0.568-0.479,0.823-0.748c0.034-0.033,0.065-0.067,0.096-0.102
				V81.757z"/>
			<path opacity="0.1" enable-background="new    " d="M49.742,73.411c0.354-0.061,0.711-0.19,1.064-0.113
				c0.294,0.061,0.541,0.258,0.812,0.395c0.26,0.131,0.545,0.206,0.837,0.221c0.107,0.015,0.215-0.008,0.308-0.06
				c0.141-0.1,0.163-0.298,0.139-0.469c-0.069-0.483-0.372-0.9-0.683-1.277c-0.124-0.161-0.267-0.306-0.426-0.433
				c-0.408-0.3-0.947-0.352-1.453-0.329c-0.577,0.026-1.162,0.138-1.665,0.427c-0.34,0.195-1.122,0.811-0.85,1.256
				C48.11,73.494,49.296,73.487,49.742,73.411z"/>
			<path fill="#444176" d="M49.742,73.298c0.354-0.061,0.711-0.189,1.064-0.113c0.294,0.061,0.541,0.257,0.812,0.394
				c0.26,0.131,0.545,0.207,0.837,0.222c0.107,0.014,0.215-0.007,0.308-0.061c0.141-0.098,0.163-0.298,0.139-0.468
				c-0.069-0.483-0.372-0.9-0.683-1.277c-0.124-0.162-0.267-0.307-0.426-0.433c-0.408-0.301-0.947-0.352-1.453-0.33
				c-0.577,0.026-1.162,0.138-1.665,0.428c-0.34,0.196-1.122,0.812-0.85,1.257C48.11,73.382,49.296,73.374,49.742,73.298z"/>
		</g>
		
			<linearGradient id="SVGID_4_" gradientUnits="userSpaceOnUse" x1="927.1279" y1="561.2627" x2="927.1279" y2="622.9463" gradientTransform="matrix(-1 0 0 -1 1017.2891 659.1406)">
			<stop  offset="0" style="stop-color:#808080;stop-opacity:0.25"/>
			<stop  offset="0.54" style="stop-color:#808080;stop-opacity:0.12"/>
			<stop  offset="1" style="stop-color:#808080;stop-opacity:0.1"/>
		</linearGradient>
		<path fill="url(#SVGID_4_)" d="M80.936,67.734h0.018c0.023,0.762,0.132,1.449,0.339,1.641c0.496,0.455,2.55-0.454,2.409-1.004
			c-0.029-0.113-0.077-0.299-0.136-0.535c0.554-0.07,1.027-0.228,1.216-0.552l0.356,1.099l0.026,0.078h0.006h0.02
			c0.235,2.229,0.769,6.857,1.194,7.477c0.568,0.821,1.221,4.381,1.221,4.381l1.222,7.3c0,0,0.471,4.202,0.751,4.658
			c0.083,0.085,0.191,0.143,0.31,0.16c-0.164,0.491-0.4,1.068-0.682,1.389c-0.567,0.64-1.315,1.916-1.973,1.826
			c-0.659-0.092-0.844,1.278,0.375,1.46c0.676,0.101,1.754-0.021,2.584-0.151c0,0.366,0.252,0.784,0.893,0.88
			c1.221,0.184,3.759-0.363,3.759-0.363s2.158-0.909,2.254-1.551c0.068-0.466-0.262-2.336-0.447-3.317
			c0.342-0.546-0.022-5.26-0.022-5.26l-0.658-9.035c0,0,0.376-5.017,0-5.93c-0.233-0.569-0.322-3.182-0.354-5.05l0.453,0.029
			c0.025-0.031,0.051-0.064,0.072-0.099l0.112,0.009c0,0,0.568-0.638,0.095-1.643c-0.35-0.746-0.282-4.115-0.227-5.793l0,0
			l0.067-0.795c0.023-0.024,0.043-0.054,0.056-0.086c0.88-0.119,1.736-0.378,2.536-0.768c0.239-0.1,0.466-0.237,0.665-0.404
			c0.471-0.455,0.187-3.194-0.752-7.3c-0.939-4.106-1.784-3.741-1.784-3.741s-2.256-0.182-3.289-1.552
			c-1.034-1.368-1.728-1.35-1.728-1.35l0,0c-0.025-0.179-0.043-0.349-0.058-0.506c0-0.06-0.008-0.114-0.011-0.172
			c0.351-0.327,0.618-0.733,0.779-1.186c0.213-0.112,0.473-0.15,0.675-0.293c0.053-0.037,0.1-0.081,0.139-0.129
			c0.204-0.188,0.332-0.441,0.364-0.715c0.031-0.3,0.018-0.601-0.042-0.896c-0.073-0.437-0.179-0.882-0.432-1.225
			c-0.256-0.344-0.637-0.55-1.004-0.743c-0.992-0.521-1.988-1.039-2.987-1.549c-0.194-0.121-0.413-0.197-0.64-0.228
			c-0.398-0.023-0.759,0.252-1.081,0.511c-0.128,0.101-0.252,0.21-0.37,0.325c-0.099,0.088-0.19,0.187-0.27,0.292
			c-0.378,0.505-0.538,1.457-0.372,2.088c0.051,0.201,0.164,0.258,0.304,0.257c-0.208,0.408-0.313,0.859-0.313,1.316
			c0.005,1.02,0.526,1.964,1.388,2.509c0,0.064,0,0.126,0.005,0.186c0.005,0.234-0.003,0.467-0.022,0.7c0,0-2.499,1.35-2.779,1.989
			c-0.281,0.638-1.316,1.095-1.316,1.095s-1.972,1.004-1.972,4.563l-1.035,5.017l-0.187,9.582c0,0,0.129-0.113,0.34-0.274
			c-0.007,0.063-0.011,0.129-0.018,0.196c-0.027,0.367-0.037,0.733-0.027,1.101L80.936,67.734z M93.554,92.532
			c-0.038,0.146-0.094,0.341-0.166,0.567c-0.032-0.188-0.063-0.373-0.096-0.552C93.373,92.541,93.461,92.535,93.554,92.532
			L93.554,92.532z"/>
		<path fill="#53526B" d="M90.142,91.354c0,0-0.362,1.631-0.907,2.262c-0.547,0.634-1.264,1.901-1.896,1.81
			c-0.63-0.09-0.813,1.268,0.364,1.448c1.177,0.18,3.612-0.361,3.612-0.361s2.082-0.909,2.171-1.539
			c0.091-0.628-0.542-3.89-0.542-3.89L90.142,91.354z"/>
		<path opacity="0.05" enable-background="new    " d="M90.142,91.354c0,0-0.362,1.631-0.907,2.262
			c-0.547,0.634-1.264,1.901-1.896,1.81c-0.63-0.09-0.813,1.268,0.364,1.448c1.177,0.18,3.612-0.361,3.612-0.361
			s2.082-0.909,2.171-1.539c0.091-0.628-0.542-3.89-0.542-3.89L90.142,91.354z"/>
		<path fill="#53526B" d="M93.49,92.079c0,0-0.362,1.63-0.909,2.262c-0.546,0.632-1.266,1.901-1.896,1.809
			c-0.632-0.089-0.814,1.267,0.362,1.448c1.177,0.181,3.619-0.363,3.619-0.363s2.08-0.909,2.171-1.538
			c0.089-0.628-0.544-3.891-0.544-3.891L93.49,92.079z"/>
		<path fill="#5F5D7E" d="M85.256,67.292c0,0,0.725,7.78,1.269,8.594c0.542,0.815,1.176,4.343,1.176,4.343l1.175,7.236
			c0,0,0.455,4.163,0.723,4.614c0.271,0.452,3.627,0.257,3.627,0.257l-2.088-23.959L85.256,67.292z"/>
		<path opacity="0.05" enable-background="new    " d="M85.256,67.292c0,0,0.725,7.78,1.269,8.594
			c0.542,0.815,1.176,4.343,1.176,4.343l1.175,7.236c0,0,0.455,4.163,0.723,4.614c0.271,0.452,3.627,0.257,3.627,0.257
			l-2.088-23.959L85.256,67.292z"/>
		<path fill="#5F5D7E" d="M83.81,63.582l0.236,0.75l1.277,4.057l0.025,0.078h0.008c0.171,0.038,3.792,0.87,4.573,1.126
			c0.043,0.013,0.083,0.028,0.124,0.046c0.362,0.18,0.813,6.693,0.813,6.693s0.273,6.152,0.455,6.604
			c0.184,0.451,0.909,9.769,1.357,9.499c0.449-0.271,3.71,0,3.71,0c0.36-0.364,0-5.247,0-5.247l-0.645-8.956
			c0,0,0.363-4.974,0-5.878c-0.362-0.906-0.362-6.967-0.362-6.967l-7.404-1.158l-0.716-0.113L83.81,63.582z"/>
		<path opacity="0.02" enable-background="new    " d="M84.046,64.334l1.277,4.057l0.032,0.079c0.172,0.038,3.793,0.87,4.574,1.127
			h0.076l-2.022-5.363l-0.058-0.155L87.27,64.12L84.046,64.334z"/>
		<path opacity="0.1" enable-background="new    " d="M92.494,45.49c0,0-3.346,3.619-5.428,0.633l-1.99,1.357l0.361,2.081
			l-1.175,15.741c0,0,3.075-0.091,5.246,0.632c1.234,0.438,2.609,0.121,3.528-0.813L92.68,51.281l0.813-4.251L92.494,45.49z"/>
		<path fill="#53526B" d="M92.494,45.22c0,0-3.346,3.618-5.428,0.632l-1.99,1.357l0.361,2.081l-1.175,15.74
			c0,0,3.075-0.091,5.246,0.633c1.234,0.438,2.609,0.12,3.528-0.813l-0.357-13.84l0.813-4.251L92.494,45.22z"/>
		<g id="b7475575-9269-4b4a-a721-bb0a166a2f3e">
			<g id="_x35_bdc843c-f8f1-42c9-9268-9744bdec504e">
				<polyline id="_x36_bc746a9-2d5c-4457-b327-3c896c91b9d0" fill="#E82127" points="85.812,61.335 85.812,61.905 85.631,61.905 
					85.631,61.526 84.966,61.526 84.966,61.905 84.784,61.905 84.784,61.337 85.812,61.335 				"/>
				<path id="d39c551f-7962-48ac-bd52-1b7ff04213b0" fill="#E82127" d="M85.65,61.152h-0.702c-0.094-0.023-0.167-0.095-0.191-0.189
					h1.083c-0.023,0.093-0.098,0.166-0.191,0.189"/>
			</g>
			<g id="_x33_38417f9-9740-4f15-9fb5-4758cf3f6efe">
				<path id="a3b10f10-7568-4e16-9739-cab30d2da761" fill="#E82127" d="M91.997,60.97c-0.024,0.092-0.096,0.165-0.191,0.188h-0.294
					l-0.014,0.005v0.745h-0.183v-0.745L91.3,61.157h-0.297c-0.091-0.024-0.164-0.096-0.189-0.188l0,0H91.997L91.997,60.97"/>
			</g>
		</g>
		<path fill="#D6DBE6" d="M85.529,63.946c0,0,0,2.352-0.544,3.346c-0.543,0.996-3.707,0.456-3.707,0.456L81.91,64.4L85.529,63.946z"
			/>
		<path fill="#FDC2CC" d="M81.621,69.375c0.477,0.455,2.455-0.454,2.317-0.996c-0.096-0.383-0.429-1.751-0.617-2.529l-0.133-0.546
			c0,0-1.157-0.363-1.567,0c-0.148,0.132-0.254,0.65-0.303,1.278C81.235,67.671,81.319,69.086,81.621,69.375z"/>
		<path fill="#FDC2CC" d="M85.978,46.847l3.166,2.442c0,0,4.703-0.271,3.526-2.532c-0.511-0.995-0.82-2.081-0.907-3.196
			c-0.039-0.412-0.039-0.826,0-1.238c0,0-4.344-3.975-3.8,0.544c0.043,0.346,0.068,0.694,0.075,1.044
			C88.102,47.302,85.978,46.847,85.978,46.847z"/>
		<path opacity="0.1" enable-background="new    " d="M87.971,42.867c0.045,0.347,0.07,0.695,0.077,1.045
			c0.486,0.322,1.059,0.495,1.643,0.494c0.811,0,1.407-0.789,1.944-1.313c-0.061-0.75,0.136-0.769,0.136-0.769
			S87.429,38.344,87.971,42.867z"/>
		<circle fill="#FDC2CC" cx="89.69" cy="41.24" r="2.985"/>
		<path opacity="0.1" enable-background="new    " d="M91.815,44.088c0,0,0.497,0.045,1.492,1.401
			c0.996,1.355,3.167,1.538,3.167,1.538s0.814-0.362,1.718,3.708c0.904,4.071,1.177,6.785,0.724,7.237s-2.262,1.087-3.171,1.087
			c0,0-0.271,5.699,0.182,6.695c0.452,0.994-0.091,1.628-0.091,1.628l-3.977-0.271c0,0-1.357-1.719-1.628-4.704
			c-0.273-2.985-1.176-11.49-0.723-12.484c0.449-0.996,2.44-3.529,2.351-3.8C91.771,45.852,91.815,44.088,91.815,44.088z"/>
		<path fill="#D6DBE6" d="M91.826,44.061c0,0,0.668-0.018,1.664,1.339c0.995,1.357,3.164,1.538,3.164,1.538s0.813-0.363,1.718,3.708
			c0.906,4.071,1.176,6.785,0.725,7.237c-0.453,0.452-2.262,1.086-3.166,1.086c0,0-0.271,5.698,0.182,6.693
			c0.451,0.996-0.091,1.628-0.091,1.628l-3.977-0.271c0,0-1.357-1.718-1.629-4.704c-0.271-2.985-1.179-11.487-0.726-12.478
			c0.451-0.991,2.442-3.528,2.351-3.8C91.954,45.767,91.826,44.061,91.826,44.061z"/>
		<path opacity="0.1" enable-background="new    " d="M81.319,66.581c0.434-0.331,1.251-0.845,2.002-0.733l-0.131-0.545
			c0,0-1.159-0.362-1.567,0C81.473,65.435,81.367,65.952,81.319,66.581z"/>
		<path opacity="0.1" enable-background="new    " d="M88.021,44.631c0,0-2.308,1.492-2.579,2.126
			c-0.271,0.634-1.266,1.086-1.266,1.086s-1.9,0.995-1.9,4.523l-0.993,4.976l4.523,6.332c0,0,0.542-6.332,0.813-7.87
			c0.271-1.538,0.633-4.43,0.633-4.43s1.357-1.718,1.176-2.17S88.021,44.631,88.021,44.631z"/>
		<path fill="#D6DBE6" d="M88.021,44.604c0,0-2.405,1.338-2.676,1.971c-0.27,0.633-1.267,1.086-1.267,1.086
			s-1.899,0.995-1.899,4.522l-0.994,4.976l-0.182,9.499c0,0,1.628-1.539,2.804-0.815c1.178,0.724,1.9-2.353,1.9-2.353
			s0.542-6.331,0.814-7.87c0.271-1.538,0.632-4.429,0.632-4.429s1.359-1.719,1.177-2.172C88.149,48.567,88.021,44.604,88.021,44.604
			z"/>
		<path opacity="0.1" enable-background="new    " d="M87.069,37.607c0.153-0.194,0.33-0.369,0.528-0.519
			c0.31-0.259,0.655-0.529,1.04-0.507c0.22,0.029,0.429,0.104,0.615,0.22c0.962,0.507,1.923,1.019,2.878,1.536
			c0.354,0.191,0.718,0.392,0.965,0.736c0.246,0.343,0.347,0.784,0.415,1.216c0.059,0.292,0.071,0.591,0.043,0.888
			c-0.029,0.291-0.171,0.559-0.395,0.746c-0.257,0.188-0.61,0.19-0.826,0.435c-0.126,0.142-0.18,0.342-0.27,0.513
			c-0.087,0.172-0.24,0.341-0.416,0.31c-0.174-0.031-0.28-0.216-0.305-0.403c-0.013-0.19,0-0.38,0.032-0.568
			c0.035-0.341-0.01-0.701-0.206-0.956c-0.137-0.171-0.333-0.277-0.464-0.455c-0.316-0.427-0.173-1.134-0.519-1.537
			c-0.204-0.212-0.509-0.3-0.796-0.227c-0.279,0.059-0.536,0.211-0.795,0.341c-0.348,0.175-0.713,0.315-1.087,0.419
			c-0.316,0.087-0.684,0.293-0.792-0.127C86.553,39.053,86.706,38.109,87.069,37.607z"/>
		<path fill="#865A61" d="M87.16,37.518c0.153-0.194,0.331-0.368,0.526-0.521c0.313-0.258,0.656-0.528,1.044-0.506
			c0.217,0.029,0.427,0.105,0.615,0.221c0.96,0.507,1.758,0.027,2.878,1.535c0.237,0.323,0.718,0.394,0.963,0.736
			c0.246,0.344,0.348,0.784,0.417,1.216c0.057,0.292,0.071,0.592,0.039,0.888c-0.026,0.291-0.169,0.559-0.392,0.746
			c-0.259,0.188-0.611,0.188-0.827,0.433c-0.126,0.143-0.18,0.341-0.268,0.515c-0.089,0.173-0.244,0.34-0.418,0.31
			c-0.176-0.031-0.28-0.215-0.305-0.403c-0.013-0.19-0.001-0.38,0.03-0.567c0.035-0.342-0.008-0.703-0.204-0.956
			c-0.137-0.173-0.332-0.277-0.464-0.454c-0.316-0.428-0.171-1.137-0.519-1.537c-0.204-0.214-0.509-0.3-0.794-0.227
			c-0.281,0.059-0.538,0.211-0.796,0.34c-0.35,0.176-0.714,0.317-1.09,0.421C87.282,39.792,86.917,40,86.81,39.58
			C86.643,38.962,86.797,38.018,87.16,37.518z"/>
		<path opacity="0.1" enable-background="new    " d="M95.314,51.325c0,0,1.206,3.076,0.3,4.343l-1.99-0.455
			c0,0,1.811,0.542,1.539-0.543C94.891,53.583,95.314,51.325,95.314,51.325z"/>
		<path opacity="0.1" enable-background="new    " d="M95.974,58.925c0,0-2.624,0.181-3.349-0.363
			c0.954,0.728,2.079,1.195,3.267,1.357L95.974,58.925z"/>
		<path opacity="0.1" enable-background="new    " d="M84.669,53.131c0,0-1.357,4.163-1.267,4.795c0.091,0.633,0.271,7.6,0.271,7.6
			l0.272-0.09l-0.091-7.6L84.669,53.131z"/>
		
			<linearGradient id="SVGID_5_" gradientUnits="userSpaceOnUse" x1="-134.6089" y1="595.3164" x2="-134.6089" y2="653.6338" gradientTransform="matrix(1 0 0 -1 199.2998 659.1406)">
			<stop  offset="0" style="stop-color:#808080;stop-opacity:0.25"/>
			<stop  offset="0.54" style="stop-color:#808080;stop-opacity:0.12"/>
			<stop  offset="1" style="stop-color:#808080;stop-opacity:0.1"/>
		</linearGradient>
		<path fill="url(#SVGID_5_)" d="M96.292,58.218l-31.01-24.988c-0.364-0.365-0.859-0.569-1.374-0.569H62.59
			c5.713-7.318,4.409-17.883-2.911-23.596c-7.321-5.711-17.884-4.407-23.596,2.913c-5.713,7.32-4.409,17.884,2.91,23.596
			c6.08,4.743,14.606,4.743,20.686,0v1.315c0,0.516,0.203,1.011,0.568,1.376l31.009,24.989c0.751,0.757,1.973,0.762,2.73,0.011
			c0.005-0.004,0.007-0.008,0.012-0.011l2.285-2.283C97.044,60.21,97.047,58.981,96.292,58.218z M49.327,32.66
			c-5.718,0-10.353-4.634-10.353-10.351c0-5.718,4.634-10.353,10.353-10.353c5.718,0,10.353,4.635,10.353,10.353l0,0
			c0.003,5.713-4.625,10.35-10.34,10.354c-0.004,0-0.008,0-0.013,0V32.66z"/>
		<path fill="#003459" d="M96.521,57.991l-31.011-24.99c-0.364-0.364-0.859-0.569-1.373-0.568h-1.318
			c5.712-7.32,4.409-17.884-2.912-23.596C52.586,3.127,42.022,4.43,36.311,11.75c-5.712,7.319-4.409,17.883,2.911,23.595
			c6.079,4.744,14.606,4.744,20.684,0v1.316c0,0.516,0.205,1.011,0.569,1.374l31.009,24.99c0.753,0.757,1.975,0.763,2.732,0.011
			c0.003-0.004,0.006-0.008,0.01-0.011l2.285-2.283C97.271,59.983,97.273,58.753,96.521,57.991z M49.554,32.434
			c-5.717,0-10.354-4.635-10.354-10.352c0-5.717,4.637-10.353,10.354-10.353c5.717,0,10.352,4.635,10.352,10.353l0,0
			c0.005,5.713-4.624,10.351-10.338,10.354c-0.005,0-0.009,0-0.014,0V32.434z"/>
		<path fill="#FDC2CC" d="M94.214,55.712c0,0-4.526-5.19-3.891-1.629c0.453,2.533,2.171,3.891,2.984,4.163
			C94.123,58.518,94.214,55.712,94.214,55.712z"/>
		<path fill="#D6DBE6" d="M95.299,50.918c0,0,0.092,3.348,0.544,3.799c0.451,0.452-0.271,0.995-0.271,0.995l-1.811-0.455
			c0,0,0.456,2.986-1.446,2.625c0,0,1.267,1.175,2.533,1.358c1.266,0.182,1.175-0.271,1.175-0.271l1.9-2.262L95.299,50.918z"/>
		<polygon fill="#D6DBE6" points="95.801,59.018 97.637,58.613 97.392,57.768 96.254,57.313 94.778,57.994 		"/>
		<path fill="#C0BCCF" d="M42.22,21.985c-0.002,1.671,0.539,3.297,1.543,4.632c0.102,0.136,0.208,0.267,0.317,0.395
			c0.059,0.069,0.12,0.137,0.183,0.205c0.031,0.035,0.062,0.068,0.096,0.102c0.255,0.269,0.531,0.52,0.825,0.749l0.019,0.014
			c0.453,0.355,0.945,0.657,1.466,0.9l0,0c0.268,0.126,0.542,0.236,0.823,0.33l0.104,0.032c0.063,0.022,0.129,0.041,0.194,0.059
			l0.026,0.008c0.032,0.009,0.064,0.019,0.099,0.027c0.66,0.18,1.341,0.271,2.025,0.271c0.113,0,0.233,0,0.349-0.009
			c0.607-0.026,1.208-0.125,1.792-0.293h0.011c0.108-0.032,0.214-0.064,0.321-0.102h0.011l0.096-0.033
			c0.368-0.13,0.725-0.288,1.068-0.473l0.021-0.011c0.038-0.02,0.074-0.041,0.113-0.062c0.504-0.283,0.975-0.621,1.401-1.008
			l0.039-0.037c0.234-0.211,0.455-0.439,0.66-0.68l0.025-0.029c0.018-0.021,0.037-0.044,0.055-0.066
			c0.05-0.059,0.097-0.12,0.145-0.182c2.614-3.37,2.003-8.222-1.366-10.837c-3.371-2.615-8.223-2.003-10.838,1.366
			C42.792,18.606,42.222,20.272,42.22,21.985z"/>
		
			<linearGradient id="SVGID_6_" gradientUnits="userSpaceOnUse" x1="-2841.249" y1="629.4434" x2="-2841.249" y2="643.1543" gradientTransform="matrix(-1 0 0 -1 -2791.4395 659.1406)">
			<stop  offset="0" style="stop-color:#808080;stop-opacity:0.25"/>
			<stop  offset="0.54" style="stop-color:#808080;stop-opacity:0.12"/>
			<stop  offset="1" style="stop-color:#808080;stop-opacity:0.1"/>
		</linearGradient>
		<path fill="url(#SVGID_6_)" d="M44.894,24.47c0,0,1.675-0.143,2.443-1.208c0.748-1.037,1.257-1.049,1.283-1.049l0,0
			c0.019-0.138,0.032-0.271,0.042-0.393c0,0,0-0.011,0-0.017c-0.031,0.024-0.067,0.041-0.105,0.045
			c-0.15,0.023-0.282-0.119-0.357-0.27c-0.057-0.158-0.133-0.307-0.227-0.448c-0.185-0.213-0.488-0.214-0.709-0.377
			c-0.193-0.163-0.315-0.396-0.34-0.649c-0.013-0.094-0.017-0.189-0.015-0.284c-0.002-0.203,0.013-0.405,0.049-0.606
			c0.058-0.375,0.146-0.76,0.356-1.057c0.21-0.296,0.622-0.36,0.826-0.64c0.957-1.313,1.64-0.896,2.463-1.337
			c0.16-0.101,0.34-0.166,0.528-0.192c0.33-0.019,0.625,0.218,0.892,0.442c0.17,0.133,0.322,0.285,0.454,0.455
			c0.237,0.332,0.371,0.89,0.359,1.379c0.006,0.181-0.013,0.363-0.053,0.539c-0.065,0.261-0.244,0.244-0.439,0.185
			c0.499,1.051,0.158,2.307-0.802,2.962c0,0.04,0,0.081,0,0.12c0,0.009,0,0.017,0,0.026c-0.002,0.18,0.003,0.361,0.019,0.542
			c0.019,0.01,1.855,1.051,2.064,1.545c0.207,0.496,0.978,0.853,0.978,0.853s0.847,0.454,1.249,1.881l-0.023,0.028
			c-0.205,0.246-0.425,0.479-0.66,0.695l-0.038,0.035c-0.426,0.392-0.898,0.736-1.402,1.023c-0.037,0.021-0.073,0.043-0.113,0.063
			l-0.021,0.012c-0.343,0.188-0.7,0.349-1.069,0.479l-0.096,0.036h-0.013c-0.105,0.038-0.212,0.072-0.319,0.103h-0.012
			c-0.583,0.17-1.184,0.271-1.791,0.297c-0.114,0.005-0.228,0.007-0.349,0.007c-0.682,0.004-1.362-0.084-2.019-0.263
			c-0.035-0.008-0.068-0.018-0.101-0.027L47.8,29.401c-0.065-0.019-0.131-0.039-0.195-0.061L47.5,29.307
			c-0.281-0.094-0.557-0.207-0.825-0.335l0,0c-0.522-0.247-1.014-0.555-1.465-0.915l-0.021-0.014
			c-0.293-0.233-0.569-0.487-0.825-0.762c-0.033-0.033-0.064-0.067-0.096-0.104c-0.062-0.068-0.124-0.137-0.183-0.207
			c-0.114-0.131-0.215-0.264-0.317-0.401C44.377,24.236,44.894,24.47,44.894,24.47z"/>
		<path fill="#FDC2CC" d="M50.687,26.372l2.444-1.885c0,0-1.638,0.352-1.591-2.266c0-0.008,0-0.017,0-0.025
			c0-0.236,0.023-0.495,0.058-0.78c0.418-3.491-2.932-0.419-2.932-0.419c0.028,0.31,0.028,0.62,0,0.929c0,0.009,0,0.018,0,0.025
			c-0.066,0.861-0.304,1.698-0.698,2.466C47.058,26.161,50.687,26.372,50.687,26.372z"/>
		<path opacity="0.1" enable-background="new    " d="M48.977,21.441c0.415,0.403,0.668,1.136,1.292,1.136
			c0.452,0,0.893-0.133,1.269-0.381c0-0.236,0.023-0.495,0.057-0.78c0.419-3.491-2.932-0.419-2.932-0.419
			S49.021,20.874,48.977,21.441z"/>
		<circle fill="#FDC2CC" cx="50.269" cy="20.159" r="2.304"/>
		<path opacity="0.1" enable-background="new    " d="M52.478,17.209c-0.132-0.167-0.286-0.316-0.455-0.446
			c-0.265-0.221-0.561-0.455-0.891-0.434c-0.188,0.025-0.368,0.09-0.527,0.189c-0.825,0.433-1.507,0.024-2.464,1.313
			c-0.205,0.277-0.614,0.34-0.827,0.631c-0.21,0.29-0.295,0.67-0.356,1.041c-0.049,0.25-0.061,0.507-0.036,0.762
			c0.027,0.249,0.149,0.478,0.341,0.638c0.221,0.16,0.525,0.161,0.709,0.372c0.093,0.136,0.169,0.284,0.227,0.439
			c0.075,0.147,0.208,0.287,0.356,0.265c0.151-0.021,0.24-0.184,0.262-0.34c0.009-0.163,0-0.325-0.028-0.485
			c-0.029-0.288,0.006-0.6,0.177-0.817c0.112-0.149,0.284-0.237,0.396-0.389c0.27-0.365,0.148-0.977,0.444-1.316
			c0.176-0.181,0.437-0.253,0.681-0.19c0.239,0.069,0.467,0.167,0.682,0.293c0.298,0.151,0.61,0.271,0.932,0.361
			c0.271,0.074,0.584,0.25,0.675-0.113C52.923,18.446,52.788,17.638,52.478,17.209z"/>
		<path fill="#865A61" d="M52.478,17.096c-0.132-0.168-0.286-0.317-0.455-0.446c-0.265-0.221-0.561-0.455-0.891-0.433
			c-0.188,0.025-0.368,0.089-0.527,0.188c-0.825,0.434-1.507,0.024-2.464,1.313c-0.205,0.277-0.614,0.341-0.827,0.631
			c-0.21,0.29-0.295,0.67-0.356,1.04c-0.049,0.25-0.061,0.507-0.036,0.762c0.027,0.249,0.149,0.479,0.341,0.639
			c0.221,0.16,0.525,0.161,0.709,0.371c0.093,0.137,0.169,0.285,0.227,0.439c0.075,0.148,0.208,0.288,0.356,0.266
			c0.151-0.021,0.24-0.183,0.262-0.34c0.009-0.163,0-0.325-0.028-0.485c-0.029-0.287,0.006-0.602,0.177-0.818
			c0.112-0.148,0.284-0.237,0.396-0.388c0.27-0.365,0.148-0.978,0.444-1.316c0.176-0.181,0.437-0.254,0.681-0.189
			c0.239,0.069,0.467,0.167,0.682,0.293c0.298,0.151,0.61,0.272,0.932,0.361c0.271,0.072,0.584,0.25,0.675-0.115
			C52.923,18.333,52.788,17.524,52.478,17.096z"/>
		<path opacity="0.1" enable-background="new    " d="M47.965,27.584l-0.046,1.743c0.661,0.18,1.342,0.27,2.026,0.269
			c0.113,0,0.233,0,0.349-0.007c0.606-0.026,1.208-0.125,1.791-0.293h0.012c0.107-0.032,0.214-0.064,0.319-0.102h0.013l0.096-0.034
			c0.368-0.129,0.726-0.287,1.069-0.473l0.021-0.011c0.038-0.021,0.075-0.042,0.113-0.063l-0.176-2.35l0.281-1.611l-1.535-1.047
			c-0.086,0.126-0.183,0.242-0.289,0.35c-0.152,0.16-0.329,0.291-0.525,0.389c-1.102,0.542-2.356-0.321-2.979-0.855l-0.142-0.126
			c-0.161-0.146-0.252-0.247-0.252-0.247l-0.769,1.186L47.965,27.584z"/>
		<path fill="#53526B" d="M47.965,27.697l-0.046,1.742c0.661,0.181,1.342,0.271,2.026,0.271c0.113,0,0.233,0,0.349-0.009
			c0.606-0.025,1.208-0.124,1.791-0.292h0.012c0.107-0.031,0.214-0.065,0.319-0.102h0.013l0.096-0.033
			c0.368-0.13,0.726-0.288,1.069-0.473l0.021-0.01c0.038-0.021,0.075-0.042,0.113-0.062l-0.176-2.351l0.281-1.612l-1.535-1.045
			c-0.086,0.124-0.183,0.241-0.289,0.35c-0.152,0.158-0.329,0.29-0.525,0.387c-1.102,0.544-2.356-0.32-2.979-0.853l-0.142-0.126
			c-0.161-0.146-0.252-0.247-0.252-0.247l-0.769,1.186L47.965,27.697z"/>
		<path fill="#555388" d="M43.763,26.617c0.102,0.136,0.208,0.267,0.317,0.395c0.059,0.069,0.12,0.137,0.183,0.205
			c0.031,0.035,0.062,0.068,0.096,0.102c0.255,0.269,0.531,0.52,0.825,0.749l0.019,0.014c0.453,0.355,0.945,0.657,1.466,0.9l0,0
			c0.268,0.126,0.542,0.236,0.823,0.33l0.104,0.032c0.063,0.022,0.129,0.041,0.194,0.059l0.026,0.008
			c0.032,0.009,0.064,0.019,0.099,0.027c0.66,0.18,1.341,0.271,2.025,0.271c0.113,0,0.233,0,0.349-0.009
			c0.089-1.449,0.114-2.613-0.025-2.911c-0.083-0.173-0.178-0.341-0.28-0.502c-0.562-0.902-1.59-2.258-1.535-2.429
			c0.022-0.083,0.038-0.17,0.046-0.256c0.061-0.448,0.121-1.266,0.121-1.266l0,0c-0.026,0-0.534,0.012-1.282,1.031
			c-0.768,1.048-2.444,1.188-2.444,1.188S44.377,24.327,43.763,26.617z"/>
		<path fill="#555388" d="M52.222,27.836c0,0,0.084,0.669,0.194,1.468h0.013l0.096-0.033c0.368-0.13,0.726-0.288,1.069-0.473
			l0.021-0.011c0.038-0.02,0.075-0.041,0.113-0.062c0.504-0.283,0.975-0.621,1.402-1.008l0.038-0.037
			c0.234-0.211,0.455-0.439,0.66-0.68l0.023-0.029c-0.405-1.408-1.249-1.85-1.249-1.85s-0.768-0.35-0.978-0.838
			c-0.21-0.489-2.065-1.521-2.065-1.521v0.008c0,0.087-0.029,0.888-0.074,1.694c-0.028,0.523-0.063,1.05-0.104,1.384
			c-0.008,0.107-0.028,0.215-0.058,0.32C51.175,26.511,52.222,27.836,52.222,27.836z"/>
	</g>
</g>
</svg>
