<?xml version="1.0" encoding="utf-8"?>
<!-- Generator: Adobe Illustrator 16.0.0, SVG Export Plug-In . SVG Version: 6.00 Build 0)  -->
<!DOCTYPE svg PUBLIC "-//W3C//DTD SVG 1.1//EN" "http://www.w3.org/Graphics/SVG/1.1/DTD/svg11.dtd">
<svg version="1.1" id="Capa_1" xmlns="http://www.w3.org/2000/svg" xmlns:xlink="http://www.w3.org/1999/xlink" x="0px" y="0px"
	 width="141.233px" height="100.54px" viewBox="0 0 141.233 100.54" enable-background="new 0 0 141.233 100.54"
	 xml:space="preserve">
<g>
	<path opacity="0.1" fill="#003459" enable-background="new    " d="M131.342,58.356c-4.855,6.654-3.245,16.154-0.446,23.721
		c0.939,2.533,2.006,5.213,1.518,7.97c-0.594,3.369-3.388,5.893-6.292,7.269c-5.295,2.505-11.552,2.105-16.289-1.053
		c-4.087-2.725-6.965-7.254-11.132-9.848c-6.974-4.342-16.029-2.403-23.79,0.912c-5.491,2.344-11.506,5.365-16.858,3.199
		c-3.765-1.523-6.3-5.4-7.635-9.548c-0.644-2.001-1.095-4.175-2.378-5.742c-0.763-0.931-1.771-1.579-2.809-2.123
		c-9.462-4.954-21.634-1.856-30.808-7.386C8.229,61.993,4.373,54.749,2.772,47.132C1.17,39.515,1.566,31.476,2.204,23.571
		C2.658,17.954,3.375,11.953,6.752,7.54c3.57-4.668,9.557-6.524,14.909-5.793c5.353,0.733,10.15,3.71,14.35,7.254
		c5.251,4.429,10.082,9.987,16.613,11.664c4.448,1.145,9.174,0.335,13.798-0.023c7.73-0.597,15.432,0.09,23.087,0.867
		c7.328,0.742,14.707,1.572,21.648,4.009c4.912,1.726,8.805,4.985,13.429,7.21c3.014,1.453,6.33,1.791,9.167,3.666
		c3.5,2.31,6.664,6.402,5.637,11.314C138.42,52.376,133.918,54.825,131.342,58.356z"/>
	<g>
		<path fill="#F2F2F2" d="M95.375,46.694H68.909L54.996,69.212c4.179,2.59,8.999,3.957,13.914,3.949
			C83.526,73.161,95.375,61.312,95.375,46.694z"/>
		<path fill="#3F3D56" d="M68.012,70.708c-4.938,0.004-9.779-1.371-13.979-3.969l-0.106-0.066l0.065-0.106l13.949-22.577h26.662
			v0.126C94.604,58.778,82.675,70.708,68.012,70.708z M54.272,66.591c4.135,2.532,8.891,3.87,13.74,3.865
			c14.483,0,26.273-11.748,26.341-26.215H68.083L54.272,66.591z"/>
		<path fill="#F2F2F2" d="M36.051,42.882c-0.005,9.176,4.746,17.697,12.553,22.517l13.913-22.517L39.534,29.749
			C37.245,33.747,36.043,38.274,36.051,42.882z"/>
		<path fill="#3F3D56" d="M50.776,64.675l-0.108-0.066c-12.188-7.537-16.217-23.373-9.112-35.818l0.062-0.109l23.205,13.26
			L50.776,64.675z M41.712,29.022c-6.931,12.277-2.974,27.835,8.982,35.306L64.473,42.03L41.712,29.022z"/>
		<path fill="#003459" d="M75.68,12.997l-5.706,25.848h26.466C96.441,26.187,87.554,15.606,75.68,12.997z"/>
		<path fill="#3F3D56" d="M94.604,40.429H67.856l5.767-26.123l0.122,0.026c12.183,2.692,20.857,13.493,20.859,25.972V40.429z
			 M68.169,40.177h26.184c-0.06-12.182-8.671-22.903-20.54-25.572L68.169,40.177z"/>
		<path fill="#F2F2F2" d="M64.312,10.472c-9.5-0.004-18.271,5.086-22.983,13.334l22.983,13.133l5.706-25.848
			C68.143,10.679,66.23,10.472,64.312,10.472z"/>
		<path fill="#3F3D56" d="M65.519,39.263l-23.24-13.28l0.062-0.109c5.783-10.101,17.456-15.274,28.825-12.774l0.122,0.027
			L65.519,39.263z M42.622,25.89l22.725,12.985l5.641-25.558C59.807,10.913,48.351,15.991,42.622,25.89z"/>
		<polygon fill="#3F3D56" points="79.206,31.642 79.023,31.469 92.798,16.851 104.011,16.851 104.011,17.102 92.907,17.102 		"/>
		<rect x="96.385" y="18.771" fill="#003459" width="13.234" height="0.449"/>
		<rect x="96.385" y="20.678" fill="#003459" width="13.234" height="0.448"/>
		<rect x="96.385" y="22.584" fill="#003459" width="13.234" height="0.448"/>
		<rect x="91.865" y="74.261" fill="#003459" width="13.234" height="0.449"/>
		<rect x="91.865" y="76.167" fill="#003459" width="13.234" height="0.449"/>
		<rect x="91.865" y="78.073" fill="#003459" width="13.234" height="0.448"/>
		<polygon fill="#3F3D56" points="99.449,72.011 86.202,72.011 86.164,71.956 75.87,57.016 76.076,56.873 86.333,71.759 
			99.449,71.759 		"/>
	</g>
</g>
</svg>
