<?xml version="1.0" encoding="utf-8"?>
<!-- Generator: Adobe Illustrator 16.0.0, SVG Export Plug-In . SVG Version: 6.00 Build 0)  -->
<!DOCTYPE svg PUBLIC "-//W3C//DTD SVG 1.1//EN" "http://www.w3.org/Graphics/SVG/1.1/DTD/svg11.dtd">
<svg version="1.1" id="Capa_1" xmlns="http://www.w3.org/2000/svg" xmlns:xlink="http://www.w3.org/1999/xlink" x="0px" y="0px"
	 width="141.73px" height="103.159px" viewBox="0 0 141.73 103.159" enable-background="new 0 0 141.73 103.159"
	 xml:space="preserve">
<g>
	<path opacity="0.1" fill="#003459" enable-background="new    " d="M132.014,59.722c-4.891,6.701-3.269,16.267-0.45,23.886
		c0.946,2.551,2.02,5.25,1.528,8.025c-0.597,3.393-3.41,5.934-6.336,7.319c-5.332,2.521-11.631,2.12-16.402-1.061
		c-4.116-2.743-7.013-7.304-11.208-9.917c-7.023-4.372-16.142-2.419-23.956,0.919c-5.53,2.361-11.587,5.402-16.977,3.223
		c-3.79-1.535-6.344-5.439-7.688-9.615c-0.648-2.015-1.103-4.203-2.395-5.782c-0.769-0.937-1.783-1.591-2.828-2.138
		c-9.529-4.989-21.785-1.869-31.023-7.438C8.043,63.384,4.161,56.09,2.549,48.419c-1.613-7.67-1.214-15.765-0.572-23.725
		c0.457-5.656,1.179-11.698,4.58-16.142c3.595-4.701,9.623-6.57,15.013-5.833c5.39,0.738,10.221,3.735,14.45,7.304
		c5.288,4.46,10.15,10.057,16.729,11.746c4.479,1.151,9.237,0.336,13.894-0.024c7.783-0.602,15.539,0.091,23.248,0.873
		c7.379,0.748,14.81,1.583,21.798,4.037c4.946,1.737,8.867,5.02,13.521,7.26c3.037,1.463,6.375,1.803,9.232,3.691
		c3.524,2.325,6.71,6.447,5.675,11.393C139.14,53.7,134.606,56.167,132.014,59.722z"/>
	<g>
		<rect x="102.967" y="88.181" fill="#3F3D56" width="30.402" height="0.295"/>
		<polygon fill="#A0616A" points="121.408,45.054 121.408,47.089 122.832,49.328 123.85,45.257 		"/>
		<path fill="#E6E6E6" d="M121.205,26.942l1.112-0.318c0,0,1.736,0.318,1.736,2.354c0,2.034,0.408,10.175,0.408,10.175l-0.408,4.68
			c0,0,0.609,0.204,0.408,0.814c-0.205,0.611-0.612,2.036-0.816,1.833c-0.202-0.204-0.202-0.61-0.202-0.61s-3.256,0.61-3.052,0
			c0.203-0.612,0.203-2.037,0.405-2.037c0.204,0-0.202-6.104-0.202-6.104L121.205,26.942z"/>
		<polygon fill="#A0616A" points="102.787,44.341 105.434,47.597 108.688,51.463 109.706,46.783 107.887,46.498 106.044,43.731 		
			"/>
		<path fill="#2F2E41" d="M109.401,43.222c0,0-3.054,1.628-1.018,12.619l0.609,10.988l0.408,18.114h4.069l0.815-17.91l2.441-11.396
			l3.867,10.175l-1.425,18.112l5.493,0.814l1.833-20.351l-3.257-15.06l-2.442-4.274l-0.509-1.119L109.401,43.222z"/>
		<path fill="#2F2E41" d="M110.011,84.33l-0.609,1.831c0,0-0.814,3.258,2.034,2.851c2.851-0.406,1.833-2.237,1.833-2.237
			l-0.204-2.444H110.011z"/>
		<path fill="#2F2E41" d="M119.374,83.721c0,0-0.611,2.035-0.611,3.054c0,1.016,0.407,1.459,0.407,1.459s11.6,0.778,11.396-0.241
			c-0.204-1.016-1.424-1.423-1.424-1.423l-2.851-0.61l-2.035-1.629l-4.069-1.018L119.374,83.721z"/>
		<circle fill="#A0616A" cx="114.691" cy="17.987" r="3.866"/>
		<polygon fill="#A0616A" points="117.541,19.615 118.152,25.313 116.728,27.958 113.269,24.093 112.859,20.836 		"/>
		<path fill="#E6E6E6" d="M116.321,25.517l-3.193-2.538l-0.673,0.91l-5.089,2.035l0.204,8.955c0,0,0.203,7.528,1.423,8.343
			l-0.509,0.713l12.11,0.508v-5.495l2.645-11.803l-4.681-2.646l-0.582-0.825L116.321,25.517z"/>
		<path fill="#E6E6E6" d="M108.18,26.331l-0.297-0.614l-0.721,0.207c0,0-1.424,0.611-2.441,3.256
			c-1.017,2.645-3.868,8.547-3.868,8.547s-0.813,1.018-0.203,2.034c0.611,1.018,1.221,3.256,1.221,3.256s-0.609-0.203-0.203,0.611
			c0.407,0.813,0.407,1.627,1.629,1.424c1.222-0.204,3.664-0.814,3.458-1.424C106.553,43.018,106.348,42,105.94,42
			c-0.406,0-1.016-3.052-1.016-3.052l0.406-1.627l3.053-3.665L108.18,26.331z"/>
		<path fill="#2F2E41" d="M115.1,15.137c0,0-0.609,0-0.609-0.203c0,0-2.131-0.065-2.999,0.883c-0.869,0.949-0.665-0.475-0.665-0.475
			s-2.239-1.018-0.408-2.036l0.204,0.204c0,0,0.406-0.609,1.833-0.813l-0.204-0.204c0,0,0-0.203,1.018-0.203s3.662-1.02,3.866,1.22
			c0,0,1.628-0.609,1.628,1.424c0,2.035-0.204,3.053-0.204,3.053s-0.406-1.018-1.22-0.407C116.525,18.19,115.1,15.137,115.1,15.137z
			"/>
		<ellipse fill="#3F3D56" cx="27.77" cy="72.917" rx="17.056" ry="1.763"/>
		<rect x="17.422" y="47.227" fill="#003459" width="20.695" height="25.699"/>
		<rect x="20.412" y="56.202" fill="#FFFFFF" width="14.783" height="0.682"/>
		<rect x="20.412" y="58.59" fill="#FFFFFF" width="14.783" height="0.681"/>
		<rect x="20.412" y="60.977" fill="#FFFFFF" width="14.783" height="0.682"/>
		<rect x="20.412" y="63.365" fill="#FFFFFF" width="14.783" height="0.682"/>
		<path fill="#3F3D56" d="M82.96,70.121c9.423,0,17.06,0.789,17.06,1.762c0,0.974-7.637,1.764-17.06,1.764
			c-9.418,0-17.056-0.79-17.056-1.764C65.904,70.91,73.542,70.121,82.96,70.121z"/>
		<rect x="72.613" y="46.192" fill="#003459" width="20.697" height="25.699"/>
		<rect x="75.605" y="60.498" fill="#FFFFFF" width="14.781" height="0.682"/>
		<rect x="75.605" y="62.886" fill="#FFFFFF" width="14.781" height="0.683"/>
		<rect x="75.605" y="65.275" fill="#FFFFFF" width="14.781" height="0.682"/>
		<rect x="75.605" y="67.663" fill="#FFFFFF" width="14.781" height="0.682"/>
		<path fill="#FFFFFF" d="M80.133,55.339h-4.696c-0.32-1.852-0.32-3.746,0-5.6h4.696C79.603,51.568,79.603,53.511,80.133,55.339z"/>
		<rect x="82.086" y="50.264" fill="#FFFFFF" width="8.643" height="0.569"/>
		<rect x="82.086" y="52.311" fill="#FFFFFF" width="8.643" height="0.569"/>
		<rect x="82.086" y="54.358" fill="#FFFFFF" width="8.643" height="0.568"/>
		<rect x="82.086" y="56.404" fill="#FFFFFF" width="8.643" height="0.57"/>
		<ellipse fill="#3F3D56" cx="55.682" cy="82.548" rx="19.991" ry="2.066"/>
		<rect x="43.422" y="52.896" fill="#003459" width="24.253" height="30.12"/>
		<rect x="46.888" y="59.292" fill="#FFFFFF" width="17.323" height="0.8"/>
		<rect x="46.888" y="62.091" fill="#FFFFFF" width="17.323" height="0.8"/>
		<rect x="46.888" y="64.891" fill="#FFFFFF" width="17.323" height="0.798"/>
		<rect x="46.888" y="67.688" fill="#FFFFFF" width="17.323" height="0.802"/>
		<rect x="46.888" y="70.487" fill="#FFFFFF" width="17.323" height="0.799"/>
		<rect x="51.02" y="73.42" fill="#FFFFFF" width="9.06" height="3.196"/>
	</g>
</g>
</svg>
