<?xml version="1.0" encoding="utf-8"?>
<!-- Generator: Adobe Illustrator 16.0.0, SVG Export Plug-In . SVG Version: 6.00 Build 0)  -->
<!DOCTYPE svg PUBLIC "-//W3C//DTD SVG 1.1//EN" "http://www.w3.org/Graphics/SVG/1.1/DTD/svg11.dtd">
<svg version="1.1" id="Capa_1" xmlns="http://www.w3.org/2000/svg" xmlns:xlink="http://www.w3.org/1999/xlink" x="0px" y="0px"
	 width="141.73px" height="103.159px" viewBox="0 0 141.73 103.159" enable-background="new 0 0 141.73 103.159"
	 xml:space="preserve">
<g>
	<path opacity="0.1" fill="#003459" enable-background="new    " d="M132.012,59.722c-4.889,6.701-3.269,16.266-0.448,23.885
		c0.944,2.551,2.02,5.249,1.528,8.024c-0.6,3.394-3.413,5.934-6.337,7.32c-5.333,2.521-11.633,2.119-16.402-1.061
		c-4.115-2.744-7.014-7.304-11.21-9.917c-7.021-4.372-16.139-2.42-23.954,0.919c-5.53,2.36-11.587,5.402-16.976,3.222
		c-3.792-1.534-6.344-5.438-7.688-9.614c-0.648-2.015-1.103-4.203-2.395-5.782c-0.768-0.937-1.784-1.591-2.828-2.138
		c-9.529-4.989-21.785-1.869-31.023-7.437C8.043,63.384,4.161,56.09,2.549,48.419c-1.613-7.67-1.214-15.765-0.572-23.725
		c0.457-5.656,1.179-11.698,4.579-16.142c3.596-4.701,9.623-6.57,15.013-5.833c5.39,0.739,10.221,3.736,14.45,7.304
		c5.288,4.46,10.152,10.057,16.728,11.746c4.479,1.151,9.237,0.336,13.894-0.024c7.784-0.602,15.54,0.091,23.248,0.873
		c7.379,0.748,14.809,1.583,21.799,4.037c4.946,1.737,8.865,5.02,13.522,7.26c3.034,1.463,6.374,1.803,9.23,3.691
		c3.523,2.325,6.711,6.447,5.677,11.393C139.139,53.701,134.607,56.167,132.012,59.722z"/>
	<g>
		<path fill="#3F3D56" d="M127.35,14.612H30.764c-0.766,0.001-1.388,0.622-1.388,1.388v65.446c0,0.768,0.622,1.388,1.388,1.388
			h96.585c0.405,0,0.791-0.177,1.055-0.485c0.011-0.013,0.021-0.025,0.03-0.038c0.083-0.102,0.149-0.214,0.197-0.336
			c0.07-0.168,0.107-0.347,0.105-0.528V16C128.737,15.234,128.115,14.612,127.35,14.612z M128.342,81.446
			c0,0.194-0.058,0.385-0.163,0.546c-0.096,0.144-0.223,0.258-0.376,0.338c-0.141,0.071-0.297,0.108-0.453,0.108H30.764
			c-0.546,0-0.99-0.443-0.992-0.992V16c0.001-0.548,0.446-0.991,0.992-0.991h96.585c0.546-0.001,0.992,0.443,0.992,0.991V81.446z"/>
		<rect x="29.575" y="20.174" fill="#3F3D56" width="98.964" height="0.396"/>
		<circle fill="#3F3D56" cx="32.946" cy="17.588" r="1.19"/>
		<circle fill="#3F3D56" cx="36.369" cy="17.588" r="1.19"/>
		<circle fill="#3F3D56" cx="39.789" cy="17.588" r="1.19"/>
		<path fill="#3F3D56" d="M103.896,29.355H54.25c-1.142,0-2.068-0.926-2.068-2.069c0-1.142,0.927-2.068,2.068-2.068h49.645
			c1.143,0,2.067,0.926,2.067,2.068C105.963,28.43,105.038,29.355,103.896,29.355z M54.25,25.537c-0.966,0-1.751,0.782-1.751,1.75
			c0,0.966,0.785,1.75,1.751,1.75h49.645c0.967,0,1.75-0.785,1.75-1.75c0-0.967-0.783-1.75-1.75-1.75H54.25z"/>
		<path fill="#CCCCCC" d="M54.665,42.004H50.21c-0.704,0-1.273-0.569-1.273-1.272c0-0.704,0.569-1.273,1.273-1.273h4.454
			c0.704,0,1.274,0.569,1.274,1.273C55.938,41.435,55.368,42.004,54.665,42.004z"/>
		<path fill="#CCCCCC" d="M59.917,46.301H50.21c-0.704,0-1.273-0.57-1.273-1.273c0-0.703,0.569-1.272,1.273-1.272h9.706
			c0.703,0,1.272,0.569,1.272,1.272C61.189,45.731,60.62,46.301,59.917,46.301z"/>
		<path fill="#CCCCCC" d="M55.461,60.781h-4.456c-0.703,0-1.273-0.57-1.273-1.272c0-0.703,0.571-1.272,1.273-1.272h4.456
			c0.703,0,1.273,0.569,1.273,1.272C56.734,60.21,56.164,60.781,55.461,60.781z"/>
		<path fill="#CCCCCC" d="M60.711,65.079h-9.706c-0.703,0-1.273-0.571-1.273-1.274c0-0.704,0.571-1.273,1.273-1.273h9.706
			c0.703,0,1.274,0.569,1.274,1.273C61.985,64.507,61.414,65.079,60.711,65.079z"/>
		<path fill="#CCCCCC" d="M84.739,60.302h-4.456c-0.702,0-1.273-0.567-1.273-1.272c0-0.702,0.571-1.272,1.273-1.272h4.456
			c0.702,0,1.272,0.57,1.272,1.272C86.012,59.735,85.441,60.302,84.739,60.302z"/>
		<path fill="#CCCCCC" d="M89.988,64.6h-9.705c-0.702,0-1.273-0.571-1.273-1.273c0-0.703,0.571-1.272,1.273-1.272h9.705
			c0.704,0,1.274,0.569,1.274,1.272C91.263,64.029,90.692,64.6,89.988,64.6z"/>
		<path fill="#CCCCCC" d="M84.261,42.8h-4.455c-0.703,0-1.272-0.569-1.272-1.272c0-0.705,0.569-1.274,1.272-1.274h4.455
			c0.703,0,1.272,0.569,1.272,1.274C85.533,42.231,84.964,42.8,84.261,42.8z"/>
		<path fill="#CCCCCC" d="M89.512,47.097h-9.706c-0.703,0-1.272-0.57-1.272-1.273c0-0.704,0.569-1.273,1.272-1.273h9.706
			c0.703,0,1.272,0.569,1.272,1.273C90.784,46.527,90.215,47.097,89.512,47.097z"/>
		<path fill="#CCCCCC" d="M114.015,41.846h-4.453c-0.705,0-1.272-0.57-1.272-1.273s0.567-1.273,1.272-1.273h4.453
			c0.704,0,1.274,0.57,1.274,1.273S114.719,41.846,114.015,41.846z"/>
		<path fill="#CCCCCC" d="M119.266,46.141h-9.704c-0.705,0-1.272-0.569-1.272-1.272s0.567-1.273,1.272-1.273h9.704
			c0.705,0,1.273,0.57,1.273,1.273S119.971,46.141,119.266,46.141z"/>
		<circle fill="#003459" cx="42.35" cy="42.88" r="4.773"/>
		<circle fill="#003459" cx="71.626" cy="43.676" r="4.774"/>
		<circle fill="#003459" cx="101.063" cy="42.72" r="4.773"/>
		<circle fill="#003459" cx="42.35" cy="61.657" r="4.774"/>
		<circle fill="#003459" cx="71.944" cy="61.179" r="4.774"/>
		<polygon fill="#FFB8B8" points="25.87,89.587 27.821,89.587 28.748,82.062 25.87,82.065 		"/>
		<path fill="#2F2E41" d="M31.583,91.399h-6.132l0,0V89.03l0,0h3.763C30.521,89.03,31.583,90.092,31.583,91.399L31.583,91.399
			L31.583,91.399z"/>
		<polygon fill="#FFB8B8" points="18.55,89.587 20.501,89.587 21.429,82.062 18.55,82.065 		"/>
		<path fill="#2F2E41" d="M24.263,91.399h-6.13l0,0V89.03l0,0h3.76C23.203,89.03,24.263,90.092,24.263,91.399L24.263,91.399
			L24.263,91.399z"/>
		<path fill="#FFB8B8" d="M18.788,67.179c0.794-0.513,1.025-1.568,0.514-2.362c-0.055-0.086-0.117-0.166-0.185-0.239l1.285-18.228
			l-3.701,0.359L16.599,64.56c-0.651,0.69-0.619,1.778,0.071,2.429C17.247,67.535,18.123,67.611,18.788,67.179z"/>
		<path fill="#2F2E41" d="M25.927,85.798c-0.363,0-0.667-0.271-0.709-0.632l-1.135-9.482c-0.037-0.305-0.314-0.523-0.62-0.486
			c-0.246,0.028-0.445,0.22-0.484,0.465l-1.429,9.081c-0.052,0.35-0.354,0.607-0.707,0.604h-2.314c-0.396,0-0.718-0.319-0.718-0.715
			c0-0.003,0-0.005,0-0.005l1.106-20.133c0.002-0.355,0.263-0.654,0.613-0.705l8.592-1.247c0.391-0.056,0.755,0.215,0.812,0.605
			c0.005,0.037,0.008,0.073,0.008,0.108l-0.15,21.728c-0.002,0.381-0.302,0.692-0.683,0.711l-2.146,0.103
			C25.95,85.798,25.938,85.798,25.927,85.798z"/>
		<path fill="#3F3D56" d="M21.474,65.253c-0.826-0.003-1.646-0.148-2.423-0.431c-0.27-0.099-0.452-0.351-0.464-0.638
			c-0.074-1.643-0.509-10.11-1.771-15.274c-0.503-2.071,0.291-4.242,2.011-5.502c0.068-0.049,0.136-0.097,0.207-0.144
			c1.485-0.988,3.375-1.136,4.995-0.392c1.674,0.749,2.842,2.313,3.082,4.131l2.059,15.282c0.027,0.193-0.026,0.39-0.148,0.543
			c-0.119,0.149-0.295,0.247-0.486,0.265c-0.714,0.071-2.192,0.348-4.086,1.4C23.54,64.999,22.514,65.26,21.474,65.253z"/>
		<path fill="#3F3D56" d="M18.957,52.585l-3.388-0.918c-0.381-0.104-0.606-0.498-0.504-0.879l1.191-4.393
			c0.286-1.051,1.369-1.672,2.421-1.388c0.898,0.243,1.504,1.084,1.454,2.013l-0.272,4.913c-0.021,0.396-0.358,0.698-0.754,0.675
			C19.054,52.606,19.006,52.598,18.957,52.585z"/>
		<circle fill="#FFB8B8" cx="22.728" cy="36.891" r="3.908"/>
		<path fill="#FFB8B8" d="M36.889,44.568c-0.018,0.086-0.033,0.174-0.038,0.262l-6.834,3.943l-1.662-0.956l-1.771,2.318l3.555,2.533
			l7.797-6.151c0.865,0.32,1.826-0.122,2.146-0.986c0.32-0.865-0.122-1.826-0.987-2.146c-0.864-0.32-1.825,0.122-2.146,0.987
			C36.925,44.435,36.904,44.501,36.889,44.568z"/>
		<path fill="#3F3D56" d="M29.45,48.963l-2.945,1.912c-0.331,0.213-0.774,0.12-0.99-0.211l-2.477-3.818
			c-0.594-0.914-0.333-2.136,0.58-2.729c0.781-0.507,1.81-0.399,2.47,0.259l3.478,3.48c0.28,0.279,0.28,0.733,0,1.012
			C29.531,48.904,29.492,48.936,29.45,48.963z"/>
		<path fill="#2F2E41" d="M19.963,39.982c0.729,0.777,2.082,0.36,2.178-0.7c0.006-0.083,0.006-0.166-0.001-0.248
			c-0.049-0.471-0.321-0.896-0.256-1.393c0.015-0.124,0.061-0.241,0.134-0.342c0.581-0.777,1.944,0.349,2.493-0.356
			c0.336-0.432-0.059-1.112,0.199-1.593c0.341-0.638,1.349-0.324,1.981-0.672c0.705-0.389,0.662-1.468,0.199-2.125
			c-0.564-0.801-1.556-1.229-2.533-1.291c-0.98-0.062-1.951,0.203-2.863,0.559c-1.038,0.404-2.067,0.962-2.706,1.875
			c-0.777,1.109-0.851,2.602-0.462,3.898C18.562,38.384,19.367,39.349,19.963,39.982z"/>
		<path fill="#3F3D56" d="M35.426,91.41H13.151c-0.088,0-0.161-0.071-0.161-0.159s0.073-0.158,0.161-0.158h22.275
			c0.089,0,0.16,0.07,0.16,0.158S35.515,91.41,35.426,91.41z"/>
	</g>
</g>
</svg>
