<?xml version="1.0" encoding="utf-8"?>
<!-- Generator: Adobe Illustrator 16.0.0, SVG Export Plug-In . SVG Version: 6.00 Build 0)  -->
<!DOCTYPE svg PUBLIC "-//W3C//DTD SVG 1.1//EN" "http://www.w3.org/Graphics/SVG/1.1/DTD/svg11.dtd">
<svg version="1.1" id="Capa_1" xmlns="http://www.w3.org/2000/svg" xmlns:xlink="http://www.w3.org/1999/xlink" x="0px" y="0px"
	 width="141.73px" height="99.64px" viewBox="0 0 141.73 99.64" enable-background="new 0 0 141.73 99.64" xml:space="preserve">
<g>
	<path opacity="0.1" fill="#003459" enable-background="new    " d="M132.012,57.96c-4.889,6.703-3.269,16.266-0.448,23.887
		c0.944,2.549,2.02,5.248,1.528,8.023c-0.6,3.394-3.413,5.934-6.339,7.321c-5.331,2.52-11.631,2.118-16.4-1.062
		c-4.116-2.743-7.015-7.302-11.21-9.915c-7.021-4.373-16.139-2.421-23.954,0.919c-5.528,2.36-11.586,5.4-16.974,3.222
		c-3.793-1.534-6.346-5.438-7.688-9.614c-0.649-2.017-1.104-4.205-2.396-5.784c-0.769-0.935-1.783-1.589-2.83-2.138
		c-9.525-4.989-21.783-1.869-31.021-7.436C8.043,61.623,4.161,54.332,2.549,46.659C0.936,38.99,1.335,30.894,1.978,22.936
		C2.434,17.28,3.156,11.238,6.557,6.794c3.596-4.7,9.623-6.57,15.013-5.833c5.39,0.739,10.221,3.736,14.45,7.304
		c5.288,4.46,10.152,10.057,16.728,11.746c4.479,1.152,9.238,0.336,13.895-0.024c7.783-0.601,15.539,0.091,23.247,0.873
		c7.379,0.748,14.809,1.584,21.799,4.037c4.946,1.735,8.865,5.018,13.522,7.261c3.034,1.461,6.374,1.802,9.23,3.691
		c3.523,2.326,6.711,6.447,5.677,11.392C139.141,51.942,134.607,54.408,132.012,57.96z"/>
	<g>
		<polygon fill="#3F3D56" points="94.393,94.326 22.812,94.326 22.812,93.916 94.466,93.916 		"/>
		<path fill="#E6E6E6" d="M60.773,1.41c-0.495,0-0.894,0.4-0.894,0.895v55.462c0,0.493,0.398,0.894,0.894,0.894h57.249
			c0.495,0,0.895-0.4,0.896-0.894V2.305c-0.002-0.494-0.401-0.895-0.896-0.895H60.773z"/>
		<path fill="#FFFFFF" d="M62.121,56.419h54.555V3.651H62.121V56.419z"/>
		<path fill="#E6E6E6" d="M66.979,12.06c-0.365,0-0.659,0.521-0.659,1.163s0.294,1.163,0.659,1.163h24.88
			c0.364,0,0.66-0.522,0.66-1.163s-0.296-1.163-0.66-1.163H66.979z"/>
		<path fill="#E6E6E6" d="M66.979,19.216c-0.365,0-0.659,0.52-0.659,1.161c0,0.642,0.294,1.165,0.659,1.165h24.88
			c0.364,0,0.66-0.523,0.66-1.165c0-0.641-0.296-1.161-0.66-1.161H66.979z"/>
		<path fill="#E6E6E6" d="M66.979,26.289c-0.365,0-0.659,0.523-0.659,1.164c0,0.642,0.294,1.162,0.659,1.162h24.88
			c0.364,0,0.66-0.52,0.66-1.162c0-0.641-0.296-1.164-0.66-1.164H66.979z"/>
		<path fill="#E6E6E6" d="M66.979,33.446c-0.365,0-0.659,0.52-0.659,1.161c0,0.643,0.294,1.165,0.659,1.165h24.88
			c0.364,0,0.66-0.521,0.66-1.165c0-0.641-0.296-1.161-0.66-1.161H66.979z"/>
		<path fill="#E6E6E6" d="M104.467,12.136c-0.641,0-1.164,0.52-1.164,1.163c0,0.641,0.523,1.163,1.164,1.163h4.651
			c0.642,0,1.164-0.521,1.164-1.163c0-0.643-0.522-1.163-1.164-1.163H104.467z"/>
		<path fill="#E6E6E6" d="M104.467,19.153c-0.641,0-1.164,0.521-1.164,1.164c0,0.643,0.523,1.161,1.164,1.161h4.651
			c0.642,0,1.164-0.518,1.164-1.161c0-0.643-0.522-1.164-1.164-1.164H104.467z"/>
		<path fill="#E6E6E6" d="M104.467,26.169c-0.641,0-1.164,0.521-1.164,1.164c0,0.643,0.523,1.163,1.164,1.163h4.651
			c0.642,0,1.164-0.52,1.164-1.163c0-0.643-0.522-1.164-1.164-1.164H104.467z"/>
		<path fill="#E6E6E6" d="M104.467,33.189c-0.641,0-1.164,0.522-1.164,1.163s0.523,1.163,1.164,1.163h4.651
			c0.642,0,1.164-0.521,1.164-1.163s-0.522-1.163-1.164-1.163H104.467z"/>
		<path fill="#003459" d="M103.051,44.954c-0.82,0-1.483,0.664-1.483,1.483c0,0.818,0.663,1.482,1.483,1.482h5.927
			c0.816,0,1.48-0.664,1.48-1.482c0-0.82-0.664-1.483-1.48-1.483l0,0H103.051z"/>
		<rect x="66.4" y="40.991" fill="#E6E6E6" width="43.859" height="0.387"/>
		<g>
			<path fill="#FBBEBE" d="M37.947,31.599l1.174,8.347l4.954,8.869c1.436,1.303,0.131,4.434,0.131,4.434l-1.305-0.914l-0.26-1.564
				c0,0-5.737-6.521-7.173-8.085c-1.436-1.565-1.956-10.173-1.956-10.173L37.947,31.599z"/>
			<path fill="#FBBEBE" d="M33.628,88.202c0,0,0.26,2.999,0.131,3.782c-0.131,0.781-4.045-0.131-4.045-0.131
				c0.654-1.305,1.043-5.216,1.043-5.216L33.628,88.202z"/>
			<path fill="#FBBEBE" d="M53.059,88.984c0,0,0.393,4.174,0.262,4.955c-0.131,0.783-4.042-0.131-4.042-0.131
				c0.65-1.303,1.043-5.216,1.043-5.216L53.059,88.984z"/>
			<circle fill="#FBBEBE" cx="45.068" cy="17.336" r="4.744"/>
			<path fill="#FBBEBE" d="M45.887,21.82c-0.784,1.043-0.392,2.869-0.392,2.869s-7.957,9.259-9.391,9.259
				c-1.434,0-1.172-6.521-1.172-6.521s2.086-2.479,3.26-3c1.174-0.522,3.26-6.13,3.26-6.13S46.669,20.776,45.887,21.82z"/>
			<path fill="#2F2E41" d="M51.234,39.557l5.104,8.575c0.932,1.533-0.801,9.292-0.801,9.292l-0.781,16.562l-1.305,16.691v1.824
				l-4.306-0.131l-1.434-17.861l-2.087-13.434l-3.391,10.303l-5.608,12.65c-0.479,1.56-1.067,3.085-1.761,4.563l-1.043,1.824
				l-3.911-0.456l5.934-20.015l1.174-13.043c0.131-7.302,2.477-11.346,2.477-11.346v-1.565L51.234,39.557z"/>
			<path fill="#2F2E41" d="M33.366,91.332c0,0,0.652-1.043,0.652-0.652s1.696,1.436,1.696,1.436s1.694-0.262,1.956,1.693
				c0.262,1.958-2.348,2.349-2.999,2.218c-0.653-0.129-2.348,0.131-2.348,0.131s-1.305,0.262-3.391,0
				c-2.086-0.26-0.262-3.782,0-4.435s1.566-0.129,1.566-0.129C32.845,92.244,33.366,91.332,33.366,91.332z"/>
			<path fill="#2F2E41" d="M52.928,93.287c0,0,0.654-1.043,0.654-0.65c0,0.391,1.693,1.434,1.693,1.434s1.695-0.262,1.956,1.696
				c0.261,1.955-2.347,2.348-2.999,2.217c-0.65-0.131-2.348,0.131-2.348,0.131s-1.304,0.26-3.392,0c-2.086-0.262-0.26-3.782,0-4.435
				c0.262-0.652,1.566-0.131,1.566-0.131C52.408,94.201,52.928,93.287,52.928,93.287z"/>
			<path fill="#3F3D56" d="M43.93,24.558c3.261-3.391,6.781,5.087,6.781,5.087s1.174,3.129,0.261,4.825
				c-0.912,1.696,0.913,5.478,0.913,5.478c-4.467,3.803-8.917,7.318-13.042,4.825c0.523-3.129-1.174-4.694-2.348-7.695
				c-1.174-2.999-3.391-2.346-3.391-2.346s0.131-3.391,0.523-6.13c0.391-2.738,3.911-3.767,3.911-3.767
				C38.177,25.981,40.67,27.949,43.93,24.558z"/>
			<path fill="#FBBEBE" d="M49.667,30.036l1.174,8.347l4.958,8.868c1.434,1.305,0.131,4.435,0.131,4.435l-1.305-0.914l-0.262-1.565
				c0,0-5.739-6.521-7.173-8.085c-1.435-1.564-1.957-10.173-1.957-10.173L49.667,30.036z"/>
			<path fill="#3F3D56" d="M50.451,31.34l-5.478,0.652c0,0-0.391-6.391,0.436-7.988c0.828-1.595,3.87,0.163,3.87,0.163
				C50.06,24.297,50.451,31.34,50.451,31.34z"/>
			<path fill="#2F2E41" d="M50.379,14.591c-3.51,1.753-1.485,6.54-1.898,8.548c-0.68,3.291-10.68,1.619-10.68,1.619
				c-1.215-0.22-1.958-13.756,4.705-13.636C45.865,11.182,53.382,13.088,50.379,14.591z"/>
			<ellipse fill="#FBBEBE" cx="48.239" cy="17.971" rx="0.488" ry="0.782"/>
		</g>
	</g>
</g>
</svg>
