<?xml version="1.0" encoding="utf-8"?>
<!-- Generator: Adobe Illustrator 16.0.0, SVG Export Plug-In . SVG Version: 6.00 Build 0)  -->
<!DOCTYPE svg PUBLIC "-//W3C//DTD SVG 1.1//EN" "http://www.w3.org/Graphics/SVG/1.1/DTD/svg11.dtd">
<svg version="1.1" id="Capa_1" xmlns="http://www.w3.org/2000/svg" xmlns:xlink="http://www.w3.org/1999/xlink" x="0px" y="0px"
	 width="141.73px" height="109.25px" viewBox="0 0 141.73 109.25" enable-background="new 0 0 141.73 109.25" xml:space="preserve">
<g>
	<path opacity="0.1" fill="#003459" enable-background="new    " d="M132.013,62.766c-4.891,6.703-3.269,16.266-0.449,23.887
		c0.945,2.549,2.019,5.248,1.527,8.023c-0.597,3.395-3.41,5.934-6.335,7.322c-5.333,2.52-11.632,2.117-16.402-1.062
		c-4.117-2.744-7.014-7.303-11.208-9.916c-7.023-4.373-16.143-2.42-23.956,0.92c-5.53,2.359-11.587,5.4-16.977,3.221
		c-3.79-1.533-6.344-5.438-7.688-9.613c-0.647-2.018-1.102-4.205-2.394-5.785c-0.769-0.934-1.783-1.588-2.828-2.137
		c-9.529-4.99-21.785-1.869-31.023-7.436C8.044,66.428,4.162,59.137,2.55,51.464c-1.613-7.669-1.214-15.765-0.572-23.723
		C2.435,22.085,3.157,16.043,6.557,11.6c3.595-4.7,9.623-6.57,15.013-5.833c5.39,0.739,10.221,3.737,14.45,7.304
		c5.288,4.46,10.15,10.057,16.729,11.746c4.479,1.152,9.237,0.336,13.894-0.024c7.783-0.601,15.539,0.091,23.247,0.873
		c7.379,0.748,14.811,1.584,21.799,4.037c4.946,1.735,8.866,5.018,13.521,7.261c3.037,1.461,6.376,1.802,9.232,3.691
		c3.525,2.326,6.711,6.447,5.675,11.392C139.14,56.748,134.606,59.213,132.013,62.766z"/>
	<g>
		<polygon fill="#3F3D56" points="79.396,105.799 29.153,105.799 29.153,105.389 79.469,105.389 		"/>
		<polygon fill="#A0616A" points="46.512,99.85 43.588,100.045 43.979,69.439 51.191,69.439 		"/>
		<polygon fill="#A0616A" points="60.548,99.85 57.623,100.045 58.012,69.439 62.678,69.441 		"/>
		<path fill="#2F2E41" d="M63.667,96.535c-3.062,1.396-5.938,1.324-8.676,0.148L53.53,61.643l-4.185,34.736
			c-3.058,0.756-6.148,0.752-9.267,0.156c0.718-5.203,3.783-36.88,3.509-42.689l20.468-0.974L63.667,96.535z"/>
		<path fill="#2F2E41" d="M45.988,107.869L45.988,107.869c-1.633,0-2.957-1.322-2.957-2.957c0-0.059,0.001-0.117,0.006-0.176
			l0.282-4.766c1.136-2.035,2.514-2.045,4.121-0.146l1.36,4.172c0.507,1.553-0.343,3.223-1.896,3.727
			C46.61,107.818,46.301,107.869,45.988,107.869z"/>
		<path fill="#2F2E41" d="M59.83,107.869L59.83,107.869c-1.633,0-2.958-1.322-2.958-2.957c0-0.059,0.003-0.117,0.004-0.176
			l0.283-4.766c1.135-2.035,2.515-2.045,4.123-0.146l1.358,4.172c0.508,1.553-0.341,3.223-1.895,3.727
			C60.451,107.818,60.14,107.869,59.83,107.869z"/>
		<circle fill="#A0616A" cx="55.868" cy="9.4" r="5.653"/>
		<path fill="#A0616A" d="M55.674,20.122l-9.162-3.704c2.193-1.075,3.682-3.072,4.874-5.458h4.094
			C55.283,14.601,55.127,18.157,55.674,20.122z"/>
		<path fill="#003459" d="M64.641,54.235l-21.833,0.583c0.266-10.482-0.201-21.269-1.295-32.317c-0.252-2.56,1.249-4.97,3.659-5.873
			l2.12-0.794l8.576,2.338l4.049,3.104c1.102,0.847,1.705,2.19,1.607,3.576C60.912,33.803,62.279,43.765,64.641,54.235z"/>
		<path fill="#A0616A" d="M67.075,61.619L67.075,61.619c-1.206,0.07-2.257-0.817-2.391-2.018l-0.483-4.347l2.58-0.718l2.128,3.672
			c0.63,1.086,0.262,2.479-0.826,3.107C67.777,61.494,67.431,61.598,67.075,61.619z"/>
		<path fill="#003459" d="M69.319,55.601l-5.067,0.194l-3.9-15.596l-0.975-19.297l0,0c1.836,0.229,3.281,1.673,3.515,3.507
			l1.749,13.842L69.319,55.601z"/>
		<polygon opacity="0.2" enable-background="new    " points="45.245,26.652 45.051,39.519 53.627,53.943 46.025,39.128 		"/>
		<polygon opacity="0.2" enable-background="new    " points="42.658,46.084 47.74,54.819 45.939,54.723 		"/>
		<path fill="#E6E6E6" d="M54.433,44.384c-0.494,0-0.894,0.4-0.895,0.895v55.461c0.001,0.492,0.4,0.893,0.895,0.893h57.25
			c0.494,0,0.893-0.4,0.895-0.893V45.279c-0.002-0.494-0.4-0.895-0.895-0.895H54.433z"/>
		<path fill="#FFFFFF" d="M55.779,99.393h54.556V46.625H55.779V99.393z"/>
		<path fill="#E6E6E6" d="M60.638,55.033c-0.364,0-0.659,0.521-0.659,1.163s0.295,1.163,0.659,1.163h24.883
			c0.363,0,0.66-0.522,0.66-1.163s-0.297-1.163-0.66-1.163H60.638z"/>
		<path fill="#E6E6E6" d="M60.638,62.189c-0.364,0-0.659,0.52-0.659,1.162c0,0.641,0.295,1.164,0.659,1.164h24.883
			c0.363,0,0.66-0.523,0.66-1.164c0-0.642-0.297-1.162-0.66-1.162H60.638z"/>
		<path fill="#E6E6E6" d="M60.638,69.262c-0.364,0-0.659,0.523-0.659,1.164c0,0.642,0.295,1.161,0.659,1.161h24.883
			c0.363,0,0.66-0.52,0.66-1.161c0-0.641-0.297-1.164-0.66-1.164H60.638z"/>
		<path fill="#E6E6E6" d="M60.638,76.42c-0.364,0-0.659,0.52-0.659,1.16c0,0.643,0.295,1.164,0.659,1.164h24.883
			c0.363,0,0.66-0.521,0.66-1.164c0-0.641-0.297-1.16-0.66-1.16H60.638z"/>
		<path fill="#E6E6E6" d="M98.128,55.109c-0.644,0-1.165,0.52-1.165,1.163c0,0.641,0.521,1.163,1.165,1.163h4.65
			c0.642,0,1.163-0.521,1.163-1.163c0-0.643-0.521-1.163-1.163-1.163H98.128z"/>
		<path fill="#E6E6E6" d="M98.128,62.126c-0.644,0-1.165,0.521-1.165,1.164c0,0.643,0.521,1.162,1.165,1.162h4.65
			c0.642,0,1.163-0.519,1.163-1.162c0-0.643-0.521-1.164-1.163-1.164H98.128z"/>
		<path fill="#E6E6E6" d="M98.128,69.142c-0.644,0-1.165,0.521-1.165,1.165c0,0.643,0.521,1.162,1.165,1.162h4.65
			c0.642,0,1.163-0.52,1.163-1.162c0-0.644-0.521-1.165-1.163-1.165H98.128z"/>
		<path fill="#E6E6E6" d="M98.128,76.162c-0.644,0-1.165,0.521-1.165,1.162c0,0.643,0.521,1.164,1.165,1.164h4.65
			c0.642,0,1.163-0.521,1.163-1.164c0-0.641-0.521-1.162-1.163-1.162H98.128z"/>
		<path fill="#003459" d="M96.71,87.928c-0.818,0-1.482,0.664-1.482,1.482s0.664,1.482,1.482,1.482h5.927
			c0.818,0,1.481-0.664,1.481-1.482s-0.663-1.482-1.481-1.482l0,0H96.71z"/>
		<rect x="60.061" y="83.963" fill="#E6E6E6" width="43.858" height="0.389"/>
		<path fill="#A0616A" d="M54.962,60.658L54.962,60.658c-1.088,0.528-2.398,0.113-2.982-0.944l-2.115-3.828l2.104-1.654l3.376,2.573
			c0.999,0.763,1.193,2.188,0.431,3.186C55.561,60.274,55.281,60.504,54.962,60.658z"/>
		<path fill="#003459" d="M53.53,54.431l-4.289,2.338l-9.746-16.764l-1.125-14.742c-0.258-3.397,1.747-6.562,4.929-7.777
			l1.263-0.483l0.78,22.222L53.53,54.431z"/>
		<path fill="#2F2E41" d="M60.666,3.196l0.062,0.943l-0.485-1.294c-1.22-0.887-2.681-1.387-4.188-1.436l0,0
			c-3.051-0.304-5.771,1.923-6.075,4.975c-0.067,0.674-0.01,1.357,0.169,2.011l0.067,0.81l1.56-2.144l0,0
			c1.429-1.296,3.433-1.745,5.278-1.185c0.681,0.208,1.336,0.495,1.952,0.851c0.939,0.564,1.788,1.268,2.516,2.088l0.137-0.921
			C62.567,6.183,62.025,4.443,60.666,3.196z"/>
	</g>
</g>
</svg>
