<?xml version="1.0" encoding="utf-8"?>
<!-- Generator: Adobe Illustrator 16.0.0, SVG Export Plug-In . SVG Version: 6.00 Build 0)  -->
<!DOCTYPE svg PUBLIC "-//W3C//DTD SVG 1.1//EN" "http://www.w3.org/Graphics/SVG/1.1/DTD/svg11.dtd">
<svg version="1.1" id="Capa_1" xmlns="http://www.w3.org/2000/svg" xmlns:xlink="http://www.w3.org/1999/xlink" x="0px" y="0px"
	 width="141.233px" height="100.54px" viewBox="0 0 141.233 100.54" enable-background="new 0 0 141.233 100.54"
	 xml:space="preserve">
<g>
	<path opacity="0.1" fill="#003459" enable-background="new    " d="M131.341,58.356c-4.855,6.654-3.246,16.154-0.445,23.721
		c0.938,2.532,2.005,5.213,1.518,7.969c-0.595,3.369-3.389,5.893-6.294,7.27c-5.295,2.505-11.551,2.105-16.288-1.054
		c-4.088-2.724-6.965-7.253-11.132-9.848c-6.974-4.342-16.029-2.403-23.792,0.913c-5.49,2.344-11.505,5.365-16.857,3.199
		c-3.765-1.523-6.3-5.401-7.635-9.549c-0.645-2-1.095-4.174-2.378-5.742c-0.763-0.93-1.771-1.579-2.809-2.122
		c-9.461-4.955-21.634-1.857-30.808-7.387C8.229,61.993,4.373,54.749,2.771,47.132C1.17,39.514,1.567,31.476,2.204,23.57
		c0.454-5.617,1.171-11.617,4.547-16.03c3.572-4.668,9.557-6.524,14.91-5.793c5.352,0.733,10.151,3.71,14.349,7.254
		c5.251,4.429,10.082,9.986,16.614,11.664c4.448,1.145,9.172,0.335,13.797-0.023c7.729-0.597,15.432,0.09,23.086,0.866
		c7.329,0.743,14.708,1.573,21.649,4.01c4.912,1.725,8.804,4.984,13.428,7.21c3.014,1.453,6.33,1.79,9.167,3.666
		c3.5,2.31,6.665,6.402,5.637,11.314C138.42,52.376,133.918,54.825,131.341,58.356z"/>
	<g>
		<path fill="#E6E6E6" d="M120.142,67.17c0.004,0.881-0.706,1.6-1.587,1.604h-69.88c-0.882-0.005-1.592-0.724-1.589-1.604V19.437
			c-0.004-0.881,0.707-1.6,1.589-1.604l0,0h69.88c0.881,0.005,1.591,0.724,1.587,1.604l0,0V67.17z"/>
		<path fill="#FFFFFF" d="M119.319,66.387c0,0.857-0.695,1.553-1.553,1.553l0,0H49.511c-0.858,0-1.553-0.695-1.553-1.553V20.241
			c0-0.857,0.695-1.553,1.553-1.553l0,0h68.258c0.855,0.002,1.549,0.695,1.549,1.553V66.387z"/>
		<path id="a90d98f2-fe2a-41dc-85de-0aa221261a3e_1_" fill="#E6E6E6" d="M51.607,20.692h64.136c0.509,0,0.921,0.412,0.921,0.92
			v43.224c0,0.509-0.412,0.921-0.921,0.921H51.607c-0.509,0-0.922-0.412-0.922-0.921l0,0V21.612
			C50.685,21.104,51.098,20.692,51.607,20.692L51.607,20.692z"/>
		<path fill="#FFFFFF" d="M52.418,21.729h62.444c0.507,0,0.921,0.413,0.921,0.922v40.916c0,0.508-0.414,0.92-0.921,0.92H52.418
			c-0.508,0-0.92-0.412-0.92-0.92l0,0V22.65C51.498,22.142,51.91,21.729,52.418,21.729L52.418,21.729z"/>
		<path fill="#E6E6E6" d="M104.011,72.893c0.003,0.883-0.708,1.602-1.589,1.606h-69.88c-0.88-0.005-1.592-0.724-1.587-1.606l0,0l0,0
			V25.161c-0.005-0.883,0.706-1.6,1.587-1.604h69.88c0.881,0.005,1.593,0.722,1.589,1.604l0,0V72.893z"/>
		<path fill="#FFFFFF" d="M103.187,72.111c0,0.857-0.695,1.553-1.552,1.553H33.378c-0.857,0-1.552-0.695-1.552-1.553V25.966
			c0-0.858,0.695-1.554,1.552-1.554l0,0h68.259c0.855,0.003,1.549,0.696,1.549,1.554V72.111z"/>
		<path id="b54624cf-b287-45f0-8f58-93aafc1fcbba_1_" fill="#E6E6E6" d="M35.473,26.417H99.61c0.508,0,0.922,0.412,0.922,0.92V70.56
			c0,0.509-0.414,0.922-0.922,0.922H35.473c-0.508,0-0.919-0.413-0.919-0.922l0,0V27.337C34.554,26.829,34.965,26.417,35.473,26.417
			L35.473,26.417L35.473,26.417z"/>
		<path fill="#FFFFFF" d="M36.286,27.453h62.443c0.508,0,0.922,0.411,0.922,0.922v40.916c0,0.508-0.414,0.92-0.922,0.92H36.286
			c-0.509,0-0.922-0.412-0.922-0.92l0,0V28.375C35.364,27.864,35.777,27.453,36.286,27.453L36.286,27.453z"/>
		<path fill="#E6E6E6" d="M88.188,79.451c0.005,0.881-0.705,1.6-1.586,1.604h-69.88c-0.882-0.004-1.594-0.723-1.588-1.604V31.719
			c-0.005-0.882,0.707-1.602,1.588-1.606l0,0h69.88c0.881,0.005,1.592,0.725,1.586,1.606l0,0l0,0V79.451z"/>
		<path fill="#FFFFFF" d="M87.365,78.67c0,0.856-0.695,1.551-1.551,1.551H17.558c-0.858,0-1.552-0.694-1.552-1.551V32.521
			c0-0.856,0.694-1.552,1.552-1.552l0,0h68.259c0.855,0.002,1.548,0.696,1.548,1.552V78.67z"/>
		<path id="a665a07e-790f-4a9c-be99-8c13ca89238c_1_" fill="#E6E6E6" d="M19.654,32.974h64.137c0.508,0,0.92,0.413,0.92,0.92v43.224
			c0,0.509-0.412,0.92-0.92,0.92H19.654c-0.509,0-0.921-0.411-0.921-0.92V33.894C18.733,33.387,19.145,32.974,19.654,32.974
			L19.654,32.974L19.654,32.974z"/>
		<path fill="#FFFFFF" d="M20.466,34.011h62.443c0.508,0,0.919,0.412,0.919,0.92v40.916c0,0.509-0.412,0.922-0.919,0.922H20.466
			c-0.509,0-0.922-0.413-0.922-0.922V34.931C19.544,34.423,19.958,34.011,20.466,34.011L20.466,34.011z"/>
		<path fill="#003459" d="M66.612,42.874v28.31c0,0.344-0.279,0.624-0.625,0.624H36.324c-0.345,0-0.624-0.28-0.624-0.624V39.542
			c0-0.344,0.279-0.624,0.624-0.624h25.917L66.612,42.874z"/>
		<path id="b3cdc3b1-5d0a-4cee-b54c-a38ee088c012_1_" fill="#FFFFFF" d="M40.95,45.809c-0.216,0.004-0.389,0.181-0.385,0.396
			c0.004,0.212,0.174,0.382,0.385,0.385h10.303c0.216,0.005,0.395-0.166,0.4-0.382c0.003-0.217-0.167-0.396-0.383-0.399
			c-0.001,0-0.002,0-0.003,0c-0.005,0-0.01,0-0.014,0H40.95z"/>
		<path id="b79c0997-055d-434d-8704-cfc1ccad2281_1_" fill="#FFFFFF" d="M40.95,49.475c-0.216,0.003-0.389,0.181-0.385,0.396
			c0.004,0.213,0.174,0.382,0.385,0.386h20.4c0.216,0.003,0.393-0.17,0.396-0.386c0.002-0.215-0.169-0.391-0.384-0.396
			c-0.003,0-0.008,0-0.012,0H40.95z"/>
		<path id="ed7d1f14-d1d4-40af-b9ad-7b5b5ece23df_1_" fill="#FFFFFF" d="M40.95,53.14c-0.216,0.003-0.389,0.181-0.385,0.397
			c0.004,0.211,0.174,0.381,0.385,0.384h20.4c0.216,0.005,0.394-0.167,0.398-0.382c0.004-0.217-0.167-0.395-0.383-0.399
			c0,0-0.002,0-0.003,0c-0.003,0-0.008,0-0.012,0H40.95z"/>
		<path id="ba3b747a-a6b2-4f39-a169-6ef4c21cd2ce_1_" fill="#FFFFFF" d="M40.95,56.805c-0.216,0.004-0.389,0.183-0.385,0.398
			c0.004,0.21,0.174,0.38,0.385,0.383h20.4c0.216,0.005,0.394-0.166,0.399-0.382c0.003-0.215-0.167-0.395-0.382-0.399
			c-0.001,0-0.002,0-0.005,0c-0.003,0-0.008,0-0.012,0H40.95z"/>
		<path id="b6e4b743-2497-479e-800a-91c8b21b3df9_1_" fill="#FFFFFF" d="M40.95,60.471c-0.216,0.003-0.389,0.183-0.385,0.397
			c0.004,0.211,0.174,0.38,0.385,0.384h20.4c0.216,0.005,0.394-0.166,0.399-0.382c0.003-0.216-0.167-0.395-0.382-0.399
			c-0.001,0-0.002,0-0.005,0c-0.003,0-0.008,0-0.012,0H40.95z"/>
		<path id="f91f499d-e7c9-446d-84c9-bf78465468f6_1_" fill="#FFFFFF" d="M40.95,64.137c-0.216,0.005-0.389,0.182-0.385,0.397
			c0.004,0.211,0.174,0.38,0.385,0.383h20.4c0.216,0.005,0.394-0.166,0.399-0.382c0.003-0.215-0.167-0.394-0.382-0.398
			c-0.001,0-0.002,0-0.005,0c-0.003,0-0.008,0-0.012,0H40.95z"/>
		<path fill="#003459" d="M66.612,42.874h-3.955c-0.229,0-0.416-0.188-0.416-0.417v-3.539l0,0L66.612,42.874z"/>
		<path opacity="0.2" enable-background="new    " d="M66.612,42.874h-3.955c-0.229,0-0.416-0.188-0.416-0.417v-3.539l0,0
			L66.612,42.874z"/>
	</g>
</g>
</svg>
