<?xml version="1.0" encoding="utf-8"?>
<!-- Generator: Adobe Illustrator 16.0.0, SVG Export Plug-In . SVG Version: 6.00 Build 0)  -->
<!DOCTYPE svg PUBLIC "-//W3C//DTD SVG 1.1//EN" "http://www.w3.org/Graphics/SVG/1.1/DTD/svg11.dtd">
<svg version="1.1" id="Capa_1" xmlns="http://www.w3.org/2000/svg" xmlns:xlink="http://www.w3.org/1999/xlink" x="0px" y="0px"
	 width="576.856px" height="227.714px" viewBox="0 0 576.856 227.714" enable-background="new 0 0 576.856 227.714"
	 xml:space="preserve">
<g>
	<g opacity="0.3">
		<path fill="#E6E6E6" d="M288.575,220.156c-58.614,0-106.3-47.686-106.3-106.3c0-58.612,47.686-106.299,106.3-106.299
			c58.613,0,106.299,47.687,106.299,106.299C394.874,172.471,347.188,220.156,288.575,220.156z M288.575,8.585
			c-58.047,0-105.271,47.226-105.271,105.271c0,58.048,47.225,105.271,105.271,105.271s105.271-47.224,105.271-105.271
			C393.847,55.811,346.622,8.585,288.575,8.585z"/>
		<path fill="#E6E6E6" d="M288.575,160.25c-25.621,0-46.392-20.771-46.392-46.394c0-25.621,20.771-46.392,46.392-46.392
			c25.622,0,46.391,20.771,46.391,46.392C334.938,139.467,314.186,160.221,288.575,160.25z M288.575,68.491
			c-25.055,0-45.364,20.312-45.364,45.367c0,25.054,20.31,45.365,45.364,45.365c25.056-0.001,45.365-20.312,45.365-45.367l0,0
			C333.912,88.815,313.617,68.521,288.575,68.491L288.575,68.491z"/>
		<circle fill="#003459" cx="196.836" cy="167.541" r="7.47"/>
		<circle fill="#003459" cx="224.562" cy="29.591" r="7.47"/>
		<circle fill="#003459" cx="340.646" cy="206.042" r="7.469"/>
	</g>
	<g>
		<g>
			<path fill="#FFFFFF" d="M451.81,77.478c0,2.064-1.689,3.753-3.753,3.753H289.886c-2.064,0-3.753-1.689-3.753-3.753V45.09
				c0-2.064,1.689-3.753,3.753-3.753h158.171c2.064,0,3.753,1.689,3.753,3.753V77.478z"/>
		</g>
		<g>
			<path fill="#FFFFFF" d="M490.02,189.171c0,1.114-0.911,2.025-2.025,2.025H219.229c-1.114,0-2.025-0.911-2.025-2.025v-74.777
				c0-1.114,0.911-2.025,2.025-2.025h268.766c1.114,0,2.025,0.911,2.025,2.025V189.171z"/>
		</g>
		<path fill="#E6E6E6" d="M487.813,191.68H219.296c-1.488-0.003-2.693-1.208-2.694-2.696v-74.387
			c0.001-1.486,1.206-2.692,2.694-2.695h268.518c1.486,0.003,2.692,1.209,2.694,2.695v74.387
			C490.506,190.472,489.3,191.677,487.813,191.68z M219.296,112.979c-0.894,0.001-1.616,0.726-1.616,1.617v74.387
			c0,0.895,0.723,1.617,1.616,1.619h268.518c0.892-0.002,1.614-0.725,1.615-1.619v-74.387c-0.001-0.892-0.724-1.616-1.615-1.617
			H219.296z"/>
		<path id="e1cfef3e-7788-4f0f-b252-d185c9336b04_5_" fill="#E6E6E6" d="M447.314,82.249H290.629c-3.054,0-5.532-1.764-5.534-3.938
			V44.257c0.002-2.174,2.48-3.935,5.534-3.935h156.686c3.055,0,5.533,1.761,5.533,3.935v34.055
			C452.848,80.485,450.369,82.246,447.314,82.249z M290.629,41.892c-1.833,0-3.316,1.062-3.321,2.365v34.054
			c0,1.302,1.488,2.36,3.321,2.363h156.686c1.832,0,3.316-1.062,3.319-2.363V44.257c0-1.304-1.487-2.363-3.319-2.365H290.629z"/>
		<path fill="#003459" d="M326.056,59.675c-1.844,0-3.332,1.495-3.334,3.336v23.353c0.002,1.841,1.49,3.334,3.334,3.337h119.432
			c1.841-0.003,3.334-1.496,3.336-3.337V63.011c-0.002-1.841-1.495-3.336-3.336-3.336H326.056z"/>
		<path fill="#FFFFFF" d="M342.733,67.681c4.055,0,7.341,3.285,7.341,7.341c0,4.052-3.286,7.338-7.341,7.338
			c-4.051,0-7.336-3.286-7.336-7.338C335.397,70.966,338.683,67.681,342.733,67.681z"/>
		<path fill="#FFFFFF" d="M376.183,71.834c-1.654,0-3,1.344-3,3.003c0,1.657,1.346,3.002,3,3.002h42.037
			c1.657,0,3.002-1.345,3.002-3.002c0-1.659-1.345-3.003-3.002-3.003H376.183z"/>
	</g>
	<g>
		<g>
			<path fill="#FFFFFF" d="M193.925,93.992c0,1.009-0.826,1.834-1.834,1.834H69.245c-1.009,0-1.834-0.826-1.834-1.834V21.441
				c0-1.009,0.826-1.834,1.834-1.834H192.09c1.009,0,1.834,0.826,1.834,1.834V93.992z"/>
		</g>
		<path fill="#3F3D56" d="M191.967,19.326H69.419c-1.215,0.002-2.2,0.986-2.202,2.201v72.405c0.002,1.214,0.987,2.2,2.202,2.201
			h122.548c1.216-0.001,2.201-0.987,2.203-2.201V21.527C194.168,20.312,193.183,19.328,191.967,19.326z M193.681,93.933
			c-0.002,0.944-0.768,1.711-1.714,1.712H69.419c-0.945-0.001-1.712-0.768-1.712-1.712V21.527c0-0.944,0.767-1.712,1.712-1.713
			h122.548c0.946,0.001,1.712,0.769,1.714,1.713V93.933z"/>
		<rect x="67.462" y="27.643" fill="#3F3D56" width="126.463" height="0.49"/>
		<circle fill="#CCCCCC" cx="71.62" cy="23.606" r="1.224"/>
		<circle fill="#CCCCCC" cx="75.29" cy="23.606" r="1.224"/>
		<circle fill="#CCCCCC" cx="78.959" cy="23.606" r="1.224"/>
		<path fill="#CCCCCC" d="M80.303,36.693h100.781c1.416,0,2.567,1.15,2.567,2.568l0,0c0,1.419-1.151,2.569-2.567,2.569H80.303
			c-1.417,0-2.568-1.15-2.568-2.569l0,0C77.734,37.844,78.886,36.693,80.303,36.693z"/>
		<g>
			<g>
				<g>
					<ellipse fill="#003459" cx="143.137" cy="151.025" rx="6.268" ry="1.472"/>
					<path fill="#003459" d="M186.116,101.781c-0.812,0-1.469,2.792-1.471,6.239v-0.957l-7.021,0.479
						c-0.136-9.211-3.871-17.545-9.871-23.656l10.684-9.75l-0.656-0.654c2.436,2.422,4.859,3.922,5.432,3.351
						c0.572-0.574-0.944-3.023-3.391-5.472c-2.447-2.446-4.897-3.965-5.473-3.39c-0.569,0.569,0.929,2.995,3.351,5.429l-0.653-0.654
						l-9.75,10.683c-6.111-5.999-14.445-9.735-23.655-9.868l0.479-7.022h-0.93c3.435-0.007,6.212-0.662,6.212-1.47
						c0-0.811-2.805-1.471-6.266-1.471c-3.462,0-6.268,0.66-6.268,1.471c0,0.808,2.778,1.463,6.213,1.47h-0.93l0.479,7.022
						c-9.218,0.133-17.559,3.875-23.673,9.886l-9.733-10.7l-0.683,0.683c2.442-2.442,3.954-4.884,3.38-5.457
						c-0.576-0.575-3.024,0.943-5.473,3.39c-2.445,2.448-3.964,4.897-3.391,5.472c0.572,0.572,3.014-0.939,5.458-3.38l-0.682,0.684
						l10.696,9.732c-6.008,6.114-9.751,14.455-9.883,23.674l-7.021-0.479v0.931c-0.005-3.436-0.663-6.213-1.469-6.213
						c-0.812,0-1.471,2.806-1.471,6.267c0,3.46,0.659,6.267,1.471,6.267c0.806,0,1.464-2.776,1.469-6.213v0.93l7.021-0.478
						c0.132,9.219,3.877,17.561,9.889,23.676l-10.702,9.729l0.695,0.695l0.694,0.695l9.728-10.702
						c6.116,6.01,14.459,9.755,23.679,9.888l-0.479,7.02h1.968l-0.479-7.02c9.217-0.133,17.558-3.873,23.672-9.884l9.733,10.697
						l0.667-0.666c-2.432,2.438-3.935,4.871-3.364,5.442c0.573,0.575,3.023-0.944,5.471-3.392c2.448-2.447,3.965-4.896,3.393-5.47
						c-0.573-0.572-3.005,0.934-5.444,3.363l0.669-0.668l-10.698-9.733c6.008-6.114,9.75-14.454,9.886-23.671l7.021,0.478v-0.956
						c0.002,3.448,0.659,6.239,1.471,6.239c0.809,0,1.468-2.807,1.468-6.267C187.584,104.587,186.925,101.781,186.116,101.781z"/>
					
						<ellipse transform="matrix(-0.7072 -0.707 0.707 -0.7072 81.9103 321.3098)" fill="#003459" cx="107.49" cy="143.693" rx="6.267" ry="1.471"/>
				</g>
				<path opacity="0.5" fill="#BFDBF7" d="M100.649,105.296c-0.414,0-0.776,0.122-0.894,0.553c-0.164,0.602,0.392,0.688,0.832,0.821
					C101.315,106.891,101.668,105.296,100.649,105.296z"/>
				<path opacity="0.5" fill="#BFDBF7" d="M100.338,107.2c-0.616,0-1.159,0.183-1.333,0.827c-0.243,0.894,0.586,1.02,1.241,1.219
					C101.333,109.577,101.857,107.2,100.338,107.2z"/>
				<path opacity="0.5" fill="#BFDBF7" d="M127.965,119.576c-0.904,0.62-1.073,1.361-1.093,2.393
					c-0.017,0.781-0.14,1.682,0.272,2.389c0.527,0.902,1.553,1.035,2.405,0.56c0.446-0.25,0.857-0.531,1.362-0.65
					c0.412-0.099,0.825-0.206,1.224-0.353c0.787-0.293,1.562-0.789,1.784-1.652c0.341-1.33-1.372-2.951-2.723-3.162
					c-0.135-0.021-0.264-0.027-0.39-0.018C129.61,119.165,128.729,119.056,127.965,119.576z"/>
				<path opacity="0.5" fill="#BFDBF7" d="M165.632,111.272c0.62,0.906,1.359,1.075,2.394,1.096c0.78,0.017,1.681,0.14,2.388-0.275
					c0.903-0.524,1.035-1.55,0.56-2.402c-0.25-0.447-0.531-0.859-0.65-1.362c-0.098-0.414-0.204-0.825-0.351-1.224
					c-0.297-0.787-0.792-1.565-1.654-1.785c-1.33-0.343-2.951,1.369-3.161,2.723c-0.022,0.135-0.028,0.266-0.021,0.39
					C165.221,109.631,165.113,110.512,165.632,111.272z"/>
				<path opacity="0.5" fill="#BFDBF7" d="M145.443,150.362c-0.274,0.188-0.327,0.411-0.331,0.725
					c-0.006,0.237-0.043,0.511,0.082,0.724c0.158,0.272,0.47,0.314,0.728,0.17c0.136-0.076,0.261-0.162,0.415-0.196
					c0.122-0.032,0.248-0.063,0.368-0.108c0.239-0.088,0.476-0.238,0.541-0.5c0.104-0.403-0.414-0.895-0.824-0.958
					c-0.041-0.006-0.081-0.008-0.117-0.006C145.942,150.238,145.674,150.204,145.443,150.362z"/>
				<path opacity="0.5" fill="#BFDBF7" d="M106.814,143.687c0.163,0.24,0.359,0.285,0.633,0.289
					c0.207,0.005,0.444,0.038,0.633-0.071c0.237-0.141,0.272-0.411,0.148-0.636c-0.068-0.117-0.143-0.228-0.176-0.361
					c-0.022-0.109-0.053-0.219-0.091-0.323c-0.079-0.207-0.21-0.413-0.437-0.472c-0.354-0.09-0.78,0.362-0.835,0.719
					c-0.007,0.037-0.01,0.072-0.007,0.104C106.705,143.251,106.675,143.484,106.814,143.687z"/>
				<path opacity="0.5" fill="#BFDBF7" d="M176.695,70.075c-0.261,0.182-0.312,0.396-0.316,0.694
					c-0.007,0.227-0.041,0.488,0.078,0.692c0.152,0.263,0.449,0.302,0.699,0.164c0.127-0.073,0.247-0.155,0.394-0.189
					c0.119-0.028,0.239-0.06,0.355-0.102c0.228-0.086,0.454-0.229,0.517-0.479c0.099-0.387-0.398-0.857-0.79-0.918
					c-0.038-0.006-0.076-0.009-0.112-0.005C177.172,69.958,176.917,69.926,176.695,70.075z"/>
				<path opacity="0.5" fill="#BFDBF7" d="M144.851,64.399c-0.265,0.179-0.312,0.394-0.32,0.694
					c-0.004,0.226-0.041,0.486,0.081,0.691c0.15,0.261,0.449,0.3,0.697,0.161c0.129-0.071,0.248-0.153,0.395-0.188
					c0.12-0.028,0.239-0.061,0.354-0.102c0.229-0.087,0.455-0.231,0.517-0.479c0.1-0.386-0.396-0.856-0.79-0.917
					c-0.037-0.006-0.074-0.008-0.111-0.006C145.326,64.28,145.07,64.248,144.851,64.399z"/>
				<path opacity="0.5" fill="#BFDBF7" d="M177.945,71.776c-0.131,0.091-0.157,0.199-0.158,0.352
					c-0.004,0.115-0.021,0.248,0.04,0.351c0.076,0.133,0.227,0.152,0.352,0.082c0.065-0.035,0.128-0.077,0.2-0.096
					c0.061-0.014,0.12-0.028,0.179-0.052c0.115-0.043,0.231-0.115,0.263-0.242c0.051-0.195-0.201-0.433-0.399-0.464
					c-0.02-0.004-0.04-0.005-0.059-0.004C178.188,71.715,178.058,71.701,177.945,71.776z"/>
				<path opacity="0.5" fill="#BFDBF7" d="M155.54,98.922c-0.906,0.618-1.075,1.359-1.095,2.394
					c-0.016,0.779-0.139,1.68,0.271,2.387c0.527,0.904,1.555,1.037,2.406,0.559c0.446-0.246,0.861-0.53,1.363-0.648
					c0.414-0.098,0.825-0.204,1.224-0.354c0.787-0.292,1.563-0.791,1.783-1.652c0.343-1.329-1.369-2.953-2.722-3.161
					c-0.134-0.021-0.266-0.027-0.39-0.019C157.185,98.511,156.301,98.401,155.54,98.922z"/>
				<path opacity="0.5" fill="#BFDBF7" d="M123.555,109.53c-1.846-1.517-3.792-0.339-5.413,1.563
					c-1.212,1.425-2.065,4.022-1.578,5.924c0.683,2.671,5.457,3.474,7.93,2.141c1.847-0.995,2.722-4.88,2.123-6.793
					C126.169,110.928,124.585,110.376,123.555,109.53z"/>
				<path opacity="0.5" fill="#BFDBF7" d="M160.653,113.193c-2.546-2.091-5.231-0.466-7.465,2.157
					c-1.674,1.962-2.848,5.547-2.177,8.169c0.943,3.681,7.523,4.79,10.936,2.951c2.546-1.372,3.751-6.729,2.931-9.365
					C164.26,115.122,162.072,114.36,160.653,113.193z"/>
				<path opacity="0.5" fill="#BFDBF7" d="M106.392,72.907c-0.272-0.227-0.562-0.051-0.802,0.231
					c-0.182,0.21-0.307,0.596-0.233,0.875c0.101,0.396,0.809,0.518,1.174,0.318c0.274-0.147,0.403-0.722,0.315-1.006
					C106.777,73.113,106.544,73.031,106.392,72.907z"/>
				<path opacity="0.5" fill="#BFDBF7" d="M108.49,72.627c-0.192-0.157-0.392-0.035-0.562,0.161
					c-0.125,0.149-0.214,0.418-0.163,0.615c0.07,0.276,0.565,0.361,0.823,0.222c0.188-0.102,0.281-0.505,0.219-0.703
					C108.763,72.773,108.597,72.714,108.49,72.627z"/>
				<path opacity="0.5" fill="#BFDBF7" d="M141.887,150.179c-0.326-0.271-0.673-0.062-0.957,0.276
					c-0.216,0.251-0.367,0.713-0.28,1.05c0.12,0.472,0.967,0.615,1.404,0.379c0.326-0.176,0.482-0.865,0.376-1.202
					C142.351,150.426,142.069,150.327,141.887,150.179z"/>
				<path opacity="0.5" fill="#BFDBF7" d="M180.444,141.741c-0.312-0.256-0.638-0.056-0.911,0.263c-0.204,0.241-0.348,0.68-0.266,1
					c0.114,0.448,0.92,0.584,1.336,0.36c0.312-0.167,0.459-0.822,0.358-1.145C180.886,141.978,180.618,141.884,180.444,141.741z"/>
				<path opacity="0.5" fill="#BFDBF7" d="M178.02,142.813c-0.131-0.107-0.27-0.023-0.386,0.113
					c-0.084,0.101-0.146,0.285-0.111,0.42c0.049,0.189,0.388,0.248,0.565,0.151c0.129-0.069,0.191-0.347,0.15-0.483
					C178.204,142.915,178.091,142.874,178.02,142.813z"/>
				<path opacity="0.5" fill="#BFDBF7" d="M186.526,109.079c-0.172-0.146-0.358-0.033-0.511,0.147
					c-0.115,0.134-0.195,0.378-0.149,0.56c0.064,0.252,0.516,0.328,0.747,0.201c0.178-0.093,0.259-0.461,0.204-0.641
					C186.773,109.21,186.624,109.157,186.526,109.079z"/>
			</g>
		</g>
	</g>
	<g>
		<path fill="#E6E6E6" d="M516.045,171.88v-10.976c0.001-0.632,0.515-1.144,1.146-1.145h9.299c0.635,0.001,1.146,0.513,1.147,1.145
			v10.976c-0.002,0.633-0.513,1.145-1.147,1.146h-9.299C516.56,173.024,516.046,172.513,516.045,171.88z"/>
		<path fill="#003459" d="M519.396,168.226v-10.977c0.001-0.631,0.515-1.144,1.146-1.145h9.3c0.632,0.001,1.146,0.514,1.146,1.145
			v10.977c0,0.632-0.514,1.145-1.146,1.145h-9.3C519.91,169.37,519.396,168.857,519.396,168.226z"/>
		<path fill="#A0616A" d="M561.09,164.714c-1.324-0.765-1.776-2.456-1.012-3.777c0.081-0.142,0.175-0.274,0.279-0.397l-2.883-21.075
			l6.004,0.296l0.943,20.554c1.107,1.065,1.14,2.826,0.074,3.931C563.604,165.169,562.195,165.363,561.09,164.714L561.09,164.714z"
			/>
		<path fill="#CCCCCC" d="M564.304,140.04c-0.123,0.146-0.28,0.257-0.457,0.325l-5.398,2.06c-0.562,0.215-1.193-0.048-1.44-0.6
			l-4.78-10.743c-0.458-0.996-0.536-2.127-0.221-3.177c0.479-1.526,1.756-2.671,3.325-2.979c0.591-0.121,1.205-0.113,1.794,0.024
			c1.433,0.321,2.61,1.344,3.126,2.718l4.25,11.237C564.647,139.292,564.571,139.727,564.304,140.04z"/>
		<polygon fill="#A0616A" points="536.182,216.147 532.447,216.147 531.094,201.677 536.182,201.745 		"/>
		<path fill="#2F2E41" d="M529.779,215.079h7.201l0,0v4.535l0,0h-11.733l0,0l0,0C525.247,217.108,527.275,215.079,529.779,215.079z"
			/>
		<polygon fill="#A0616A" points="553.541,216.147 549.808,216.147 548.03,201.744 553.543,201.745 		"/>
		<path fill="#2F2E41" d="M547.14,215.079h7.201l0,0v4.535l0,0h-11.734l0,0l0,0C542.606,217.108,544.637,215.079,547.14,215.079z"/>
		<path fill="#2F2E41" d="M554.011,211.022l-5.864-0.434c-0.689-0.053-1.233-0.609-1.267-1.302l-1.309-27.023
			c-0.028-0.589-0.528-1.043-1.116-1.014c-0.488,0.023-0.895,0.373-0.993,0.851l-5.456,26.621c-0.14,0.678-0.762,1.145-1.452,1.091
			l-5.301-0.423c-0.754-0.062-1.316-0.723-1.256-1.477c0-0.009,0.001-0.018,0.003-0.027l4.919-49.181
			c0.074-0.752,0.746-1.301,1.498-1.227c0.053,0.005,0.104,0.015,0.155,0.023l18.703,4.066c0.638,0.142,1.089,0.712,1.079,1.365
			l-0.872,46.747c-0.014,0.746-0.621,1.344-1.368,1.346C554.081,211.026,554.047,211.024,554.011,211.022z"/>
		<circle fill="#A0616A" cx="548.88" cy="110.104" r="7.48"/>
		<path fill="#CCCCCC" d="M537.274,162.499c-1.457-1.306-2.268-3.183-2.222-5.139c0-10.75,9.306-34.771,9.599-35.521
			c0.027-0.18,0.273-0.259,1.562-1.129c1.289-0.871,3.148-1.004,5.523-0.397c0.494,0.127,0.876,0.516,0.991,1.011l0.442,0.639
			c0.078,0.328,0.308,0.601,0.618,0.733c1.918,0.808,8.009,4.531,5.933,18.545c-1.929,13.02-2.711,20.676-2.957,23.363
			c-0.06,0.658-0.583,1.177-1.24,1.237c-0.939,0.085-2.553,0.196-4.476,0.196C546.596,166.038,540.487,165.437,537.274,162.499z"/>
		<path fill="#A0616A" d="M528.335,158.515c-0.671-1.37-0.104-3.026,1.267-3.699c0.146-0.072,0.298-0.131,0.454-0.175l9.349-19.104
			l4.823,3.591l-10.671,17.593c0.324,1.501-0.629,2.98-2.131,3.306C530.172,160.296,528.894,159.673,528.335,158.515
			L528.335,158.515z"/>
		<path fill="#CCCCCC" d="M544.754,139.819c-0.183,0.052-0.374,0.059-0.562,0.015l-5.628-1.297
			c-0.588-0.136-0.966-0.706-0.863-1.299l2.018-11.587c0.175-1.083,0.739-2.064,1.589-2.76c1.247-1.001,2.943-1.24,4.418-0.622
			c0.56,0.229,1.064,0.577,1.477,1.021c1.012,1.062,1.42,2.567,1.08,3.997l-2.731,11.697
			C545.458,139.388,545.152,139.708,544.754,139.819z"/>
		<path fill="#2F2E41" d="M547.128,116.862c-0.737-0.754-1.062-1.822-0.863-2.858c0.261-1.364,0.414-2.257,0.442-2.582l0,0
			c0.1-1.11-1.023-2.01-2.135-2.153c-0.044-0.005-0.078-0.009-0.109-0.012c0.028,0.027,0.06,0.056,0.085,0.081
			c0.212,0.199,0.475,0.446,0.412,0.7c-0.038,0.152-0.179,0.263-0.43,0.333c-1.738,0.486-3.075,0.039-4.211-1.406
			c-0.32-0.412-0.539-0.892-0.642-1.399c-0.406-1.997,0.677-3.7,1.658-4.775c0.81-0.888,2.122-1.965,3.774-2.058
			c1.287-0.07,2.816,0.67,3.275,2.003c0.438-0.647,1.155-1.054,1.937-1.092c0.879-0.02,1.743,0.222,2.485,0.69
			c3.626,2.079,5.187,7.028,3.404,10.809c-1.122,2.379-3.551,4.149-6.339,4.622c-0.175,0.028-0.352,0.044-0.527,0.044
			C548.508,117.809,547.709,117.466,547.128,116.862z"/>
		<path fill="#3F3D56" d="M512.05,219.782h59.393c0.168,0,0.305-0.135,0.305-0.304s-0.137-0.305-0.305-0.305H512.05
			c-0.168,0-0.304,0.136-0.304,0.305S511.882,219.782,512.05,219.782z"/>
	</g>
	<g>
		<polygon fill="#3F3D56" points="5.109,161.98 69.139,161.98 69.139,162.503 5.204,162.503 		"/>
		<polygon fill="#FFB8B8" points="41.535,140.438 48.272,140.074 48.729,154.186 46.18,154.186 		"/>
		<path fill="#2F2E41" d="M44.568,159.928c-0.534-2.202-0.031-4.526,1.366-6.308l0,0l3.096,0.209l3.032,5.331l1.93,0.482
			c0.363,0.091,0.657,0.354,0.788,0.702l0,0c0.006,0.018,0.013,0.034,0.017,0.053c0.193,0.596-0.135,1.235-0.732,1.428l-0.056,0.009
			c-2.423,0.779-4.299,0.391-6.114-1.394c-0.649-0.638-1.294,2.207-2.063,1.855C45.282,162.046,44.848,161.073,44.568,159.928z"/>
		<polygon fill="#FFB8B8" points="22.697,137.827 29.097,139.967 24.33,153.258 21.959,152.32 		"/>
		<path fill="#2F2E41" d="M18.35,157.067c0.312-2.244,1.636-4.221,3.592-5.363l0,0l2.8,1.332l0.859,6.074l1.618,1.158
			c0.303,0.219,0.479,0.57,0.474,0.943l0,0c0,0.018-0.002,0.036-0.002,0.055c-0.041,0.625-0.582,1.099-1.208,1.058l-0.055-0.013
			c-2.541-0.166-4.143-1.217-5.174-3.544c-0.37-0.833-2.016,1.576-2.602,0.967C18.234,159.3,18.188,158.236,18.35,157.067z"/>
		<path fill="#FFB8B8" d="M18.014,80.975c-0.935-0.257-1.558-1.138-1.489-2.105l0,0c0.04-0.565,0.313-1.087,0.755-1.44l12.237-9.824
			l0.729,6.556l-6.28,4.682l6.646,2.42l3.445-0.111c0.049-0.001,0.097-0.001,0.145,0.001c1.132,0.043,2.013,0.994,1.969,2.126l0,0
			c-0.005,0.145-0.026,0.289-0.062,0.431c-0.283,1.096-1.399,1.755-2.496,1.474l-3.913-1.006
			C25.06,84.03,20.881,83.313,18.014,80.975z"/>
		<circle fill="#FFB8B8" cx="38.621" cy="53.219" r="6.373"/>
		<path fill="#FFB8B8" d="M34.25,56.133l7.103,1.638c-1.545,2.236-2.254,4.943-2.003,7.648l-8.559-3.46
			C33.17,60.24,34.343,58.301,34.25,56.133z"/>
		<path fill="#003459" d="M28.714,63.828c0.146-1.901,1.684-3.396,3.587-3.492l0.312-0.016l6.918,2.004l2.27,1.606
			c1.29,0.913,1.962,2.473,1.738,4.038l0,0l2.184,5.1c-5.806,3.368-9.579,4.284-16.479,3.732
			C27.201,72.663,27.21,68.32,28.714,63.828z"/>
		<path fill="#2F2E41" d="M28.242,74.524c6.835,1.084,11.609-0.342,16.752-3.643c2.822,3.193,3.879,6.541,1.456,10.197l-1.092,4.734
			l-14.748,1.64C31.738,83.291,30.06,78.946,28.242,74.524z"/>
		<path fill="#2F2E41" d="M21.959,109.76c1.443-9.884,3.895-18.194,8.832-23.399l14.567-1.274
			c-0.828,17.349,2.125,36.213,6.373,56.086l-13.931,0.637l-3.095-30.228l-3.825,30.41l-11.743,0.638
			C19.353,131.103,20.516,119.645,21.959,109.76z"/>
		<circle fill="#2F2E41" cx="31.604" cy="45.226" r="2.19"/>
		<path fill="#2F2E41" d="M31.953,47.001c0.045,0,0.091,0.001,0.137-0.002c1.207-0.078,2.124-1.12,2.046-2.326
			c-0.077-1.208-1.12-2.124-2.326-2.046c-0.048,0.002-0.092,0.009-0.138,0.015c1.156-0.002,2.115,0.895,2.189,2.048
			S33.1,46.856,31.953,47.001z"/>
		<path fill="#2F2E41" d="M30.51,49.206c-0.905,1.801-1.371,3.793-1.354,5.81v6.065l5.279,0.105l0.137-4.232l2.854,4.173
			l2.304-0.046c-1.872-3.622-1.661-6.775,1.417-9.285c1.932,0.564,3.719,0.644,5.289,0l0,0c0-2.74-2-4.282-4.644-4.643
			c-0.36-1.089-5.965-3.149-7.918-1.528C32.61,46.674,31.334,47.607,30.51,49.206z"/>
		<ellipse fill="#FFB8B8" cx="38.791" cy="54.875" rx="1.047" ry="1.466"/>
		<path fill="#003459" d="M46.804,111.122h10.558c0.204,0,0.369,0.164,0.369,0.368v14.714c0,0.203-0.165,0.367-0.369,0.367H46.804
			c-0.203,0-0.367-0.164-0.367-0.367V111.49C46.437,111.286,46.601,111.122,46.804,111.122"/>
		<path fill="#FFB8B8" d="M37.25,67.627c-0.003-0.007-0.003-0.013-0.003-0.02c-0.049-1.71,1.298-3.138,3.009-3.188l0,0
			c0.047-0.001,0.094-0.002,0.139,0c1.712,0.03,3.075,1.442,3.046,3.154c-0.183,12.348,0.789,25.008,4.386,37.907l1.467,5.865
			c0.385,1.54,0.35,3.075-1.221,3.306l0,0c-0.181,0.026-0.363,0.034-0.545,0.023c-1.48-0.084-2.61-1.354-2.524-2.833l0.355-6.18
			C39.872,95.293,37.759,82.126,37.25,67.627z"/>
	</g>
</g>
</svg>
