<?xml version="1.0" encoding="utf-8"?>
<!-- Generator: Adobe Illustrator 16.0.0, SVG Export Plug-In . SVG Version: 6.00 Build 0)  -->
<!DOCTYPE svg PUBLIC "-//W3C//DTD SVG 1.1//EN" "http://www.w3.org/Graphics/SVG/1.1/DTD/svg11.dtd">
<svg version="1.1" id="Capa_1" xmlns="http://www.w3.org/2000/svg" xmlns:xlink="http://www.w3.org/1999/xlink" x="0px" y="0px"
	 width="141.73px" height="103.159px" viewBox="0 0 141.73 103.159" enable-background="new 0 0 141.73 103.159"
	 xml:space="preserve">
<g>
	<path opacity="0.1" fill="#003459" enable-background="new    " d="M132.012,61.218c-4.889,6.7-3.269,16.265-0.448,23.886
		c0.944,2.551,2.02,5.248,1.528,8.023c-0.6,3.393-3.413,5.934-6.337,7.32c-5.333,2.521-11.633,2.119-16.402-1.061
		c-4.115-2.744-7.014-7.305-11.21-9.916c-7.021-4.373-16.139-2.42-23.954,0.918c-5.53,2.361-11.587,5.402-16.976,3.223
		c-3.792-1.535-6.344-5.439-7.688-9.615c-0.648-2.016-1.103-4.203-2.395-5.781c-0.768-0.938-1.784-1.592-2.828-2.139
		c-9.529-4.988-21.785-1.869-31.023-7.437C8.043,64.88,4.161,57.586,2.549,49.915C0.936,42.244,1.335,34.149,1.977,26.19
		c0.457-5.656,1.179-11.698,4.579-16.142c3.596-4.701,9.623-6.57,15.013-5.833c5.39,0.738,10.221,3.735,14.45,7.304
		c5.288,4.459,10.152,10.057,16.728,11.746c4.479,1.152,9.237,0.337,13.894-0.024c7.784-0.601,15.54,0.091,23.248,0.873
		c7.379,0.748,14.809,1.584,21.799,4.037c4.946,1.737,8.865,5.02,13.522,7.261c3.034,1.463,6.374,1.802,9.23,3.691
		c3.523,2.326,6.711,6.447,5.677,11.394C139.139,55.196,134.607,57.662,132.012,61.218z"/>
	<g>
		<path fill="#2F2E41" d="M94.11,13.171l-8.724,0.085c-0.41-2.019-1.786-7.315-0.545-8.759c0.116-1.13,1.102-1.968,2.234-1.9l0,0
			c1.353-2.117,3.604-1.799,5.128-0.478c1.531,0.529,2.108,1.467,1.906,2.742c1.134,0.993,1.345,2.201,0.834,3.576L94.11,13.171z"/>
		<path fill="#FFB9B9" d="M93.271,18.545l-6.294-0.872l-1.259-1.84c1.733-1.15,2.348-2.756,1.549-4.938l4.357-0.097
			c-0.204,1.942,0.438,3.447,2.227,4.356L93.271,18.545z"/>
		<path fill="#E6E6E6" d="M85.489,75.309L85.25,78.6c-0.043,0.576,0.391,1.078,0.967,1.119c0.048,0.004,0.094,0.004,0.14,0.002
			l1.691-0.104c0.293-0.016,0.517-0.271,0.5-0.564c-0.003-0.031-0.009-0.064-0.016-0.098l-0.938-3.752L85.489,75.309z"/>
		<path fill="#E6E6E6" d="M90.96,75.203l-0.938,3.752c-0.07,0.285,0.102,0.576,0.389,0.648c0.032,0.008,0.064,0.012,0.096,0.014
			l1.691,0.104c0.577,0.033,1.073-0.404,1.108-0.982c0.003-0.045,0.003-0.094-0.002-0.139l-0.239-3.291L90.96,75.203z"/>
		<polygon fill="#003459" points="93.174,75.768 90.893,75.537 88.623,51.271 87.766,75.459 85.524,75.377 81.75,41.879 
			96.176,41.879 		"/>
		<circle fill="#FFB9B9" cx="89.688" cy="8.088" r="4.357"/>
		<path fill="#003459" d="M98.306,42.654l-17.621,0.192c2.613-9.955,4.179-19.202,1.451-25.56l4.358-2.131
			c2.101,2.191,4.44,1.966,6.97-0.193l4.163,1.065C96.914,24.365,97.235,33.294,98.306,42.654z"/>
		<path fill="#FFB9B9" d="M75.842,32.39l10.942,4.357l2.447,0.72c0.446,0.131,0.917-0.125,1.049-0.574
			c0.004-0.01,0.007-0.021,0.01-0.033l0,0c0.099-0.4-0.104-0.815-0.481-0.981l-2.541-0.778l-7.648-4.454l1.599-4.211l-3.341-1.792
			L75.842,32.39z"/>
		<path fill="#003459" d="M75.939,24.451c2.081,0.812,3.737,2.198,5.035,4.067l4.066-5.907l-2.905-5.324L75.939,24.451z"/>
		<path fill="#2F2E41" d="M94.599,7.382c-1.768-0.456-3.506-0.519-5.197,0.06c-1.076,0.521-2.368,0.473-3.807,0.043V3.139
			l7.763,0.207L94.599,7.382z"/>
		<path fill="#3F3D56" d="M86.747,27.314c-0.713,0-1.29,0.579-1.29,1.291l0.511,10.662c0,0.713,0.577,1.29,1.288,1.29h5.824
			c0.713,0,1.29-0.577,1.29-1.29l0.511-10.662c-0.002-0.711-0.579-1.29-1.291-1.291H86.747z"/>
		<path fill="#FFB9B9" d="M103.271,31.584l-9.537,3.797l-0.719,0.288c-0.022,0.008-0.045,0.016-0.07,0.023l-2.41,0.709
			c-0.308,0.089-0.735-0.325-0.984-0.611c-0.255-0.286-0.265-0.714-0.021-1.01c0.033-0.039,0.07-0.073,0.11-0.105
			c0.092-0.073,0.202-0.121,0.317-0.14l2.408-0.475c0.086-0.016,0.169-0.047,0.246-0.091l1.122-0.655l5.83-3.395
			c0.337-0.194,0.482-0.603,0.345-0.965l-1.113-2.934c-0.142-0.373,0.015-0.791,0.365-0.979l1.844-0.988
			c0.385-0.207,0.863-0.062,1.07,0.322c0.029,0.055,0.053,0.113,0.067,0.175l1.602,6.096
			C103.845,31.034,103.643,31.437,103.271,31.584z"/>
		<path fill="#003459" d="M103.824,23.386c-2.082,0.812-3.737,2.198-5.034,4.066l-4.067-5.906l2.904-5.52L103.824,23.386z"/>
		<path fill="#FFFFFF" d="M92.589,11.966c-1.908,0.793-3.905,0.761-5.986,0c0.605-1.034-0.299-1.842-0.763-2.885l7.768-0.231
			C93.013,9.755,92.137,10.827,92.589,11.966z"/>
		<polygon fill="#FFFFFF" points="93.524,9.022 93.436,8.933 93.562,8.805 94.322,7.917 94.42,8 93.655,8.892 		"/>
		
			<rect x="85.585" y="8.353" transform="matrix(-0.6451 0.7641 -0.7641 -0.6451 147.6611 -50.886)" fill="#FFFFFF" width="0.127" height="0.995"/>
		
			<rect x="91.884" y="10.792" transform="matrix(-0.5365 0.8439 -0.8439 -0.5365 152.2518 -61.9143)" fill="#FFFFFF" width="2.49" height="0.128"/>
		
			<rect x="85.997" y="9.61" transform="matrix(-0.8441 0.5361 -0.5361 -0.8441 164.5289 -26.1214)" fill="#FFFFFF" width="0.128" height="2.491"/>
		<path fill="#FFFFFF" d="M93.989,33.135v2.307l-0.804,0.32c-0.026,0.01-0.052,0.018-0.078,0.027l-2.689,0.792
			c-0.345,0.102-0.821-0.362-1.101-0.681c-0.284-0.319-0.294-0.798-0.022-1.128c0.038-0.043,0.078-0.082,0.123-0.118
			c0.104-0.081,0.225-0.135,0.355-0.156l2.688-0.529c0.096-0.019,0.189-0.053,0.274-0.103L93.989,33.135z"/>
		<path fill="#3F3D56" d="M95.151,24.906h-0.459c0-6.508-1.34-11.043-2.646-11.043l-0.114-0.46c1.171,0,1.919,1.888,2.338,3.471
			C94.839,19.021,95.151,21.874,95.151,24.906z"/>
		<path fill="#3F3D56" d="M84.568,23.297h-0.461c0-5.961,1.352-9.665,3.337-9.665l-0.114,0.461
			C85.955,14.093,84.568,16.939,84.568,23.297z"/>
		<circle fill="#3F3D56" cx="94.922" cy="25.022" r="1.151"/>
		<path fill="#3F3D56" d="M82.728,26.058h-0.461c0-1.65,0.931-2.992,2.072-2.992v0.461C83.45,23.526,82.728,24.662,82.728,26.058z"
			/>
		<path fill="#3F3D56" d="M86.409,26.058h-0.461c0-1.396-0.721-2.531-1.609-2.531v-0.461C85.481,23.065,86.409,24.408,86.409,26.058
			z"/>
		<circle fill="#3F3D56" cx="86.18" cy="26.172" r="0.46"/>
		<circle fill="#3F3D56" cx="82.498" cy="26.172" r="0.46"/>
		<rect x="37.904" y="79.521" fill="#3F3D56" width="65.865" height="0.256"/>
		<path fill="#E6E6E6" d="M42.798,79.395H69.54V46.961c0-1.719-1.692-3.115-3.771-3.115h-19.2c-2.08,0-3.771,1.396-3.771,3.115
			V79.395z"/>
		<path fill="#FFFFFF" d="M44.836,78.055h22.667V50.561c0-1.455-1.434-2.639-3.196-2.639H48.032c-1.762,0-3.196,1.185-3.196,2.639
			V78.055z"/>
		<path fill="#3F3D56" d="M42.597,41.322c-0.661,0-1.199,0.444-1.199,0.99v2.858c0,0.545,0.538,0.99,1.199,0.99h27.145
			c0.661,0,1.199-0.444,1.199-0.99v-2.858c0-0.546-0.538-0.99-1.199-0.99H42.597z"/>
		<path fill="#3F3D56" d="M48.169,74.529c-0.646,0-1.169,0.523-1.17,1.17l0,0c0.001,0.646,0.524,1.168,1.17,1.172h2.192v-2.342
			H48.169z"/>
		<path fill="#003459" d="M52.374,74.529h-2.132v2.342h2.132c0.646-0.004,1.169-0.525,1.171-1.172l0,0
			C53.543,75.053,53.02,74.529,52.374,74.529z"/>
		<path opacity="0.2" enable-background="new    " d="M53.138,74.816c0.184,0.211,0.285,0.482,0.287,0.762l0,0
			c-0.002,0.648-0.525,1.172-1.171,1.174h-2.012v0.119h2.132c0.646-0.004,1.169-0.525,1.171-1.172l0,0
			C53.545,75.361,53.395,75.037,53.138,74.816z"/>
		<path fill="#3F3D56" d="M58.062,56.889c-0.444-0.468-1.184-0.49-1.655-0.048l0,0c-0.469,0.443-0.491,1.184-0.049,1.655
			l1.504,1.596l1.703-1.606L58.062,56.889z"/>
		<path fill="#003459" d="M60.945,59.948l-1.462-1.551l-1.706,1.606l1.463,1.552c0.445,0.469,1.185,0.489,1.656,0.048l0,0
			C61.365,61.16,61.387,60.42,60.945,59.948z"/>
		<path opacity="0.2" enable-background="new    " d="M61.26,60.701c-0.027,0.28-0.155,0.539-0.359,0.733l0,0
			c-0.471,0.441-1.211,0.421-1.656-0.05l-1.38-1.463l-0.088,0.082l1.463,1.552c0.445,0.469,1.185,0.489,1.656,0.048l0,0
			C61.144,61.371,61.276,61.04,61.26,60.701z"/>
		<path fill="#3F3D56" d="M51.822,60.583c-0.445-0.47-1.185-0.491-1.656-0.05l0,0c-0.469,0.445-0.49,1.184-0.048,1.655l1.503,1.596
			l1.705-1.606L51.822,60.583z"/>
		<path fill="#003459" d="M54.705,63.642l-1.461-1.552l-1.706,1.606l1.463,1.551c0.445,0.47,1.185,0.491,1.656,0.049l0,0
			C55.125,64.851,55.148,64.111,54.705,63.642z"/>
		<path opacity="0.2" enable-background="new    " d="M55.021,64.395c-0.027,0.279-0.155,0.539-0.359,0.732l0,0
			c-0.472,0.441-1.211,0.42-1.655-0.05l-1.38-1.464l-0.088,0.083l1.463,1.551c0.445,0.47,1.185,0.491,1.656,0.049l0,0
			C54.904,65.063,55.036,64.733,55.021,64.395z"/>
		<path fill="#3F3D56" d="M58.062,64.021c-0.444-0.469-1.184-0.491-1.655-0.049l0,0c-0.469,0.443-0.491,1.183-0.049,1.653
			l1.504,1.596l1.703-1.605L58.062,64.021z"/>
		<path fill="#003459" d="M60.945,67.079l-1.462-1.552l-1.706,1.607l1.463,1.551c0.445,0.469,1.185,0.491,1.656,0.05l0,0
			C61.365,68.29,61.387,67.55,60.945,67.079z"/>
		<path opacity="0.2" enable-background="new    " d="M61.26,67.832c-0.027,0.279-0.155,0.541-0.359,0.732l0,0
			c-0.471,0.443-1.211,0.421-1.656-0.048l-1.38-1.465l-0.088,0.083l1.463,1.551c0.445,0.469,1.185,0.491,1.656,0.05l0,0
			C61.144,68.501,61.276,68.172,61.26,67.832z"/>
		<path fill="#3F3D56" d="M61.868,71.338c0.464-0.449,0.477-1.189,0.029-1.657l0,0c-0.45-0.462-1.19-0.476-1.656-0.027l-1.577,1.523
			l1.627,1.685L61.868,71.338z"/>
		<path fill="#003459" d="M58.844,74.258l1.534-1.48l-1.627-1.684l-1.534,1.48c-0.463,0.449-0.476,1.189-0.029,1.654l0,0
			C57.639,74.691,58.378,74.705,58.844,74.258z"/>
		<path opacity="0.2" enable-background="new    " d="M58.096,74.584c-0.28-0.025-0.542-0.148-0.737-0.352l0,0
			c-0.448-0.465-0.436-1.205,0.028-1.656l1.447-1.396l-0.083-0.087l-1.534,1.48c-0.463,0.449-0.476,1.189-0.029,1.654l0,0
			C57.425,74.473,57.756,74.604,58.096,74.584z"/>
		<path fill="#3F3D56" d="M53.463,67.646c0.464-0.45,0.477-1.189,0.029-1.655l0,0c-0.45-0.465-1.19-0.476-1.656-0.029l-1.577,1.521
			l1.627,1.687L53.463,67.646z"/>
		<path fill="#003459" d="M50.439,70.566l1.534-1.482L50.346,67.4l-1.534,1.479c-0.463,0.452-0.476,1.191-0.029,1.656l0,0
			C49.233,71.002,49.975,71.013,50.439,70.566z"/>
		<path opacity="0.2" enable-background="new    " d="M49.691,70.89c-0.28-0.023-0.542-0.146-0.737-0.351l0,0
			c-0.448-0.466-0.435-1.206,0.029-1.655l1.446-1.397L50.346,67.4l-1.534,1.479c-0.463,0.452-0.476,1.191-0.029,1.656l0,0
			C49.021,70.781,49.352,70.909,49.691,70.89z"/>
		<path fill="#3F3D56" d="M65.433,63.189c0.464-0.45,0.477-1.19,0.03-1.657l0,0c-0.451-0.463-1.19-0.478-1.656-0.027l-1.577,1.521
			l1.627,1.685L65.433,63.189z"/>
		<path fill="#003459" d="M62.41,66.108l1.533-1.48l-1.627-1.685l-1.534,1.48c-0.463,0.451-0.476,1.189-0.029,1.655l0,0
			C61.204,66.545,61.944,66.557,62.41,66.108z"/>
		<path opacity="0.2" enable-background="new    " d="M61.661,66.434c-0.279-0.024-0.542-0.148-0.737-0.352l0,0
			c-0.448-0.466-0.435-1.205,0.028-1.655l1.448-1.397l-0.084-0.086l-1.534,1.48c-0.463,0.451-0.476,1.189-0.029,1.655l0,0
			C60.991,66.325,61.322,66.452,61.661,66.434z"/>
		<path fill="#3F3D56" d="M62.773,72.424c-0.444-0.469-1.185-0.489-1.656-0.047l0,0c-0.468,0.443-0.49,1.182-0.048,1.654
			l1.504,1.596l1.704-1.607L62.773,72.424z"/>
		<path fill="#003459" d="M65.657,75.482l-1.463-1.551l-1.704,1.605l1.463,1.553c0.444,0.471,1.184,0.49,1.656,0.049l0,0
			C66.077,76.695,66.098,75.955,65.657,75.482z"/>
		<path opacity="0.2" enable-background="new    " d="M65.972,76.236c-0.028,0.279-0.155,0.539-0.359,0.734l0,0
			c-0.472,0.439-1.211,0.416-1.656-0.051l-1.38-1.463l-0.088,0.08l1.463,1.553c0.444,0.471,1.184,0.49,1.656,0.049l0,0
			C65.854,76.904,65.988,76.576,65.972,76.236z"/>
		<path fill="#3F3D56" d="M54.496,72.297c-0.443-0.468-1.184-0.49-1.656-0.049l0,0c-0.468,0.443-0.49,1.184-0.048,1.656l1.503,1.596
			L56,73.891L54.496,72.297z"/>
		<path fill="#003459" d="M57.379,75.355l-1.462-1.551l-1.704,1.605l1.462,1.551c0.444,0.471,1.184,0.492,1.656,0.051l0,0
			C57.8,76.568,57.821,75.828,57.379,75.355z"/>
		<path opacity="0.2" enable-background="new    " d="M57.695,76.109c-0.027,0.279-0.155,0.539-0.359,0.732l0,0
			c-0.473,0.441-1.212,0.418-1.656-0.049L54.3,75.33l-0.087,0.08l1.462,1.551c0.444,0.471,1.184,0.492,1.656,0.051l0,0
			C57.578,76.779,57.71,76.447,57.695,76.109z"/>
		<path fill="#003459" d="M56.825,68.096c0,0.804-0.564,1.494-1.35,1.655c-0.224,0.045-0.453,0.045-0.676,0
			c-0.914-0.185-1.503-1.078-1.316-1.994c0.135-0.661,0.654-1.18,1.316-1.317c0.223-0.044,0.452-0.044,0.676,0
			C56.261,66.603,56.825,67.293,56.825,68.096z"/>
		<path opacity="0.2" enable-background="new    " d="M55.475,66.439v3.312c-0.224,0.045-0.453,0.045-0.676,0v-3.312
			C55.022,66.396,55.251,66.396,55.475,66.439z"/>
		<path fill="#003459" d="M57.59,61.347c0,0.803-0.564,1.494-1.351,1.654c-0.223,0.048-0.453,0.048-0.675,0
			c-0.916-0.186-1.503-1.078-1.317-1.991c0.136-0.663,0.654-1.182,1.317-1.317c0.223-0.046,0.452-0.046,0.675,0
			C57.025,59.853,57.59,60.544,57.59,61.347z"/>
		<path opacity="0.2" enable-background="new    " d="M56.239,59.692v3.309c-0.223,0.048-0.453,0.048-0.675,0v-3.309
			C55.786,59.646,56.016,59.646,56.239,59.692z"/>
		<path fill="#003459" d="M57.59,71.023c0,0.805-0.564,1.496-1.351,1.656c-0.223,0.045-0.453,0.045-0.675,0
			c-0.916-0.186-1.503-1.078-1.317-1.994c0.136-0.662,0.654-1.18,1.317-1.315c0.223-0.047,0.452-0.047,0.675,0
			C57.025,69.531,57.59,70.224,57.59,71.023z"/>
		<path opacity="0.2" enable-background="new    " d="M56.239,69.37v3.31c-0.223,0.045-0.453,0.045-0.675,0v-3.31
			C55.786,69.323,56.016,69.323,56.239,69.37z"/>
		<path fill="#003459" d="M61.792,75.734c0,0.805-0.565,1.496-1.352,1.656c-0.222,0.045-0.452,0.045-0.675,0
			c-0.914-0.186-1.504-1.078-1.317-1.994c0.135-0.662,0.654-1.18,1.317-1.316c0.223-0.045,0.453-0.045,0.675,0
			C61.227,74.242,61.792,74.934,61.792,75.734z"/>
		<path opacity="0.2" enable-background="new    " d="M60.44,74.08v3.311c-0.222,0.045-0.452,0.045-0.675,0V74.08
			C59.988,74.035,60.219,74.035,60.44,74.08z"/>
		<path fill="#003459" d="M65.504,67.068c0.577,0.557,0.685,1.441,0.254,2.121c-0.122,0.191-0.282,0.357-0.469,0.486
			c-0.769,0.528-1.82,0.334-2.349-0.436c-0.383-0.558-0.396-1.29-0.034-1.862c0.122-0.191,0.282-0.357,0.469-0.486
			C64.036,66.437,64.926,66.51,65.504,67.068z"/>
		<path opacity="0.2" enable-background="new    " d="M63.375,66.892l2.383,2.298c-0.122,0.191-0.282,0.357-0.469,0.486
			l-2.383-2.298C63.028,67.187,63.188,67.021,63.375,66.892z"/>
		<path fill="#003459" d="M66.013,70.761c0.58,0.557,0.685,1.442,0.254,2.12c-0.121,0.191-0.281,0.357-0.467,0.486
			c-0.77,0.529-1.822,0.334-2.351-0.434c-0.383-0.557-0.396-1.291-0.034-1.862c0.123-0.191,0.282-0.356,0.469-0.487
			C64.546,70.131,65.436,70.204,66.013,70.761z"/>
		<path opacity="0.2" enable-background="new    " d="M63.884,70.584l2.383,2.297c-0.121,0.191-0.281,0.357-0.467,0.486
			l-2.385-2.296C63.538,70.88,63.697,70.715,63.884,70.584z"/>
		<path fill="#003459" d="M50.86,71.652c0.578,0.557,0.685,1.441,0.254,2.121c-0.122,0.191-0.282,0.357-0.468,0.486
			c-0.77,0.527-1.821,0.334-2.351-0.436c-0.383-0.559-0.396-1.291-0.033-1.862c0.122-0.191,0.282-0.357,0.469-0.486
			C49.392,71.021,50.282,71.094,50.86,71.652z"/>
		<path opacity="0.2" enable-background="new    " d="M48.731,71.476l2.383,2.298c-0.122,0.191-0.282,0.357-0.468,0.486
			l-2.384-2.298C48.384,71.771,48.544,71.604,48.731,71.476z"/>
		<rect x="44.772" y="41.322" opacity="0.2" enable-background="new    " width="0.637" height="4.711"/>
		<rect x="48.465" y="41.322" opacity="0.2" enable-background="new    " width="0.636" height="4.711"/>
		<rect x="52.158" y="41.322" opacity="0.2" enable-background="new    " width="0.636" height="4.711"/>
		<rect x="55.85" y="41.322" opacity="0.2" enable-background="new    " width="0.638" height="4.711"/>
		<rect x="59.544" y="41.322" opacity="0.2" enable-background="new    " width="0.636" height="4.711"/>
		<rect x="63.236" y="41.322" opacity="0.2" enable-background="new    " width="0.637" height="4.711"/>
		<rect x="66.929" y="41.322" opacity="0.2" enable-background="new    " width="0.636" height="4.711"/>
	</g>
</g>
</svg>
