<?xml version="1.0" encoding="utf-8"?>
<!DOCTYPE svg PUBLIC "-//W3C//DTD SVG 1.1//EN" "https://www.w3.org/Graphics/SVG/1.1/DTD/svg11.dtd">
<svg version="1.1" id="Capa_1" xmlns="http://www.w3.org/2000/svg" x="0px" y="0px"
     width="141.232px" height="100.54px" viewBox="0 0 141.232 100.54" enable-background="new 0 0 141.232 100.54"
     xml:space="preserve">
<g>
	<g>
		<path opacity="0.1" fill="#003459" d="M131.34,58.358c-4.856,6.652-3.244,16.152-0.446,23.72
			c0.939,2.533,2.007,5.213,1.519,7.97c-0.593,3.369-3.388,5.893-6.292,7.269c-5.295,2.504-11.552,2.104-16.289-1.053
			c-4.087-2.726-6.965-7.254-11.132-9.849c-6.974-4.342-16.029-2.402-23.789,0.912c-5.491,2.345-11.508,5.365-16.859,3.2
			c-3.766-1.522-6.301-5.4-7.635-9.549c-0.645-2.001-1.096-4.175-2.38-5.741c-0.76-0.931-1.77-1.58-2.81-2.124
			c-9.46-4.954-21.633-1.855-30.807-7.385C8.227,61.993,4.37,54.749,2.773,47.133c-1.604-7.618-1.207-15.658-0.569-23.562
			C2.657,17.955,3.374,11.953,6.751,7.54c3.57-4.668,9.557-6.524,14.907-5.793c5.354,0.733,10.152,3.709,14.351,7.254
			c5.252,4.429,10.083,9.986,16.614,11.664C57.071,21.81,61.796,21,66.42,20.642c7.729-0.596,15.433,0.09,23.089,0.867
			c7.327,0.742,14.705,1.572,21.646,4.009c4.914,1.725,8.807,4.985,13.431,7.21c3.015,1.452,6.33,1.79,9.167,3.665
			c3.5,2.31,6.664,6.403,5.638,11.315C138.42,52.377,133.918,54.825,131.34,58.358z"/>
	</g>
    <g>
		
			<linearGradient id="SVGID_1_" gradientUnits="userSpaceOnUse" x1="420.7522" y1="-207.0801" x2="420.7522"
                            y2="-147.1104" gradientTransform="matrix(1 0 0 -1 -350.1348 -126.8252)">
			<stop offset="0" style="stop-color:#808080;stop-opacity:0.25"/>
                <stop offset="0.54" style="stop-color:#808080;stop-opacity:0.12"/>
                <stop offset="1" style="stop-color:#808080;stop-opacity:0.1"/>
		</linearGradient>
        <path fill="url(#SVGID_1_)" d="M19.076,20.285h103.082c0.769,0,1.391,0.623,1.391,1.391v57.187c0,0.771-0.622,1.393-1.391,1.393
			H19.076c-0.769,0-1.392-0.622-1.392-1.393V21.676C17.685,20.908,18.308,20.285,19.076,20.285z"/>
        <path fill="#FFFFFF" d="M19.243,21.129h102.758c0.769,0,1.392,0.623,1.392,1.391v56.144c0,0.768-0.623,1.393-1.392,1.393H19.243
			c-0.769,0-1.391-0.625-1.391-1.393V22.52C17.853,21.751,18.475,21.129,19.243,21.129z"/>
        <path fill="#FFFFFF" d="M19.243,21.129h102.758c0.769,0,1.392,0.623,1.392,1.391v56.144c0,0.768-0.623,1.393-1.392,1.393H19.243
			c-0.769,0-1.391-0.625-1.391-1.393V22.52C17.853,21.751,18.475,21.129,19.243,21.129z"/>
        <path opacity="0.04" fill="#5A5773" d="M19.243,21.129h102.758c0.769,0,1.392,0.623,1.392,1.391
			v56.144c0,0.768-0.623,1.393-1.392,1.393H19.243c-0.769,0-1.391-0.625-1.391-1.393V22.52
			C17.853,21.751,18.475,21.129,19.243,21.129z"/>
        <path fill="#5A5773" d="M122.86,20.452H18.389c-0.295,0-0.535,0.241-0.535,0.537v2.268h105.539v-2.268
			C123.393,20.693,123.155,20.452,122.86,20.452z"/>
        <g id="_x34_856ee63-6c9d-47e3-9e79-3603b2312fc4">
			<circle fill="#FFFFFF" cx="19.96" cy="21.853" r="0.724"/>
            <circle fill="#FFFFFF" cx="21.91" cy="21.853" r="0.724"/>
            <circle fill="#FFFFFF" cx="23.86" cy="21.853" r="0.724"/>
		</g>
        <path opacity="0.1" fill="#003459" d="M22.099,34.923h93.454c0.683,0,1.237,0.554,1.237,1.237v34.44
			c0,0.683-0.555,1.236-1.237,1.236H22.099c-0.684,0-1.238-0.554-1.238-1.236v-34.44C20.861,35.477,21.415,34.923,22.099,34.923z"/>
        <path fill="#FFFFFF" d="M24.437,31.346l93.425,2.382c0.683,0.017,1.224,0.586,1.207,1.268l-0.88,34.43
			c-0.018,0.685-0.587,1.224-1.268,1.205L23.495,68.25c-0.683-0.017-1.224-0.585-1.204-1.27l0.876-34.429
			C23.186,31.87,23.754,31.329,24.437,31.346z"/>

        <line opacity="0.2" fill="none" stroke="#5A5773" stroke-width="0.1556" stroke-miterlimit="10"
              x1="28.223" y1="35.771" x2="113.849" y2="37.948"/>

        <line opacity="0.2" fill="none" stroke="#5A5773" stroke-width="0.1556" stroke-miterlimit="10"
              x1="28.053" y1="42.459" x2="113.682" y2="44.636"/>

        <line opacity="0.2" fill="none" stroke="#5A5773" stroke-width="0.1556" stroke-miterlimit="10"
              x1="27.884" y1="49.148" x2="113.51" y2="51.327"/>

        <line opacity="0.2" fill="none" stroke="#5A5773" stroke-width="0.1556" stroke-miterlimit="10"
              x1="27.713" y1="55.836" x2="113.339" y2="58.013"/>

        <line opacity="0.2" fill="none" stroke="#5A5773" stroke-width="0.1556" stroke-miterlimit="10"
              stroke-dasharray="1.8671" x1="35.494" y1="54.218" x2="35.281" y2="62.722"/>

        <line opacity="0.2" fill="none" stroke="#5A5773" stroke-width="0.1556" stroke-miterlimit="10"
              x1="27.542" y1="62.525" x2="113.168" y2="64.702"/>

        <line opacity="0.2" fill="none" stroke="#5A5773" stroke-width="0.1556" stroke-miterlimit="10"
              stroke-dasharray="1.8671" x1="44.964" y1="62.967" x2="45.286" y2="50.293"/>
        <path opacity="0.2" fill="#003459" d="M101.608,49.291c-1.526,0.133-3.018-0.725-3.932-1.625
			c-0.945-0.932-1.632-2.079-2.294-3.198c-0.208-0.352-0.429-0.716-0.647-1.069c-1.157-1.832-2.31-3.062-3.631-3.878
			c-0.483-0.297-1.002-0.534-1.544-0.705c-0.054,0.123-0.128,0.234-0.221,0.332c-0.202,0.209-0.474,0.328-0.763,0.335h-0.05
			c-0.535-0.014-0.981-0.418-1.053-0.945c-0.487,0.023-0.972,0.124-1.433,0.295c-1.357,0.511-2.391,1.61-3.328,2.696
			c-1.135,1.31-2.23,2.683-3.25,4.087c-0.211,0.28-0.415,0.565-0.624,0.851c-1.107,1.549-2.253,3.146-3.734,4.396
			c-1.987,1.685-4.383,2.414-6.398,1.944c-2.42-0.562-4.152-2.697-5.391-4.503c-0.154-0.233-0.309-0.466-0.478-0.706
			c-1.154-1.711-2.348-3.479-4.11-4.51c-2.319-1.361-5.523-1.129-7.622,0.554c-1.024,0.822-1.794,1.935-2.54,3.013
			c-0.253,0.371-0.519,0.754-0.791,1.119c-1.4,1.882-2.811,2.904-4.332,3.125c-0.604,0.066-1.213,0.066-1.817,0
			c-0.401-0.028-0.816-0.062-1.223-0.05c-2.062,0.088-3.924,1.25-4.913,3.061l-0.214,8.957l67.265,1.711l0.378-14.819
			c-0.454,0.247-1.02,0.081-1.267-0.371C101.635,49.355,101.619,49.322,101.608,49.291L101.608,49.291z"/>

        <line opacity="0.2" fill="none" stroke="#5A5773" stroke-width="0.1556" stroke-miterlimit="10"
              stroke-dasharray="1.8671" x1="55.441" y1="42.201" x2="54.907" y2="63.221"/>

        <line opacity="0.2" fill="none" stroke="#5A5773" stroke-width="0.1556" stroke-miterlimit="10"
              stroke-dasharray="1.8671" x1="64.822" y1="50.244" x2="64.488" y2="63.463"/>

        <line opacity="0.2" fill="none" stroke="#5A5773" stroke-width="0.1556" stroke-miterlimit="10"
              stroke-dasharray="1.8671" x1="74.151" y1="51.794" x2="73.849" y2="63.704"/>

        <line opacity="0.2" fill="none" stroke="#5A5773" stroke-width="0.1556" stroke-miterlimit="10"
              stroke-dasharray="1.8671" x1="83.206" y1="41.138" x2="82.626" y2="63.924"/>

        <line opacity="0.2" fill="none" stroke="#5A5773" stroke-width="0.1556" stroke-miterlimit="10"
              stroke-dasharray="1.8671" x1="92.42" y1="40.344" x2="91.815" y2="64.16"/>

        <line opacity="0.2" fill="none" stroke="#5A5773" stroke-width="0.1556" stroke-miterlimit="10"
              stroke-dasharray="1.8671" x1="102.625" y1="49.297" x2="102.239" y2="64.423"/>
        <path fill="#003459" d="M89.465,37.762c-0.209-0.2-0.49-0.309-0.777-0.304c-0.53,0.012-0.977,0.4-1.058,0.922
			c-0.009,0.064-0.014,0.126-0.012,0.188c0,0.044,0,0.086,0.01,0.125c0.033,0.245,0.147,0.471,0.325,0.64
			c0.192,0.194,0.451,0.304,0.723,0.312h0.052c0.29-0.008,0.565-0.124,0.766-0.333c0.09-0.098,0.166-0.209,0.219-0.333
			c0.04-0.098,0.066-0.198,0.078-0.303c0.005-0.049,0.005-0.096,0-0.143C89.789,38.244,89.671,37.967,89.465,37.762z M89.41,38.882
			c-0.035,0.077-0.084,0.146-0.141,0.205c-0.299,0.31-0.794,0.316-1.1,0.017c-0.118-0.113-0.197-0.258-0.227-0.418
			c-0.009-0.041-0.014-0.082-0.014-0.124c-0.003-0.061,0.005-0.125,0.019-0.186c0.079-0.348,0.387-0.6,0.745-0.606h0.034
			c0.417,0.008,0.751,0.344,0.76,0.761c0,0.017,0,0.031,0,0.048C89.485,38.686,89.459,38.788,89.41,38.882z"/>
        <circle fill="#003459" cx="102.634" cy="49.093" r="0.934"/>
        <path fill="#003459" d="M87.93,38.562c0,0.042,0.005,0.083,0.014,0.124c-0.104,0-0.21,0-0.311,0.007
			c-0.49,0.026-0.975,0.123-1.436,0.295c-1.356,0.511-2.388,1.611-3.33,2.697c-1.133,1.307-2.229,2.685-3.252,4.084
			c-0.206,0.283-0.41,0.57-0.62,0.855c-1.111,1.545-2.257,3.142-3.737,4.394c-1.988,1.685-4.381,2.411-6.401,1.943
			c-2.419-0.561-4.15-2.701-5.394-4.503c-0.156-0.232-0.32-0.468-0.479-0.703c-1.157-1.713-2.353-3.48-4.114-4.515
			c-2.318-1.361-5.525-1.126-7.622,0.557c-1.012,0.819-1.788,1.934-2.534,3.008c-0.26,0.373-0.521,0.756-0.794,1.121
			c-1.4,1.882-2.812,2.901-4.334,3.125c-0.604,0.064-1.214,0.064-1.816,0c-0.407-0.038-0.815-0.055-1.225-0.05
			c-2.213,0.09-4.187,1.423-5.102,3.442l-0.288-0.123c0.966-2.129,3.047-3.533,5.381-3.633c0.42-0.005,0.84,0.012,1.258,0.052
			c0.58,0.064,1.165,0.064,1.747,0c1.438-0.206,2.787-1.19,4.128-3.001c0.271-0.361,0.532-0.743,0.789-1.111
			c0.757-1.089,1.541-2.227,2.601-3.075c2.292-1.796,5.446-2.024,7.975-0.58c1.823,1.067,3.038,2.866,4.215,4.607
			c0.155,0.233,0.312,0.466,0.478,0.701c1.207,1.758,2.887,3.84,5.206,4.377c1.923,0.446,4.215-0.257,6.131-1.877
			c1.446-1.227,2.581-2.802,3.681-4.339c0.202-0.288,0.41-0.575,0.622-0.858c1.028-1.401,2.127-2.789,3.267-4.105
			c0.967-1.114,2.022-2.245,3.455-2.783c0.496-0.186,1.02-0.288,1.547-0.31c0.104,0,0.212-0.011,0.311,0
			C87.933,38.443,87.927,38.502,87.93,38.562z"/>
        <path fill="#003459" d="M102.689,49.241c-1.826,0.68-3.753-0.338-4.854-1.416c-0.944-0.934-1.632-2.084-2.295-3.203
			c-0.209-0.352-0.429-0.715-0.647-1.066c-1.156-1.835-2.312-3.065-3.634-3.881c-0.485-0.294-1.003-0.534-1.545-0.705
			c-0.1-0.031-0.201-0.06-0.312-0.087c0.049-0.095,0.075-0.196,0.077-0.304c0.103,0.028,0.204,0.057,0.312,0.088
			c0.571,0.18,1.12,0.429,1.63,0.744c1.366,0.839,2.55,2.104,3.732,3.98c0.224,0.354,0.44,0.72,0.654,1.076
			c0.654,1.098,1.33,2.233,2.245,3.137c1.032,1.012,2.838,1.974,4.526,1.345L102.689,49.241z"/>
        <path opacity="0.5" fill="#003459" d="M28.398,34.38l2.892,0.071
			c0.077,0.003,0.138,0.067,0.135,0.146l-0.028,1.119c0,0.079-0.065,0.14-0.143,0.138l-2.894-0.072
			c-0.077-0.005-0.14-0.068-0.136-0.145l0.028-1.12C28.254,34.438,28.319,34.379,28.398,34.38z"/>
        <path fill="#003459" d="M28.224,41.067l2.895,0.074c0.075,0.004,0.138,0.066,0.135,0.142l-0.028,1.119
			c-0.002,0.081-0.065,0.141-0.143,0.141l-2.894-0.076c-0.077-0.002-0.137-0.064-0.136-0.143l0.028-1.119
			C28.082,41.126,28.148,41.065,28.224,41.067z"/>
        <path opacity="0.5" fill="#003459" d="M28.053,47.758l2.894,0.073
			c0.079,0.003,0.141,0.066,0.136,0.146l-0.027,1.116c-0.001,0.078-0.066,0.141-0.144,0.138l-2.895-0.073
			c-0.075-0.003-0.136-0.066-0.135-0.143l0.028-1.122C27.911,47.815,27.977,47.755,28.053,47.758z"/>
        <path opacity="0.5" fill="#003459" d="M27.884,54.444l2.892,0.071
			c0.078,0.005,0.141,0.069,0.137,0.147l-0.028,1.119c-0.001,0.076-0.065,0.138-0.143,0.138l-2.896-0.076
			c-0.076,0-0.137-0.066-0.135-0.143l0.028-1.118C27.741,54.503,27.806,54.444,27.884,54.444z"/>
        <path opacity="0.5" fill="#003459" d="M27.713,61.133l2.893,0.073
			c0.077,0.002,0.14,0.066,0.136,0.143l-0.028,1.121c-0.001,0.076-0.065,0.141-0.143,0.139l-2.895-0.074
			c-0.077-0.002-0.137-0.068-0.137-0.145l0.029-1.122C27.573,61.192,27.635,61.13,27.713,61.133z"/>
        <path opacity="0.5" fill="#003459" d="M33.601,64.086l2.892,0.073
			c0.079,0.003,0.138,0.064,0.136,0.143l-0.026,1.119c-0.002,0.079-0.067,0.138-0.145,0.136l-2.892-0.073
			c-0.08,0-0.141-0.067-0.137-0.143l0.027-1.119C33.458,64.143,33.523,64.083,33.601,64.086z"/>
        <path opacity="0.5" fill="#003459" d="M43.476,64.335l2.893,0.074
			c0.077,0.002,0.14,0.066,0.137,0.143l-0.028,1.121c-0.001,0.078-0.066,0.141-0.143,0.136l-2.894-0.071
			c-0.076-0.005-0.138-0.069-0.136-0.146l0.028-1.119C43.337,64.395,43.399,64.333,43.476,64.335z"/>
        <path fill="#003459" d="M53.069,65.008l2.894,0.086c0.078,0.004,0.139,0.068,0.136,0.145l-0.032,1.121
			c-0.004,0.076-0.066,0.138-0.146,0.134l-2.893-0.086c-0.076-0.002-0.139-0.066-0.137-0.145l0.032-1.119
			C52.926,65.065,52.99,65.005,53.069,65.008z"/>
        <path opacity="0.5" fill="#003459" d="M63,64.834l2.892,0.071c0.078,0.005,0.14,0.066,0.136,0.143
			l-0.029,1.122c0,0.076-0.065,0.138-0.143,0.135l-2.894-0.071c-0.076-0.002-0.137-0.066-0.136-0.143l0.028-1.121
			C62.857,64.894,62.922,64.83,63,64.834z"/>
        <path opacity="0.5" fill="#003459" d="M72.361,65.073l2.893,0.075c0.079,0,0.141,0.064,0.136,0.143
			l-0.026,1.119c-0.002,0.076-0.067,0.141-0.144,0.139l-2.893-0.074c-0.076-0.002-0.14-0.068-0.137-0.145l0.027-1.119
			C72.22,65.131,72.283,65.073,72.361,65.073z"/>
        <path fill="#003459" d="M81.137,65.295l2.895,0.074c0.077,0.002,0.138,0.066,0.135,0.143l-0.027,1.121
			c-0.003,0.076-0.068,0.136-0.143,0.136l-2.895-0.074c-0.077-0.002-0.139-0.066-0.137-0.145l0.029-1.119
			C80.996,65.355,81.061,65.293,81.137,65.295z"/>
        <path fill="#003459" d="M90.391,65.531l2.895,0.074c0.075,0.002,0.138,0.066,0.136,0.145l-0.028,1.119
			c-0.003,0.078-0.068,0.138-0.146,0.138l-2.892-0.076c-0.077,0-0.141-0.066-0.137-0.143l0.027-1.121
			C90.25,65.59,90.316,65.529,90.391,65.531z"/>
        <path fill="#003459" d="M100.489,66.434l2.743,0.078c0.117,0.005,0.212,0.104,0.208,0.226l-0.027,0.965
			c-0.005,0.121-0.104,0.216-0.224,0.212l-2.742-0.084c-0.118,0-0.211-0.102-0.211-0.223l0.03-0.965
			C100.269,66.522,100.368,66.429,100.489,66.434z"/>
	</g>
</g>
</svg>
