<?xml version="1.0" encoding="utf-8"?>
<!-- Generator: Adobe Illustrator 16.0.0, SVG Export Plug-In . SVG Version: 6.00 Build 0)  -->
<!DOCTYPE svg PUBLIC "-//W3C//DTD SVG 1.1//EN" "http://www.w3.org/Graphics/SVG/1.1/DTD/svg11.dtd">
<svg version="1.1" id="Capa_1" xmlns="http://www.w3.org/2000/svg" xmlns:xlink="http://www.w3.org/1999/xlink" x="0px" y="0px"
	 width="141.73px" height="103.159px" viewBox="0 0 141.73 103.159" enable-background="new 0 0 141.73 103.159"
	 xml:space="preserve">
<g>
	<path opacity="0.1" fill="#003459" enable-background="new    " d="M132.013,60.722c-4.891,6.701-3.269,16.267-0.449,23.886
		c0.945,2.551,2.019,5.249,1.527,8.024c-0.597,3.394-3.411,5.934-6.335,7.32c-5.333,2.521-11.632,2.12-16.402-1.061
		c-4.116-2.744-7.014-7.304-11.208-9.917c-7.023-4.372-16.143-2.42-23.956,0.919c-5.529,2.36-11.587,5.402-16.976,3.222
		c-3.792-1.534-6.344-5.438-7.688-9.614c-0.648-2.015-1.103-4.203-2.395-5.782c-0.769-0.937-1.783-1.591-2.829-2.138
		c-9.527-4.989-21.783-1.869-31.022-7.438C8.044,64.384,4.162,57.09,2.55,49.419c-1.613-7.671-1.214-15.766-0.572-23.725
		c0.457-5.656,1.179-11.698,4.58-16.142c3.595-4.701,9.623-6.57,15.012-5.833c5.39,0.739,10.221,3.736,14.45,7.304
		c5.288,4.46,10.152,10.057,16.728,11.746c4.479,1.152,9.238,0.336,13.894-0.024c7.784-0.601,15.54,0.091,23.248,0.873
		c7.379,0.748,14.811,1.584,21.799,4.037c4.946,1.737,8.866,5.02,13.521,7.261c3.037,1.462,6.376,1.802,9.232,3.691
		c3.525,2.326,6.71,6.447,5.675,11.394C139.14,54.7,134.606,57.166,132.013,60.722z"/>
	<g>
		<path fill="#E6E6E6" d="M78.162,52.541c-0.018,0-0.03,0-0.033,0h-2.15v-0.317h2.158c0.05,0.002,1.07,0.03,2.008-1.109
			c1.401-1.699,2.553-5.905,0.077-16.292C76.896,20.853,79.67,8.513,81.018,3.855c0.236-0.821-0.237-1.677-1.06-1.914
			c-0.139-0.04-0.282-0.06-0.429-0.06h-32.12c-0.495,0-0.961,0.237-1.252,0.637c-0.571,0.785-1.353,2.292-1.844,5.02l-0.312-0.057
			c0.501-2.786,1.309-4.338,1.899-5.15c0.353-0.481,0.913-0.767,1.509-0.768h32.12c1.03-0.001,1.866,0.833,1.866,1.861
			c0,0.175-0.025,0.35-0.073,0.518c-1.34,4.633-4.1,16.91-0.791,30.805c2.507,10.534,1.302,14.831-0.151,16.581
			C79.421,52.482,78.365,52.541,78.162,52.541z"/>
		<path fill="#CCCCCC" d="M72.375,58.327c-0.018,0-0.029,0-0.033,0h-2.151V58.01h2.159c0.051,0.004,1.07,0.032,2.009-1.109
			c1.4-1.697,2.549-5.904,0.076-16.292C71.11,26.64,73.883,14.3,75.229,9.643c0.237-0.821-0.236-1.678-1.057-1.914
			c-0.14-0.04-0.285-0.061-0.431-0.061h-32.12c-0.495,0.001-0.96,0.238-1.252,0.638c-0.571,0.785-1.354,2.292-1.845,5.019
			l-0.312-0.056c0.501-2.786,1.31-4.338,1.9-5.15c0.352-0.481,0.912-0.767,1.509-0.769h32.12c1.029,0,1.863,0.833,1.866,1.862
			c0,0.175-0.025,0.349-0.073,0.518c-1.34,4.633-4.1,16.91-0.791,30.804c2.508,10.535,1.302,14.831-0.15,16.581
			C73.634,58.269,72.579,58.327,72.375,58.327z"/>
		<path fill="#3F3D56" d="M66.588,64.116c-0.018,0-0.029,0-0.034,0H34.929c-1.029,0-1.864-0.833-1.864-1.863
			c-0.002-0.236,0.043-0.471,0.132-0.69c1.146-2.866,2.692-9.746,0.147-23.601c-3.005-16.36-0.316-22.272,0.981-24.056
			c0.351-0.482,0.912-0.767,1.509-0.768h32.12c1.03-0.001,1.865,0.833,1.866,1.862c0,0.175-0.025,0.349-0.073,0.518
			c-1.34,4.633-4.099,16.909-0.791,30.804c2.507,10.533,1.302,14.83-0.151,16.581C67.846,64.057,66.791,64.116,66.588,64.116z
			 M35.834,13.456c-0.495,0.001-0.96,0.238-1.252,0.637c-1.272,1.75-3.909,7.573-0.927,23.812
			c2.432,13.236,1.252,20.233-0.166,23.776c-0.193,0.474-0.136,1.014,0.156,1.437c0.288,0.425,0.769,0.682,1.283,0.682h31.633
			c0.049,0.001,1.069,0.03,2.009-1.11c1.4-1.699,2.55-5.903,0.077-16.292c-3.327-13.969-0.553-26.309,0.795-30.966
			c0.236-0.82-0.237-1.677-1.059-1.914c-0.139-0.041-0.284-0.062-0.43-0.061H35.834z"/>
		<path fill="#003459" d="M62.492,27.409H37.28c-0.701,0-1.268-0.568-1.268-1.269c0-0.7,0.567-1.269,1.268-1.269h25.211
			c0.7,0,1.268,0.568,1.268,1.269C63.76,26.841,63.191,27.409,62.492,27.409z"/>
		<path fill="#CCCCCC" d="M62.492,32.8H37.28c-0.701,0-1.268-0.568-1.268-1.269c0-0.701,0.567-1.268,1.268-1.268h25.211
			c0.7,0,1.268,0.567,1.268,1.268C63.76,32.232,63.191,32.8,62.492,32.8z"/>
		<path fill="#CCCCCC" d="M62.492,38.191H37.28c-0.701,0-1.268-0.568-1.268-1.269c0-0.7,0.567-1.268,1.268-1.268h25.211
			c0.7,0,1.268,0.568,1.268,1.268C63.76,37.623,63.191,38.191,62.492,38.191z"/>
		<path fill="#CCCCCC" d="M64.395,43.582H39.183c-0.7,0-1.268-0.568-1.268-1.269c0-0.701,0.568-1.268,1.268-1.268h25.211
			c0.7,0,1.268,0.567,1.268,1.268C65.663,43.014,65.095,43.582,64.395,43.582z"/>
		<path fill="#CCCCCC" d="M64.395,48.973H39.183c-0.7,0-1.268-0.567-1.268-1.268s0.568-1.269,1.268-1.269h25.211
			c0.7,0,1.268,0.568,1.268,1.269S65.095,48.973,64.395,48.973z"/>
		<path fill="#003459" d="M49.172,22.018H37.28c-0.701,0-1.268-0.568-1.268-1.268c0-0.701,0.567-1.269,1.268-1.269h11.892
			c0.701,0,1.269,0.568,1.269,1.269C50.441,21.45,49.874,22.018,49.172,22.018z"/>
		<path fill="#3F3D56" d="M47.636,57.666c0.257-1.085,1.458-1.439,2.443-1.4c0.621,0.043,1.236,0.14,1.841,0.293
			c0.631,0.141,1.257,0.307,1.878,0.485c1.143,0.325,2.272,0.719,3.433,0.973c0.966,0.212,2.015,0.337,2.979,0.045
			c0.926-0.281,1.711-0.974,1.962-1.927c0.239-0.898-0.087-1.883-0.959-2.294c-0.794-0.374-1.798-0.184-2.191,0.663
			c-0.445,0.957-0.001,1.999,0.701,2.689c0.401,0.377,0.838,0.708,1.307,0.992c0.476,0.325,1.005,0.562,1.564,0.702
			c0.918,0.194,2.01-0.093,2.482-0.97c0.105-0.198,0.169-0.417,0.186-0.64c0.029-0.305-0.448-0.304-0.476,0
			c-0.08,0.872-1.102,1.28-1.866,1.185c-0.517-0.086-1.009-0.277-1.447-0.562c-0.423-0.245-0.824-0.529-1.198-0.845
			c-0.648-0.562-1.255-1.483-0.821-2.361c0.355-0.711,1.278-0.705,1.841-0.245c0.68,0.558,0.559,1.567,0.111,2.229
			c-0.498,0.73-1.399,1.037-2.248,1.072c-0.924,0.035-1.839-0.176-2.721-0.428c-1.096-0.311-2.181-0.66-3.282-0.952
			c-0.625-0.168-1.255-0.317-1.893-0.434c-0.602-0.133-1.219-0.176-1.834-0.126c-0.992,0.114-2.005,0.692-2.25,1.726
			C47.108,57.836,47.566,57.962,47.636,57.666L47.636,57.666z"/>
		<path fill="#3F3D56" d="M65.115,57.777c-0.169-0.141-0.191-0.39-0.051-0.559c0.067-0.079,0.163-0.131,0.266-0.14
			c0.865-0.083,1.738,0.006,2.568,0.263l8.453,2.611c0.46,0.142,0.718,0.63,0.576,1.091c-0.142,0.459-0.632,0.718-1.091,0.576
			l-8.453-2.611C66.552,58.754,65.782,58.336,65.115,57.777z"/>
		<path fill="#FFB8B8" d="M99.768,68.624c-0.868-0.364-1.276-1.362-0.913-2.23c0.039-0.093,0.087-0.182,0.141-0.265l-1.45-7.58
			l3.694-0.287l0.222,7.413c0.76,0.565,0.917,1.638,0.353,2.396C101.34,68.706,100.495,68.933,99.768,68.624z"/>
		<path fill="#003459" d="M97.317,64.713l-3.761-17.518c-0.322-1.499,0.631-2.975,2.129-3.297s2.975,0.631,3.297,2.128
			c0,0.001,0,0.002,0,0.003l3.762,17.518c0.082,0.385-0.163,0.763-0.546,0.846l-4.032,0.867C97.78,65.344,97.4,65.099,97.317,64.713
			L97.317,64.713z"/>
		<polygon fill="#FFB8B8" points="91.145,92.269 89.202,92.269 88.275,84.771 91.145,84.771 		"/>
		<path fill="#2F2E41" d="M87.811,91.714h3.752l0,0v2.36l0,0h-6.11l0,0l0,0C85.452,92.771,86.509,91.714,87.811,91.714z"/>
		<polygon fill="#FFB8B8" points="97.646,92.11 95.701,92.11 94.778,84.612 97.646,84.612 		"/>
		<path fill="#2F2E41" d="M94.312,91.556h3.75l0,0v2.359l0,0h-6.111l0,0l0,0C91.951,92.613,93.011,91.556,94.312,91.556z"/>
		<path fill="#2F2E41" d="M88.815,90.871c-0.146-0.121-0.24-0.297-0.255-0.486l-2.262-24.858c-0.035-0.393,0.255-0.739,0.646-0.775
			c0.015,0,0.026-0.002,0.04-0.002l11.331-0.426c0.396-0.015,0.727,0.294,0.74,0.688c0.002,0.018,0.002,0.035,0,0.053L98.15,89.825
			c-0.014,0.36-0.291,0.653-0.648,0.686l-2.285,0.207c-0.393,0.035-0.738-0.252-0.773-0.646c-0.002-0.005-0.004-0.011-0.004-0.018
			l-1.048-15.73c-0.003-0.128-0.106-0.227-0.234-0.224c0,0,0,0-0.003,0l0,0c-0.126-0.003-0.233,0.093-0.237,0.221
			c0,0,0,0.003,0,0.005l-0.938,15.837c-0.021,0.351-0.292,0.635-0.641,0.667l-1.996,0.201C89.15,91.05,88.963,90.992,88.815,90.871z
			"/>
		<circle fill="#FFB8B8" cx="93.175" cy="36.282" r="3.894"/>
		<path fill="#003459" d="M85.675,65.695c-0.139-0.16-0.201-0.373-0.167-0.584c0.721-4.37,0.315-10.792-0.151-15.413
			c-0.248-2.494,0.854-4.93,2.892-6.391l2.035-1.743c0.134-0.115,0.307-0.175,0.484-0.171l5.052,0.145
			c0.184,0.005,0.355,0.08,0.483,0.208l0.781,1.729l0.009,0.006c1.89,1.39,2.955,3.634,2.841,5.977l-0.744,15.369
			c-0.019,0.37-0.318,0.665-0.69,0.68l-12.264,0.431c-0.007,0-0.017,0-0.022,0C86.007,65.938,85.811,65.85,85.675,65.695z"/>
		<path fill="#FFB8B8" d="M70.965,59.28c-0.022-0.94,0.72-1.72,1.662-1.744c0.1-0.001,0.2,0.005,0.3,0.02l6.32-4.424l1.773,3.251
			l-6.672,3.238c-0.204,0.924-1.118,1.506-2.042,1.302C71.533,60.75,70.978,60.072,70.965,59.28L70.965,59.28z"/>
		<path fill="#003459" d="M76.283,60.049c-0.187-0.027-0.354-0.128-0.466-0.281l-2.438-3.324c-0.233-0.318-0.164-0.764,0.153-0.998
			l14.443-10.602c1.235-0.906,2.971-0.64,3.879,0.595c0.907,1.235,0.64,2.973-0.597,3.879l0,0L76.814,59.921
			c-0.121,0.09-0.268,0.138-0.421,0.138C76.356,60.059,76.32,60.055,76.283,60.049z"/>
		<path fill="#2F2E41" d="M93.374,39.749c0.518-0.633,0.46-1.598,0.045-2.302c-0.413-0.704-1.116-1.189-1.841-1.568
			c-0.724-0.378-1.493-0.676-2.176-1.128c-0.679-0.451-0.65-2.36-0.832-3.157l0.434,0.145c-0.168-0.213-0.22-0.842-0.386-1.055
			c0.488,0.049,0.864,0.513,1.353,0.562l-0.281-0.758c1.675-0.102,2.719,1.062,4.396,0.959c0.829-0.052,1.73-0.084,2.413,0.392
			c0.595,0.413,0.895,1.129,1.091,1.825c0.425,1.495,0.49,3.167-0.24,4.539c-0.73,1.37-2.417,2.293-3.889,1.798L93.374,39.749z"/>
		<path fill="#3F3D56" d="M71.994,94.162h37.602c0.086,0,0.16-0.072,0.16-0.158c0-0.089-0.074-0.159-0.16-0.159H71.994
			c-0.088,0-0.159,0.07-0.159,0.159C71.835,94.09,71.906,94.162,71.994,94.162z"/>
	</g>
</g>
</svg>
