<?xml version="1.0" encoding="utf-8"?>
<!-- Generator: Adobe Illustrator 16.0.0, SVG Export Plug-In . SVG Version: 6.00 Build 0)  -->
<!DOCTYPE svg PUBLIC "-//W3C//DTD SVG 1.1//EN" "http://www.w3.org/Graphics/SVG/1.1/DTD/svg11.dtd">
<svg version="1.1" id="Capa_1" xmlns="http://www.w3.org/2000/svg" xmlns:xlink="http://www.w3.org/1999/xlink" x="0px" y="0px"
	 width="141.73px" height="103.159px" viewBox="0 0 141.73 103.159" enable-background="new 0 0 141.73 103.159"
	 xml:space="preserve">
<g>
	<path opacity="0.1" fill="#003459" enable-background="new    " d="M132.012,59.722c-4.889,6.701-3.269,16.267-0.448,23.886
		c0.944,2.551,2.02,5.249,1.528,8.024c-0.6,3.394-3.413,5.934-6.339,7.32c-5.331,2.521-11.631,2.12-16.4-1.061
		c-4.116-2.744-7.015-7.304-11.21-9.917c-7.021-4.372-16.139-2.42-23.954,0.919c-5.529,2.36-11.586,5.402-16.976,3.222
		c-3.791-1.534-6.343-5.438-7.687-9.614c-0.648-2.015-1.103-4.203-2.395-5.782c-0.768-0.937-1.783-1.591-2.829-2.138
		c-9.527-4.989-21.784-1.869-31.021-7.438C8.043,63.384,4.161,56.09,2.549,48.419c-1.613-7.67-1.214-15.765-0.572-23.725
		c0.456-5.656,1.179-11.698,4.579-16.142c3.596-4.7,9.623-6.57,15.013-5.833c5.39,0.739,10.221,3.736,14.45,7.304
		c5.288,4.46,10.152,10.057,16.728,11.746c4.479,1.152,9.238,0.336,13.894-0.024c7.783-0.602,15.539,0.091,23.247,0.873
		c7.379,0.748,14.809,1.584,21.799,4.037c4.946,1.737,8.865,5.02,13.522,7.261c3.034,1.462,6.374,1.802,9.23,3.691
		c3.523,2.325,6.711,6.447,5.677,11.394C139.141,53.7,134.607,56.166,132.012,59.722z"/>
	<g>
		<ellipse fill="#E6E6E6" cx="112.996" cy="73.507" rx="16.424" ry="2.263"/>
		<ellipse fill="#E6E6E6" cx="25.517" cy="73.747" rx="16.472" ry="2.264"/>
		<path fill="#FFB8B8" d="M36.495,39.949l0.424,0.876c0,0,2.405,3.21,0.919,3.712c-1.486,0.505-2.274-3.044-2.274-3.044
			l-0.393-0.498L36.495,39.949z"/>
		<path fill="#575A89" d="M33.725,23.369l0.395-0.167c0,0,0.468,0.167,0.468,0.887c0,0.72-0.576,11.221-0.576,11.221l1.152,5.755
			l-1.583,0.288l-2.445-5.323L33.725,23.369z"/>
		<path fill="#575A89" d="M33.725,23.369l0.395-0.167c0,0,0.468,0.167,0.468,0.887c0,0.72-0.576,11.221-0.576,11.221l3.094,4.964
			l-2.015,1.439l-3.956-5.683L33.725,23.369z"/>
		<path fill="#2F2E41" d="M33.438,40.058c0,0,1.87,0.718,1.727,2.014c-0.145,1.294-2.015,27.048-2.015,27.048l0.576,2.877
			l-5.468,0.144l-0.144-18.56l-3.885,18.56h-5.467l3.885-32.659L33.438,40.058z"/>
		<path fill="#2F2E41" d="M33.006,71.423l1.295,1.294c0,0,3.02,0.575,2.301,1.584c-0.72,1.005-8.202-0.289-8.202-0.289l0.146-2.302
			L33.006,71.423z"/>
		<path fill="#2F2E41" d="M23.654,71.423l1.295,1.294c0,0,3.021,0.575,2.302,1.584c-0.72,1.005-8.2-0.289-8.2-0.289l0.144-2.302
			L23.654,71.423z"/>
		<circle fill="#FFB8B8" cx="28.833" cy="14.737" r="3.453"/>
		<polygon fill="#FFB8B8" points="30.991,16.75 30.704,22.649 26.244,20.06 26.819,16.75 		"/>
		<polygon fill="#CFCCE0" points="26.099,18.621 30.272,21.642 30.991,19.484 32.287,22.938 31.567,29.123 		"/>
		<path fill="#575A89" d="M26.099,18.19l4.605,6.33l0.166-5.288l1.417,1.116v1.151l2.015,1.87l-0.72,7.193l-0.144,8.489
			c0,0,0.864,0.72,0.575,1.151c-0.287,0.432-1.438,1.439-2.733,1.439s-9.352-1.008-9.352-1.583c0-0.576,0.288-8.057,0.288-8.057
			V21.93l3.452-2.59L26.099,18.19z"/>
		<polygon fill="#FFB8B8" points="21.64,42.072 23.51,44.806 24.229,41.642 23.365,41.065 		"/>
		
			<rect x="25.473" y="49.846" transform="matrix(-0.3463 0.9381 -0.9381 -0.3463 86.566 39.6594)" opacity="0.2" enable-background="new    " width="7.985" height="0.289"/>
		<path fill="#2F2E41" d="M26.748,11.356c0,0,0.432-2.158,2.877-1.726l-0.287,0.144c0,0,2.302-0.288,2.014,1.006
			c0,0,1.87,1.152,1.438,2.446c-0.254,0.75-0.446,1.521-0.574,2.302l-0.432-0.432c0,0-0.432-2.877-3.021-2.59
			c-1.943,0.215-2.734,1.133-2.936,1.794c-0.093,0.311-0.213,0.613-0.355,0.904l-0.162,0.036
			C25.309,15.241,24.445,12.075,26.748,11.356z"/>
		<path fill="#575A89" d="M23.798,21.786l-1.311-0.061l-0.272,0.205c-0.312,0.312-0.601,0.649-0.864,1.008
			c-0.287,0.431-4.027,10.934-4.027,10.934c-0.07,0.638,0.029,1.284,0.288,1.87c0.431,1.007,3.884,7.049,3.884,7.049l2.589-1.583
			l-3.452-7.048l2.445-3.454L23.798,21.786z"/>
		<polygon fill="#A0616A" points="108.113,66.927 108.113,70.801 110.438,70.801 110.748,66.927 		"/>
		<polygon fill="#A0616A" points="113.616,67.158 114.548,69.329 116.097,69.947 116.407,65.607 115.167,64.987 		"/>
		<path fill="#2F2E41" d="M115.632,69.018c0,0-0.13-0.978-1.461-0.564l0.221,2.89c0,0-1.085,3.256,0.466,2.945
			c1.55-0.31,2.48-3.254,2.48-3.254l1.084-4.961l-2.62-0.768L115.632,69.018z"/>
		<path fill="#2F2E41" d="M105.867,36.156c0,0-2.171,16.431-1.396,18.292c0.773,1.86,8.911,13.872,8.911,13.872l3.567-4.649
			l-7.983-9.998l7.44-10.231l0.619-6.2L105.867,36.156z"/>
		<polygon fill="#2F2E41" points="114.392,42.048 116.438,43.13 116.407,43.442 111.369,68.632 107.494,67.856 110.051,50.107 		"/>
		<path fill="#2F2E41" d="M107.882,69.64l-0.93,1.395c0,0-2.017,3.408,0.154,3.408s3.1,0,3.256-0.773
			c0.113-0.528,0.268-1.047,0.464-1.551l-0.154-2.016L107.882,69.64z"/>
		<circle fill="#A0616A" cx="113.927" cy="14.92" r="3.41"/>
		<path fill="#A0616A" d="M111.138,16.005c0,0,0.464,2.636-0.932,3.101c-1.395,0.465,1.707,6.665,1.707,6.665l3.562-5.89
			c0,0-0.928-2.016-0.309-2.946L111.138,16.005z"/>
		<path fill="#575A89" d="M111.913,23.137l-0.843-5.051l-1.64,1.02l-4.339,2.479l1.705,7.287l-0.62,4.493
			c0,0-0.776,1.396-0.62,2.016c0.154,0.62-0.156,0.931,0,1.085c0.154,0.154,7.906,1.394,10.23,2.325
			c2.324,0.93,2.635,1.24,2.48,0.465c-0.156-0.775-1.86-4.496-1.86-4.496l1.395-6.2l1.859-5.425l-4.516-4.168L111.913,23.137z"/>
		<path fill="#A0616A" d="M118.577,29.957l1.084,2.944l-2.789,5.116l-0.911,0.709c-0.294,0.228-0.423,0.609-0.327,0.971l0.619,2.351
			l1.622-2.41c0,0,4.422-5.342,4.267-6.737c-0.154-1.394-0.62-3.564-0.62-3.564L118.577,29.957z"/>
		<path fill="#A0616A" d="M103.23,27.476l-0.773,3.876l-2.946,7.285c0,0-3.255,3.1-1.705,3.72c1.551,0.621,3.41-3.099,3.41-3.099
			l3.72-6.976l1.396-4.185L103.23,27.476z"/>
		<path fill="#575A89" d="M117.958,22.826l1.247-0.112l0.456,0.423c0,0,2.636,5.89,2.326,6.509c-0.31,0.621-3.41,0.932-3.41,0.932
			l-1.239-3.72L117.958,22.826z"/>
		<path fill="#575A89" d="M106.177,21.741l-0.771-0.336l-0.314,0.18c0,0-3.101,6.201-2.325,6.511
			c0.775,0.309,4.495,0.776,4.495,0.776L106.177,21.741z"/>
		<polygon opacity="0.2" enable-background="new    " points="109.431,54.41 108.486,60.968 107.607,59.616 		"/>
		<path fill="#2F2E41" d="M116.145,12.902c0,0,0.343,0.903-1.252,0.439c0,0-0.631,0.308-0.594-0.218c0,0-0.871,0.82-1.037,0.28
			c-0.166-0.539-0.618,0.132-0.618,0.132l-0.345-0.903l-0.44,0.498l-1.416-0.1c0,0-0.16-3.531,4.67-2.841
			c4.833,0.689,2.055,6.072,2.055,6.072s0.031-1-0.41-0.502C116.315,16.256,116.145,12.902,116.145,12.902z"/>
		<path fill="#003459" d="M37.645,40.741v14.885H99.82V40.741H37.645z M74.897,53.129H41.489v-2.098h33.408V53.129z M74.897,49.232
			H41.489v-2.096h33.408V49.232z M95.975,45.337H41.489v-2.098h54.485V45.337z"/>
		<polygon fill="#3F3D56" points="71.913,34.172 63.522,34.172 63.522,25.781 69.216,25.781 69.216,25.979 63.722,25.979 
			63.722,33.971 71.713,33.971 71.713,29.977 71.913,29.977 		"/>
		<path fill="#003459" d="M67.674,31.983c-0.193-0.573-2.625-2.52-1.136-2.845l1.223,1.627l5.618-5.617l0.565,0.565L67.674,31.983z"
			/>
	</g>
</g>
</svg>
