<?xml version="1.0" encoding="utf-8"?>
<!-- Generator: Adobe Illustrator 16.0.0, SVG Export Plug-In . SVG Version: 6.00 Build 0)  -->
<!DOCTYPE svg PUBLIC "-//W3C//DTD SVG 1.1//EN" "http://www.w3.org/Graphics/SVG/1.1/DTD/svg11.dtd">
<svg version="1.1" id="Capa_1" xmlns="http://www.w3.org/2000/svg" xmlns:xlink="http://www.w3.org/1999/xlink" x="0px" y="0px"
	 width="141.73px" height="103.159px" viewBox="0 0 141.73 103.159" enable-background="new 0 0 141.73 103.159"
	 xml:space="preserve">
<g>
	<path opacity="0.1" fill="#003459" enable-background="new    " d="M132.013,59.722c-4.891,6.701-3.269,16.268-0.449,23.887
		c0.945,2.551,2.019,5.248,1.527,8.023c-0.597,3.395-3.411,5.934-6.335,7.32c-5.333,2.521-11.632,2.119-16.402-1.061
		c-4.116-2.744-7.014-7.303-11.208-9.916c-7.023-4.373-16.143-2.42-23.956,0.918c-5.529,2.361-11.587,5.402-16.976,3.223
		c-3.792-1.535-6.344-5.439-7.688-9.615c-0.648-2.014-1.103-4.203-2.395-5.781c-0.769-0.938-1.783-1.592-2.829-2.139
		c-9.527-4.989-21.783-1.869-31.022-7.438C8.044,63.384,4.162,56.09,2.55,48.419c-1.613-7.67-1.214-15.765-0.572-23.725
		c0.457-5.656,1.179-11.698,4.58-16.142c3.595-4.701,9.623-6.57,15.012-5.833c5.39,0.739,10.221,3.736,14.45,7.304
		c5.288,4.46,10.152,10.057,16.728,11.746c4.479,1.152,9.238,0.336,13.894-0.024c7.784-0.601,15.54,0.091,23.248,0.873
		c7.379,0.748,14.811,1.584,21.799,4.037c4.946,1.737,8.866,5.02,13.521,7.261c3.037,1.462,6.376,1.802,9.232,3.691
		c3.525,2.326,6.71,6.447,5.675,11.394C139.14,53.7,134.606,56.166,132.013,59.722z"/>
	<g>
		<rect x="37.235" y="49.605" fill="#3F3D56" width="6.387" height="23.462"/>
		<rect x="38.409" y="49.605" fill="#003459" width="6.387" height="23.462"/>
		<rect x="52.356" y="33.052" fill="#3F3D56" width="6.387" height="40.016"/>
		<rect x="53.528" y="33.052" fill="#003459" width="6.388" height="40.016"/>
		<rect x="67.476" y="16.497" fill="#3F3D56" width="6.388" height="56.571"/>
		<rect x="68.648" y="16.497" fill="#003459" width="6.388" height="56.571"/>
		<rect x="34.47" y="72.922" fill="#3F3D56" width="89.611" height="0.292"/>
		<circle fill="#2F2E41" cx="111.579" cy="15.661" r="4.437"/>
		<path fill="#FFB9B9" d="M100.846,44.859l-0.239,1.438c0,0-1.319,4.917,0.36,4.677c1.678-0.239,1.078-4.436,1.078-4.436
			l0.239-1.319L100.846,44.859z"/>
		<path fill="#2F2E41" d="M115.655,38.084h-9.714c0,0-2.758,4.316-1.678,11.871s0.599,24.46,0.599,24.46h3.72l2.517-26.499
			l5.274,26.499l3.479-0.357l-1.919-30.578L115.655,38.084z"/>
		<path fill="#2F2E41" d="M105.883,73.997l-0.12,4.438c0,0-1.56,4.436,0.72,3.957c2.277-0.479,2.517-1.439,2.517-1.799
			c0-0.361-0.6-6.596-0.6-6.596H105.883z"/>
		<path fill="#2F2E41" d="M119.243,73.659l0.686,4.746c0,0,2.115,4.199-0.207,4.018c-2.321-0.186-2.682-1.107-2.728-1.465
			c-0.047-0.357-0.249-6.977-0.249-6.977L119.243,73.659z"/>
		<circle fill="#FFB9B9" cx="111.638" cy="16.8" r="3.238"/>
		<polygon fill="#FFB9B9" points="114.096,18.179 115.415,22.736 112.776,25.373 111.338,22.856 110.859,19.258 		"/>
		<path fill="#E6E6E6" d="M115.236,21.237c0,0-0.178-1.211-0.569-1.085c-0.392,0.125-3.868,0.964-3.868,1.324v1.559l-2.878,11.152
			l-0.719,4.556l7.554-0.121l1.198-15.828L115.236,21.237z"/>
		<path fill="#2F2E41" d="M114.576,19.978l0.839,0.239l1.38,1.379c0,0,3.357-0.599,3.836,0.96
			c0.479,1.558-2.639,20.984-2.639,20.984s-5.274,1.798-6.115-2.757c-0.839-4.557-0.778-8.454,0.899-11.332
			C114.456,26.573,114.576,19.978,114.576,19.978z"/>
		<path fill="#2F2E41" d="M111.097,21.047l-0.479,0.25l-0.419,1.858c0,0-3.478,0.958-3.717,2.278
			c-0.241,1.319,0.12,8.515,0.12,8.515s-3.358,6.834-2.758,9.711c0,0,1.438,1.199,2.517-0.36c1.08-1.558,3.718-10.912,3.838-11.511
			C110.32,31.189,111.636,21.218,111.097,21.047z"/>
		<polygon fill="#2F2E41" points="107.8,24.954 106.518,25.303 105.644,27.832 103.845,34.307 100.367,44.979 102.766,46.058 
			106.603,38.264 		"/>
		<path fill="#2F2E41" d="M114.096,16.38c-2.061-0.744-2.76-1.201-5.035,0l-0.84-3.358h6.716L114.096,16.38z"/>
		<circle fill="#2F2E41" cx="111.218" cy="10.985" r="2.518"/>
		<path fill="#2F2E41" d="M108.221,10.384c0-1.342,1.057-2.449,2.397-2.512c-0.04-0.001-0.078-0.005-0.119-0.005
			c-1.391,0-2.518,1.127-2.518,2.518c0,1.391,1.127,2.519,2.518,2.519c0.041,0,0.079-0.004,0.119-0.006
			C109.277,12.834,108.221,11.728,108.221,10.384z"/>
		<rect x="106.271" y="45.291" fill="#003459" width="9.354" height="3.979"/>
		<rect x="106.271" y="45.291" opacity="0.1" enable-background="new    " width="9.354" height="3.979"/>
		<circle opacity="0.2" enable-background="new    " cx="110.947" cy="47.28" r="1.095"/>
		<polygon opacity="0.2" enable-background="new    " points="108.46,48.972 106.668,48.972 106.668,45.589 108.56,45.589 
			108.56,45.788 106.867,45.788 106.867,48.772 108.46,48.772 		"/>
		<polygon opacity="0.2" enable-background="new    " points="115.225,48.972 113.434,48.972 113.434,48.772 115.025,48.772 
			115.025,45.788 113.335,45.788 113.335,45.589 115.225,45.589 		"/>
		
			<rect x="105.911" y="46.969" transform="matrix(-0.9545 0.2981 -0.2981 -0.9545 230.7416 62.7268)" fill="#003459" width="9.353" height="3.98"/>
		<circle opacity="0.2" enable-background="new    " cx="110.587" cy="48.959" r="1.094"/>
		<polygon opacity="0.2" enable-background="new    " points="108.717,51.315 107.007,51.849 105.999,48.62 107.803,48.056 
			107.862,48.246 106.248,48.751 107.138,51.6 108.658,51.125 		"/>
		<polygon opacity="0.2" enable-background="new    " points="115.176,49.298 113.466,49.833 113.406,49.642 114.927,49.167 
			114.036,46.318 112.423,46.823 112.361,46.632 114.167,46.069 		"/>
		<path fill="#FFB9B9" d="M115.612,42.874l-0.549,1.352c0,0-1.449,4.88-2.754,3.796c-1.305-1.082,1.401-4.344,1.401-4.344
			l0.486-1.25L115.612,42.874z"/>
		<path fill="#2F2E41" d="M118.952,22.916l1.679-0.36c0.239,0.706,0.432,1.428,0.579,2.158c0.24,1.199-0.13,10.672-0.37,11.631
			c-0.239,0.959-4.588,7.351-4.588,7.351l-3.914-0.85l5.654-8.54L118.952,22.916z"/>
		<polygon opacity="0.2" enable-background="new    " points="118.05,29.01 117.008,34.746 113.096,42.697 116.616,34.355 		"/>
	</g>
</g>
</svg>
