<?xml version="1.0" encoding="utf-8"?>
<!-- Generator: Adobe Illustrator 16.0.0, SVG Export Plug-In . SVG Version: 6.00 Build 0)  -->
<!DOCTYPE svg PUBLIC "-//W3C//DTD SVG 1.1//EN" "http://www.w3.org/Graphics/SVG/1.1/DTD/svg11.dtd">
<svg version="1.1" id="Capa_1" xmlns="http://www.w3.org/2000/svg" xmlns:xlink="http://www.w3.org/1999/xlink" x="0px" y="0px"
	 width="141.73px" height="103.159px" viewBox="0 0 141.73 103.159" enable-background="new 0 0 141.73 103.159"
	 xml:space="preserve">
<g>
	<path opacity="0.1" fill="#003459" enable-background="new    " d="M132.012,59.722c-4.889,6.701-3.269,16.266-0.448,23.885
		c0.944,2.551,2.02,5.249,1.528,8.024c-0.6,3.394-3.413,5.934-6.339,7.32c-5.331,2.521-11.631,2.119-16.4-1.061
		c-4.116-2.744-7.015-7.304-11.21-9.917c-7.021-4.372-16.139-2.42-23.954,0.919c-5.529,2.36-11.586,5.402-16.976,3.222
		c-3.791-1.534-6.343-5.438-7.687-9.614c-0.648-2.015-1.103-4.203-2.395-5.782c-0.768-0.937-1.783-1.591-2.829-2.138
		c-9.527-4.989-21.784-1.869-31.021-7.437C8.043,63.384,4.161,56.09,2.549,48.419c-1.613-7.67-1.214-15.765-0.572-23.725
		c0.456-5.656,1.179-11.698,4.579-16.142c3.596-4.701,9.623-6.57,15.013-5.833c5.39,0.739,10.221,3.736,14.45,7.304
		c5.288,4.46,10.152,10.057,16.728,11.746c4.479,1.151,9.238,0.336,13.894-0.024c7.783-0.602,15.539,0.091,23.247,0.873
		c7.379,0.748,14.809,1.583,21.799,4.037c4.946,1.737,8.865,5.02,13.522,7.26c3.034,1.463,6.374,1.803,9.23,3.691
		c3.523,2.325,6.711,6.447,5.677,11.393C139.141,53.701,134.607,56.167,132.012,59.722z"/>
	<g>
		<path fill="#3F3D56" d="M66.37,26.527H37.816c-0.293,0-0.528-0.237-0.529-0.529v-7.083c0-0.292,0.236-0.528,0.529-0.529H66.37
			c0.292,0.001,0.529,0.237,0.529,0.529v7.083C66.898,26.291,66.662,26.527,66.37,26.527z M37.816,18.599
			c-0.176,0-0.317,0.142-0.317,0.316v7.083c0,0.175,0.142,0.317,0.317,0.317H66.37c0.174,0,0.316-0.142,0.317-0.317v-7.083
			c-0.001-0.175-0.144-0.316-0.317-0.316H37.816z"/>
		<circle fill="#003459" cx="42.252" cy="22.185" r="2.154"/>
		<path fill="#E6E6E6" d="M47.227,20.75c-0.198,0-0.358,0.161-0.358,0.359c0,0.199,0.16,0.359,0.358,0.359h16.924
			c0.199,0,0.359-0.161,0.358-0.36c0-0.198-0.16-0.358-0.358-0.358H47.227z"/>
		<path fill="#E6E6E6" d="M47.227,22.903c-0.198,0-0.359,0.161-0.359,0.359s0.161,0.359,0.359,0.359h7.283
			c0.198,0,0.359-0.16,0.359-0.359c0-0.198-0.16-0.359-0.358-0.359h0H47.227z"/>
		<g>
			<path fill="#E6E6E6" d="M69.674,55.199c-0.197,0-0.357,0.159-0.357,0.357c0,0.197,0.16,0.36,0.357,0.36h3.339
				c0.198,0,0.359-0.163,0.357-0.36c0-0.198-0.16-0.357-0.357-0.357H69.674z"/>
			<path fill="#E6E6E6" d="M69.674,57.352c-0.197,0-0.358,0.159-0.358,0.357c0,0.197,0.161,0.36,0.358,0.36h2.432
				c0.198,0,0.359-0.16,0.359-0.36c0-0.198-0.16-0.357-0.358-0.357h-0.001H69.674z"/>
		</g>
		<path fill="#3F3D56" d="M53.974,51.775H41.283c-0.292-0.001-0.529-0.237-0.529-0.529V38.029c0-0.292,0.237-0.529,0.529-0.529
			h12.691c0.291,0,0.528,0.237,0.528,0.529v13.217C54.501,51.538,54.265,51.774,53.974,51.775z M41.283,37.712
			c-0.175,0-0.317,0.142-0.317,0.317v13.217c0,0.175,0.142,0.316,0.317,0.317h12.691c0.174-0.001,0.317-0.143,0.317-0.317V38.029
			c0-0.175-0.143-0.317-0.317-0.317H41.283z"/>
		<path fill="#E6E6E6" d="M43.986,40.226c-0.198,0-0.358,0.161-0.358,0.36c0,0.198,0.161,0.358,0.358,0.358h7.283
			c0.199,0,0.359-0.161,0.358-0.359c0-0.198-0.16-0.359-0.358-0.359H43.986z"/>
		<path fill="#E6E6E6" d="M43.986,42.341c-0.198,0-0.358,0.16-0.359,0.359c0,0.198,0.16,0.359,0.359,0.359l0,0h7.283
			c0.199,0,0.359-0.16,0.359-0.359c0-0.198-0.16-0.359-0.359-0.359H43.986z"/>
		<path fill="#003459" d="M47.628,49.049c-1.249,0-2.26-1.011-2.26-2.259s1.011-2.259,2.26-2.259c1.248,0,2.26,1.011,2.26,2.259l0,0
			C49.886,48.037,48.876,49.048,47.628,49.049z"/>
		<path fill="#003459" d="M65.917,58.893c-1.249,0-2.261-1.012-2.261-2.259s1.012-2.259,2.261-2.259
			c1.247,0,2.259,1.012,2.259,2.259l0,0C68.175,57.881,67.165,58.893,65.917,58.893z"/>
		<path fill="#3F3D56" d="M74.761,7.884h12.691c0.292,0,0.528,0.237,0.528,0.529v13.216c0,0.292-0.236,0.529-0.528,0.529H74.761
			c-0.29,0-0.528-0.237-0.528-0.529V8.413C74.232,8.121,74.471,7.884,74.761,7.884z M87.452,21.946c0.174,0,0.317-0.142,0.317-0.317
			V8.413c0-0.176-0.144-0.317-0.317-0.317H74.761c-0.174,0-0.315,0.142-0.315,0.317v13.216c0,0.176,0.142,0.317,0.315,0.317H87.452z
			"/>
		<path fill="#E6E6E6" d="M84.749,19.433c0.197,0,0.358-0.16,0.358-0.359s-0.161-0.359-0.358-0.359l0,0h-7.283
			c-0.199,0-0.358,0.16-0.36,0.359c0,0.198,0.161,0.359,0.36,0.359l0,0H84.749z"/>
		<path fill="#E6E6E6" d="M84.749,17.318c0.197,0,0.358-0.161,0.358-0.359c0-0.199-0.161-0.359-0.358-0.36l0,0h-7.283
			c-0.199,0-0.358,0.16-0.36,0.359c0,0.198,0.161,0.359,0.36,0.36l0,0H84.749z"/>
		<path fill="#003459" d="M81.107,10.609c1.249,0,2.26,1.012,2.26,2.26s-1.011,2.259-2.26,2.259s-2.26-1.011-2.26-2.259l0,0
			C78.849,11.622,79.86,10.61,81.107,10.609z"/>
		<path fill="#3F3D56" d="M37.451,35.227c2.246-1.74,4.869-2.925,7.657-3.462c2.813-0.536,5.712-0.387,8.454,0.434
			c1.378,0.411,2.702,0.984,3.943,1.709c1.266,0.74,2.41,1.651,3.509,2.615c1.115,0.977,2.192,1.997,3.356,2.917
			c3.321,2.655,7.445,4.105,11.697,4.114c0.353,0.001,0.703-0.009,1.054-0.028c0.188-0.011,0.191-0.308,0-0.298
			c-4.336,0.239-8.615-1.054-12.092-3.653c-1.207-0.902-2.306-1.933-3.431-2.932c-1.089-0.969-2.209-1.911-3.445-2.689
			c-6.183-3.895-14.095-3.714-20.093,0.458c-0.28,0.194-0.552,0.397-0.82,0.606C37.089,35.134,37.301,35.343,37.451,35.227
			L37.451,35.227z"/>
		<circle fill="#3F3D56" cx="37.292" cy="35.119" r="1.544"/>
		<circle fill="#3F3D56" cx="94.742" cy="55.623" r="1.544"/>
		<path fill="#3F3D56" d="M102.834,46.826h-25.2c-0.292-0.001-0.528-0.237-0.528-0.529V33.186c0-0.292,0.236-0.528,0.528-0.529h25.2
			c0.29,0.001,0.526,0.237,0.527,0.529v13.111C103.36,46.589,103.124,46.825,102.834,46.826z M77.634,32.869
			c-0.174,0.001-0.316,0.143-0.317,0.317v13.111c0.001,0.175,0.144,0.316,0.317,0.317h25.2c0.174-0.001,0.315-0.143,0.315-0.317
			V33.186c0-0.175-0.142-0.316-0.315-0.317H77.634z"/>
		<circle fill="#003459" cx="81.858" cy="37.302" r="2.154"/>
		<path fill="#E6E6E6" d="M86.835,35.866c-0.199,0-0.36,0.16-0.36,0.359c0,0.198,0.159,0.359,0.357,0.36h0.003h13.567
			c0.198,0,0.357-0.161,0.357-0.36c0-0.198-0.159-0.359-0.357-0.359l0,0H86.835z"/>
		<path fill="#E6E6E6" d="M86.835,38.02c-0.199,0-0.36,0.16-0.36,0.359c0,0.198,0.159,0.359,0.357,0.359h0.003h7.281
			c0.2,0,0.359-0.161,0.359-0.359c0-0.198-0.159-0.359-0.359-0.359H86.835z"/>
		<path fill="#E6E6E6" d="M80.206,41.463c-0.271,0-0.494,0.161-0.494,0.359s0.223,0.359,0.494,0.359H100.2
			c0.274,0,0.496-0.161,0.496-0.359s-0.222-0.359-0.496-0.359H80.206z"/>
		<path fill="#E6E6E6" d="M80.206,43.618c-0.271,0-0.494,0.161-0.494,0.359s0.223,0.359,0.494,0.359H100.2
			c0.274,0,0.496-0.161,0.496-0.359s-0.222-0.359-0.496-0.359H80.206z"/>
		<path fill="#3F3D56" d="M75.609,57.062c1.421-0.619,3.008-0.08,4.348,0.487c0.689,0.294,1.372,0.606,2.087,0.836
			c0.602,0.194,1.217,0.342,1.841,0.438c1.252,0.191,2.526,0.199,3.78,0.022c1.26-0.176,2.488-0.533,3.646-1.06
			c1.152-0.523,2.218-1.219,3.158-2.063c0.12-0.109,0.236-0.221,0.352-0.332c0.137-0.134-0.073-0.345-0.211-0.211
			c-0.904,0.882-1.942,1.616-3.078,2.174c-1.131,0.556-2.335,0.943-3.579,1.15c-1.244,0.209-2.518,0.231-3.771,0.063
			c-0.623-0.084-1.24-0.218-1.844-0.401c-0.695-0.225-1.375-0.488-2.038-0.791c-1.353-0.581-2.855-1.148-4.342-0.748
			c-0.169,0.046-0.337,0.106-0.498,0.177C75.284,56.879,75.436,57.135,75.609,57.062L75.609,57.062z"/>
		<path fill="#3F3D56" d="M75.07,60.705H62.381c-0.293,0-0.529-0.237-0.53-0.529v-7.083c0.001-0.292,0.237-0.529,0.53-0.529H75.07
			c0.292,0,0.529,0.237,0.529,0.529v7.083C75.6,60.467,75.362,60.705,75.07,60.705z M62.381,52.775
			c-0.176,0-0.317,0.142-0.317,0.317v7.083c0,0.175,0.142,0.317,0.317,0.317H75.07c0.175,0,0.317-0.143,0.317-0.317v-7.083
			c0-0.175-0.143-0.317-0.317-0.317H62.381z"/>
		<path fill="#FFB8B8" d="M99.963,54.471l-2.262,1.148c-0.81,0.408-1.589,0.338-1.886-0.517l0,0
			c-0.272-0.778,0.139-1.632,0.919-1.904c0.07-0.025,0.144-0.044,0.219-0.059l2.148-0.401l9.209-3.054l5.577-3.955l2.045,3.257
			l-6.444,3.478L99.963,54.471z"/>
		<polygon fill="#FFB8B8" points="110.521,92.598 108.789,92.309 108.984,89.039 110.809,89.039 		"/>
		<polygon fill="#FFB8B8" points="127.317,89.404 125.643,89.927 124.341,86.922 125.972,86.099 		"/>
		<path fill="#2F2E41" d="M126.386,86.541l-2.114,0.864l-10.097-13.268l-3.173,15.574l-2.115-0.383
			c-1.357-13.431-2.464-27.125-1.105-33.604l7.835-0.337l3.557,11.346l1.732,7.691L126.386,86.541z"/>
		<path fill="#2F2E41" d="M110.426,95.24L110.426,95.24c-0.315,0.068-0.647,0.033-0.942-0.099l-1.029-0.463
			c-0.861-0.045-1.448,0.128-1.927-0.499c-0.275-0.365-0.331-0.851-0.147-1.269l0,0c0.183-0.419,0.578-0.708,1.035-0.753l1.413-0.89
			l0.073,0.667c0.645,0.366,1.411,0.207,2.224-0.147l0.443,1.551c0.229,0.808-0.236,1.646-1.043,1.878
			C110.493,95.226,110.46,95.233,110.426,95.24z"/>
		<path fill="#2F2E41" d="M128.004,92.06L128.004,92.06c-0.278,0.166-0.601,0.239-0.922,0.211l-1.125-0.104
			c-0.828,0.237-1.329,0.592-1.985,0.154c-0.38-0.255-0.591-0.695-0.551-1.151l0,0c0.037-0.456,0.317-0.858,0.733-1.048l1.048-1.301
			l0.287,0.606c0.728,0.138,1.401-0.262,2.055-0.861l0.922,1.324c0.48,0.686,0.312,1.633-0.376,2.113
			C128.061,92.023,128.032,92.041,128.004,92.06z"/>
		<circle fill="#FFB8B8" cx="112.732" cy="38.273" r="3.461"/>
		<polygon fill="#FFB8B8" points="116.963,45.581 112.445,44.619 111.866,40.87 115.039,40.196 		"/>
		<path fill="#003459" d="M115.712,55.869h-8.074l1.818-4.571c-0.131-1.573,0.536-2.729,1.49-3.736l1.209-3.039
			c1.955-1.287,3.429-1.191,5,0.481C119.017,47.64,117.729,51.601,115.712,55.869z"/>
		<path fill="#FFB8B8" d="M112.06,65.58l-0.229,2.526c-0.083,0.902-0.556,1.524-1.439,1.323l0,0
			c-0.804-0.185-1.308-0.985-1.123-1.792c0.015-0.074,0.039-0.144,0.065-0.214l0.803-2.035l2.31-9.424l-0.386-6.826h3.847
			l-0.481,7.308L112.06,65.58z"/>
		<path fill="#003459" d="M116.193,49.331h-4.423l0.312-2.885c0.041-1.035,0.864-1.866,1.897-1.917l0,0
			c1.105-0.056,2.045,0.794,2.1,1.899c0,0.007,0.001,0.015,0.003,0.021L116.193,49.331z"/>
		<circle fill="#2F2E41" cx="117.017" cy="33.413" r="1.301"/>
		<path fill="#2F2E41" d="M115.676,33.095c0.044-0.685,0.613-1.218,1.3-1.216c-0.025-0.003-0.053-0.007-0.08-0.01
			c-0.718-0.045-1.337,0.499-1.381,1.216c-0.045,0.716,0.497,1.334,1.215,1.381c0.025,0.002,0.055,0.001,0.08,0.001
			C116.13,34.381,115.632,33.78,115.676,33.095z"/>
		<path fill="#2F2E41" d="M115.667,33.65c-1.157-0.963-4.488,0.261-4.702,0.908c-1.569,0.214-2.756,1.129-2.756,2.757l0,0
			c0.932,0.382,1.994,0.335,3.139,0c1.83,1.49,1.956,3.363,0.843,5.514l1.368,0.027l1.695-2.478l0.082,2.514l3.136-0.063v-3.603
			c0.01-1.198-0.267-2.38-0.804-3.45C117.178,34.828,116.42,34.274,115.667,33.65z"/>
		<ellipse fill="#FFB8B8" cx="112.748" cy="39.144" rx="0.622" ry="0.871"/>
		<path fill="#FFB9B9" d="M34.468,40.249c0,0,0.374-6.482,2.318-5.009s-0.849,5.61-0.849,5.61L34.468,40.249z"/>
		<path fill="#FFB9B9" d="M27.233,59.476c0,0,4.319,4.85,1.903,5.183s-3.367-4.566-3.367-4.566L27.233,59.476z"/>
		<path fill="#575A89" d="M21.597,36.527L21.597,36.527c1.109,0.291,1.935,1.219,2.094,2.355l1.374,9.778l1.925,7.799
			c0,0,0.962,0.868,0.578,1.35c-0.385,0.481,0.48,2.504,0.48,2.504l-2.407,0.77c0,0-0.288-2.023-0.77-2.119
			c-0.423-0.082-5.16-12.737-6.302-15.803c-0.157-0.422-0.246-0.663-0.246-0.663S18.517,36.045,21.597,36.527z"/>
		<path fill="#FFB9B9" d="M22.037,87.519l1.479,2.621c1.145,2.443,0.127,2.889-2.68,1.676l-0.64-3.093L22.037,87.519z"/>
		<path fill="#2F2E41" d="M22.783,91.001c0,0,0.703-1.143,0.956-0.951c0.254,0.191,1.302,1.021,1.302,1.021l1.364,1.306
			c0,0,4.608,0.487,1.68,2.102c-2.929,1.614-4.546,0.276-4.546,0.276s-4.102,0.214-4.036-0.93c0.066-1.146,1.389-2.956,1.389-2.956
			S22.559,91.986,22.783,91.001z"/>
		<path fill="#2F2E41" d="M15.476,57.899l1.387,16.775c0,0,0.046,10.026,1.525,11.966c1.479,1.941,1.525,2.913,1.525,2.913
			l3.05-1.573c0,0-1.571-2.616-1.248-3.018c0.199-0.256,0.341-0.549,0.416-0.863l-0.832-10.351l1.571-18.02L15.476,57.899z"/>
		<path fill="none" stroke="#3F3D56" stroke-width="0.1198" stroke-miterlimit="10" d="M17.602,89.553"/>
		<polygon fill="#FFB9B9" points="19.265,87.519 17.971,90.937 15.037,89.712 16.585,87.148 		"/>
		<path fill="#2F2E41" d="M17.106,89.785c0,0,1.101-0.686,1.239-0.411c0.137,0.274,0.687,1.444,0.687,1.444l0.618,1.72
			c0,0,3.784,2.405,0.551,2.544c-3.234,0.138-4.058-1.719-4.058-1.719s-3.646-1.583-3.095-2.545c0.55-0.963,2.476-1.962,2.476-1.962
			S16.488,90.543,17.106,89.785z"/>
		<path fill="#2F2E41" d="M27.213,57.945l0.739,15.434c0,0-6.747,13.955-7.486,14.324c-0.445,0.23-0.778,0.631-0.924,1.109
			l-4.066-1.018l1.849-2.958l4.066-9.888c0,0,0.646-0.275,0.832-1.201c0.185-0.925,0.554-0.925-0.37-1.109
			c-0.923-0.186-0.923-1.107-0.923-1.107l-3.05-14.049L27.213,57.945z"/>
		<circle fill="#FFB9B9" cx="23.886" cy="30.035" r="3.697"/>
		<path fill="#FFB9B9" d="M20.604,30.266c0,0-0.277,4.713-0.646,5.175c-0.37,0.462,3.881,0.37,3.881,0.37s-0.277-3.974,0-4.343
			C24.117,31.098,20.604,30.266,20.604,30.266z"/>
		<path fill="#575A89" d="M27.489,58.962c0,0-10.443-0.925-12.383,0c0,0,0.714-2.65,0.53-2.928c-0.135-0.201,0.236-7.75,0.12-12.104
			c-0.066-2.457-0.633-4.856,1.014-6.68c0.562-0.62,1.187-1.14,1.847-1.393c0,0-0.184-1.756,0.739-1.849c0,0,3.513-0.37,4.806,0.74
			c0.414,0.352,0.674,1.426,0.7,2.351c-0.639,3.147-0.413,6.64,0.174,10.262c0.036,0.231,0.076,0.462,0.115,0.693
			C25.775,51.648,26.718,55.352,27.489,58.962z"/>
		<path fill="#2F2E41" d="M21.955,31.125c0.312-0.019,0.618,0.087,0.928,0.128c1.111,0.147,2.267-0.659,2.512-1.752
			c0.02-0.145,0.063-0.286,0.128-0.418c0.171-0.279,0.561-0.333,0.881-0.269c0.322,0.064,0.625,0.214,0.953,0.232
			c0.504,0.026,0.99-0.285,1.257-0.712c0.254-0.442,0.363-0.952,0.31-1.459l-0.242,0.254c-0.098-0.208-0.136-0.439-0.109-0.668
			c-0.261-0.069-0.539,0.001-0.735,0.188c-0.213,0.022-0.052-0.396-0.21-0.541c-0.077-0.047-0.169-0.064-0.257-0.048
			c-0.454,0.004-0.821-0.343-1.179-0.622c-0.62-0.483-1.344-0.813-2.115-0.965c-0.513-0.1-1.058-0.116-1.543,0.075
			c-0.393,0.176-0.747,0.427-1.042,0.739c-0.761,0.731-1.435,1.591-1.751,2.598c-0.258,0.825-0.265,1.707-0.021,2.536
			c0.127,0.431,0.512,1.905,1.074,1.939C21.499,32.404,21.074,31.177,21.955,31.125z"/>
		<path fill="#575A89" d="M23.485,36.98l1.325,0.141c0,0,1.3,2.523,1.205,3.049c-0.094,0.525-0.3,0.207,0.286,1.048
			c0.584,0.842,2.245,3.018,2.451,3.337c0.206,0.32,5.811-3.958,5.462-5.238c0,0,1.771,1.27,2.529,1.439
			c0,0-5.776,7.576-6.581,8.545c-0.806,0.97-1.453,0.771-2.56,0.196c-1.105-0.575-6.703-6.31-6.703-6.31L23.485,36.98z"/>
		<path opacity="0.1" enable-background="new    " d="M25.153,48.055l-4.604-4.604l1.165-0.379l3.323,4.29
			C25.074,47.593,25.114,47.824,25.153,48.055z"/>
	</g>
</g>
</svg>
