<?xml version="1.0" encoding="utf-8"?>
<!-- Generator: Adobe Illustrator 16.0.0, SVG Export Plug-In . SVG Version: 6.00 Build 0)  -->
<!DOCTYPE svg PUBLIC "-//W3C//DTD SVG 1.1//EN" "http://www.w3.org/Graphics/SVG/1.1/DTD/svg11.dtd">
<svg version="1.1" id="Capa_1" xmlns="http://www.w3.org/2000/svg" xmlns:xlink="http://www.w3.org/1999/xlink" x="0px" y="0px"
	 width="137.937px" height="97.353px" viewBox="0 0 137.937 97.353" enable-background="new 0 0 137.937 97.353"
	 xml:space="preserve">
<g>
	<path opacity="0.1" fill="#003459" enable-background="new    " d="M129.691,56.764c-4.854,6.652-3.244,16.153-0.445,23.72
		c0.939,2.532,2.007,5.213,1.519,7.969c-0.594,3.369-3.389,5.893-6.292,7.269c-5.296,2.504-11.552,2.105-16.29-1.053
		c-4.087-2.724-6.964-7.254-11.131-9.848c-6.974-4.342-16.029-2.403-23.789,0.913c-5.491,2.344-11.507,5.364-16.859,3.199
		c-3.764-1.523-6.301-5.401-7.634-9.549c-0.644-2-1.096-4.174-2.379-5.741c-0.762-0.932-1.771-1.58-2.809-2.124
		c-9.462-4.954-21.635-1.855-30.808-7.385C6.581,60.398,2.726,53.155,1.125,45.538c-1.603-7.617-1.206-15.656-0.568-23.56
		C1.011,16.361,1.728,10.36,5.105,5.947c3.569-4.668,9.556-6.524,14.909-5.793c5.352,0.733,10.15,3.71,14.349,7.253
		c5.251,4.429,10.082,9.987,16.613,11.664c4.447,1.145,9.173,0.335,13.796-0.023c7.73-0.597,15.433,0.089,23.088,0.867
		c7.328,0.742,14.707,1.572,21.647,4.008c4.913,1.726,8.805,4.985,13.429,7.21c3.014,1.453,6.331,1.791,9.167,3.666
		c3.5,2.31,6.665,6.402,5.637,11.314C136.771,50.782,132.269,53.231,129.691,56.764z"/>
	<g>
		<path fill="#FFFFFF" d="M71.536,23.921c-13.089-0.017-25.645,5.184-34.887,14.45c-0.785,0.785-1.54,1.592-2.264,2.42
			c-1.488,1.696-2.857,3.493-4.097,5.377c-0.357,0.543-0.704,1.094-1.04,1.651c-1.203,2.001-2.265,4.084-3.173,6.234
			c-0.1,0.235-0.197,0.471-0.292,0.706c-0.528,1.301-0.996,2.618-1.408,3.953c-1.057,3.424-1.733,6.953-2.018,10.526
			c-0.106,1.33-0.16,2.67-0.16,4.02v0.088h93.542V23.921H71.536z"/>
		<path fill="#3F3D56" d="M71.536,23.921c-13.089-0.017-25.645,5.184-34.887,14.45c-0.785,0.785-1.54,1.592-2.264,2.42
			c-1.488,1.696-2.857,3.493-4.097,5.377c-0.357,0.543-0.704,1.094-1.04,1.651c-1.203,2.001-2.265,4.084-3.173,6.234
			c-0.1,0.235-0.197,0.471-0.292,0.706c-0.528,1.301-0.996,2.618-1.408,3.953c-1.057,3.424-1.733,6.953-2.018,10.526
			c-0.106,1.33-0.16,2.67-0.16,4.02v0.088h93.542V23.921H71.536z M115.562,73.172H22.373c0.002-1.197,0.046-2.386,0.134-3.562
			c0.264-3.602,0.928-7.165,1.979-10.621c0.411-1.352,0.876-2.678,1.398-3.978c0.966-2.407,2.122-4.735,3.458-6.96
			c0.334-0.56,0.68-1.111,1.039-1.655c1.237-1.892,2.604-3.695,4.088-5.397c9.02-10.35,22.293-16.902,37.067-16.902h44.026V73.172z"
			/>
		<circle fill="#F2F2F2" cx="34.53" cy="71.36" r="1.906"/>
		<path fill="#3F3D56" d="M34.878,68.276c-1.422,0.001-2.575,1.154-2.576,2.578c0,0.013,0,0.027,0,0.041
			c0.017,0.972,0.577,1.849,1.448,2.276c0.151,0.074,0.31,0.133,0.473,0.176c0.43,0.112,0.882,0.112,1.312,0
			c0.164-0.043,0.322-0.102,0.474-0.176c1.28-0.623,1.812-2.167,1.188-3.447C36.766,68.838,35.866,68.276,34.878,68.276
			L34.878,68.276z M35.51,73.172c-0.206,0.056-0.417,0.085-0.631,0.083c-0.042,0-0.084,0-0.125-0.002h-0.001
			c-0.17-0.009-0.339-0.036-0.502-0.081c-0.704-0.193-1.282-0.693-1.573-1.361V71.81c-0.527-1.218,0.031-2.632,1.248-3.158
			c1.217-0.528,2.631,0.031,3.159,1.249c0.528,1.215-0.031,2.629-1.247,3.157C35.73,73.104,35.622,73.142,35.51,73.172z"/>
		<rect x="42.279" y="58.407" fill="#F2F2F2" width="14.27" height="2.534"/>
		<rect x="86.761" y="34.713" fill="#F2F2F2" width="14.27" height="2.534"/>
		<rect x="86.761" y="40.263" fill="#F2F2F2" width="14.27" height="2.533"/>
		<rect x="86.761" y="45.636" fill="#F2F2F2" width="14.27" height="2.533"/>
		<rect x="86.761" y="51.009" fill="#F2F2F2" width="14.27" height="2.532"/>
		<rect x="86.761" y="56.558" fill="#F2F2F2" width="14.27" height="2.534"/>
		<rect x="86.761" y="62.107" fill="#F2F2F2" width="14.27" height="2.533"/>
		<path fill="#3F3D56" d="M42.191,57.506v3.523h19.025v-3.523H42.191z M61.04,60.854H42.368v-3.171H61.04V60.854z"/>
		<circle fill="#3F3D56" cx="73.901" cy="37.688" r="0.881"/>
		<circle fill="#3F3D56" cx="73.901" cy="43.149" r="0.881"/>
		<circle fill="#3F3D56" cx="73.901" cy="48.609" r="0.881"/>
		<circle fill="#3F3D56" cx="73.901" cy="54.071" r="0.882"/>
		<circle fill="#3F3D56" cx="73.901" cy="59.532" r="0.881"/>
		<circle fill="#3F3D56" cx="73.901" cy="64.993" r="0.88"/>
		<rect x="81.829" y="37.6" fill="#3F3D56" width="24.133" height="0.176"/>
		<rect x="81.829" y="43.061" fill="#3F3D56" width="24.133" height="0.176"/>
		<rect x="81.829" y="48.521" fill="#3F3D56" width="24.133" height="0.177"/>
		<rect x="81.829" y="53.983" fill="#3F3D56" width="24.133" height="0.176"/>
		<rect x="81.829" y="59.443" fill="#3F3D56" width="24.133" height="0.176"/>
		<rect x="81.829" y="64.906" fill="#3F3D56" width="24.133" height="0.176"/>
		<path fill="#3F3D56" d="M110.311,70.007l-2.315-1.899l1.899-2.315l2.314,1.899L110.311,70.007z M108.244,68.083l2.041,1.677
			l1.678-2.043l-2.043-1.677L108.244,68.083z"/>
		<path fill="#3F3D56" d="M63.419,43.148c0.003,2.484-0.786,4.905-2.255,6.909c-0.168,0.229-0.343,0.452-0.527,0.669
			c-0.52,0.612-1.101,1.171-1.736,1.665c-0.062,0.05-0.127,0.099-0.192,0.147c-0.238,0.177-0.482,0.347-0.734,0.506
			c-0.077,0.049-0.153,0.095-0.23,0.143c-0.175,0.106-0.354,0.208-0.535,0.304c-0.089,0.048-0.18,0.094-0.269,0.14
			c-3.759,1.874-8.232,1.595-11.729-0.731c-0.092-0.059-0.182-0.121-0.271-0.185c-0.168-0.118-0.332-0.24-0.492-0.367
			c-0.148-0.118-0.293-0.238-0.435-0.36c-0.747-0.649-1.408-1.391-1.968-2.207c-0.11-0.159-0.215-0.32-0.318-0.485
			c-3.394-5.509-1.68-12.726,3.829-16.12c5.507-3.395,12.724-1.681,16.119,3.828C62.815,38.851,63.419,40.978,63.419,43.148z"/>
		<circle fill="#A0616A" cx="51.263" cy="39.379" r="3.191"/>
		<path fill="#A0616A" d="M49.068,40.908c0,0,1.064,2.394-0.399,3.325c-1.463,0.93,2.394,4.786,2.394,4.786l4.255-4.521
			c0,0-2.26-1.463-1.861-3.856L49.068,40.908z"/>
		<path fill="#A0616A" d="M58.901,52.392c-0.062,0.05-0.127,0.099-0.192,0.147c-0.238,0.177-0.482,0.347-0.734,0.506
			c-0.077,0.049-0.153,0.095-0.23,0.143l-0.033-0.179l0.307-0.159L58.901,52.392z"/>
		<path fill="#003459" d="M57.745,53.188c0.077-0.048,0.154-0.094,0.23-0.143l0.003-0.036l0.041-0.159l1.689-6.622l-5.12-2.355
			l-2.993,1.824l-2.68-1.654c0,0-1.575,0.058-1.975,0.457c-0.312,0.312-1.846,1.032-2.498,1.33
			c-0.182,0.083-0.294,0.133-0.294,0.133s0.1,3.018,0.301,6.386c0.16,0.127,0.323,0.249,0.492,0.368
			c0.089,0.062,0.179,0.125,0.271,0.184c3.496,2.328,7.97,2.605,11.729,0.731L57.745,53.188z"/>
		<path fill="#003459" d="M45.212,45.829v7.07c-0.092-0.059-0.182-0.121-0.271-0.185c-0.168-0.118-0.332-0.24-0.492-0.367
			c-0.148-0.118-0.293-0.238-0.435-0.36c-0.747-0.649-1.408-1.391-1.968-2.207c-0.11-0.159-0.215-0.32-0.318-0.485
			c0.086-0.283,0.184-0.597,0.291-0.939c0.665-2.128,2.128-2.526,2.128-2.526H45.212z"/>
		<path fill="#003459" d="M57.745,53.188c0.077-0.048,0.154-0.094,0.23-0.143c0.25-0.159,0.496-0.328,0.734-0.506
			c0.065-0.049,0.13-0.098,0.192-0.147c0.635-0.494,1.217-1.053,1.736-1.665c0.184-0.217,0.359-0.439,0.527-0.669
			c-0.542-1.693-1.457-3.83-1.457-3.83l-1.863-0.133c0,0-0.755,6.05-0.904,7.536L57.745,53.188z"/>
		<path fill="#2F2E41" d="M49.306,35.685c-0.16,0.135-0.326,0.263-0.499,0.382c-0.218,0.181-0.419,0.381-0.603,0.598l-0.206,0.23
			c-0.175,0.195-0.36,0.419-0.354,0.682c0.003,0.097,0.033,0.192,0.044,0.289c0.048,0.384-0.188,0.807,0.005,1.142
			c0.056,0.097,0.143,0.172,0.204,0.266c0.079,0.12,0.114,0.263,0.099,0.405c0.207,0.008,0.378-0.178,0.443-0.375
			c0.065-0.197,0.057-0.41,0.088-0.616c0.032-0.205,0.121-0.422,0.308-0.515c0.396-0.195,0.855,0.312,1.28,0.186
			c0.296-0.088,0.454-0.456,0.757-0.518c0.217-0.044,0.427,0.085,0.628,0.176c0.202,0.092,0.474,0.134,0.617-0.036
			c0.095-0.112,0.104-0.292,0.23-0.368c0.149-0.091,0.338,0.036,0.453,0.17c0.113,0.134,0.239,0.297,0.415,0.293
			c0.233-0.007,0.412-0.317,0.634-0.243c0.25,0.083,0.134,0.482,0.286,0.698c0.128,0.182,0.397,0.171,0.617,0.141
			c0.122,0.012,0.23-0.076,0.242-0.197c0.004-0.033,0-0.066-0.012-0.098l-0.092-1.222c0-0.084-0.019-0.167-0.054-0.244
			c-0.064-0.116-0.197-0.175-0.288-0.271c-0.19-0.205-0.181-0.563-0.417-0.712c-0.122-0.078-0.283-0.076-0.404-0.153
			c-0.156-0.101-0.208-0.303-0.316-0.453c-0.157-0.216-0.43-0.314-0.694-0.342c-0.264-0.027-0.53,0.006-0.796-0.003
			c-0.541-0.018-1.081-0.17-1.622-0.081C49.826,34.974,49.626,35.375,49.306,35.685z"/>
	</g>
</g>
</svg>
